<svg width="100" height="100" viewBox="0 0 100 100" fill="none" xmlns="http://www.w3.org/2000/svg">
<g clip-path="url(#clip0_13_15)">
<rect width="100" height="100" fill="#DCF5FF"/>
<path d="M-32 80.25L-30.875 79.3694L-30.75 79.2723L-30.625 79.1754L-30.5 79.0789L-30.375 78.9826L-30.25 78.8866L-30.125 78.791L-30 78.6957L-29.875 78.6008L-29.75 78.5063L-29.625 78.4122L-29.5 78.3186L-29.375 78.2255L-29.25 78.1329L-29.125 78.0408L-29 77.9492L-28.875 77.8582L-28.75 77.7678L-28.625 77.678L-28.5 77.5889L-28.375 77.5004L-28.25 77.4126L-28.125 77.3254L-28 77.239L-27.875 77.1534L-27.75 77.0685L-27.625 76.9844L-27.5 76.9011L-27.375 76.8186L-27.25 76.737L-27.125 76.6562L-27 76.5763L-26.875 76.4974L-26.75 76.4193L-26.625 76.3422L-26.5 76.2661L-26.375 76.1909L-26.25 76.1168L-26.125 76.0437L-26 75.9716L-25.875 75.9005L-25.75 75.8306L-25.625 75.7617L-25.5 75.6939L-25.375 75.6273L-25.25 75.5618L-25.125 75.4975L-25 75.4343L-24.875 75.3723L-24.75 75.3115L-24.625 75.252L-24.5 75.1936L-24.375 75.1366L-24.25 75.0807L-24.125 75.0262L-24 74.973L-23.875 74.921L-23.75 74.8704L-23.625 74.8211L-23.5 74.7731L-23.375 74.7265L-23.25 74.6812L-23.125 74.6373L-23 74.5948L-22.875 74.5537L-22.75 74.514L-22.625 74.4758L-22.5 74.4389L-22.375 74.4035L-22.25 74.3695L-22.125 74.337L-22 74.3059L-21.875 74.2763L-21.75 74.2482L-21.625 74.2215L-21.5 74.1964L-21.375 74.1727L-21.25 74.1505L-21.125 74.1299L-21 74.1107L-20.875 74.0931L-20.75 74.0769L-20.625 74.0624L-20.5 74.0493L-20.375 74.0377L-20.25 74.0277L-20.125 74.0193L-20 74.0123L-19.875 74.0069L-19.75 74.0031L-19.625 74.0008L-19.5 74L-19.375 74.0008L-19.25 74.0031L-19.125 74.0069L-19 74.0123L-18.875 74.0193L-18.75 74.0277L-18.625 74.0377L-18.5 74.0493L-18.375 74.0624L-18.25 74.0769L-18.125 74.0931L-18 74.1107L-17.875 74.1299L-17.75 74.1505L-17.625 74.1727L-17.5 74.1964L-17.375 74.2215L-17.25 74.2482L-17.125 74.2763L-17 74.3059L-16.875 74.337L-16.75 74.3695L-16.625 74.4035L-16.5 74.4389L-16.375 74.4758L-16.25 74.514L-16.125 74.5537L-16 74.5948L-15.875 74.6373L-15.75 74.6812L-15.625 74.7265L-15.5 74.7731L-15.375 74.8211L-15.25 74.8704L-15.125 74.921L-15 74.973L-14.875 75.0262L-14.75 75.0807L-14.625 75.1366L-14.5 75.1936L-14.375 75.252L-14.25 75.3115L-14.125 75.3723L-14 75.4343L-13.875 75.4975L-13.75 75.5618L-13.625 75.6273L-13.5 75.6939L-13.375 75.7617L-13.25 75.8306L-13.125 75.9005L-13 75.9716L-12.875 76.0437L-12.75 76.1168L-12.625 76.1909L-12.5 76.2661L-12.375 76.3422L-12.25 76.4193L-12.125 76.4974L-12 76.5763L-11.875 76.6562L-11.75 76.737L-11.625 76.8186L-11.5 76.9011L-11.375 76.9844L-11.25 77.0685L-11.125 77.1534L-11 77.239L-10.875 77.3254L-10.75 77.4126L-10.625 77.5004L-10.5 77.5889L-10.375 77.678L-10.25 77.7678L-10.125 77.8582L-10 77.9492L-9.875 78.0408L-9.75 78.1329L-9.625 78.2255L-9.5 78.3186L-9.375 78.4122L-9.25 78.5063L-9.125 78.6008L-9 78.6957L-8.875 78.791L-8.75 78.8866L-8.625 78.9826L-8.5 79.0789L-8.375 79.1754L-8.25 79.2723L-8.125 79.3694L-5.875 81.1306L-5.75 81.2277L-5.625 81.3246L-5.5 81.4211L-5.375 81.5174L-5.25 81.6134L-5.125 81.709L-5 81.8043L-4.875 81.8992L-4.75 81.9937L-4.625 82.0878L-4.5 82.1814L-4.375 82.2745L-4.25 82.3671L-4.125 82.4592L-4 82.5508L-3.875 82.6418L-3.75 82.7322L-3.625 82.822L-3.5 82.9111L-3.375 82.9996L-3.25 83.0874L-3.125 83.1746L-3 83.261L-2.875 83.3466L-2.75 83.4315L-2.625 83.5156L-2.5 83.5989L-2.375 83.6814L-2.25 83.763L-2.125 83.8438L-2 83.9237L-1.875 84.0026L-1.75 84.0807L-1.625 84.1578L-1.5 84.2339L-1.375 84.309L-1.25 84.3832L-1.125 84.4563L-1 84.5284L-0.875 84.5995L-0.75 84.6694L-0.625 84.7383L-0.5 84.8061L-0.375 84.8727L-0.25 84.9382L-0.125 85.0025L0 85.0657L0.125 85.1277L0.25 85.1885L0.375 85.248L0.5 85.3064L0.625 85.3634L0.75 85.4193L0.875 85.4738L1 85.5271L1.125 85.579L1.25 85.6296L1.375 85.6789L1.5 85.7269L1.625 85.7735L1.75 85.8188L1.875 85.8627L2 85.9052L2.125 85.9463L2.25 85.986L2.375 86.0242L2.5 86.0611L2.625 86.0965L2.75 86.1305L2.875 86.163L3 86.1941L3.125 86.2237L3.25 86.2518L3.375 86.2785L3.5 86.3036L3.625 86.3273L3.75 86.3495L3.875 86.3701L4 86.3893L4.125 86.4069L4.25 86.4231L4.375 86.4376L4.5 86.4507L4.625 86.4623L4.75 86.4723L4.875 86.4807L5 86.4877L5.125 86.4931L5.25 86.4969L5.375 86.4992L5.5 86.5L5.625 86.4992L5.75 86.4969L5.875 86.4931L6 86.4877L6.125 86.4807L6.25 86.4723L6.375 86.4623L6.5 86.4507L6.625 86.4376L6.75 86.4231L6.875 86.4069L7 86.3893L7.125 86.3701L7.25 86.3495L7.375 86.3273L7.5 86.3036L7.625 86.2785L7.75 86.2518L7.875 86.2237L8 86.1941L8.125 86.163L8.25 86.1305L8.375 86.0965L8.5 86.0611L8.625 86.0242L8.75 85.986L8.875 85.9463L9 85.9052L9.125 85.8627L9.25 85.8188L9.375 85.7735L9.5 85.7269L9.625 85.6789L9.75 85.6296L9.875 85.579L10 85.5271L10.125 85.4738L10.25 85.4193L10.375 85.3634L10.5 85.3064L10.625 85.248L10.75 85.1885L10.875 85.1277L11 85.0657L11.125 85.0025L11.25 84.9382L11.375 84.8727L11.5 84.8061L11.625 84.7383L11.75 84.6694L11.875 84.5995L12 84.5284L12.125 84.4563L12.25 84.3832L12.375 84.309L12.5 84.2339L12.625 84.1578L12.75 84.0807L12.875 84.0026L13 83.9237L13.125 83.8438L13.25 83.763L13.375 83.6814L13.5 83.5989L13.625 83.5156L13.75 83.4315L13.875 83.3466L14 83.261L14.125 83.1746L14.25 83.0874L14.375 82.9996L14.5 82.9111L14.625 82.822L14.75 82.7322L14.875 82.6418L15 82.5508L15.125 82.4592L15.25 82.3671L15.375 82.2745L15.5 82.1814L15.625 82.0878L15.75 81.9937L15.875 81.8992L16 81.8043L16.125 81.709L16.25 81.6134L16.375 81.5174L16.5 81.4211L16.625 81.3246L16.75 81.2277L16.875 81.1306L19.125 79.3694L19.25 79.2723L19.375 79.1754L19.5 79.0789L19.625 78.9826L19.75 78.8866L19.875 78.791L20 78.6957L20.125 78.6008L20.25 78.5063L20.375 78.4122L20.5 78.3186L20.625 78.2255L20.75 78.1329L20.875 78.0408L21 77.9492L21.125 77.8582L21.25 77.7678L21.375 77.678L21.5 77.5889L21.625 77.5004L21.75 77.4126L21.875 77.3254L22 77.239L22.125 77.1534L22.25 77.0685L22.375 76.9844L22.5 76.9011L22.625 76.8186L22.75 76.737L22.875 76.6562L23 76.5763L23.125 76.4974L23.25 76.4193L23.375 76.3422L23.5 76.2661L23.625 76.1909L23.75 76.1168L23.875 76.0437L24 75.9716L24.125 75.9005L24.25 75.8306L24.375 75.7617L24.5 75.6939L24.625 75.6273L24.75 75.5618L24.875 75.4975L25 75.4343L25.125 75.3723L25.25 75.3115L25.375 75.252L25.5 75.1936L25.625 75.1366L25.75 75.0807L25.875 75.0262L26 74.973L26.125 74.921L26.25 74.8704L26.375 74.8211L26.5 74.7731L26.625 74.7265L26.75 74.6812L26.875 74.6373L27 74.5948L27.125 74.5537L27.25 74.514L27.375 74.4758L27.5 74.4389L27.625 74.4035L27.75 74.3695L27.875 74.337L28 74.3059L28.125 74.2763L28.25 74.2482L28.375 74.2215L28.5 74.1964L28.625 74.1727L28.75 74.1505L28.875 74.1299L29 74.1107L29.125 74.0931L29.25 74.0769L29.375 74.0624L29.5 74.0493L29.625 74.0377L29.75 74.0277L29.875 74.0193L30 74.0123L30.125 74.0069L30.25 74.0031L30.375 74.0008L30.5 74L30.625 74.0008L30.75 74.0031L30.875 74.0069L31 74.0123L31.125 74.0193L31.25 74.0277L31.375 74.0377L31.5 74.0493L31.625 74.0624L31.75 74.0769L31.875 74.0931L32 74.1107L32.125 74.1299L32.25 74.1505L32.375 74.1727L32.5 74.1964L32.625 74.2215L32.75 74.2482L32.875 74.2763L33 74.3059L33.125 74.337L33.25 74.3695L33.375 74.4035L33.5 74.4389L33.625 74.4758L33.75 74.514L33.875 74.5537L34 74.5948L34.125 74.6373L34.25 74.6812L34.375 74.7265L34.5 74.7731L34.625 74.8211L34.75 74.8704L34.875 74.921L35 74.973L35.125 75.0262L35.25 75.0807L35.375 75.1366L35.5 75.1936L35.625 75.252L35.75 75.3115L35.875 75.3723L36 75.4343L36.125 75.4975L36.25 75.5618L36.375 75.6273L36.5 75.6939L36.625 75.7617L36.75 75.8306L36.875 75.9005L37 75.9716L37.125 76.0437L37.25 76.1168L37.375 76.1909L37.5 76.2661L37.625 76.3422L37.75 76.4193L37.875 76.4974L38 76.5763L38.125 76.6562L38.25 76.737L38.375 76.8186L38.5 76.9011L38.625 76.9844L38.75 77.0685L38.875 77.1534L39 77.239L39.125 77.3254L39.25 77.4126L39.375 77.5004L39.5 77.5889L39.625 77.678L39.75 77.7678L39.875 77.8582L40 77.9492L40.125 78.0408L40.25 78.1329L40.375 78.2255L40.5 78.3186L40.625 78.4122L40.75 78.5063L40.875 78.6008L41 78.6957L41.125 78.791L41.25 78.8866L41.375 78.9826L41.5 79.0789L41.625 79.1754L41.75 79.2723L41.875 79.3694L44.125 81.1306L44.25 81.2277L44.375 81.3246L44.5 81.4211L44.625 81.5174L44.75 81.6134L44.875 81.709L45 81.8043L45.125 81.8992L45.25 81.9937L45.375 82.0878L45.5 82.1814L45.625 82.2745L45.75 82.3671L45.875 82.4592L46 82.5508L46.125 82.6418L46.25 82.7322L46.375 82.822L46.5 82.9111L46.625 82.9996L46.75 83.0874L46.875 83.1746L47 83.261L47.125 83.3466L47.25 83.4315L47.375 83.5156L47.5 83.5989L47.625 83.6814L47.75 83.763L47.875 83.8438L48 83.9237L48.125 84.0026L48.25 84.0807L48.375 84.1578L48.5 84.2339L48.625 84.309L48.75 84.3832L48.875 84.4563L49 84.5284L49.125 84.5995L49.25 84.6694L49.375 84.7383L49.5 84.8061L49.625 84.8727L49.75 84.9382L49.875 85.0025L50 85.0657L50.125 85.1277L50.25 85.1885L50.375 85.248L50.5 85.3064L50.625 85.3634L50.75 85.4193L50.875 85.4738L51 85.5271L51.125 85.579L51.25 85.6296L51.375 85.6789L51.5 85.7269L51.625 85.7735L51.75 85.8188L51.875 85.8627L52 85.9052L52.125 85.9463L52.25 85.986L52.375 86.0242L52.5 86.0611L52.625 86.0965L52.75 86.1305L52.875 86.163L53 86.1941L53.125 86.2237L53.25 86.2518L53.375 86.2785L53.5 86.3036L53.625 86.3273L53.75 86.3495L53.875 86.3701L54 86.3893L54.125 86.4069L54.25 86.4231L54.375 86.4376L54.5 86.4507L54.625 86.4623L54.75 86.4723L54.875 86.4807L55 86.4877L55.125 86.4931L55.25 86.4969L55.375 86.4992L55.5 86.5L55.625 86.4992L55.75 86.4969L55.875 86.4931L56 86.4877L56.125 86.4807L56.25 86.4723L56.375 86.4623L56.5 86.4507L56.625 86.4376L56.75 86.4231L56.875 86.4069L57 86.3893L57.125 86.3701L57.25 86.3495L57.375 86.3273L57.5 86.3036L57.625 86.2785L57.75 86.2518L57.875 86.2237L58 86.1941L58.125 86.163L58.25 86.1305L58.375 86.0965L58.5 86.0611L58.625 86.0242L58.75 85.986L58.875 85.9463L59 85.9052L59.125 85.8627L59.25 85.8188L59.375 85.7735L59.5 85.7269L59.625 85.6789L59.75 85.6296L59.875 85.579L60 85.5271L60.125 85.4738L60.25 85.4193L60.375 85.3634L60.5 85.3064L60.625 85.248L60.75 85.1885L60.875 85.1277L61 85.0657L61.125 85.0025L61.25 84.9382L61.375 84.8727L61.5 84.8061L61.625 84.7383L61.75 84.6694L61.875 84.5995L62 84.5284L62.125 84.4563L62.25 84.3832L62.375 84.309L62.5 84.2339L62.625 84.1578L62.75 84.0807L62.875 84.0026L63 83.9237L63.125 83.8438L63.25 83.763L63.375 83.6814L63.5 83.5989L63.625 83.5156L63.75 83.4315L63.875 83.3466L64 83.261L64.125 83.1746L64.25 83.0874L64.375 82.9996L64.5 82.9111L64.625 82.822L64.75 82.7322L64.875 82.6418L65 82.5508L65.125 82.4592L65.25 82.3671L65.375 82.2745L65.5 82.1814L65.625 82.0878L65.75 81.9937L65.875 81.8992L66 81.8043L66.125 81.709L66.25 81.6134L66.375 81.5174L66.5 81.4211L66.625 81.3246L66.75 81.2277L66.875 81.1306L68 80.25L69.125 79.3694L69.25 79.2723L69.375 79.1754L69.5 79.0789L69.625 78.9826L69.75 78.8866L69.875 78.791L70 78.6957L70.125 78.6008L70.25 78.5063L70.375 78.4122L70.5 78.3186L70.625 78.2255L70.75 78.1329L70.875 78.0408L71 77.9492L71.125 77.8582L71.25 77.7678L71.375 77.678L71.5 77.5889L71.625 77.5004L71.75 77.4126L71.875 77.3254L72 77.239L72.125 77.1534L72.25 77.0685L72.375 76.9844L72.5 76.9011L72.625 76.8186L72.75 76.737L72.875 76.6562L73 76.5763L73.125 76.4974L73.25 76.4193L73.375 76.3422L73.5 76.2661L73.625 76.1909L73.75 76.1168L73.875 76.0437L74 75.9716L74.125 75.9005L74.25 75.8306L74.375 75.7617L74.5 75.6939L74.625 75.6273L74.75 75.5618L74.875 75.4975L75 75.4343L75.125 75.3723L75.25 75.3115L75.375 75.252L75.5 75.1936L75.625 75.1366L75.75 75.0807L75.875 75.0262L76 74.973L76.125 74.921L76.25 74.8704L76.375 74.8211L76.5 74.7731L76.625 74.7265L76.75 74.6812L76.875 74.6373L77 74.5948L77.125 74.5537L77.25 74.514L77.375 74.4758L77.5 74.4389L77.625 74.4035L77.75 74.3695L77.875 74.337L78 74.3059L78.125 74.2763L78.25 74.2482L78.375 74.2215L78.5 74.1964L78.625 74.1727L78.75 74.1505L78.875 74.1299L79 74.1107L79.125 74.0931L79.25 74.0769L79.375 74.0624L79.5 74.0493L79.625 74.0377L79.75 74.0277L79.875 74.0193L80 74.0123L80.125 74.0069L80.25 74.0031L80.375 74.0008L80.5 74L80.625 74.0008L80.75 74.0031L80.875 74.0069L81 74.0123L81.125 74.0193L81.25 74.0277L81.375 74.0377L81.5 74.0493L81.625 74.0624L81.75 74.0769L81.875 74.0931L82 74.1107L82.125 74.1299L82.25 74.1505L82.375 74.1727L82.5 74.1964L82.625 74.2215L82.75 74.2482L82.875 74.2763L83 74.3059L83.125 74.337L83.25 74.3695L83.375 74.4035L83.5 74.4389L83.625 74.4758L83.75 74.514L83.875 74.5537L84 74.5948L84.125 74.6373L84.25 74.6812L84.375 74.7265L84.5 74.7731L84.625 74.8211L84.75 74.8704L84.875 74.921L85 74.973L85.125 75.0262L85.25 75.0807L85.375 75.1366L85.5 75.1936L85.625 75.252L85.75 75.3115L85.875 75.3723L86 75.4343L86.125 75.4975L86.25 75.5618L86.375 75.6273L86.5 75.6939L86.625 75.7617L86.75 75.8306L86.875 75.9005L87 75.9716L87.125 76.0437L87.25 76.1168L87.375 76.1909L87.5 76.2661L87.625 76.3422L87.75 76.4193L87.875 76.4974L88 76.5763L88.125 76.6562L88.25 76.737L88.375 76.8186L88.5 76.9011L88.625 76.9844L88.75 77.0685L88.875 77.1534L89 77.239L89.125 77.3254L89.25 77.4126L89.375 77.5004L89.5 77.5889L89.625 77.678L89.75 77.7678L89.875 77.8582L90 77.9492L90.125 78.0408L90.25 78.1329L90.375 78.2255L90.5 78.3186L90.625 78.4122L90.75 78.5063L90.875 78.6008L91 78.6957L91.125 78.791L91.25 78.8866L91.375 78.9826L91.5 79.0789L91.625 79.1754L91.75 79.2723L91.875 79.3694L94.125 81.1306L94.25 81.2277L94.375 81.3246L94.5 81.4211L94.625 81.5174L94.75 81.6134L94.875 81.709L95 81.8043L95.125 81.8992L95.25 81.9937L95.375 82.0878L95.5 82.1814L95.625 82.2745L95.75 82.3671L95.875 82.4592L96 82.5508L96.125 82.6418L96.25 82.7322L96.375 82.822L96.5 82.9111L96.625 82.9996L96.75 83.0874L96.875 83.1746L97 83.261L97.125 83.3466L97.25 83.4315L97.375 83.5156L97.5 83.5989L97.625 83.6814L97.75 83.763L97.875 83.8438L98 83.9237L98.125 84.0026L98.25 84.0807L98.375 84.1578L98.5 84.2339L98.625 84.309L98.75 84.3832L98.875 84.4563L99 84.5284L99.125 84.5995L99.25 84.6694L99.375 84.7383L99.5 84.8061L99.625 84.8727L99.75 84.9382L99.875 85.0025L100 85.0657L100.125 85.1277L100.25 85.1885L100.375 85.248L100.5 85.3064L100.625 85.3634L100.75 85.4193L100.875 85.4738L101 85.5271L101.125 85.579L101.25 85.6296L101.375 85.6789L101.5 85.7269L101.625 85.7735L101.75 85.8188L101.875 85.8627L102 85.9052L102.125 85.9463L102.25 85.986L102.375 86.0242L102.5 86.0611L102.625 86.0965L102.75 86.1305L102.875 86.163L103 86.1941L103.125 86.2237L103.25 86.2518L103.375 86.2785L103.5 86.3036L103.625 86.3273L103.75 86.3495L103.875 86.3701L104 86.3893L104.125 86.4069L104.25 86.4231L104.375 86.4376L104.5 86.4507L104.625 86.4623L104.75 86.4723L104.875 86.4807L105 86.4877L105.125 86.4931L105.25 86.4969L105.375 86.4992L105.5 86.5L105.625 86.4992L105.75 86.4969L105.875 86.4931L106 86.4877L106.125 86.4807L106.25 86.4723L106.375 86.4623L106.5 86.4507L106.625 86.4376L106.75 86.4231L106.875 86.4069L107 86.3893L107.125 86.3701L107.25 86.3495L107.375 86.3273L107.5 86.3036L107.625 86.2785L107.75 86.2518L107.875 86.2237L108 86.1941L108.125 86.163L108.25 86.1305L108.375 86.0965L108.5 86.0611L108.625 86.0242L108.75 85.986L108.875 85.9463L109 85.9052L109.125 85.8627L109.25 85.8188L109.375 85.7735L109.5 85.7269L109.625 85.6789L109.75 85.6296L109.875 85.579L110 85.5271L110.125 85.4738L110.25 85.4193L110.375 85.3634L110.5 85.3064L110.625 85.248L110.75 85.1885L110.875 85.1277L111 85.0657L111.125 85.0025L111.25 84.9382L111.375 84.8727L111.5 84.8061L111.625 84.7383L111.75 84.6694L111.875 84.5995L112 84.5284L112.125 84.4563L112.25 84.3832L112.375 84.309L112.5 84.2339L112.625 84.1578L112.75 84.0807L112.875 84.0026L113 83.9237L113.125 83.8438L113.25 83.763L113.375 83.6814L113.5 83.5989L113.625 83.5156L113.75 83.4315L113.875 83.3466L114 83.261L114.125 83.1746L114.25 83.0874L114.375 82.9996L114.5 82.9111L114.625 82.822L114.75 82.7322L114.875 82.6418L115 82.5508L115.125 82.4592L115.25 82.3671L115.375 82.2745L115.5 82.1814L115.625 82.0878L115.75 81.9937L115.875 81.8992L116 81.8043L116.125 81.709L116.25 81.6134L116.375 81.5174L116.5 81.4211L116.625 81.3246L116.75 81.2277L116.875 81.1306L119.125 79.3694L119.25 79.2723L119.375 79.1754L119.5 79.0789L119.625 78.9826L119.75 78.8866L119.875 78.791L120 78.6957L120.125 78.6008L120.25 78.5063L120.375 78.4122L120.5 78.3186L120.625 78.2255L120.75 78.1329L120.875 78.0408L121 77.9492L121.125 77.8582L121.25 77.7678L121.375 77.678L121.5 77.5889L121.625 77.5004L121.75 77.4126L121.875 77.3254L122 77.239L122.125 77.1534L122.25 77.0685L122.375 76.9844L122.5 76.9011L122.625 76.8186L122.75 76.737L122.875 76.6562L123 76.5763L123.125 76.4974L123.25 76.4193L123.375 76.3422L123.5 76.2661L123.625 76.1909L123.75 76.1168L123.875 76.0437L124 75.9716L124.125 75.9005L124.25 75.8306L124.375 75.7617L124.5 75.6939L124.625 75.6273L124.75 75.5618L124.875 75.4975L125 75.4343L125.125 75.3723L125.25 75.3115L125.375 75.252L125.5 75.1936L125.625 75.1366L125.75 75.0807L125.875 75.0262L126 74.973L126.125 74.921L126.25 74.8704L126.375 74.8211L126.5 74.7731L126.625 74.7265L126.75 74.6812L126.875 74.6373L127 74.5948L127.125 74.5537L127.25 74.514L127.375 74.4758L127.5 74.4389L127.625 74.4035L127.75 74.3695L127.875 74.337L128 74.3059L128.125 74.2763L128.25 74.2482L128.375 74.2215L128.5 74.1964L128.625 74.1727L128.75 74.1505L128.875 74.1299L129 74.1107L129.125 74.0931L129.25 74.0769L129.375 74.0624L129.5 74.0493L129.625 74.0377L129.75 74.0277L129.875 74.0193L130 74.0123L130.125 74.0069L130.25 74.0031L130.375 74.0008L130.5 74L130.625 74.0008L130.75 74.0031L130.875 74.0069L131 74.0123L131.125 74.0193L131.25 74.0277L131.375 74.0377L131.5 74.0493L131.625 74.0624L131.75 74.0769L131.875 74.0931L132 74.1107L132.125 74.1299L132.25 74.1505L132.375 74.1727L132.5 74.1964L132.625 74.2215L132.75 74.2482L132.875 74.2763L133 74.3059L133.125 74.337L133.25 74.3695L133.375 74.4035L133.5 74.4389L133.625 74.4758L133.75 74.514L133.875 74.5537L134 74.5948L134.125 74.6373L134.25 74.6812L134.375 74.7265L134.5 74.7731L134.625 74.8211L134.75 74.8704L134.875 74.921L135 74.973L135.125 75.0262L135.25 75.0807L135.375 75.1366L135.5 75.1936L135.625 75.252L135.75 75.3115L135.875 75.3723L136 75.4343L136.125 75.4975L136.25 75.5618L136.375 75.6273L136.5 75.6939L136.625 75.7617L136.75 75.8306L136.875 75.9005L137 75.9716L137.125 76.0437L137.25 76.1168L137.375 76.1909L137.5 76.2661L137.625 76.3422L137.75 76.4193L137.875 76.4974L138 76.5763L138.125 76.6562L138.25 76.737L138.375 76.8186L138.5 76.9011L138.625 76.9844L138.75 77.0685L138.875 77.1534L139 77.239L139.125 77.3254L139.25 77.4126L139.375 77.5004L139.5 77.5889L139.625 77.678L139.75 77.7678L139.875 77.8582L140 77.9492L140.125 78.0408L140.25 78.1329L140.375 78.2255L140.5 78.3186L140.625 78.4122L140.75 78.5063L140.875 78.6008L141 78.6957L141.125 78.791L141.25 78.8866L141.375 78.9826L141.5 79.0789L141.625 79.1754L141.75 79.2723L141.875 79.3694L144.125 81.1306L144.25 81.2277L144.375 81.3246L144.5 81.4211L144.625 81.5174L144.75 81.6134L144.875 81.709L145 81.8043L145.125 81.8992L145.25 81.9937L145.375 82.0878L145.5 82.1814L145.625 82.2745L145.75 82.3671L145.875 82.4592L146 82.5508L146.125 82.6418L146.25 82.7322L146.375 82.822L146.5 82.9111L146.625 82.9996L146.75 83.0874L146.875 83.1746L147 83.261L147.125 83.3466L147.25 83.4315L147.375 83.5156L147.5 83.5989L147.625 83.6814L147.75 83.763L147.875 83.8438L148 83.9237L148.125 84.0026L148.25 84.0807L148.375 84.1578L148.5 84.2339L148.625 84.309L148.75 84.3832L148.875 84.4563L149 84.5284L149.125 84.5995L149.25 84.6694L149.375 84.7383L149.5 84.8061L149.625 84.8727L149.75 84.9382L149.875 85.0025L150 85.0657L150.125 85.1277L150.25 85.1885L150.375 85.248L150.5 85.3064L150.625 85.3634L150.75 85.4193L150.875 85.4738L151 85.5271L151.125 85.579L151.25 85.6296L151.375 85.6789L151.5 85.7269L151.625 85.7735L151.75 85.8188L151.875 85.8627L152 85.9052L152.125 85.9463L152.25 85.986L152.375 86.0242L152.5 86.0611L152.625 86.0965L152.75 86.1305L152.875 86.163L153 86.1941L153.125 86.2237L153.25 86.2518L153.375 86.2785L153.5 86.3036L153.625 86.3273L153.75 86.3495L153.875 86.3701L154 86.3893L154.125 86.4069L154.25 86.4231L154.375 86.4376L154.5 86.4507L154.625 86.4623L154.75 86.4723L154.875 86.4807L155 86.4877L155.125 86.4931L155.25 86.4969L155.375 86.4992L155.5 86.5L155.625 86.4992L155.75 86.4969L155.875 86.4931L156 86.4877L156.125 86.4807L156.25 86.4723L156.375 86.4623L156.5 86.4507L156.625 86.4376L156.75 86.4231L156.875 86.4069L157 86.3893L157.125 86.3701L157.25 86.3495L157.375 86.3273L157.5 86.3036L157.625 86.2785L157.75 86.2518L157.875 86.2237L158 86.1941L158.125 86.163L158.25 86.1305L158.375 86.0965L158.5 86.0611L158.625 86.0242L158.75 85.986L158.875 85.9463L159 85.9052L159.125 85.8627L159.25 85.8188L159.375 85.7735L159.5 85.7269L159.625 85.6789L159.75 85.6296L159.875 85.579L160 85.5271L160.125 85.4738L160.25 85.4193L160.375 85.3634L160.5 85.3064L160.625 85.248L160.75 85.1885L160.875 85.1277L161 85.0657L161.125 85.0025L161.25 84.9382L161.375 84.8727L161.5 84.8061L161.625 84.7383L161.75 84.6694L161.875 84.5995L162 84.5284L162.125 84.4563L162.25 84.3832L162.375 84.309L162.5 84.2339L162.625 84.1578L162.75 84.0807L162.875 84.0026L163 83.9237L163.125 83.8438L163.25 83.763L163.375 83.6814L163.5 83.5989L163.625 83.5156L163.75 83.4315L163.875 83.3466L164 83.261L164.125 83.1746L164.25 83.0874L164.375 82.9996L164.5 82.9111L164.625 82.822L164.75 82.7322L164.875 82.6418L165 82.5508L165.125 82.4592L165.25 82.3671L165.375 82.2745L165.5 82.1814L165.625 82.0878L165.75 81.9937L165.875 81.8992L166 81.8043L166.125 81.709L166.25 81.6134L166.375 81.5174L166.5 81.4211L166.625 81.3246L166.75 81.2277L166.875 81.1306L167.875 80.3482" stroke="#D3EEF8" stroke-width="8" stroke-miterlimit="10" stroke-linecap="round" stroke-linejoin="round"/>
<path d="M-16 51.75L-14.875 50.8694L-14.75 50.7723L-14.625 50.6754L-14.5 50.5789L-14.375 50.4826L-14.25 50.3866L-14.125 50.291L-14 50.1957L-13.875 50.1008L-13.75 50.0063L-13.625 49.9122L-13.5 49.8186L-13.375 49.7255L-13.25 49.6329L-13.125 49.5408L-13 49.4492L-12.875 49.3582L-12.75 49.2678L-12.625 49.178L-12.5 49.0889L-12.375 49.0004L-12.25 48.9126L-12.125 48.8254L-12 48.739L-11.875 48.6534L-11.75 48.5685L-11.625 48.4844L-11.5 48.4011L-11.375 48.3186L-11.25 48.237L-11.125 48.1562L-11 48.0763L-10.875 47.9974L-10.75 47.9193L-10.625 47.8422L-10.5 47.7661L-10.375 47.6909L-10.25 47.6168L-10.125 47.5437L-10 47.4716L-9.875 47.4005L-9.75 47.3306L-9.625 47.2617L-9.5 47.1939L-9.375 47.1273L-9.25 47.0618L-9.125 46.9975L-9 46.9343L-8.875 46.8723L-8.75 46.8115L-8.625 46.752L-8.5 46.6936L-8.375 46.6366L-8.25 46.5807L-8.125 46.5262L-8 46.473L-7.875 46.421L-7.75 46.3704L-7.625 46.3211L-7.5 46.2731L-7.375 46.2265L-7.25 46.1812L-7.125 46.1373L-7 46.0948L-6.875 46.0537L-6.75 46.014L-6.625 45.9758L-6.5 45.9389L-6.375 45.9035L-6.25 45.8695L-6.125 45.837L-6 45.8059L-5.875 45.7763L-5.75 45.7482L-5.625 45.7215L-5.5 45.6964L-5.375 45.6727L-5.25 45.6505L-5.125 45.6299L-5 45.6107L-4.875 45.5931L-4.75 45.5769L-4.625 45.5624L-4.5 45.5493L-4.375 45.5377L-4.25 45.5277L-4.125 45.5193L-4 45.5123L-3.875 45.5069L-3.75 45.5031L-3.625 45.5008L-3.5 45.5L-3.375 45.5008L-3.25 45.5031L-3.125 45.5069L-3 45.5123L-2.875 45.5193L-2.75 45.5277L-2.625 45.5377L-2.5 45.5493L-2.375 45.5624L-2.25 45.5769L-2.125 45.5931L-2 45.6107L-1.875 45.6299L-1.75 45.6505L-1.625 45.6727L-1.5 45.6964L-1.375 45.7215L-1.25 45.7482L-1.125 45.7763L-1 45.8059L-0.875 45.837L-0.75 45.8695L-0.625 45.9035L-0.5 45.9389L-0.375 45.9758L-0.25 46.014L-0.125 46.0537L0 46.0948L0.125 46.1373L0.25 46.1812L0.375 46.2265L0.5 46.2731L0.625 46.3211L0.75 46.3704L0.875 46.421L1 46.473L1.125 46.5262L1.25 46.5807L1.375 46.6366L1.5 46.6936L1.625 46.752L1.75 46.8115L1.875 46.8723L2 46.9343L2.125 46.9975L2.25 47.0618L2.375 47.1273L2.5 47.1939L2.625 47.2617L2.75 47.3306L2.875 47.4005L3 47.4716L3.125 47.5437L3.25 47.6168L3.375 47.6909L3.5 47.7661L3.625 47.8422L3.75 47.9193L3.875 47.9974L4 48.0763L4.125 48.1562L4.25 48.237L4.375 48.3186L4.5 48.4011L4.625 48.4844L4.75 48.5685L4.875 48.6534L5 48.739L5.125 48.8254L5.25 48.9126L5.375 49.0004L5.5 49.0889L5.625 49.178L5.75 49.2678L5.875 49.3582L6 49.4492L6.125 49.5408L6.25 49.6329L6.375 49.7255L6.5 49.8186L6.625 49.9122L6.75 50.0063L6.875 50.1008L7 50.1957L7.125 50.291L7.25 50.3866L7.375 50.4826L7.5 50.5789L7.625 50.6754L7.75 50.7723L7.875 50.8694L10.125 52.6306L10.25 52.7277L10.375 52.8246L10.5 52.9211L10.625 53.0174L10.75 53.1134L10.875 53.209L11 53.3043L11.125 53.3992L11.25 53.4937L11.375 53.5878L11.5 53.6814L11.625 53.7745L11.75 53.8671L11.875 53.9592L12 54.0508L12.125 54.1418L12.25 54.2322L12.375 54.322L12.5 54.4111L12.625 54.4996L12.75 54.5874L12.875 54.6746L13 54.761L13.125 54.8466L13.25 54.9315L13.375 55.0156L13.5 55.0989L13.625 55.1814L13.75 55.263L13.875 55.3438L14 55.4237L14.125 55.5026L14.25 55.5807L14.375 55.6578L14.5 55.7339L14.625 55.809L14.75 55.8832L14.875 55.9563L15 56.0284L15.125 56.0995L15.25 56.1694L15.375 56.2383L15.5 56.3061L15.625 56.3727L15.75 56.4382L15.875 56.5025L16 56.5657L16.125 56.6277L16.25 56.6885L16.375 56.748L16.5 56.8064L16.625 56.8634L16.75 56.9193L16.875 56.9738L17 57.0271L17.125 57.079L17.25 57.1296L17.375 57.1789L17.5 57.2269L17.625 57.2735L17.75 57.3188L17.875 57.3627L18 57.4052L18.125 57.4463L18.25 57.486L18.375 57.5242L18.5 57.5611L18.625 57.5965L18.75 57.6305L18.875 57.663L19 57.6941L19.125 57.7237L19.25 57.7518L19.375 57.7785L19.5 57.8036L19.625 57.8273L19.75 57.8495L19.875 57.8701L20 57.8893L20.125 57.9069L20.25 57.9231L20.375 57.9376L20.5 57.9507L20.625 57.9623L20.75 57.9723L20.875 57.9807L21 57.9877L21.125 57.9931L21.25 57.9969L21.375 57.9992L21.5 58L21.625 57.9992L21.75 57.9969L21.875 57.9931L22 57.9877L22.125 57.9807L22.25 57.9723L22.375 57.9623L22.5 57.9507L22.625 57.9376L22.75 57.9231L22.875 57.9069L23 57.8893L23.125 57.8701L23.25 57.8495L23.375 57.8273L23.5 57.8036L23.625 57.7785L23.75 57.7518L23.875 57.7237L24 57.6941L24.125 57.663L24.25 57.6305L24.375 57.5965L24.5 57.5611L24.625 57.5242L24.75 57.486L24.875 57.4463L25 57.4052L25.125 57.3627L25.25 57.3188L25.375 57.2735L25.5 57.2269L25.625 57.1789L25.75 57.1296L25.875 57.079L26 57.0271L26.125 56.9738L26.25 56.9193L26.375 56.8634L26.5 56.8064L26.625 56.748L26.75 56.6885L26.875 56.6277L27 56.5657L27.125 56.5025L27.25 56.4382L27.375 56.3727L27.5 56.3061L27.625 56.2383L27.75 56.1694L27.875 56.0995L28 56.0284L28.125 55.9563L28.25 55.8832L28.375 55.809L28.5 55.7339L28.625 55.6578L28.75 55.5807L28.875 55.5026L29 55.4237L29.125 55.3438L29.25 55.263L29.375 55.1814L29.5 55.0989L29.625 55.0156L29.75 54.9315L29.875 54.8466L30 54.761L30.125 54.6746L30.25 54.5874L30.375 54.4996L30.5 54.4111L30.625 54.322L30.75 54.2322L30.875 54.1418L31 54.0508L31.125 53.9592L31.25 53.8671L31.375 53.7745L31.5 53.6814L31.625 53.5878L31.75 53.4937L31.875 53.3992L32 53.3043L32.125 53.209L32.25 53.1134L32.375 53.0174L32.5 52.9211L32.625 52.8246L32.75 52.7277L32.875 52.6306L35.125 50.8694L35.25 50.7723L35.375 50.6754L35.5 50.5789L35.625 50.4826L35.75 50.3866L35.875 50.291L36 50.1957L36.125 50.1008L36.25 50.0063L36.375 49.9122L36.5 49.8186L36.625 49.7255L36.75 49.6329L36.875 49.5408L37 49.4492L37.125 49.3582L37.25 49.2678L37.375 49.178L37.5 49.0889L37.625 49.0004L37.75 48.9126L37.875 48.8254L38 48.739L38.125 48.6534L38.25 48.5685L38.375 48.4844L38.5 48.4011L38.625 48.3186L38.75 48.237L38.875 48.1562L39 48.0763L39.125 47.9974L39.25 47.9193L39.375 47.8422L39.5 47.7661L39.625 47.6909L39.75 47.6168L39.875 47.5437L40 47.4716L40.125 47.4005L40.25 47.3306L40.375 47.2617L40.5 47.1939L40.625 47.1273L40.75 47.0618L40.875 46.9975L41 46.9343L41.125 46.8723L41.25 46.8115L41.375 46.752L41.5 46.6936L41.625 46.6366L41.75 46.5807L41.875 46.5262L42 46.473L42.125 46.421L42.25 46.3704L42.375 46.3211L42.5 46.2731L42.625 46.2265L42.75 46.1812L42.875 46.1373L43 46.0948L43.125 46.0537L43.25 46.014L43.375 45.9758L43.5 45.9389L43.625 45.9035L43.75 45.8695L43.875 45.837L44 45.8059L44.125 45.7763L44.25 45.7482L44.375 45.7215L44.5 45.6964L44.625 45.6727L44.75 45.6505L44.875 45.6299L45 45.6107L45.125 45.5931L45.25 45.5769L45.375 45.5624L45.5 45.5493L45.625 45.5377L45.75 45.5277L45.875 45.5193L46 45.5123L46.125 45.5069L46.25 45.5031L46.375 45.5008L46.5 45.5L46.625 45.5008L46.75 45.5031L46.875 45.5069L47 45.5123L47.125 45.5193L47.25 45.5277L47.375 45.5377L47.5 45.5493L47.625 45.5624L47.75 45.5769L47.875 45.5931L48 45.6107L48.125 45.6299L48.25 45.6505L48.375 45.6727L48.5 45.6964L48.625 45.7215L48.75 45.7482L48.875 45.7763L49 45.8059L49.125 45.837L49.25 45.8695L49.375 45.9035L49.5 45.9389L49.625 45.9758L49.75 46.014L49.875 46.0537L50 46.0948L50.125 46.1373L50.25 46.1812L50.375 46.2265L50.5 46.2731L50.625 46.3211L50.75 46.3704L50.875 46.421L51 46.473L51.125 46.5262L51.25 46.5807L51.375 46.6366L51.5 46.6936L51.625 46.752L51.75 46.8115L51.875 46.8723L52 46.9343L52.125 46.9975L52.25 47.0618L52.375 47.1273L52.5 47.1939L52.625 47.2617L52.75 47.3306L52.875 47.4005L53 47.4716L53.125 47.5437L53.25 47.6168L53.375 47.6909L53.5 47.7661L53.625 47.8422L53.75 47.9193L53.875 47.9974L54 48.0763L54.125 48.1562L54.25 48.237L54.375 48.3186L54.5 48.4011L54.625 48.4844L54.75 48.5685L54.875 48.6534L55 48.739L55.125 48.8254L55.25 48.9126L55.375 49.0004L55.5 49.0889L55.625 49.178L55.75 49.2678L55.875 49.3582L56 49.4492L56.125 49.5408L56.25 49.6329L56.375 49.7255L56.5 49.8186L56.625 49.9122L56.75 50.0063L56.875 50.1008L57 50.1957L57.125 50.291L57.25 50.3866L57.375 50.4826L57.5 50.5789L57.625 50.6754L57.75 50.7723L57.875 50.8694L60.125 52.6306L60.25 52.7277L60.375 52.8246L60.5 52.9211L60.625 53.0174L60.75 53.1134L60.875 53.209L61 53.3043L61.125 53.3992L61.25 53.4937L61.375 53.5878L61.5 53.6814L61.625 53.7745L61.75 53.8671L61.875 53.9592L62 54.0508L62.125 54.1418L62.25 54.2322L62.375 54.322L62.5 54.4111L62.625 54.4996L62.75 54.5874L62.875 54.6746L63 54.761L63.125 54.8466L63.25 54.9315L63.375 55.0156L63.5 55.0989L63.625 55.1814L63.75 55.263L63.875 55.3438L64 55.4237L64.125 55.5026L64.25 55.5807L64.375 55.6578L64.5 55.7339L64.625 55.809L64.75 55.8832L64.875 55.9563L65 56.0284L65.125 56.0995L65.25 56.1694L65.375 56.2383L65.5 56.3061L65.625 56.3727L65.75 56.4382L65.875 56.5025L66 56.5657L66.125 56.6277L66.25 56.6885L66.375 56.748L66.5 56.8064L66.625 56.8634L66.75 56.9193L66.875 56.9738L67 57.0271L67.125 57.079L67.25 57.1296L67.375 57.1789L67.5 57.2269L67.625 57.2735L67.75 57.3188L67.875 57.3627L68 57.4052L68.125 57.4463L68.25 57.486L68.375 57.5242L68.5 57.5611L68.625 57.5965L68.75 57.6305L68.875 57.663L69 57.6941L69.125 57.7237L69.25 57.7518L69.375 57.7785L69.5 57.8036L69.625 57.8273L69.75 57.8495L69.875 57.8701L70 57.8893L70.125 57.9069L70.25 57.9231L70.375 57.9376L70.5 57.9507L70.625 57.9623L70.75 57.9723L70.875 57.9807L71 57.9877L71.125 57.9931L71.25 57.9969L71.375 57.9992L71.5 58L71.625 57.9992L71.75 57.9969L71.875 57.9931L72 57.9877L72.125 57.9807L72.25 57.9723L72.375 57.9623L72.5 57.9507L72.625 57.9376L72.75 57.9231L72.875 57.9069L73 57.8893L73.125 57.8701L73.25 57.8495L73.375 57.8273L73.5 57.8036L73.625 57.7785L73.75 57.7518L73.875 57.7237L74 57.6941L74.125 57.663L74.25 57.6305L74.375 57.5965L74.5 57.5611L74.625 57.5242L74.75 57.486L74.875 57.4463L75 57.4052L75.125 57.3627L75.25 57.3188L75.375 57.2735L75.5 57.2269L75.625 57.1789L75.75 57.1296L75.875 57.079L76 57.0271L76.125 56.9738L76.25 56.9193L76.375 56.8634L76.5 56.8064L76.625 56.748L76.75 56.6885L76.875 56.6277L77 56.5657L77.125 56.5025L77.25 56.4382L77.375 56.3727L77.5 56.3061L77.625 56.2383L77.75 56.1694L77.875 56.0995L78 56.0284L78.125 55.9563L78.25 55.8832L78.375 55.809L78.5 55.7339L78.625 55.6578L78.75 55.5807L78.875 55.5026L79 55.4237L79.125 55.3438L79.25 55.263L79.375 55.1814L79.5 55.0989L79.625 55.0156L79.75 54.9315L79.875 54.8466L80 54.761L80.125 54.6746L80.25 54.5874L80.375 54.4996L80.5 54.4111L80.625 54.322L80.75 54.2322L80.875 54.1418L81 54.0508L81.125 53.9592L81.25 53.8671L81.375 53.7745L81.5 53.6814L81.625 53.5878L81.75 53.4937L81.875 53.3992L82 53.3043L82.125 53.209L82.25 53.1134L82.375 53.0174L82.5 52.9211L82.625 52.8246L82.75 52.7277L82.875 52.6306L84 51.75L85.125 50.8694L85.25 50.7723L85.375 50.6754L85.5 50.5789L85.625 50.4826L85.75 50.3866L85.875 50.291L86 50.1957L86.125 50.1008L86.25 50.0063L86.375 49.9122L86.5 49.8186L86.625 49.7255L86.75 49.6329L86.875 49.5408L87 49.4492L87.125 49.3582L87.25 49.2678L87.375 49.178L87.5 49.0889L87.625 49.0004L87.75 48.9126L87.875 48.8254L88 48.739L88.125 48.6534L88.25 48.5685L88.375 48.4844L88.5 48.4011L88.625 48.3186L88.75 48.237L88.875 48.1562L89 48.0763L89.125 47.9974L89.25 47.9193L89.375 47.8422L89.5 47.7661L89.625 47.6909L89.75 47.6168L89.875 47.5437L90 47.4716L90.125 47.4005L90.25 47.3306L90.375 47.2617L90.5 47.1939L90.625 47.1273L90.75 47.0618L90.875 46.9975L91 46.9343L91.125 46.8723L91.25 46.8115L91.375 46.752L91.5 46.6936L91.625 46.6366L91.75 46.5807L91.875 46.5262L92 46.473L92.125 46.421L92.25 46.3704L92.375 46.3211L92.5 46.2731L92.625 46.2265L92.75 46.1812L92.875 46.1373L93 46.0948L93.125 46.0537L93.25 46.014L93.375 45.9758L93.5 45.9389L93.625 45.9035L93.75 45.8695L93.875 45.837L94 45.8059L94.125 45.7763L94.25 45.7482L94.375 45.7215L94.5 45.6964L94.625 45.6727L94.75 45.6505L94.875 45.6299L95 45.6107L95.125 45.5931L95.25 45.5769L95.375 45.5624L95.5 45.5493L95.625 45.5377L95.75 45.5277L95.875 45.5193L96 45.5123L96.125 45.5069L96.25 45.5031L96.375 45.5008L96.5 45.5L96.625 45.5008L96.75 45.5031L96.875 45.5069L97 45.5123L97.125 45.5193L97.25 45.5277L97.375 45.5377L97.5 45.5493L97.625 45.5624L97.75 45.5769L97.875 45.5931L98 45.6107L98.125 45.6299L98.25 45.6505L98.375 45.6727L98.5 45.6964L98.625 45.7215L98.75 45.7482L98.875 45.7763L99 45.8059L99.125 45.837L99.25 45.8695L99.375 45.9035L99.5 45.9389L99.625 45.9758L99.75 46.014L99.875 46.0537L100 46.0948L100.125 46.1373L100.25 46.1812L100.375 46.2265L100.5 46.2731L100.625 46.3211L100.75 46.3704L100.875 46.421L101 46.473L101.125 46.5262L101.25 46.5807L101.375 46.6366L101.5 46.6936L101.625 46.752L101.75 46.8115L101.875 46.8723L102 46.9343L102.125 46.9975L102.25 47.0618L102.375 47.1273L102.5 47.1939L102.625 47.2617L102.75 47.3306L102.875 47.4005L103 47.4716L103.125 47.5437L103.25 47.6168L103.375 47.6909L103.5 47.7661L103.625 47.8422L103.75 47.9193L103.875 47.9974L104 48.0763L104.125 48.1562L104.25 48.237L104.375 48.3186L104.5 48.4011L104.625 48.4844L104.75 48.5685L104.875 48.6534L105 48.739L105.125 48.8254L105.25 48.9126L105.375 49.0004L105.5 49.0889L105.625 49.178L105.75 49.2678L105.875 49.3582L106 49.4492L106.125 49.5408L106.25 49.6329L106.375 49.7255L106.5 49.8186L106.625 49.9122L106.75 50.0063L106.875 50.1008L107 50.1957L107.125 50.291L107.25 50.3866L107.375 50.4826L107.5 50.5789L107.625 50.6754L107.75 50.7723L107.875 50.8694L110.125 52.6306L110.25 52.7277L110.375 52.8246L110.5 52.9211L110.625 53.0174L110.75 53.1134L110.875 53.209L111 53.3043L111.125 53.3992L111.25 53.4937L111.375 53.5878L111.5 53.6814L111.625 53.7745L111.75 53.8671L111.875 53.9592L112 54.0508L112.125 54.1418L112.25 54.2322L112.375 54.322L112.5 54.4111L112.625 54.4996L112.75 54.5874L112.875 54.6746L113 54.761L113.125 54.8466L113.25 54.9315L113.375 55.0156L113.5 55.0989L113.625 55.1814L113.75 55.263L113.875 55.3438L114 55.4237L114.125 55.5026L114.25 55.5807L114.375 55.6578L114.5 55.7339L114.625 55.809L114.75 55.8832L114.875 55.9563L115 56.0284L115.125 56.0995L115.25 56.1694L115.375 56.2383L115.5 56.3061L115.625 56.3727L115.75 56.4382L115.875 56.5025L116 56.5657L116.125 56.6277L116.25 56.6885L116.375 56.748L116.5 56.8064L116.625 56.8634L116.75 56.9193L116.875 56.9738L117 57.0271L117.125 57.079L117.25 57.1296L117.375 57.1789L117.5 57.2269L117.625 57.2735L117.75 57.3188L117.875 57.3627L118 57.4052L118.125 57.4463L118.25 57.486L118.375 57.5242L118.5 57.5611L118.625 57.5965L118.75 57.6305L118.875 57.663L119 57.6941L119.125 57.7237L119.25 57.7518L119.375 57.7785L119.5 57.8036L119.625 57.8273L119.75 57.8495L119.875 57.8701L120 57.8893L120.125 57.9069L120.25 57.9231L120.375 57.9376L120.5 57.9507L120.625 57.9623L120.75 57.9723L120.875 57.9807L121 57.9877L121.125 57.9931L121.25 57.9969L121.375 57.9992L121.5 58L121.625 57.9992L121.75 57.9969L121.875 57.9931L122 57.9877L122.125 57.9807L122.25 57.9723L122.375 57.9623L122.5 57.9507L122.625 57.9376L122.75 57.9231L122.875 57.9069L123 57.8893L123.125 57.8701L123.25 57.8495L123.375 57.8273L123.5 57.8036L123.625 57.7785L123.75 57.7518L123.875 57.7237L124 57.6941L124.125 57.663L124.25 57.6305L124.375 57.5965L124.5 57.5611L124.625 57.5242L124.75 57.486L124.875 57.4463L125 57.4052L125.125 57.3627L125.25 57.3188L125.375 57.2735L125.5 57.2269L125.625 57.1789L125.75 57.1296L125.875 57.079L126 57.0271L126.125 56.9738L126.25 56.9193L126.375 56.8634L126.5 56.8064L126.625 56.748L126.75 56.6885L126.875 56.6277L127 56.5657L127.125 56.5025L127.25 56.4382L127.375 56.3727L127.5 56.3061L127.625 56.2383L127.75 56.1694L127.875 56.0995L128 56.0284L128.125 55.9563L128.25 55.8832L128.375 55.809L128.5 55.7339L128.625 55.6578L128.75 55.5807L128.875 55.5026L129 55.4237L129.125 55.3438L129.25 55.263L129.375 55.1814L129.5 55.0989L129.625 55.0156L129.75 54.9315L129.875 54.8466L130 54.761L130.125 54.6746L130.25 54.5874L130.375 54.4996L130.5 54.4111L130.625 54.322L130.75 54.2322L130.875 54.1418L131 54.0508L131.125 53.9592L131.25 53.8671L131.375 53.7745L131.5 53.6814L131.625 53.5878L131.75 53.4937L131.875 53.3992L132 53.3043L132.125 53.209L132.25 53.1134L132.375 53.0174L132.5 52.9211L132.625 52.8246L132.75 52.7277L132.875 52.6306L135.125 50.8694L135.25 50.7723L135.375 50.6754L135.5 50.5789L135.625 50.4826L135.75 50.3866L135.875 50.291L136 50.1957L136.125 50.1008L136.25 50.0063L136.375 49.9122L136.5 49.8186L136.625 49.7255L136.75 49.6329L136.875 49.5408L137 49.4492L137.125 49.3582L137.25 49.2678L137.375 49.178L137.5 49.0889L137.625 49.0004L137.75 48.9126L137.875 48.8254L138 48.739L138.125 48.6534L138.25 48.5685L138.375 48.4844L138.5 48.4011L138.625 48.3186L138.75 48.237L138.875 48.1562L139 48.0763L139.125 47.9974L139.25 47.9193L139.375 47.8422L139.5 47.7661L139.625 47.6909L139.75 47.6168L139.875 47.5437L140 47.4716L140.125 47.4005L140.25 47.3306L140.375 47.2617L140.5 47.1939L140.625 47.1273L140.75 47.0618L140.875 46.9975L141 46.9343L141.125 46.8723L141.25 46.8115L141.375 46.752L141.5 46.6936L141.625 46.6366L141.75 46.5807L141.875 46.5262L142 46.473L142.125 46.421L142.25 46.3704L142.375 46.3211L142.5 46.2731L142.625 46.2265L142.75 46.1812L142.875 46.1373L143 46.0948L143.125 46.0537L143.25 46.014L143.375 45.9758L143.5 45.9389L143.625 45.9035L143.75 45.8695L143.875 45.837L144 45.8059L144.125 45.7763L144.25 45.7482L144.375 45.7215L144.5 45.6964L144.625 45.6727L144.75 45.6505L144.875 45.6299L145 45.6107L145.125 45.5931L145.25 45.5769L145.375 45.5624L145.5 45.5493L145.625 45.5377L145.75 45.5277L145.875 45.5193L146 45.5123L146.125 45.5069L146.25 45.5031L146.375 45.5008L146.5 45.5L146.625 45.5008L146.75 45.5031L146.875 45.5069L147 45.5123L147.125 45.5193L147.25 45.5277L147.375 45.5377L147.5 45.5493L147.625 45.5624L147.75 45.5769L147.875 45.5931L148 45.6107L148.125 45.6299L148.25 45.6505L148.375 45.6727L148.5 45.6964L148.625 45.7215L148.75 45.7482L148.875 45.7763L149 45.8059L149.125 45.837L149.25 45.8695L149.375 45.9035L149.5 45.9389L149.625 45.9758L149.75 46.014L149.875 46.0537L150 46.0948L150.125 46.1373L150.25 46.1812L150.375 46.2265L150.5 46.2731L150.625 46.3211L150.75 46.3704L150.875 46.421L151 46.473L151.125 46.5262L151.25 46.5807L151.375 46.6366L151.5 46.6936L151.625 46.752L151.75 46.8115L151.875 46.8723L152 46.9343L152.125 46.9975L152.25 47.0618L152.375 47.1273L152.5 47.1939L152.625 47.2617L152.75 47.3306L152.875 47.4005L153 47.4716L153.125 47.5437L153.25 47.6168L153.375 47.6909L153.5 47.7661L153.625 47.8422L153.75 47.9193L153.875 47.9974L154 48.0763L154.125 48.1562L154.25 48.237L154.375 48.3186L154.5 48.4011L154.625 48.4844L154.75 48.5685L154.875 48.6534L155 48.739L155.125 48.8254L155.25 48.9126L155.375 49.0004L155.5 49.0889L155.625 49.178L155.75 49.2678L155.875 49.3582L156 49.4492L156.125 49.5408L156.25 49.6329L156.375 49.7255L156.5 49.8186L156.625 49.9122L156.75 50.0063L156.875 50.1008L157 50.1957L157.125 50.291L157.25 50.3866L157.375 50.4826L157.5 50.5789L157.625 50.6754L157.75 50.7723L157.875 50.8694L160.125 52.6306L160.25 52.7277L160.375 52.8246L160.5 52.9211L160.625 53.0174L160.75 53.1134L160.875 53.209L161 53.3043L161.125 53.3992L161.25 53.4937L161.375 53.5878L161.5 53.6814L161.625 53.7745L161.75 53.8671L161.875 53.9592L162 54.0508L162.125 54.1418L162.25 54.2322L162.375 54.322L162.5 54.4111L162.625 54.4996L162.75 54.5874L162.875 54.6746L163 54.761L163.125 54.8466L163.25 54.9315L163.375 55.0156L163.5 55.0989L163.625 55.1814L163.75 55.263L163.875 55.3438L164 55.4237L164.125 55.5026L164.25 55.5807L164.375 55.6578L164.5 55.7339L164.625 55.809L164.75 55.8832L164.875 55.9563L165 56.0284L165.125 56.0995L165.25 56.1694L165.375 56.2383L165.5 56.3061L165.625 56.3727L165.75 56.4382L165.875 56.5025L166 56.5657L166.125 56.6277L166.25 56.6885L166.375 56.748L166.5 56.8064L166.625 56.8634L166.75 56.9193L166.875 56.9738L167 57.0271L167.125 57.079L167.25 57.1296L167.375 57.1789L167.5 57.2269L167.625 57.2735L167.75 57.3188L167.875 57.3627L168 57.4052L168.125 57.4463L168.25 57.486L168.375 57.5242L168.5 57.5611L168.625 57.5965L168.75 57.6305L168.875 57.663L169 57.6941L169.125 57.7237L169.25 57.7518L169.375 57.7785L169.5 57.8036L169.625 57.8273L169.75 57.8495L169.875 57.8701L170 57.8893L170.125 57.9069L170.25 57.9231L170.375 57.9376L170.5 57.9507L170.625 57.9623L170.75 57.9723L170.875 57.9807L171 57.9877L171.125 57.9931L171.25 57.9969L171.375 57.9992L171.5 58L171.625 57.9992L171.75 57.9969L171.875 57.9931L172 57.9877L172.125 57.9807L172.25 57.9723L172.375 57.9623L172.5 57.9507L172.625 57.9376L172.75 57.9231L172.875 57.9069L173 57.8893L173.125 57.8701L173.25 57.8495L173.375 57.8273L173.5 57.8036L173.625 57.7785L173.75 57.7518L173.875 57.7237L174 57.6941L174.125 57.663L174.25 57.6305L174.375 57.5965L174.5 57.5611L174.625 57.5242L174.75 57.486L174.875 57.4463L175 57.4052L175.125 57.3627L175.25 57.3188L175.375 57.2735L175.5 57.2269L175.625 57.1789L175.75 57.1296L175.875 57.079L176 57.0271L176.125 56.9738L176.25 56.9193L176.375 56.8634L176.5 56.8064L176.625 56.748L176.75 56.6885L176.875 56.6277L177 56.5657L177.125 56.5025L177.25 56.4382L177.375 56.3727L177.5 56.3061L177.625 56.2383L177.75 56.1694L177.875 56.0995L178 56.0284L178.125 55.9563L178.25 55.8832L178.375 55.809L178.5 55.7339L178.625 55.6578L178.75 55.5807L178.875 55.5026L179 55.4237L179.125 55.3438L179.25 55.263L179.375 55.1814L179.5 55.0989L179.625 55.0156L179.75 54.9315L179.875 54.8466L180 54.761L180.125 54.6746L180.25 54.5874L180.375 54.4996L180.5 54.4111L180.625 54.322L180.75 54.2322L180.875 54.1418L181 54.0508L181.125 53.9592L181.25 53.8671L181.375 53.7745L181.5 53.6814L181.625 53.5878L181.75 53.4937L181.875 53.3992L182 53.3043L182.125 53.209L182.25 53.1134L182.375 53.0174L182.5 52.9211L182.625 52.8246L182.75 52.7277L182.875 52.6306L183.875 51.8482" stroke="#D3EEF8" stroke-width="8" stroke-miterlimit="10" stroke-linecap="round" stroke-linejoin="round"/>
<path d="M0 23.25L1.125 22.3694L1.25 22.2723L1.375 22.1754L1.5 22.0789L1.625 21.9826L1.75 21.8866L1.875 21.791L2 21.6957L2.125 21.6008L2.25 21.5063L2.375 21.4122L2.5 21.3186L2.625 21.2255L2.75 21.1329L2.875 21.0408L3 20.9492L3.125 20.8582L3.25 20.7678L3.375 20.678L3.5 20.5889L3.625 20.5004L3.75 20.4126L3.875 20.3254L4 20.239L4.125 20.1534L4.25 20.0685L4.375 19.9844L4.5 19.9011L4.625 19.8186L4.75 19.737L4.875 19.6562L5 19.5763L5.125 19.4974L5.25 19.4193L5.375 19.3422L5.5 19.2661L5.625 19.1909L5.75 19.1168L5.875 19.0437L6 18.9716L6.125 18.9005L6.25 18.8306L6.375 18.7617L6.5 18.6939L6.625 18.6273L6.75 18.5618L6.875 18.4975L7 18.4343L7.125 18.3723L7.25 18.3115L7.375 18.252L7.5 18.1936L7.625 18.1366L7.75 18.0807L7.875 18.0262L8 17.973L8.125 17.921L8.25 17.8704L8.375 17.8211L8.5 17.7731L8.625 17.7265L8.75 17.6812L8.875 17.6373L9 17.5948L9.125 17.5537L9.25 17.514L9.375 17.4758L9.5 17.4389L9.625 17.4035L9.75 17.3695L9.875 17.337L10 17.3059L10.125 17.2763L10.25 17.2482L10.375 17.2215L10.5 17.1964L10.625 17.1727L10.75 17.1505L10.875 17.1299L11 17.1107L11.125 17.0931L11.25 17.0769L11.375 17.0624L11.5 17.0493L11.625 17.0377L11.75 17.0277L11.875 17.0193L12 17.0123L12.125 17.0069L12.25 17.0031L12.375 17.0008L12.5 17L12.625 17.0008L12.75 17.0031L12.875 17.0069L13 17.0123L13.125 17.0193L13.25 17.0277L13.375 17.0377L13.5 17.0493L13.625 17.0624L13.75 17.0769L13.875 17.0931L14 17.1107L14.125 17.1299L14.25 17.1505L14.375 17.1727L14.5 17.1964L14.625 17.2215L14.75 17.2482L14.875 17.2763L15 17.3059L15.125 17.337L15.25 17.3695L15.375 17.4035L15.5 17.4389L15.625 17.4758L15.75 17.514L15.875 17.5537L16 17.5948L16.125 17.6373L16.25 17.6812L16.375 17.7265L16.5 17.7731L16.625 17.8211L16.75 17.8704L16.875 17.921L17 17.973L17.125 18.0262L17.25 18.0807L17.375 18.1366L17.5 18.1936L17.625 18.252L17.75 18.3115L17.875 18.3723L18 18.4343L18.125 18.4975L18.25 18.5618L18.375 18.6273L18.5 18.6939L18.625 18.7617L18.75 18.8306L18.875 18.9005L19 18.9716L19.125 19.0437L19.25 19.1168L19.375 19.1909L19.5 19.2661L19.625 19.3422L19.75 19.4193L19.875 19.4974L20 19.5763L20.125 19.6562L20.25 19.737L20.375 19.8186L20.5 19.9011L20.625 19.9844L20.75 20.0685L20.875 20.1534L21 20.239L21.125 20.3254L21.25 20.4126L21.375 20.5004L21.5 20.5889L21.625 20.678L21.75 20.7678L21.875 20.8582L22 20.9492L22.125 21.0408L22.25 21.1329L22.375 21.2255L22.5 21.3186L22.625 21.4122L22.75 21.5063L22.875 21.6008L23 21.6957L23.125 21.791L23.25 21.8866L23.375 21.9826L23.5 22.0789L23.625 22.1754L23.75 22.2723L23.875 22.3694L26.125 24.1306L26.25 24.2277L26.375 24.3246L26.5 24.4211L26.625 24.5174L26.75 24.6134L26.875 24.709L27 24.8043L27.125 24.8992L27.25 24.9937L27.375 25.0878L27.5 25.1814L27.625 25.2745L27.75 25.3671L27.875 25.4592L28 25.5508L28.125 25.6418L28.25 25.7322L28.375 25.822L28.5 25.9111L28.625 25.9996L28.75 26.0874L28.875 26.1746L29 26.261L29.125 26.3466L29.25 26.4315L29.375 26.5156L29.5 26.5989L29.625 26.6814L29.75 26.763L29.875 26.8438L30 26.9237L30.125 27.0026L30.25 27.0807L30.375 27.1578L30.5 27.2339L30.625 27.309L30.75 27.3832L30.875 27.4563L31 27.5284L31.125 27.5995L31.25 27.6694L31.375 27.7383L31.5 27.8061L31.625 27.8727L31.75 27.9382L31.875 28.0025L32 28.0657L32.125 28.1277L32.25 28.1885L32.375 28.248L32.5 28.3064L32.625 28.3634L32.75 28.4193L32.875 28.4738L33 28.5271L33.125 28.579L33.25 28.6296L33.375 28.6789L33.5 28.7269L33.625 28.7735L33.75 28.8188L33.875 28.8627L34 28.9052L34.125 28.9463L34.25 28.986L34.375 29.0242L34.5 29.0611L34.625 29.0965L34.75 29.1305L34.875 29.163L35 29.1941L35.125 29.2237L35.25 29.2518L35.375 29.2785L35.5 29.3036L35.625 29.3273L35.75 29.3495L35.875 29.3701L36 29.3893L36.125 29.4069L36.25 29.4231L36.375 29.4376L36.5 29.4507L36.625 29.4623L36.75 29.4723L36.875 29.4807L37 29.4877L37.125 29.4931L37.25 29.4969L37.375 29.4992L37.5 29.5L37.625 29.4992L37.75 29.4969L37.875 29.4931L38 29.4877L38.125 29.4807L38.25 29.4723L38.375 29.4623L38.5 29.4507L38.625 29.4376L38.75 29.4231L38.875 29.4069L39 29.3893L39.125 29.3701L39.25 29.3495L39.375 29.3273L39.5 29.3036L39.625 29.2785L39.75 29.2518L39.875 29.2237L40 29.1941L40.125 29.163L40.25 29.1305L40.375 29.0965L40.5 29.0611L40.625 29.0242L40.75 28.986L40.875 28.9463L41 28.9052L41.125 28.8627L41.25 28.8188L41.375 28.7735L41.5 28.7269L41.625 28.6789L41.75 28.6296L41.875 28.579L42 28.5271L42.125 28.4738L42.25 28.4193L42.375 28.3634L42.5 28.3064L42.625 28.248L42.75 28.1885L42.875 28.1277L43 28.0657L43.125 28.0025L43.25 27.9382L43.375 27.8727L43.5 27.8061L43.625 27.7383L43.75 27.6694L43.875 27.5995L44 27.5284L44.125 27.4563L44.25 27.3832L44.375 27.309L44.5 27.2339L44.625 27.1578L44.75 27.0807L44.875 27.0026L45 26.9237L45.125 26.8438L45.25 26.763L45.375 26.6814L45.5 26.5989L45.625 26.5156L45.75 26.4315L45.875 26.3466L46 26.261L46.125 26.1746L46.25 26.0874L46.375 25.9996L46.5 25.9111L46.625 25.822L46.75 25.7322L46.875 25.6418L47 25.5508L47.125 25.4592L47.25 25.3671L47.375 25.2745L47.5 25.1814L47.625 25.0878L47.75 24.9937L47.875 24.8992L48 24.8043L48.125 24.709L48.25 24.6134L48.375 24.5174L48.5 24.4211L48.625 24.3246L48.75 24.2277L48.875 24.1306L50 23.25L51.125 22.3694L51.25 22.2723L51.375 22.1754L51.5 22.0789L51.625 21.9826L51.75 21.8866L51.875 21.791L52 21.6957L52.125 21.6008L52.25 21.5063L52.375 21.4122L52.5 21.3186L52.625 21.2255L52.75 21.1329L52.875 21.0408L53 20.9492L53.125 20.8582L53.25 20.7678L53.375 20.678L53.5 20.5889L53.625 20.5004L53.75 20.4126L53.875 20.3254L54 20.239L54.125 20.1534L54.25 20.0685L54.375 19.9844L54.5 19.9011L54.625 19.8186L54.75 19.737L54.875 19.6562L55 19.5763L55.125 19.4974L55.25 19.4193L55.375 19.3422L55.5 19.2661L55.625 19.1909L55.75 19.1168L55.875 19.0437L56 18.9716L56.125 18.9005L56.25 18.8306L56.375 18.7617L56.5 18.6939L56.625 18.6273L56.75 18.5618L56.875 18.4975L57 18.4343L57.125 18.3723L57.25 18.3115L57.375 18.252L57.5 18.1936L57.625 18.1366L57.75 18.0807L57.875 18.0262L58 17.973L58.125 17.921L58.25 17.8704L58.375 17.8211L58.5 17.7731L58.625 17.7265L58.75 17.6812L58.875 17.6373L59 17.5948L59.125 17.5537L59.25 17.514L59.375 17.4758L59.5 17.4389L59.625 17.4035L59.75 17.3695L59.875 17.337L60 17.3059L60.125 17.2763L60.25 17.2482L60.375 17.2215L60.5 17.1964L60.625 17.1727L60.75 17.1505L60.875 17.1299L61 17.1107L61.125 17.0931L61.25 17.0769L61.375 17.0624L61.5 17.0493L61.625 17.0377L61.75 17.0277L61.875 17.0193L62 17.0123L62.125 17.0069L62.25 17.0031L62.375 17.0008L62.5 17L62.625 17.0008L62.75 17.0031L62.875 17.0069L63 17.0123L63.125 17.0193L63.25 17.0277L63.375 17.0377L63.5 17.0493L63.625 17.0624L63.75 17.0769L63.875 17.0931L64 17.1107L64.125 17.1299L64.25 17.1505L64.375 17.1727L64.5 17.1964L64.625 17.2215L64.75 17.2482L64.875 17.2763L65 17.3059L65.125 17.337L65.25 17.3695L65.375 17.4035L65.5 17.4389L65.625 17.4758L65.75 17.514L65.875 17.5537L66 17.5948L66.125 17.6373L66.25 17.6812L66.375 17.7265L66.5 17.7731L66.625 17.8211L66.75 17.8704L66.875 17.921L67 17.973L67.125 18.0262L67.25 18.0807L67.375 18.1366L67.5 18.1936L67.625 18.252L67.75 18.3115L67.875 18.3723L68 18.4343L68.125 18.4975L68.25 18.5618L68.375 18.6273L68.5 18.6939L68.625 18.7617L68.75 18.8306L68.875 18.9005L69 18.9716L69.125 19.0437L69.25 19.1168L69.375 19.1909L69.5 19.2661L69.625 19.3422L69.75 19.4193L69.875 19.4974L70 19.5763L70.125 19.6562L70.25 19.737L70.375 19.8186L70.5 19.9011L70.625 19.9844L70.75 20.0685L70.875 20.1534L71 20.239L71.125 20.3254L71.25 20.4126L71.375 20.5004L71.5 20.5889L71.625 20.678L71.75 20.7678L71.875 20.8582L72 20.9492L72.125 21.0408L72.25 21.1329L72.375 21.2255L72.5 21.3186L72.625 21.4122L72.75 21.5063L72.875 21.6008L73 21.6957L73.125 21.791L73.25 21.8866L73.375 21.9826L73.5 22.0789L73.625 22.1754L73.75 22.2723L73.875 22.3694L76.125 24.1306L76.25 24.2277L76.375 24.3246L76.5 24.4211L76.625 24.5174L76.75 24.6134L76.875 24.709L77 24.8043L77.125 24.8992L77.25 24.9937L77.375 25.0878L77.5 25.1814L77.625 25.2745L77.75 25.3671L77.875 25.4592L78 25.5508L78.125 25.6418L78.25 25.7322L78.375 25.822L78.5 25.9111L78.625 25.9996L78.75 26.0874L78.875 26.1746L79 26.261L79.125 26.3466L79.25 26.4315L79.375 26.5156L79.5 26.5989L79.625 26.6814L79.75 26.763L79.875 26.8438L80 26.9237L80.125 27.0026L80.25 27.0807L80.375 27.1578L80.5 27.2339L80.625 27.309L80.75 27.3832L80.875 27.4563L81 27.5284L81.125 27.5995L81.25 27.6694L81.375 27.7383L81.5 27.8061L81.625 27.8727L81.75 27.9382L81.875 28.0025L82 28.0657L82.125 28.1277L82.25 28.1885L82.375 28.248L82.5 28.3064L82.625 28.3634L82.75 28.4193L82.875 28.4738L83 28.5271L83.125 28.579L83.25 28.6296L83.375 28.6789L83.5 28.7269L83.625 28.7735L83.75 28.8188L83.875 28.8627L84 28.9052L84.125 28.9463L84.25 28.986L84.375 29.0242L84.5 29.0611L84.625 29.0965L84.75 29.1305L84.875 29.163L85 29.1941L85.125 29.2237L85.25 29.2518L85.375 29.2785L85.5 29.3036L85.625 29.3273L85.75 29.3495L85.875 29.3701L86 29.3893L86.125 29.4069L86.25 29.4231L86.375 29.4376L86.5 29.4507L86.625 29.4623L86.75 29.4723L86.875 29.4807L87 29.4877L87.125 29.4931L87.25 29.4969L87.375 29.4992L87.5 29.5L87.625 29.4992L87.75 29.4969L87.875 29.4931L88 29.4877L88.125 29.4807L88.25 29.4723L88.375 29.4623L88.5 29.4507L88.625 29.4376L88.75 29.4231L88.875 29.4069L89 29.3893L89.125 29.3701L89.25 29.3495L89.375 29.3273L89.5 29.3036L89.625 29.2785L89.75 29.2518L89.875 29.2237L90 29.1941L90.125 29.163L90.25 29.1305L90.375 29.0965L90.5 29.0611L90.625 29.0242L90.75 28.986L90.875 28.9463L91 28.9052L91.125 28.8627L91.25 28.8188L91.375 28.7735L91.5 28.7269L91.625 28.6789L91.75 28.6296L91.875 28.579L92 28.5271L92.125 28.4738L92.25 28.4193L92.375 28.3634L92.5 28.3064L92.625 28.248L92.75 28.1885L92.875 28.1277L93 28.0657L93.125 28.0025L93.25 27.9382L93.375 27.8727L93.5 27.8061L93.625 27.7383L93.75 27.6694L93.875 27.5995L94 27.5284L94.125 27.4563L94.25 27.3832L94.375 27.309L94.5 27.2339L94.625 27.1578L94.75 27.0807L94.875 27.0026L95 26.9237L95.125 26.8438L95.25 26.763L95.375 26.6814L95.5 26.5989L95.625 26.5156L95.75 26.4315L95.875 26.3466L96 26.261L96.125 26.1746L96.25 26.0874L96.375 25.9996L96.5 25.9111L96.625 25.822L96.75 25.7322L96.875 25.6418L97 25.5508L97.125 25.4592L97.25 25.3671L97.375 25.2745L97.5 25.1814L97.625 25.0878L97.75 24.9937L97.875 24.8992L98 24.8043L98.125 24.709L98.25 24.6134L98.375 24.5174L98.5 24.4211L98.625 24.3246L98.75 24.2277L98.875 24.1306L99.875 23.3482" stroke="#D3EEF8" stroke-width="8" stroke-miterlimit="10" stroke-linecap="round" stroke-linejoin="round"/>
</g>
<defs>
<clipPath id="clip0_13_15">
<rect width="100" height="100" fill="white"/>
</clipPath>
</defs>
</svg>
