<svg width="1004" height="1004" viewBox="0 0 1004 1004" fill="none" xmlns="http://www.w3.org/2000/svg">
<rect x="2" y="2" width="100" height="100" stroke="#c4c4c4" stroke-width="4"/>
<rect x="102" y="2" width="100" height="100" stroke="#c4c4c4" stroke-width="4"/>
<rect x="202" y="2" width="100" height="100" stroke="#c4c4c4" stroke-width="4"/>
<rect x="302" y="2" width="100" height="100" stroke="#c4c4c4" stroke-width="4"/>
<rect x="402" y="2" width="100" height="100" stroke="#c4c4c4" stroke-width="4"/>
<rect x="502" y="2" width="100" height="100" stroke="#c4c4c4" stroke-width="4"/>
<rect x="602" y="2" width="100" height="100" stroke="#c4c4c4" stroke-width="4"/>
<rect x="702" y="2" width="100" height="100" stroke="#c4c4c4" stroke-width="4"/>
<rect x="802" y="2" width="100" height="100" stroke="#c4c4c4" stroke-width="4"/>
<rect x="902" y="2" width="100" height="100" stroke="#c4c4c4" stroke-width="4"/>
<rect x="2" y="102" width="100" height="100" stroke="#c4c4c4" stroke-width="4"/>
<rect x="102" y="102" width="100" height="100" stroke="#c4c4c4" stroke-width="4"/>
<rect x="202" y="102" width="100" height="100" stroke="#c4c4c4" stroke-width="4"/>
<rect x="302" y="102" width="100" height="100" stroke="#c4c4c4" stroke-width="4"/>
<rect x="402" y="102" width="100" height="100" stroke="#c4c4c4" stroke-width="4"/>
<rect x="502" y="102" width="100" height="100" stroke="#c4c4c4" stroke-width="4"/>
<rect x="602" y="102" width="100" height="100" stroke="#c4c4c4" stroke-width="4"/>
<rect x="702" y="102" width="100" height="100" stroke="#c4c4c4" stroke-width="4"/>
<rect x="802" y="102" width="100" height="100" stroke="#c4c4c4" stroke-width="4"/>
<rect x="902" y="102" width="100" height="100" stroke="#c4c4c4" stroke-width="4"/>
<rect x="2" y="202" width="100" height="100" stroke="#c4c4c4" stroke-width="4"/>
<rect x="102" y="202" width="100" height="100" stroke="#c4c4c4" stroke-width="4"/>
<rect x="202" y="202" width="100" height="100" stroke="#c4c4c4" stroke-width="4"/>
<rect x="302" y="202" width="100" height="100" stroke="#c4c4c4" stroke-width="4"/>
<rect x="402" y="202" width="100" height="100" stroke="#c4c4c4" stroke-width="4"/>
<rect x="502" y="202" width="100" height="100" stroke="#c4c4c4" stroke-width="4"/>
<rect x="602" y="202" width="100" height="100" stroke="#c4c4c4" stroke-width="4"/>
<rect x="702" y="202" width="100" height="100" stroke="#c4c4c4" stroke-width="4"/>
<rect x="802" y="202" width="100" height="100" stroke="#c4c4c4" stroke-width="4"/>
<rect x="902" y="202" width="100" height="100" stroke="#c4c4c4" stroke-width="4"/>
<rect x="2" y="302" width="100" height="100" stroke="#c4c4c4" stroke-width="4"/>
<rect x="102" y="302" width="100" height="100" stroke="#c4c4c4" stroke-width="4"/>
<rect x="202" y="302" width="100" height="100" stroke="#c4c4c4" stroke-width="4"/>
<rect x="302" y="302" width="100" height="100" stroke="#c4c4c4" stroke-width="4"/>
<rect x="402" y="302" width="100" height="100" stroke="#c4c4c4" stroke-width="4"/>
<rect x="502" y="302" width="100" height="100" stroke="#c4c4c4" stroke-width="4"/>
<rect x="602" y="302" width="100" height="100" stroke="#c4c4c4" stroke-width="4"/>
<rect x="702" y="302" width="100" height="100" stroke="#c4c4c4" stroke-width="4"/>
<rect x="802" y="302" width="100" height="100" stroke="#c4c4c4" stroke-width="4"/>
<rect x="902" y="302" width="100" height="100" stroke="#c4c4c4" stroke-width="4"/>
<rect x="2" y="402" width="100" height="100" stroke="#c4c4c4" stroke-width="4"/>
<rect x="102" y="402" width="100" height="100" stroke="#c4c4c4" stroke-width="4"/>
<rect x="202" y="402" width="100" height="100" stroke="#c4c4c4" stroke-width="4"/>
<rect x="302" y="402" width="100" height="100" stroke="#c4c4c4" stroke-width="4"/>
<rect x="402" y="402" width="100" height="100" stroke="#c4c4c4" stroke-width="4"/>
<rect x="502" y="402" width="100" height="100" stroke="#c4c4c4" stroke-width="4"/>
<rect x="602" y="402" width="100" height="100" stroke="#c4c4c4" stroke-width="4"/>
<rect x="702" y="402" width="100" height="100" stroke="#c4c4c4" stroke-width="4"/>
<rect x="802" y="402" width="100" height="100" stroke="#c4c4c4" stroke-width="4"/>
<rect x="902" y="402" width="100" height="100" stroke="#c4c4c4" stroke-width="4"/>
<rect x="2" y="502" width="100" height="100" stroke="#c4c4c4" stroke-width="4"/>
<rect x="102" y="502" width="100" height="100" stroke="#c4c4c4" stroke-width="4"/>
<rect x="202" y="502" width="100" height="100" stroke="#c4c4c4" stroke-width="4"/>
<rect x="302" y="502" width="100" height="100" stroke="#c4c4c4" stroke-width="4"/>
<rect x="402" y="502" width="100" height="100" stroke="#c4c4c4" stroke-width="4"/>
<rect x="502" y="502" width="100" height="100" stroke="#c4c4c4" stroke-width="4"/>
<rect x="602" y="502" width="100" height="100" stroke="#c4c4c4" stroke-width="4"/>
<rect x="702" y="502" width="100" height="100" stroke="#c4c4c4" stroke-width="4"/>
<rect x="802" y="502" width="100" height="100" stroke="#c4c4c4" stroke-width="4"/>
<rect x="902" y="502" width="100" height="100" stroke="#c4c4c4" stroke-width="4"/>
<rect x="2" y="602" width="100" height="100" stroke="#c4c4c4" stroke-width="4"/>
<rect x="102" y="602" width="100" height="100" stroke="#c4c4c4" stroke-width="4"/>
<rect x="202" y="602" width="100" height="100" stroke="#c4c4c4" stroke-width="4"/>
<rect x="302" y="602" width="100" height="100" stroke="#c4c4c4" stroke-width="4"/>
<rect x="402" y="602" width="100" height="100" stroke="#c4c4c4" stroke-width="4"/>
<rect x="502" y="602" width="100" height="100" stroke="#c4c4c4" stroke-width="4"/>
<rect x="602" y="602" width="100" height="100" stroke="#c4c4c4" stroke-width="4"/>
<rect x="702" y="602" width="100" height="100" stroke="#c4c4c4" stroke-width="4"/>
<rect x="802" y="602" width="100" height="100" stroke="#c4c4c4" stroke-width="4"/>
<rect x="902" y="602" width="100" height="100" stroke="#c4c4c4" stroke-width="4"/>
<rect x="2" y="702" width="100" height="100" stroke="#c4c4c4" stroke-width="4"/>
<rect x="102" y="702" width="100" height="100" stroke="#c4c4c4" stroke-width="4"/>
<rect x="202" y="702" width="100" height="100" stroke="#c4c4c4" stroke-width="4"/>
<rect x="302" y="702" width="100" height="100" stroke="#c4c4c4" stroke-width="4"/>
<rect x="402" y="702" width="100" height="100" stroke="#c4c4c4" stroke-width="4"/>
<rect x="502" y="702" width="100" height="100" stroke="#c4c4c4" stroke-width="4"/>
<rect x="602" y="702" width="100" height="100" stroke="#c4c4c4" stroke-width="4"/>
<rect x="702" y="702" width="100" height="100" stroke="#c4c4c4" stroke-width="4"/>
<rect x="802" y="702" width="100" height="100" stroke="#c4c4c4" stroke-width="4"/>
<rect x="902" y="702" width="100" height="100" stroke="#c4c4c4" stroke-width="4"/>
<rect x="2" y="802" width="100" height="100" stroke="#c4c4c4" stroke-width="4"/>
<rect x="102" y="802" width="100" height="100" stroke="#c4c4c4" stroke-width="4"/>
<rect x="202" y="802" width="100" height="100" stroke="#c4c4c4" stroke-width="4"/>
<rect x="302" y="802" width="100" height="100" stroke="#c4c4c4" stroke-width="4"/>
<rect x="402" y="802" width="100" height="100" stroke="#c4c4c4" stroke-width="4"/>
<rect x="502" y="802" width="100" height="100" stroke="#c4c4c4" stroke-width="4"/>
<rect x="602" y="802" width="100" height="100" stroke="#c4c4c4" stroke-width="4"/>
<rect x="702" y="802" width="100" height="100" stroke="#c4c4c4" stroke-width="4"/>
<rect x="802" y="802" width="100" height="100" stroke="#c4c4c4" stroke-width="4"/>
<rect x="902" y="802" width="100" height="100" stroke="#c4c4c4" stroke-width="4"/>
<rect x="2" y="902" width="100" height="100" stroke="#c4c4c4" stroke-width="4"/>
<rect x="102" y="902" width="100" height="100" stroke="#c4c4c4" stroke-width="4"/>
<rect x="202" y="902" width="100" height="100" stroke="#c4c4c4" stroke-width="4"/>
<rect x="302" y="902" width="100" height="100" stroke="#c4c4c4" stroke-width="4"/>
<rect x="402" y="902" width="100" height="100" stroke="#c4c4c4" stroke-width="4"/>
<rect x="502" y="902" width="100" height="100" stroke="#c4c4c4" stroke-width="4"/>
<rect x="602" y="902" width="100" height="100" stroke="#c4c4c4" stroke-width="4"/>
<rect x="702" y="902" width="100" height="100" stroke="#c4c4c4" stroke-width="4"/>
<rect x="802" y="902" width="100" height="100" stroke="#c4c4c4" stroke-width="4"/>
<rect x="902" y="902" width="100" height="100" stroke="#c4c4c4" stroke-width="4"/>
</svg>
