<svg width="100" height="300" viewBox="0 0 100 300" fill="none" xmlns="http://www.w3.org/2000/svg">
<path d="M58.5742 277.797C54.6007 283.576 46.0663 283.576 42.0928 277.797L36.6211 269.839C35.6978 268.495 35.117 266.947 34.9287 265.328L25.9727 188.304C25.4446 183.764 23.0749 179.639 19.418 176.896L16.5664 174.758C13.8131 172.693 12.3148 169.357 12.6006 165.927L24.3028 25.5026C24.7348 20.3198 29.0678 16.3336 34.2686 16.3336L69.4737 16.3336C74.7543 16.3336 79.1247 20.4392 79.4541 25.7096L88.2979 167.203C88.4768 170.066 87.4172 172.868 85.3887 174.897L82.7237 177.562C80.2217 180.064 78.5812 183.298 78.0391 186.795L65.8389 265.484C65.6089 266.967 65.0478 268.381 64.1973 269.618L58.5742 277.797Z" fill="#4C6565" stroke="#374949" stroke-width="6.66667"/>
</svg>
