<svg width="300" height="100" viewBox="0 0 300 100" fill="none" xmlns="http://www.w3.org/2000/svg">
<path d="M238.249 86.667L78.3916 86.667C77.5327 86.667 76.6773 86.5564 75.8467 86.3379L24.1221 72.7256C19.7289 71.5695 16.667 67.5974 16.667 63.0547L16.667 35.6123C16.667 31.0696 19.7289 27.0975 24.1221 25.9414L75.8467 12.3291C76.6773 12.1105 77.5327 12 78.3916 12L239.025 12C239.843 12 240.657 12.1006 241.45 12.2988L261.922 17.416C264.155 17.9743 266.127 19.2864 267.505 21.1299L284.704 44.1328C287.586 47.987 287.313 53.3473 284.056 56.8896L267.033 75.4014C265.971 76.5562 264.653 77.4452 263.184 77.9961L241.76 86.0303C240.637 86.4512 239.448 86.667 238.249 86.667Z" fill="#A6DCF1" stroke="#70A5B9" stroke-width="6.66667"/>
</svg>
