<svg width="100" height="300" viewBox="0 0 100 300" fill="none" xmlns="http://www.w3.org/2000/svg">
<path d="M13.333 238.249L13.333 78.3915C13.3331 77.5326 13.4436 76.6772 13.6622 75.8466L27.2745 24.122C28.4306 19.7288 32.4027 16.6669 36.9454 16.6669L64.3877 16.6669C68.9304 16.6669 72.9026 19.7288 74.0586 24.122L87.6709 75.8466C87.8895 76.6772 88 77.5326 88 78.3915L88 239.025C88 239.843 87.8994 240.657 87.7012 241.45L82.584 261.922C82.0257 264.155 80.7136 266.126 78.8701 267.505L55.8672 284.704C52.013 287.586 46.6527 287.313 43.1104 284.056L24.5986 267.033C23.4438 265.971 22.5548 264.652 22.0039 263.183L13.9697 241.76C13.5488 240.637 13.333 239.448 13.333 238.249Z" fill="#A6DCF1" stroke="#70A5B9" stroke-width="6.66667"/>
</svg>
