<svg width="100" height="500" viewBox="0 0 100 500" fill="none" xmlns="http://www.w3.org/2000/svg">
<path d="M56.7597 484.667L46.3252 484.667C42.7685 484.667 39.4796 482.777 37.6875 479.705L20.0293 449.434C19.1372 447.904 18.667 446.166 18.667 444.396L18.667 366.83C18.6669 365.039 18.3779 363.259 17.8115 361.56L9.17966 335.665C8.83983 334.645 8.66697 333.578 8.66697 332.503L8.66699 109.497C8.66699 108.422 8.83985 107.355 9.17968 106.335L17.8115 80.4404C18.378 78.7411 18.667 76.9612 18.667 75.1699L18.667 49.29C18.667 48.3169 18.8092 47.3491 19.0889 46.417L25.6758 24.46C26.9447 20.2301 30.8378 17.333 35.2539 17.333L67.4023 17.333C72.1691 17.333 76.2731 20.6979 77.208 25.3721L81.4727 46.6924C81.6018 47.338 81.667 47.9949 81.667 48.6533L81.667 75.1699C81.667 76.9612 81.955 78.7411 82.5215 80.4404L91.1533 106.335C91.4932 107.355 91.667 108.422 91.667 109.497L91.667 332.503C91.667 333.578 91.4932 334.645 91.1533 335.665L82.5215 361.56C81.955 363.259 81.667 365.039 81.667 366.83L81.667 444.853C81.6669 446.405 81.3054 447.936 80.6113 449.324L65.7041 479.139C64.0102 482.526 60.5474 484.667 56.7597 484.667Z" fill="#4C6565" stroke="#374949" stroke-width="6.66667"/>
</svg>
