<svg width="300" height="100" viewBox="0 0 300 100" fill="none" xmlns="http://www.w3.org/2000/svg">
<path d="M277.797 41.4258C283.576 45.3993 283.576 53.9337 277.797 57.9072L269.838 63.3789C268.495 64.3022 266.947 64.883 265.328 65.0713L188.304 74.0273C183.764 74.5554 179.639 76.9251 176.896 80.582L174.758 83.4336C172.693 86.1869 169.357 87.6852 165.927 87.3994L25.5026 75.6973C20.3198 75.2652 16.3336 70.9322 16.3336 65.7314L16.3336 30.5264C16.3336 25.2457 20.4392 20.8753 25.7096 20.5459L167.203 11.7021C170.066 11.5232 172.868 12.5828 174.897 14.6113L177.562 17.2764C180.064 19.7783 183.298 21.4188 186.795 21.9609L265.484 34.1611C266.967 34.3911 268.381 34.9523 269.618 35.8027L277.797 41.4258Z" fill="#4C6565" stroke="#374949" stroke-width="6.66667"/>
</svg>
