<svg width="500" height="100" viewBox="0 0 500 100" fill="none" xmlns="http://www.w3.org/2000/svg">
<path d="M484.667 43.2403L484.667 53.6748C484.667 57.2315 482.777 60.5204 479.705 62.3125L449.434 79.9707C447.904 80.8628 446.166 81.333 444.396 81.333L366.83 81.333C365.039 81.3331 363.259 81.6221 361.56 82.1885L335.665 90.8203C334.645 91.1602 333.578 91.333 332.503 91.333L109.497 91.333C108.422 91.333 107.355 91.1602 106.335 90.8203L80.4404 82.1885C78.7411 81.6221 76.9612 81.333 75.1699 81.333L49.29 81.333C48.3169 81.333 47.3491 81.1908 46.417 80.9111L24.46 74.3242C20.2301 73.0553 17.333 69.1622 17.333 64.7461L17.333 32.5977C17.333 27.8309 20.6979 23.7269 25.3721 22.792L46.6924 18.5274C47.338 18.3982 47.9949 18.333 48.6533 18.333L75.1699 18.333C76.9612 18.333 78.7411 18.045 80.4404 17.4785L106.335 8.84669C107.355 8.50683 108.422 8.33302 109.497 8.33302L332.503 8.33303C333.578 8.33303 334.645 8.50684 335.665 8.8467L361.56 17.4785C363.259 18.045 365.039 18.333 366.83 18.333L444.853 18.333C446.405 18.3331 447.936 18.6946 449.324 19.3887L479.139 34.2959C482.526 35.9898 484.667 39.4526 484.667 43.2403Z" fill="#A6DCF1" stroke="#70A5B9" stroke-width="6.66667"/>
</svg>
