<svg width="100" height="500" viewBox="0 0 100 500" fill="none" xmlns="http://www.w3.org/2000/svg">
<path d="M56.7598 484.667L46.3252 484.667C42.7685 484.667 39.4796 482.777 37.6875 479.705L20.0293 449.434C19.1373 447.904 18.667 446.166 18.667 444.396L18.667 366.83C18.667 365.039 18.378 363.259 17.8116 361.56L9.17972 335.665C8.83989 334.645 8.66703 333.578 8.66703 332.503L8.66705 109.497C8.66705 108.422 8.83991 107.355 9.17974 106.335L17.8116 80.4404C18.378 78.7411 18.667 76.9612 18.6671 75.1699L18.6671 49.29C18.6671 48.3169 18.8093 47.3491 19.0889 46.417L25.6758 24.46C26.9448 20.2301 30.8379 17.333 35.254 17.333L67.4024 17.333C72.1692 17.333 76.2732 20.6979 77.2081 25.3721L81.4727 46.6924C81.6018 47.338 81.667 47.9949 81.6671 48.6533L81.6671 75.1699C81.6671 76.9612 81.9551 78.7411 82.5215 80.4404L91.1534 106.335C91.4932 107.355 91.667 108.422 91.667 109.497L91.667 332.503C91.667 333.578 91.4932 334.645 91.1534 335.665L82.5215 361.56C81.9551 363.259 81.6671 365.039 81.667 366.83L81.667 444.853C81.667 446.405 81.3055 447.936 80.6114 449.324L65.7041 479.139C64.0102 482.526 60.5474 484.667 56.7598 484.667Z" fill="#A6DCF1" stroke="#70A5B9" stroke-width="6.66667"/>
</svg>
