<svg width="100" height="100" viewBox="0 0 100 100" fill="none" xmlns="http://www.w3.org/2000/svg">
<path d="M60.5 24.3968C62.0938 25.428 62.0938 25.428 63 26.8968C63.1937 28.75 63.1462 30.5416 63 32.3968C63.6342 32.4432 63.6342 32.4432 64.2812 32.4905C66.8303 33.093 68.6564 34.2037 70.1836 36.3636C71.0334 37.9138 71.5186 38.9882 71.4375 40.7718C71.0162 41.8551 70.5645 42.8806 70 43.8968C70.2372 44.1855 70.4744 44.4743 70.7188 44.7718C71.5187 45.9237 71.9181 46.5042 72 47.8968C71.0904 50.4651 69.8634 51.5894 67.5 52.8968C67.17 52.8968 66.84 52.8968 66.5 52.8968C66.5206 53.433 66.5412 53.9693 66.5625 54.5218C66.5057 56.2255 66.3936 57.0005 65.5 58.3968C66.0878 58.9227 66.0878 58.9227 66.6875 59.4593C68.609 61.5638 69.1239 63.3083 69 66.1155C68.6233 68.6834 67.5083 70.284 65.5 71.8968C64.2102 72.6523 62.9483 73.0434 61.5 73.3968C60.9219 73.5495 60.9219 73.5495 60.332 73.7054C56.7169 74.4793 53.0875 74.5008 49.4062 74.5218C48.8955 74.5264 48.3847 74.531 47.8584 74.5358C43.1757 74.5164 39.4141 74.3109 36 70.8968C35.132 69.1607 35.1986 67.2906 35.5 65.3968C36.6875 63.928 36.6875 63.928 38 62.8968C38.495 62.4018 38.495 62.4018 39 61.8968C38.7525 61.6493 38.7525 61.6493 38.5 61.3968C38.3824 58.6321 38.3824 58.6321 39 57.3968C38.175 57.2318 37.35 57.0668 36.5 56.8968C36.743 54.7096 37.4181 53.8774 39 52.3968C38.3832 52.2779 38.3832 52.2779 37.7539 52.1565C30.2003 50.5778 30.2003 50.5778 27.5 48.3968C27.0547 47.1468 27.0547 47.1468 27 45.8968C28.6793 43.6927 30.4805 42.8354 33 41.8968C32.7216 41.7008 32.4431 41.5049 32.1562 41.303C28.587 38.5055 28.587 38.5055 28.25 36.1468C28.6504 33.3439 29.8442 31.7134 32.0742 29.9612C34.7398 28.336 37.8306 27.9153 40.875 27.5218C42.9291 27.1862 43.8767 26.7735 45.1875 25.1468C45.3873 24.8426 45.5871 24.5383 45.793 24.2249C49.192 20.2437 56.5792 22.4364 60.5 24.3968Z" fill="#CFDDE1"/>
<path d="M62.5 39.3967C65.47 39.3967 68.44 39.3967 71.5 39.3967C71.1244 41.2749 70.88 42.3128 70 43.8967C70.2372 44.1855 70.4744 44.4742 70.7188 44.7717C71.5187 45.9236 71.9181 46.5042 72 47.8967C71.0904 50.465 69.8634 51.5893 67.5 52.8967C67.17 52.8967 66.84 52.8967 66.5 52.8967C66.5206 53.433 66.5413 53.9692 66.5625 54.5217C66.5057 56.2255 66.3936 57.0004 65.5 58.3967C65.8919 58.7474 66.2838 59.098 66.6875 59.4592C68.6091 61.5638 69.1239 63.3082 69 66.1155C68.6233 68.6834 67.5083 70.2839 65.5 71.8967C64.2102 72.6522 62.9483 73.0434 61.5 73.3967C60.9219 73.5495 60.9219 73.5495 60.332 73.7053C56.7169 74.4792 53.0875 74.5008 49.4063 74.5217C48.8955 74.5264 48.3847 74.531 47.8584 74.5358C43.1757 74.5164 39.4141 74.3108 36 70.8967C35.3986 69.694 35.4497 68.9217 35.4688 67.5842C35.4733 67.1756 35.4778 66.767 35.4824 66.3459C35.4882 66.0327 35.494 65.7195 35.5 65.3967C35.7166 65.8763 35.7166 65.8763 35.9375 66.3655C36.4141 67.4728 36.4141 67.4728 37.5 67.8967C40.3546 68.0839 41.5592 67.914 44 66.3967C45.4063 66.553 45.4063 66.553 46.5 66.8967C46.995 66.2367 47.49 65.5767 48 64.8967C48.3403 65.0617 48.6806 65.2267 49.0313 65.3967C50.784 65.9934 52.1587 66.0331 54 65.8967C54.495 65.5667 54.99 65.2367 55.5 64.8967C57.3003 64.8664 59.0772 64.9633 60.875 65.0569C62.5256 65.065 62.5256 65.065 63.4512 63.969C64.1603 62.5836 64.3367 61.9306 64 60.3967C61.8259 57.8603 59.4686 57.3788 56.2559 56.7346C55.8414 56.6231 55.427 56.5116 55 56.3967C54.835 56.0667 54.67 55.7367 54.5 55.3967C54.9215 55.3664 55.3431 55.3361 55.7774 55.3049C56.3252 55.263 56.8731 55.2211 57.4375 55.178C57.9828 55.1374 58.5281 55.0968 59.0899 55.0549C60.4737 54.9817 60.4737 54.9817 61.5 54.3967C60.0087 53.6345 58.5909 52.927 57 52.3967C56.3309 52.725 55.6645 53.059 55 53.3967C52.3788 53.6866 49.8687 53.66 47.5 52.3967C47.5 52.2317 47.5 52.0667 47.5 51.8967C47.8074 51.8477 48.1149 51.7988 48.4316 51.7483C48.8358 51.6735 49.2399 51.5988 49.6563 51.5217C50.0565 51.4521 50.4568 51.3825 50.8691 51.3108C52.0764 50.9862 52.0764 50.9862 52.7461 49.8909C53.5 48.8967 53.5 48.8967 54.6348 48.5354C55.0544 48.4793 55.474 48.4233 55.9063 48.3655C58.0088 48.0156 59.6673 47.5421 61.5 46.3967C62.6403 44.6863 62.6096 44.0558 62.5625 42.053C62.5419 41.1764 62.5213 40.2999 62.5 39.3967Z" fill="#A0B2BC"/>
<path d="M60.5 24.3967C61.1802 24.8782 61.8518 25.3731 62.5 25.8967C62.4682 27.516 62.406 28.8481 61.416 30.1858C59.0919 32.1828 56.6562 32.224 53.6895 32.1174C51.124 31.7823 48.8511 30.9522 46.5 29.8967C46.4401 30.2055 46.3801 30.5142 46.3184 30.8323C45.7063 32.8787 43.7967 33.7263 42.0312 34.7405C38.8936 36.0852 35.3793 36.2922 32 35.8967C30.4062 34.8967 30.4062 34.8967 29.5 33.8967C29.6178 32.3065 30.0999 31.7917 31.2188 30.6155C34.016 28.4443 37.4501 27.9644 40.875 27.5217C42.9291 27.1861 43.8767 26.7734 45.1875 25.1467C45.4872 24.6904 45.4872 24.6904 45.793 24.2249C49.1985 20.2361 56.5623 22.4603 60.5 24.3967Z" fill="#FEFEFE"/>
<path d="M58.5 37.3968C58.7475 38.6343 58.7475 38.6343 59 39.8968C57.9836 41.0584 57.3576 41.7094 56 42.3968C54.3457 42.5019 52.7394 42.4248 51.084 42.3519C49.4952 42.3969 48.7998 42.5904 47.4688 43.3968C45.0118 44.8658 42.2786 44.8222 39.5 44.3968C37.1656 43.228 37.1656 43.228 36.5 41.8968C36.9847 41.9277 37.4694 41.9587 37.9688 41.9906C40.2764 41.9859 42.4338 41.4203 44.5 40.3968C44.7913 40.0501 45.0827 39.7033 45.3828 39.346C46.9957 37.9757 48.5266 38.2152 50.5312 38.3343C53.5329 38.4794 55.6413 37.2423 58.5 37.3968Z" fill="#A2B4BD"/>
</svg>
