<svg width="100" height="100" viewBox="0 0 100 100" fill="none" xmlns="http://www.w3.org/2000/svg">
<path d="M62.6006 26.65C63.5994 27.5977 64.0551 29.1212 64.2545 30.4441C64.2632 30.5017 64.2719 30.5592 64.2809 30.6185C64.2874 30.6619 64.2939 30.7053 64.3006 30.75C64.3363 30.7417 64.372 30.7334 64.4088 30.7248C66.1236 30.3266 66.1236 30.3266 66.9006 30.2C66.9627 30.1896 67.0247 30.1792 67.0887 30.1685C69.2991 29.8026 71.7617 29.6857 73.6985 31.0173C73.9078 31.1686 74.1054 31.3308 74.3006 31.5C74.3384 31.5327 74.3763 31.5654 74.4153 31.5992C75.3687 32.4898 75.9174 33.8408 76.1506 35.1C76.1644 35.1719 76.1644 35.1719 76.1784 35.2452C76.6606 37.8792 76.4514 40.7893 74.9164 43.0549C74.0517 44.3048 72.913 45.2072 71.6006 45.95C71.5643 45.9708 71.5279 45.9917 71.4905 46.0132C70.6129 46.5146 69.6696 46.8252 68.7006 47.1C68.7455 47.1164 68.7903 47.1328 68.8365 47.1498C71.0468 47.9824 73.5372 49.9196 74.5439 52.0935C75.0508 53.237 75.1014 54.4273 74.9006 55.65C74.895 55.686 74.8893 55.7221 74.8835 55.7593C74.557 57.7671 73.4346 59.5953 72.0506 61.05C71.997 61.1083 71.997 61.1083 71.9424 61.1679C70.5929 62.5932 68.5483 63.2451 66.6267 63.3095C66.4382 63.3136 66.2499 63.314 66.0614 63.313C65.9473 63.3125 65.8333 63.313 65.7193 63.3136C63.3793 63.3159 61.4671 62.166 59.6506 60.8C59.6427 60.8357 59.6347 60.8715 59.6266 60.9084C59.2887 62.3514 58.4489 63.5462 57.4633 64.6261C57.3869 64.7101 57.3113 64.7947 57.2363 64.88C57.0056 65.142 56.7707 65.379 56.5006 65.6C56.4614 65.6326 56.4614 65.6326 56.4213 65.666C54.355 67.3833 51.807 68.1752 49.1246 67.9341C48.7631 67.8904 48.4066 67.8261 48.0506 67.75C48.0067 67.7406 47.9629 67.7312 47.9176 67.7216C47.3484 67.5954 46.8234 67.407 46.3006 67.15C46.2435 67.1221 46.1864 67.0943 46.1276 67.0656C44.7785 66.3734 43.8278 65.2526 43.3631 63.8207C43.2535 63.4545 43.1988 63.0783 43.1506 62.7C43.144 62.6504 43.1375 62.6008 43.1307 62.5498C43.0979 62.2664 43.0951 61.985 43.1006 61.7C43.053 61.72 43.0055 61.74 42.9565 61.7607C40.4149 62.8039 37.4321 63.176 34.8205 62.1243C34.2208 61.8686 33.7145 61.5054 33.2506 61.05C33.2126 61.0132 33.1745 60.9763 33.1354 60.9384C31.8223 59.5822 31.5813 57.4461 31.5848 55.654C31.585 55.4884 31.5838 55.3228 31.5825 55.1572C31.5797 54.2036 31.6864 53.316 31.9506 52.4C31.9739 52.3021 31.9968 52.2042 32.0194 52.1062C32.2704 51.1114 32.6975 50.0826 33.3006 49.25C33.3528 49.1775 33.3528 49.1775 33.4061 49.1037C33.5188 48.9507 33.6339 48.8 33.7506 48.65C33.7867 48.6035 33.8228 48.557 33.86 48.5091C34.1035 48.2034 34.364 47.9345 34.651 47.6705C34.6839 47.6307 34.7167 47.5909 34.7506 47.55C34.7331 47.3962 34.6778 47.3061 34.5781 47.1906C34.5398 47.1452 34.5398 47.1452 34.5007 47.0989C34.4728 47.0662 34.445 47.0336 34.4162 47C33.7431 46.1894 33.1828 45.3076 32.6506 44.4C32.6166 44.3422 32.6166 44.3422 32.5819 44.2833C31.9905 43.2714 31.4868 42.2065 31.1006 41.1C31.0856 41.0573 31.0705 41.0147 31.055 40.9708C30.7403 40.0745 30.4821 39.173 30.3131 38.2375C30.2982 38.155 30.2982 38.155 30.283 38.0709C30.1458 37.274 30.0819 36.4897 30.0821 35.6812C30.0819 35.5383 30.08 35.3954 30.0781 35.2525C30.0654 33.1358 30.933 31.3617 32.3426 29.8191C32.4413 29.7103 32.5367 29.5994 32.6319 29.4875C32.7691 29.3287 32.9163 29.1954 33.0815 29.0662C33.1646 28.9969 33.1646 28.9969 33.2006 28.85C33.2724 28.7812 33.2724 28.7812 33.3651 28.7107C33.3994 28.6844 33.4337 28.6581 33.469 28.6311C33.5249 28.5894 33.5249 28.5894 33.5819 28.5468C33.6203 28.5179 33.6587 28.489 33.6983 28.4592C34.6165 27.7735 35.5781 27.2096 36.6506 26.8C36.6861 26.7863 36.7216 26.7727 36.7582 26.7586C37.2313 26.5804 37.7144 26.4536 38.2069 26.3406C38.2577 26.3287 38.3085 26.3168 38.3609 26.3045C39.351 26.0874 40.3417 26.0252 41.3532 26.0304C41.5373 26.0312 41.7213 26.0304 41.9053 26.0294C44.6221 26.027 47.6373 26.5898 49.8006 28.35C49.9684 28.2766 50.081 28.1823 50.2131 28.0562C51.0752 27.2708 52.0794 26.6563 53.1506 26.2C53.1877 26.1837 53.2247 26.1675 53.2629 26.1508C55.9978 24.9696 60.2213 24.499 62.6006 26.65Z" fill="#FFC748"/>
<path d="M30.9506 18.55C30.7683 18.6979 30.5838 18.8281 30.385 18.9531C29.3211 19.6308 28.3192 20.3925 27.3506 21.2C27.321 21.2247 27.2913 21.2494 27.2607 21.2749C26.5904 21.8357 25.9601 22.436 25.3402 23.0517C25.2855 23.106 25.2308 23.1602 25.1759 23.2143C24.8665 23.5201 24.5759 23.8303 24.3046 24.1712C24.2052 24.2944 24.1019 24.412 23.9955 24.5293C23.7941 24.7537 23.6116 24.9893 23.4319 25.2313C23.3832 25.2966 23.3832 25.2966 23.3335 25.3632C23.0591 25.7338 22.7974 26.1105 22.5506 26.5C22.5238 26.5419 22.5238 26.5419 22.4965 26.5846C21.9143 27.5019 21.4202 28.4785 21.0506 29.5C21.0301 29.5557 21.0301 29.5557 21.0091 29.6125C20.5057 30.9883 20.2637 32.4542 20.28 33.9161C20.2819 34.0849 20.2821 34.2536 20.2821 34.4224C20.285 35.3398 20.3335 36.2536 20.5069 37.1563C20.5174 37.2119 20.528 37.2675 20.5388 37.3247C20.8617 38.9513 21.4362 40.532 22.3006 41.95C22.3222 41.9856 22.3438 42.0211 22.366 42.0577C22.7333 42.6595 23.1308 43.2339 23.5506 43.8C23.6023 43.8704 23.654 43.9409 23.7057 44.0113C23.9817 44.3856 24.2681 44.7472 24.5717 45.0994C24.6914 45.2393 24.8073 45.3814 24.9225 45.525C25.1415 45.7943 25.3756 46.0474 25.6123 46.301C25.7171 46.4133 25.8193 46.5272 25.9194 46.6438C26.0946 46.8463 26.2773 47.0417 26.46 47.2375C26.4903 47.27 26.5207 47.3026 26.552 47.3361C26.5811 47.3673 26.6102 47.3984 26.6403 47.4305C26.6679 47.4603 26.6955 47.4901 26.7239 47.5208C26.8053 47.6076 26.8053 47.6076 26.925 47.7039C27.0006 47.8 27.0006 47.8 26.9872 47.9402C26.9526 48.0915 26.9077 48.2138 26.8412 48.3535C26.8077 48.4258 26.8077 48.4258 26.7735 48.4995C26.7495 48.5512 26.7254 48.6029 26.7006 48.6563C26.1311 49.9247 25.8073 51.2393 25.5506 52.6C25.5402 52.6541 25.5297 52.7082 25.5189 52.7639C25.3758 53.5411 25.3843 54.3311 25.3787 55.1188C25.3778 55.1993 25.3778 55.1993 25.3768 55.2815C25.3674 56.2653 25.4768 57.1531 25.9006 58.05C25.9156 58.0817 25.9305 58.1134 25.946 58.1461C26.1621 58.5948 26.412 58.9814 26.7506 59.35C26.7728 59.3746 26.7949 59.3991 26.8178 59.4244C27.5677 60.2474 28.5387 60.7712 29.6506 60.9C29.6525 60.9623 29.6544 61.0247 29.6563 61.0889C29.705 62.4476 29.9673 63.7236 31.0006 64.7C31.3281 64.9694 31.7145 65.1317 32.1006 65.3C31.4531 65.7317 30.352 65.6911 29.6174 65.5652C28.773 65.3888 28.0976 64.9542 27.5992 64.2537C27.1873 63.6118 27.0281 62.9064 27.1006 62.15C27.1507 61.9575 27.2154 61.7796 27.3006 61.6C27.2676 61.6 27.2346 61.6 27.2006 61.6C27.1913 61.6392 27.1821 61.6784 27.1725 61.7188C26.951 62.2774 26.5573 62.6722 26.0131 62.9125C24.5179 63.4901 22.7477 63.2765 21.309 62.6463C19.4209 61.7899 17.7292 60.4686 16.9765 58.487C16.8576 58.1593 16.7632 57.8272 16.685 57.4875C16.673 57.4362 16.673 57.4362 16.6608 57.3839C16.1908 55.1856 16.6062 52.7237 17.5006 50.7C17.5221 50.6511 17.5436 50.6022 17.5657 50.5519C17.9807 49.6133 18.4289 48.6948 18.983 47.8297C19.005 47.795 19.027 47.7604 19.0496 47.7246C19.0692 47.6944 19.0887 47.6641 19.1089 47.633C19.1619 47.5432 19.1619 47.5432 19.1506 47.4C19.0502 47.3196 18.9513 47.2488 18.8444 47.1781C18.456 46.9113 18.1003 46.6154 17.7506 46.3C17.7132 46.2662 17.6757 46.2325 17.6371 46.1977C16.8401 45.4379 16.2852 44.4506 15.8506 43.45C15.8277 43.3993 15.8047 43.3486 15.7811 43.2963C14.5876 40.4674 14.9718 36.7284 15.5506 33.8C15.5621 33.7395 15.5736 33.6789 15.5854 33.6165C15.7442 32.7792 15.9396 31.9614 16.2006 31.15C16.2173 31.0979 16.234 31.0458 16.2512 30.9921C16.9773 28.7511 18.0795 26.642 19.5506 24.8C19.6058 24.7303 19.6058 24.7303 19.6621 24.6592C19.9009 24.3621 20.1523 24.0797 20.4119 23.801C20.5165 23.6885 20.6173 23.5733 20.7176 23.457C20.9025 23.2449 21.098 23.0452 21.2975 22.8469C21.3307 22.8135 21.3639 22.78 21.3982 22.7456C21.5941 22.5501 21.7951 22.3635 22.0047 22.1828C22.0942 22.1056 22.1824 22.0272 22.2703 21.9482C24.0088 20.4014 26.0735 19.2205 28.3506 18.7C28.3862 18.6917 28.4218 18.6833 28.4585 18.6748C29.276 18.4918 30.1183 18.5355 30.9506 18.55Z" fill="#E3A046"/>
<path d="M73.7006 62.15C73.9636 62.342 74.0986 62.5361 74.2444 62.825C74.2656 62.8667 74.2869 62.9083 74.3089 62.9513C75.194 64.7256 75.573 66.8826 74.9595 68.8024C74.628 69.772 74.0355 70.5993 73.3506 71.35C73.3157 71.3885 73.2807 71.427 73.2448 71.4668C72.357 72.3987 71.1739 72.864 69.9018 72.9047C69.7503 72.9066 69.599 72.9068 69.4475 72.9062C69.3969 72.9064 69.3464 72.9066 69.2943 72.9068C68.8641 72.9062 68.4584 72.895 68.0506 72.75C67.9341 72.7321 67.8175 72.7153 67.7006 72.7C67.7032 72.769 67.7032 72.769 67.7059 72.8394C67.7263 73.7931 67.4771 74.7774 66.9006 75.55C66.8645 75.5998 66.8645 75.5998 66.8276 75.6505C66.4744 76.1003 65.9636 76.3437 65.4004 76.4121C64.2908 76.5045 63.2456 76.0938 62.3006 75.55C62.2888 75.5848 62.277 75.6197 62.2649 75.6556C62.1891 75.8259 62.0871 75.964 61.9725 76.1093C61.9503 76.1378 61.9281 76.1662 61.9052 76.1955C61.6984 76.4577 61.4797 76.707 61.2506 76.95C61.217 76.9868 61.1835 77.0236 61.1489 77.0615C60.667 77.5704 60.0678 77.9733 59.4506 78.3C59.3874 78.3336 59.3874 78.3336 59.3229 78.3679C58.9024 78.575 58.4541 78.6897 58.0006 78.8C57.9673 78.8084 57.9339 78.8168 57.8995 78.8254C56.9308 79.0617 55.867 79.0272 54.9006 78.8C54.8168 78.7829 54.8168 78.7829 54.7313 78.7654C53.6244 78.5317 52.6032 78.0507 51.6506 77.45C51.5698 77.399 51.5698 77.399 51.4873 77.347C50.8773 76.9502 50.327 76.5005 49.8006 76C49.7653 75.9679 49.73 75.9358 49.6936 75.9027C48.7014 74.971 48.0141 73.5527 47.9006 72.2C47.8952 72.0249 47.8958 71.8501 47.8975 71.675C47.8977 71.6291 47.8979 71.5832 47.8982 71.5359C47.8988 71.4239 47.8996 71.3119 47.9006 71.2C48.1917 71.3546 48.4777 71.5152 48.7603 71.6847C50.0541 72.4589 51.3579 72.8224 52.8569 72.8156C52.8974 72.8155 52.9379 72.8154 52.9797 72.8154C53.6146 72.8133 54.2271 72.7769 54.8506 72.65C54.9066 72.6395 54.9066 72.6395 54.9636 72.6289C56.7091 72.3029 58.2086 71.5112 59.5006 70.3C59.5376 70.2655 59.5376 70.2655 59.5754 70.2303C60.2734 69.5752 60.8119 68.8197 61.3006 68C61.4511 68.0668 61.5488 68.1385 61.6596 68.2597C62.5478 69.2059 63.3841 69.4495 64.6631 69.4968C66.4892 69.5526 68.2193 68.9868 69.8506 68.2C69.8965 68.1782 69.9424 68.1564 69.9897 68.1339C70.5586 67.863 71.1024 67.5893 71.6006 67.2C71.6278 67.1788 71.6551 67.1577 71.6831 67.1359C72.8311 66.2361 73.4651 64.9898 73.6506 63.55C73.668 63.3042 73.6757 63.0587 73.6819 62.8125C73.6838 62.7484 73.6857 62.6843 73.6877 62.6183C73.6924 62.4622 73.6967 62.3061 73.7006 62.15Z" fill="#E39F46"/>
<path d="M62.6006 26.65C63.5994 27.5977 64.0552 29.1212 64.2545 30.4441C64.2632 30.5017 64.272 30.5592 64.2809 30.6185C64.2874 30.6619 64.2939 30.7053 64.3006 30.75C64.3363 30.7417 64.3721 30.7334 64.4089 30.7248C66.1236 30.3266 66.1236 30.3266 66.9006 30.2C66.9627 30.1896 67.0247 30.1792 67.0887 30.1685C69.2991 29.8026 71.7618 29.6857 73.6985 31.0173C73.9078 31.1686 74.1054 31.3308 74.3006 31.5C74.3385 31.5327 74.3763 31.5654 74.4153 31.5992C75.3687 32.4898 75.9174 33.8408 76.1506 35.1C76.1644 35.1719 76.1644 35.1719 76.1784 35.2452C76.6032 37.5657 76.3833 39.7579 75.5506 41.95C75.5015 41.7771 75.5083 41.693 75.5662 41.5218C76.0901 39.717 75.6781 37.4893 74.8055 35.8675C74.4468 35.2308 74.0057 34.6748 73.5006 34.15C73.4722 34.1184 73.4438 34.0868 73.4145 34.0543C72.0216 32.5509 69.672 31.9848 67.7006 31.9C65.9373 31.8434 64.1833 31.9622 62.511 32.5474C62.3739 32.5923 62.2426 32.6256 62.1006 32.65C62.1194 32.6719 62.1381 32.6938 62.1575 32.7164C62.5728 33.2311 62.7095 33.7687 62.71 34.4156C62.7106 34.4612 62.7112 34.5068 62.7119 34.5538C62.7125 34.8368 62.6812 35.0784 62.6006 35.35C62.4812 35.2306 62.4484 35.1293 62.3881 34.9718C62.2614 34.6598 62.1119 34.3556 61.8666 34.1189C61.8006 34.05 61.8006 34.05 61.8006 33.95C61.7726 33.9369 61.7445 33.9238 61.7157 33.9103C61.5893 33.844 61.4773 33.7656 61.36 33.6843C60.6604 33.2366 59.8533 33.1312 59.0381 33.1437C58.9812 33.1442 58.9243 33.1446 58.8657 33.1451C58.7273 33.1462 58.589 33.1479 58.4506 33.15C58.6746 32.6848 59.1695 32.4319 59.6312 32.2407C59.9899 32.1184 60.3754 32.0869 60.7506 32.05C60.5593 30.8946 60.3062 29.7201 59.4006 28.9C59.2718 28.811 59.1482 28.7507 59.0006 28.7C58.946 28.6793 58.8913 28.6587 58.835 28.6375C57.7761 28.4221 56.7256 28.8939 55.8506 29.45C54.979 30.0314 54.3935 30.6997 54.1303 31.7117C54.0637 32.1343 54.1096 32.5159 54.2006 32.9312C54.2149 32.9994 54.2149 32.9994 54.2295 33.0689C54.2528 33.1794 54.2765 33.2897 54.3006 33.4C54.3526 33.3987 54.4047 33.3975 54.4582 33.3962C55.4129 33.4147 56.3551 33.932 57.0506 34.55C57.0856 34.5807 57.1205 34.6114 57.1565 34.6431C58.2062 35.6275 58.7359 37.1605 58.9506 38.55C58.9523 38.6333 58.9528 38.7167 58.9506 38.8C58.8209 38.6443 58.7047 38.4832 58.5912 38.3156C58.399 38.0392 58.1819 37.7941 57.9506 37.55C57.9157 37.5124 57.8808 37.4748 57.8448 37.4361C56.7059 36.2493 55.159 35.6543 53.5506 35.45C53.5075 35.4444 53.4644 35.4389 53.42 35.4332C50.7727 35.1561 48.1873 35.93 46.0006 37.4C45.9841 37.3505 45.9676 37.301 45.9506 37.25C45.9959 37.1606 45.9959 37.1606 46.0686 37.0613C46.0953 37.0245 46.1219 36.9877 46.1494 36.9498C46.1787 36.9106 46.208 36.8715 46.2381 36.8312C46.2678 36.7909 46.2975 36.7506 46.328 36.709C46.5489 36.4118 46.7806 36.1262 47.0237 35.847C47.1428 35.709 47.2563 35.5679 47.3694 35.425C47.8958 34.7817 48.5672 34.0664 49.3506 33.75C49.3836 33.75 49.4166 33.75 49.4506 33.75C49.1452 32.111 48.2072 30.8068 47.1506 29.55C47.1161 29.5088 47.0815 29.4676 47.0459 29.4252C46.9658 29.3317 46.8841 29.2404 46.8006 29.15C46.7731 29.1192 46.7456 29.0885 46.7172 29.0568C45.3061 27.5554 43.0446 26.9799 41.0506 26.9C40.7005 26.8916 40.3507 26.8941 40.0006 26.9C39.9568 26.9006 39.9129 26.9012 39.8678 26.9019C37.9944 26.9359 36.1019 27.3485 34.4506 28.25C34.3933 28.2812 34.3933 28.2812 34.3349 28.313C33.9544 28.5211 33.5769 28.7344 33.2006 28.95C33.2006 28.917 33.2006 28.884 33.2006 28.85C33.2667 28.7869 33.2667 28.7869 33.3602 28.7156C33.3947 28.6891 33.4291 28.6627 33.4647 28.6355C33.5023 28.6072 33.54 28.579 33.5787 28.55C33.6174 28.5208 33.656 28.4916 33.6958 28.4616C34.6144 27.7744 35.577 27.21 36.6506 26.8C36.6861 26.7863 36.7216 26.7727 36.7582 26.7586C37.2313 26.5804 37.7144 26.4536 38.2069 26.3406C38.2577 26.3287 38.3085 26.3168 38.3609 26.3045C39.351 26.0874 40.3417 26.0252 41.3533 26.0304C41.5373 26.0312 41.7213 26.0304 41.9053 26.0294C44.6221 26.027 47.6373 26.5898 49.8006 28.35C49.9685 28.2766 50.0811 28.1823 50.2131 28.0562C51.0752 27.2708 52.0794 26.6563 53.1506 26.2C53.1877 26.1837 53.2248 26.1675 53.263 26.1508C55.9979 24.9696 60.2213 24.499 62.6006 26.65Z" fill="#FFF36A"/>
<path d="M31.7506 53.15C31.7671 53.15 31.7836 53.15 31.8006 53.15C31.8066 53.1826 31.8126 53.2152 31.8188 53.2488C32.1765 55.1704 32.7876 56.9058 34.1506 58.35C34.2019 58.4061 34.2019 58.4061 34.2543 58.4634C35.6533 59.9401 37.7884 60.4473 39.7514 60.5093C40.9331 60.5321 42.0877 60.3767 42.9728 59.5278C43.0326 59.4691 43.0917 59.4096 43.1506 59.35C43.0759 59.1856 42.9801 59.0546 42.8693 58.9125C42.4707 58.3682 42.1891 57.7616 42.0506 57.1C42.0417 57.0587 42.0328 57.0175 42.0236 56.975C41.9191 56.4152 41.9396 55.8515 41.9443 55.2843C41.9448 55.1789 41.9453 55.0735 41.9457 54.968C41.9468 54.712 41.9485 54.456 41.9506 54.2C42.0485 54.324 42.1243 54.4382 42.1834 54.5847C42.2055 54.6377 42.2055 54.6377 42.228 54.6918C42.2437 54.7296 42.2594 54.7673 42.2756 54.8062C43.0777 56.6626 44.5575 58.1456 46.4375 58.9053C48.5469 59.6988 50.4106 59.3925 52.4535 58.6014C52.5861 58.555 52.7123 58.5233 52.8506 58.5C52.6705 58.7206 52.4874 58.9088 52.2705 59.0925C52.1166 59.2304 51.9734 59.3775 51.8287 59.525C50.7243 60.6386 49.3504 60.7504 47.8506 60.8C47.8164 60.8011 47.7822 60.8023 47.7469 60.8035C47.1756 60.8203 46.6174 60.765 46.0506 60.7C45.9923 61.0633 45.9878 61.4267 45.9858 61.7939C45.9852 61.8661 45.9842 61.9382 45.9827 62.0104C45.9637 62.938 46.1748 63.7445 46.8301 64.4359C47.8111 65.3645 49.2179 65.5746 50.5199 65.5574C52.7545 65.4656 54.7953 64.7939 56.4449 63.2468C56.5204 63.1776 56.599 63.1116 56.6793 63.048C56.861 62.9011 57.0018 62.7295 57.1506 62.55C57.1711 62.5256 57.1916 62.5012 57.2128 62.4761C58.1946 61.3038 58.6482 60.0179 58.7506 58.5C58.7027 58.4902 58.6548 58.4804 58.6055 58.4703C57.7769 58.2889 56.9082 57.9648 56.4082 57.2418C56.1852 56.8865 56.2406 56.5482 56.3006 56.15C56.3509 56.1759 56.4013 56.2019 56.4531 56.2287C57.6798 56.8451 59.0212 57.0295 60.3506 56.6C60.7755 56.449 61.1752 56.2525 61.5547 56.0082C61.6506 55.95 61.6506 55.95 61.8006 55.9C61.8397 56.6824 61.5515 57.2865 61.0623 57.8783C60.9673 57.9818 60.8791 58.0533 60.7662 58.1343C60.6515 58.2462 60.6506 58.3001 60.6459 58.4642C60.668 58.6803 60.704 58.888 60.7506 59.1C60.7585 59.1367 60.7665 59.1734 60.7747 59.2112C61.0621 60.4765 61.7308 61.6414 62.8411 62.3584C63.3972 62.7009 63.9803 62.9473 64.6006 63.15C64.6006 63.1665 64.6006 63.183 64.6006 63.2C62.8346 63.2537 60.9878 61.8056 59.6506 60.8C59.6426 60.8357 59.6347 60.8715 59.6266 60.9084C59.2887 62.3514 58.4489 63.5462 57.4633 64.6261C57.3869 64.7101 57.3112 64.7948 57.2363 64.88C57.0056 65.142 56.7706 65.379 56.5006 65.6C56.4744 65.6217 56.4482 65.6435 56.4213 65.666C54.3549 67.3833 51.8069 68.1753 49.1246 67.9341C48.7631 67.8904 48.4066 67.8261 48.0506 67.75C48.0067 67.7406 47.9628 67.7312 47.9176 67.7216C47.3483 67.5954 46.8234 67.407 46.3006 67.15C46.2435 67.1221 46.1864 67.0943 46.1275 67.0656C44.7785 66.3734 43.8278 65.2526 43.3631 63.8207C43.2534 63.4545 43.1988 63.0783 43.1506 62.7C43.144 62.6504 43.1374 62.6008 43.1307 62.5498C43.0978 62.2664 43.0951 61.985 43.1006 61.7C43.053 61.72 43.0054 61.7401 42.9564 61.7607C40.4149 62.8039 37.4321 63.176 34.8205 62.1244C34.2208 61.8686 33.7145 61.5054 33.2506 61.05C33.2125 61.0132 33.1745 60.9764 33.1353 60.9384C31.8222 59.5822 31.5812 57.4461 31.5848 55.654C31.5849 55.4884 31.5838 55.3228 31.5825 55.1572C31.5806 54.4752 31.633 53.8218 31.7506 53.15Z" fill="#FFAB48"/>
<path d="M35.6006 69.1C35.6524 69.2555 35.649 69.3167 35.6287 69.475C35.5063 70.7135 35.6524 71.9612 36.3599 73.0125C36.9929 73.6313 37.7956 73.7622 38.6482 73.7551C38.9004 73.7504 39.1502 73.7297 39.4006 73.7C39.2335 74.0263 39.0487 74.3347 38.8474 74.6406C38.2758 75.5124 37.7677 76.4253 37.2487 77.3291C37.1825 77.4444 37.1162 77.5596 37.0499 77.6748C36.6209 78.4192 36.2006 79.1675 35.7952 79.925C35.7221 80.0601 35.6483 80.1947 35.5738 80.329C35.1809 81.0396 34.8122 81.7612 34.4501 82.4878C34.3702 82.6482 34.2899 82.8085 34.2095 82.9687C33.7981 83.7891 33.4023 84.6153 33.0197 85.4496C32.9412 85.6203 32.862 85.7907 32.7825 85.961C32.2295 87.1465 31.7087 88.3447 31.2006 89.55C31.1796 89.5997 31.1796 89.5997 31.1582 89.6504C30.7875 90.5281 30.4334 91.4126 30.0787 92.2969C30.0568 92.3513 30.035 92.4057 30.0124 92.4618C29.6926 93.2573 29.6926 93.2573 29.3994 94.0629C29.3504 94.2005 29.2957 94.3345 29.2381 94.4687C28.9481 95.1509 28.7028 95.8532 28.4506 96.55C28.3841 96.3504 28.4417 96.2093 28.498 96.0144C28.5087 95.9762 28.5194 95.938 28.5304 95.8987C28.5649 95.7761 28.5999 95.6537 28.6349 95.5312C28.6576 95.4507 28.6802 95.3702 28.7028 95.2896C28.8011 94.9406 28.9018 94.5926 29.0098 94.2465C29.0892 93.9911 29.1574 93.735 29.2193 93.475C29.3012 93.1391 29.3904 92.8066 29.4881 92.475C29.6437 91.9439 29.7757 91.4072 29.9085 90.8701C30.1184 90.0217 30.1184 90.0217 30.2287 89.6375C30.5572 88.4868 30.821 87.3169 31.0787 86.1487C31.1009 86.0483 31.1233 85.9479 31.1457 85.8475C31.3458 84.9512 31.5355 84.0535 31.7006 83.15C31.7126 83.0852 31.7247 83.0205 31.7371 82.9538C31.8297 82.4492 31.9031 81.9442 31.9599 81.4344C31.9643 81.3958 31.9686 81.3572 31.973 81.3175C32.2254 79.3041 32.2254 79.3041 31.5912 77.4594C30.9832 76.9864 30.2993 76.9018 29.5506 76.95C29.3945 76.9736 29.2526 77.0065 29.1006 77.05C29.1241 76.9974 29.1476 76.9449 29.1719 76.8908C29.4633 76.2358 29.6594 75.6828 29.6599 74.9562C29.6606 74.9139 29.6612 74.8715 29.6618 74.8279C29.6636 74.0625 29.3614 73.4123 28.8303 72.8668C28.4577 72.5312 28.019 72.3633 27.5506 72.2C27.5156 72.1877 27.4806 72.1755 27.4446 72.1628C26.1664 71.7242 24.7392 71.6439 23.4006 71.55C23.4006 71.5335 23.4006 71.517 23.4006 71.5C23.4931 71.4985 23.4931 71.4985 23.5876 71.497C28.0293 71.4706 28.0293 71.4706 32.3506 70.55C32.405 70.5319 32.4593 70.5139 32.5154 70.4953C33.183 70.272 33.8371 70.0228 34.4818 69.7406C34.564 69.705 34.564 69.705 34.6478 69.6687C34.9941 69.5132 35.298 69.3291 35.6006 69.1Z" fill="#DC6F35"/>
<path d="M31.8006 4C31.9558 4.18767 32.0926 4.38388 32.2256 4.5875C32.8537 5.53787 33.5139 6.48034 34.2506 7.35C34.2952 7.4033 34.3398 7.45662 34.3844 7.50996C34.6663 7.84633 34.9548 8.17567 35.2506 8.5C35.2938 8.5484 35.337 8.59681 35.3815 8.64668C35.9973 9.33433 36.6846 9.93898 37.5006 10.3781C37.5305 10.3942 37.5604 10.4104 37.5913 10.427C38.0007 10.6381 38.3949 10.703 38.8506 10.65C39.3254 10.4945 39.6229 10.1842 39.8506 9.75C40.0773 9.27446 40.156 8.8182 40.2006 8.3C40.3286 8.42802 40.3173 8.49037 40.335 8.66875C40.4032 9.15134 40.5775 9.59642 40.7506 10.05C40.7643 10.0861 40.7781 10.1222 40.7922 10.1594C41.2933 11.4592 41.9111 13.0127 43.1662 13.7469C43.5558 13.8591 43.892 13.847 44.2631 13.6781C45.2355 13.1312 45.5167 11.8816 45.8506 10.9C45.8785 10.8196 45.9064 10.7392 45.9344 10.6588C46.0435 10.3423 46.1371 10.029 46.2006 9.7C46.2793 9.84814 46.335 9.99498 46.3859 10.1547C46.6632 11.0021 47.0103 11.799 47.4006 12.6C47.4228 12.6463 47.4451 12.6925 47.468 12.7402C48.1581 14.1752 48.9843 15.5488 49.9006 16.85C49.8841 16.883 49.8676 16.916 49.8506 16.95C49.7939 16.9252 49.7372 16.9005 49.6787 16.875C49.1098 16.6878 48.4403 16.7572 47.9006 17C47.4582 17.2533 47.1187 17.6599 46.9705 18.1493C46.8988 18.4512 46.8875 18.7376 46.8908 19.0471C46.891 19.0975 46.8911 19.1479 46.8913 19.1998C46.8918 19.3593 46.8931 19.5187 46.8943 19.6781C46.8949 19.7869 46.8953 19.8956 46.8957 20.0044C46.8968 20.2696 46.8985 20.5348 46.9006 20.8C46.8707 20.7625 46.8407 20.7251 46.8099 20.6865C45.9728 19.6407 45.1035 18.6805 44.0363 17.8658C43.9531 17.8019 43.8706 17.7372 43.7883 17.6721C42.843 16.9276 41.7938 16.2422 40.6506 15.85C40.6188 15.8389 40.587 15.8278 40.5542 15.8164C40.1324 15.6755 39.7259 15.632 39.2818 15.6281C39.2367 15.6276 39.1915 15.6271 39.145 15.6266C38.5408 15.6345 38.0192 15.8496 37.5662 16.25C37.118 16.7342 36.9729 17.3728 36.8506 18C36.7677 17.8756 36.7246 17.7913 36.6782 17.6535C36.6648 17.6143 36.6514 17.575 36.6377 17.5346C36.6235 17.4922 36.6093 17.4499 36.5947 17.4062C36.5798 17.3623 36.5649 17.3183 36.5495 17.273C36.5018 17.132 36.4543 16.991 36.4068 16.85C36.3446 16.6656 36.2822 16.4812 36.2197 16.2969C36.2048 16.2527 36.1898 16.2085 36.1744 16.1629C36.0707 15.857 35.9629 15.5529 35.8506 15.25C35.8098 15.1365 35.7692 15.023 35.7287 14.9094C35.6971 14.8207 35.6971 14.8207 35.6649 14.7303C35.6437 14.6708 35.6224 14.6113 35.6006 14.55C35.5589 14.4333 35.5173 14.3167 35.4756 14.2C35.2256 13.5 34.9756 12.8 34.7256 12.1C34.705 12.0423 34.6843 11.9846 34.6631 11.9252C34.6213 11.8079 34.5796 11.6906 34.5381 11.5732C34.4377 11.2899 34.3351 11.0081 34.2256 10.7281C34.1208 10.4587 34.0276 10.1867 33.9374 9.91217C33.8749 9.72204 33.8095 9.53386 33.7377 9.34707C33.6557 9.13251 33.5789 8.91594 33.5006 8.7C33.4694 8.61406 33.4381 8.52812 33.4068 8.44219C33.3375 8.25139 33.2681 8.06057 33.1988 7.86973C33.1821 7.82367 33.1654 7.77762 33.1482 7.73018C33.1142 7.63656 33.0802 7.54294 33.0462 7.44932C32.888 7.01378 32.7243 6.58048 32.5596 6.14736C32.3699 5.64871 32.1804 5.14998 31.9943 4.65C31.9802 4.61244 31.9661 4.57487 31.9515 4.53617C31.8859 4.35875 31.8306 4.18704 31.8006 4Z" fill="#D96C36"/>
<path d="M81.4506 22.6C81.4671 22.633 81.4836 22.666 81.5006 22.7C81.4628 22.7923 81.4201 22.8826 81.3756 22.9719C80.9634 23.8421 80.3656 25.1166 80.6006 26.1C81.0135 26.4591 81.5874 26.3596 82.1006 26.35C82.1754 26.3487 82.1754 26.3487 82.2517 26.3474C83.9606 26.2531 85.8793 25.2596 87.2947 24.3582C87.3296 24.339 87.3646 24.3198 87.4006 24.3C87.4336 24.3165 87.4666 24.333 87.5006 24.35C87.4636 24.3833 87.4267 24.4166 87.3887 24.451C87.0799 24.731 86.78 25.0163 86.4889 25.3148C86.3842 25.4172 86.2792 25.5125 86.1682 25.6076C85.9464 25.8009 85.7378 26.0055 85.5301 26.2138C85.4915 26.2524 85.453 26.2909 85.4132 26.3305C85.3323 26.4114 85.2514 26.4924 85.1706 26.5734C85.0478 26.6965 84.9247 26.8193 84.8016 26.9421C84.7226 27.0212 84.6435 27.1003 84.5644 27.1795C84.51 27.2338 84.51 27.2338 84.4544 27.2892C84.2545 27.49 84.064 27.696 83.8789 27.9105C83.7773 28.0266 83.6698 28.1355 83.5599 28.2437C83.5175 28.2857 83.4751 28.3278 83.4314 28.3711C83.3442 28.457 83.257 28.5429 83.1697 28.6289C82.9469 28.8497 82.7323 29.0731 82.5281 29.3113C82.3759 29.4853 82.2081 29.6432 82.0428 29.8047C81.9021 29.9451 81.7731 30.0947 81.643 30.2449C81.4875 30.4217 81.3251 30.5918 81.1631 30.7625C80.5617 31.3989 79.9788 32.0484 79.4099 32.714C79.3053 32.8364 79.2001 32.9582 79.0943 33.0797C78.7796 33.442 78.4824 33.8113 78.2006 34.2C78.1417 34.0234 78.1633 33.9557 78.2078 33.7773C78.221 33.723 78.2342 33.6687 78.2478 33.6127C78.2693 33.526 78.2693 33.526 78.2912 33.4375C78.6835 31.7821 78.7554 30.0038 77.8506 28.5C77.5242 27.9862 76.9441 27.7392 76.3735 27.6098C75.79 27.494 75.216 27.4729 74.6224 27.4656C74.5276 27.4639 74.4327 27.4622 74.3378 27.4604C74.1087 27.4562 73.8797 27.4529 73.6506 27.45C73.7857 27.3148 73.9417 27.2801 74.1193 27.2219C76.1953 26.5112 78.0112 25.2571 79.7506 23.95C79.7806 23.9275 79.8105 23.9049 79.8414 23.8817C80.2748 23.555 80.6954 23.2129 81.1154 22.8694C81.2265 22.7788 81.3384 22.6893 81.4506 22.6Z" fill="#D5653A"/>
<path d="M79.9006 51.75C80.2623 51.8649 80.6098 52.0041 80.96 52.15C81.9711 52.5662 82.9952 52.9504 84.0423 53.2667C84.1531 53.3008 84.2634 53.3363 84.3737 53.3723C84.9929 53.5737 85.6192 53.7442 86.2488 53.91C86.3829 53.9453 86.5169 53.9811 86.6508 54.0172C87.2977 54.1907 87.9487 54.3464 88.6006 54.5C88.6542 54.5127 88.7078 54.5254 88.7631 54.5385C89.4545 54.7022 90.1472 54.853 90.8446 54.9893C91.0434 55.0282 91.2416 55.0691 91.4395 55.1123C92.2715 55.2932 93.1087 55.425 93.9506 55.55C93.9506 55.5665 93.9506 55.583 93.9506 55.6C93.8918 55.6017 93.833 55.6033 93.7724 55.605C93.2079 55.621 92.6434 55.6371 92.0789 55.6535C91.789 55.6619 91.499 55.6702 91.2091 55.6784C88.5442 55.7441 88.5442 55.7441 85.8861 55.9348C85.7591 55.9473 85.6321 55.959 85.5051 55.9706C84.736 56.0429 83.9592 56.128 83.21 56.3219C83.1697 56.3314 83.1295 56.341 83.088 56.3509C82.7751 56.4298 82.5194 56.5404 82.2787 56.7625C82.1727 56.9491 82.1548 57.0942 82.2006 57.3C82.4978 58.0111 83.055 58.6057 83.6924 59.0246C83.7904 59.0929 83.8696 59.1627 83.9506 59.25C83.7443 59.2155 83.5588 59.1514 83.3631 59.0781C82.5685 58.7906 81.5634 58.6334 80.7412 58.8977C80.6252 58.9647 80.5701 59.0361 80.5006 59.15C80.4604 59.4488 80.5381 59.6555 80.7006 59.9C80.9849 60.2577 81.3905 60.5238 81.7506 60.8C81.7176 60.8165 81.6846 60.833 81.6506 60.85C81.5469 60.809 81.5469 60.809 81.4162 60.7438C80.8241 60.4633 80.1899 60.3001 79.5569 60.1406C79.4894 60.1234 79.422 60.1061 79.3545 60.0888C79.0821 60.0192 78.8101 59.9509 78.5346 59.8943C78.3506 59.85 78.3506 59.85 78.2506 59.75C78.2767 59.7256 78.3028 59.7013 78.3297 59.6762C79.6927 58.3633 80.6631 56.5831 80.7233 54.6784C80.7315 54.1026 80.6737 53.6315 80.4506 53.1C80.4171 53.0169 80.3837 52.9339 80.3502 52.8508C80.2296 52.5559 80.1078 52.2626 79.9635 51.9785C79.9006 51.85 79.9006 51.85 79.9006 51.75Z" fill="#D4643B"/>
<path d="M78.1506 40.25C78.7388 40.5517 79.2148 40.8898 79.4412 41.5344C79.7899 42.6564 79.4877 44.0261 78.9631 45.0406C78.6989 45.5274 78.3488 45.9409 77.8506 46.2C77.8176 46.2 77.7846 46.2 77.7506 46.2C77.7749 46.255 77.7992 46.3101 77.8242 46.3668C77.9194 46.622 77.9254 46.8612 77.9225 47.1313C77.9221 47.1797 77.9217 47.2282 77.9213 47.2781C77.9 48.2123 77.5048 48.9092 76.8506 49.55C76.7677 49.6172 76.6845 49.684 76.6006 49.75C76.6011 49.7087 76.6016 49.6674 76.6022 49.6248C76.6039 49.4692 76.6052 49.3136 76.6061 49.158C76.6068 49.0584 76.6081 48.9589 76.6094 48.8594C76.6147 47.8062 76.2284 47.1846 75.5006 46.4375C75.2811 46.2222 75.0488 46.0311 74.8006 45.85C74.9525 45.664 75.1017 45.4937 75.2852 45.3385C75.8369 44.8616 76.3627 44.3339 76.8006 43.75C76.8304 43.7116 76.8603 43.6732 76.891 43.6336C77.3121 43.0672 77.5825 42.4167 77.8006 41.75C77.819 41.699 77.819 41.699 77.8379 41.6469C77.9368 41.368 77.9914 41.0958 78.0318 40.8031C78.0438 40.7193 78.0559 40.6355 78.0682 40.5518C78.0758 40.4971 78.0758 40.4971 78.0835 40.4414C78.1006 40.35 78.1006 40.35 78.1506 40.25Z" fill="#DD7E43"/>
<path d="M39.7506 76.15C39.9004 76.2997 39.8924 76.4822 39.9194 76.6843C39.9656 76.9995 40.0179 77.3101 40.0975 77.6187C40.1124 77.6769 40.1273 77.735 40.1426 77.7949C40.2195 78.0003 40.3152 78.1433 40.4993 78.2654C40.7563 78.3531 41.0089 78.286 41.2549 78.1894C41.8338 77.9021 42.3005 77.4529 42.7006 76.95C42.7768 77.1467 42.7231 77.3149 42.6707 77.5105C42.6616 77.5457 42.6524 77.581 42.643 77.6173C42.5383 78.0108 42.4099 78.3959 42.2787 78.7812C42.2525 78.8592 42.2262 78.9372 42.2 79.0153C41.9827 79.66 41.7618 80.3034 41.541 80.9469C41.3576 81.4816 41.1764 82.0169 40.9975 82.5531C40.9863 82.5866 40.9751 82.6201 40.9635 82.6546C40.8198 83.0846 40.682 83.516 40.5506 83.95C40.5386 83.9894 40.5266 84.0288 40.5142 84.0695C40.4251 84.3626 40.3377 84.6562 40.2506 84.95C40.2335 85.0077 40.2164 85.0654 40.1988 85.1248C39.945 85.9834 39.7063 86.8441 39.4859 87.712C39.441 87.8875 39.3945 88.0625 39.3475 88.2375C39.2123 88.7409 39.0818 89.2455 38.9506 89.75C38.9341 89.75 38.9176 89.75 38.9006 89.75C38.8942 89.0899 38.9126 88.4344 38.9483 87.7754C38.9533 87.6786 38.9584 87.5818 38.9634 87.4851C38.9769 87.2285 38.9906 86.9719 39.0045 86.7153C39.0132 86.5548 39.0218 86.3943 39.0304 86.2337C39.2105 82.8684 39.4353 79.5056 39.7506 76.15Z" fill="#DC7236"/>
<path d="M77.1506 63.2C78.1737 63.3282 79.1963 63.8001 79.9506 64.5C79.9967 64.5416 80.0429 64.5832 80.0904 64.626C80.7785 65.2751 81.274 66.126 81.3115 67.0859C81.3332 67.9578 81.3332 67.9578 81.1506 68.35C81.128 68.4005 81.1053 68.4509 81.082 68.5029C80.8677 68.9393 80.588 69.2587 80.2506 69.6C80.2004 69.6556 80.2004 69.6556 80.1492 69.7123C79.3854 70.5407 77.9923 71.0239 76.9006 71.2C76.998 71.0293 77.1036 70.883 77.2318 70.7344C78.2339 69.498 78.7276 67.811 78.5908 66.238C78.4745 65.2356 78.0293 64.2055 77.3223 63.4818C77.2506 63.4 77.2506 63.4 77.2506 63.3C77.2176 63.3 77.1846 63.3 77.1506 63.3C77.1506 63.267 77.1506 63.234 77.1506 63.2Z" fill="#E19045"/>
<path d="M42.0006 39.7C42.0606 39.7023 42.1206 39.7046 42.1824 39.707C42.696 39.757 43.1486 40.0165 43.6006 40.25C43.6006 40.2995 43.6006 40.349 43.6006 40.4C43.5544 40.4134 43.5083 40.4268 43.4608 40.4406C41.8475 40.9203 40.0391 41.6736 39.1006 43.15C38.6461 44.0147 38.6825 44.9628 38.9364 45.8853C39.0051 46.1366 39.0051 46.1366 38.9506 46.3C38.8119 46.0382 38.6741 45.776 38.5367 45.5135C38.4581 45.3642 38.3789 45.2152 38.2995 45.0664C38.2277 44.9313 38.1564 44.796 38.0853 44.6606C38.0501 44.594 38.0148 44.5275 37.9791 44.4612C37.5464 43.6542 37.2881 42.8588 37.5485 41.9408C37.6355 41.7058 37.7562 41.504 37.9006 41.3C37.9221 41.2693 37.9435 41.2386 37.9656 41.207C38.8769 40.035 40.6093 39.6419 42.0006 39.7Z" fill="#FFF36A"/>
<path d="M63.3443 20.0813C63.4085 20.0812 63.4726 20.0811 63.5387 20.081C64.6296 20.0938 65.6716 20.3393 66.4881 21.1031C67.1371 21.7868 67.4306 22.6481 67.4149 23.5844C67.3925 24.0822 67.2186 24.5562 67.0006 25C66.8966 24.844 66.8519 24.7122 66.7943 24.5344C66.3653 23.2973 65.4398 22.4016 64.3006 21.8C64.2541 21.7739 64.2077 21.7478 64.1598 21.7209C63.0545 21.125 61.7769 20.9246 60.5506 20.75C61.3024 20.162 62.4313 20.082 63.3443 20.0813Z" fill="#DC7543"/>
<path d="M34.184 65.8318C34.2405 65.8318 34.2405 65.8318 34.2982 65.8317C34.378 65.8319 34.4578 65.8324 34.5376 65.8332C34.6587 65.8344 34.7796 65.8342 34.9007 65.8339C34.9785 65.8342 35.0562 65.8345 35.134 65.8349C35.1876 65.8349 35.1876 65.8349 35.2423 65.8348C35.4922 65.8383 35.7099 65.8821 35.9506 65.95C35.8224 66.2429 35.5931 66.3872 35.3061 66.5137C34.8607 66.6683 34.3341 66.7645 33.8848 66.583C33.7506 66.5 33.7506 66.5 33.6506 66.35C33.6233 66.0445 33.6233 66.0445 33.7026 65.9152C33.8536 65.8147 34.0088 65.8296 34.184 65.8318Z" fill="#E5AB4A"/>
<path d="M34.1006 28.15C34.1336 28.1665 34.1666 28.183 34.2006 28.2C34.2006 28.2165 34.2006 28.233 34.2006 28.25C34.2336 28.2665 34.2666 28.283 34.3006 28.3C33.9541 28.5145 33.6076 28.729 33.2506 28.95C33.2341 28.917 33.2176 28.884 33.2006 28.85C33.2261 28.8305 33.2516 28.8111 33.2779 28.7911C33.3928 28.7035 33.5076 28.6158 33.6225 28.5281C33.6827 28.4822 33.6827 28.4822 33.7441 28.4354C33.8014 28.3917 33.8014 28.3917 33.8598 28.347C33.8952 28.3201 33.9305 28.2931 33.9669 28.2653C34.0474 28.2052 34.0474 28.2052 34.1006 28.15Z" fill="#FFF283"/>
<path d="M28.7506 95.15C28.7671 95.183 28.7836 95.216 28.8006 95.25C28.8336 95.25 28.8666 95.25 28.9006 95.25C28.7579 95.6859 28.6039 96.1177 28.4506 96.55C28.3894 96.3665 28.419 96.2958 28.4723 96.1119C28.4882 96.056 28.5042 96.0001 28.5206 95.9424C28.5377 95.8841 28.5548 95.8257 28.5724 95.7656C28.5978 95.6772 28.5978 95.6772 28.6237 95.587C28.6656 95.4412 28.7079 95.2955 28.7506 95.15Z" fill="#E89861"/>
<path d="M33.7006 28.55C33.7336 28.5665 33.7666 28.583 33.8006 28.6C33.6191 28.7155 33.4376 28.831 33.2506 28.95C33.2341 28.917 33.2176 28.884 33.2006 28.85C33.2557 28.8091 33.3109 28.7686 33.3662 28.7281C33.397 28.7055 33.4277 28.6829 33.4594 28.6596C33.5506 28.6 33.5506 28.6 33.7006 28.55Z" fill="#FFF19C"/>
<path d="M27.2006 61.6C27.2336 61.6 27.2666 61.6 27.3006 61.6C27.2766 61.8157 27.2133 61.9083 27.0506 62.05C27.0506 61.8653 27.1147 61.7611 27.2006 61.6Z" fill="#FAF0DF"/>
</svg>
