<svg width="100" height="100" viewBox="0 0 100 100" fill="none" xmlns="http://www.w3.org/2000/svg">
<path d="M53.75 26.65C53.787 26.668 53.824 26.686 53.8622 26.7046C54.5971 27.0668 55.2772 27.5167 55.9 28.05C55.9714 28.1105 55.9714 28.1105 56.0443 28.1722C56.7893 28.8187 57.4716 29.6928 57.6 30.7C57.6345 31.189 57.5965 31.6289 57.45 32.1C57.4301 32.1708 57.4103 32.2416 57.3906 32.3125C57.3772 32.3578 57.3638 32.4032 57.35 32.45C57.4015 32.419 57.4531 32.3881 57.5062 32.3562C57.9977 32.0613 58.5701 32.0919 59.1093 32.225C59.752 32.4162 60.4065 32.6397 60.9453 33.0472C61.0474 33.1135 61.0474 33.1135 61.1545 33.0699C61.2555 32.9959 61.3249 32.9226 61.4031 32.825C62.4804 31.564 64.0965 30.7815 65.7 30.45C65.7494 30.4388 65.7988 30.4275 65.8498 30.416C66.7175 30.2477 67.6569 30.2875 68.5 30.55C68.5336 30.5604 68.5673 30.5709 68.6019 30.5816C69.6937 30.9334 70.6254 31.5606 71.45 32.35C71.5104 32.4057 71.5104 32.4057 71.572 32.4625C72.67 33.5071 73.4263 35.0026 73.4736 36.5258C73.4903 38.3096 72.6209 39.7489 71.4 41C71.2257 41.1613 71.0404 41.3082 70.85 41.45C70.9628 41.5628 71.0784 41.6115 71.2229 41.6755C72.3887 42.1927 73.4015 42.9909 73.9 44.2C74.1905 44.9657 74.1986 45.7426 73.865 46.4972C73.4929 47.2983 72.9895 47.8807 72.167 48.2406C71.9158 48.3299 71.6644 48.3723 71.4 48.4C71.431 48.4177 71.462 48.4354 71.4939 48.4537C73.1103 49.4254 74.361 51.0727 74.8654 52.8845C75.1593 54.2907 74.9669 55.7798 74.2 57C74.0896 57.1557 73.972 57.3033 73.85 57.45C73.8264 57.4802 73.8029 57.5104 73.7787 57.5416C73.1497 58.3265 72.0628 58.8566 71.0703 58.9875C70.1882 59.0522 69.4045 59.0022 68.6 58.6C68.6254 58.6496 68.6508 58.6992 68.6769 58.7504C69.6055 60.5772 69.6055 60.5772 69.3437 61.5625C69.1438 62.1314 68.8157 62.5509 68.2781 62.8218C68.1857 62.8653 68.0931 62.9082 68 62.95C68.0345 62.9767 68.0689 63.0033 68.1045 63.0308C68.9779 63.7234 69.5561 64.6033 69.9125 65.6562C69.9248 65.6926 69.9371 65.729 69.9498 65.7665C70.1179 66.2847 70.1686 66.7775 70.1685 67.3201C70.1687 67.43 70.1705 67.5398 70.1724 67.6498C70.1842 69.1454 69.4623 70.4864 68.4375 71.5343C67.0006 72.9501 65.0956 73.5275 63.1163 73.5178C62.6748 73.5097 62.277 73.4662 61.85 73.35C61.7888 73.3372 61.7276 73.3244 61.6646 73.3113C60.3144 73.0259 59.0584 72.2746 58.0736 71.321C57.9993 71.2493 57.924 71.1787 57.8486 71.1082C57.5101 70.786 57.232 70.44 56.9638 70.0576C56.8792 69.9404 56.8027 69.8486 56.7 69.75C56.6841 69.7875 56.6683 69.825 56.6519 69.8636C56.3797 70.4607 55.9816 70.8521 55.4 71.15C55.3647 71.1689 55.3295 71.1877 55.2931 71.2072C54.5807 71.5588 53.6503 71.6258 52.8873 71.4025C52.5326 71.2668 52.2098 71.0677 51.9 70.85C51.8799 70.8833 51.8599 70.9166 51.8392 70.9509C50.8856 72.497 49.3946 73.3588 47.6583 73.7833C47.3958 73.8438 47.1315 73.8913 46.8656 73.9343C46.8288 73.9403 46.7921 73.9463 46.7542 73.9524C46.1118 74.05 45.4671 74.0619 44.8187 74.0625C44.7755 74.0625 44.7323 74.0626 44.6878 74.0627C43.4947 74.0623 42.2685 74.0062 41.1 73.75C41.0421 73.7374 41.0421 73.7374 40.983 73.7246C39.3893 73.371 37.7332 72.7453 36.7832 71.3355C36.6377 71.0986 36.5156 70.8526 36.4 70.6C36.384 70.5656 36.368 70.5313 36.3515 70.4959C35.95 69.5423 36.1071 68.3319 36.4732 67.3907C36.8688 66.4315 37.5301 65.5847 38.35 64.95C38.087 64.8577 37.8275 64.7828 37.5562 64.7187C36.9126 64.5565 36.236 64.2583 35.75 63.8C35.7106 63.7645 35.6712 63.7289 35.6306 63.6924C35.3123 63.3925 35.0669 63.075 35.0433 62.6224C35.0435 62.5769 35.0436 62.5313 35.0437 62.4843C35.0436 62.4392 35.0435 62.394 35.0433 62.3474C35.05 62.2 35.05 62.2 35.0746 62.0304C35.1336 61.6112 35.2004 61.0692 34.95 60.7C34.4661 60.1239 33.633 59.9767 32.9217 59.9078C32.8226 59.8994 32.7235 59.891 32.6244 59.8832C32.4478 59.869 32.2713 59.8529 32.0949 59.8369C32.0603 59.8338 32.0257 59.8306 31.9901 59.8274C30.8762 59.7251 29.7168 59.5321 28.7 59.05C28.6695 59.0357 28.639 59.0214 28.6076 59.0067C27.0965 58.2875 26.1582 56.9845 25.5926 55.4435C25.1311 54.0575 25.1525 52.5318 25.791 51.207C25.9859 50.8189 26.2069 50.4728 26.5 50.15C26.5374 50.1085 26.5749 50.067 26.6134 50.0242C27.2315 49.3732 28.0069 48.9949 28.8 48.6C28.8462 48.5769 28.8925 48.5539 28.9401 48.5301C30.9094 47.5552 30.9094 47.5552 31.7 47.6C31.6812 47.5672 31.6625 47.5345 31.6431 47.5008C31.4518 47.1596 31.2902 46.815 31.15 46.45C31.1283 46.3943 31.1067 46.3386 31.0843 46.2812C30.9952 45.8113 30.9929 45.3631 31.25 44.95C31.2723 44.9139 31.2947 44.8779 31.3177 44.8408C31.5212 44.5435 31.7436 44.3801 32.1 44.3C32.0825 44.2559 32.065 44.2119 32.047 44.1666C32.0243 44.1085 32.0015 44.0504 31.9781 43.9906C31.9555 43.9332 31.9329 43.8757 31.9095 43.8166C31.6947 43.2158 31.7548 42.5136 32.0256 41.9398C32.1106 41.7877 32.2013 41.6436 32.3 41.5C32.325 41.4635 32.3501 41.427 32.3759 41.3894C32.7567 40.9017 33.3607 40.5975 33.95 40.45C34.0077 40.4354 34.0077 40.4354 34.0666 40.4205C34.2466 40.3928 34.4246 40.3947 34.6062 40.3968C34.642 40.3971 34.6778 40.3973 34.7146 40.3975C34.8097 40.3982 34.9049 40.399 35 40.4C35.0495 40.4 35.099 40.4 35.15 40.4C35.1161 40.3545 35.0822 40.3091 35.0472 40.2623C33.7169 38.4701 32.2974 36.2966 32.631 33.9586C32.847 32.6871 33.6054 31.6395 34.6375 30.8875C35.204 30.4902 35.8382 30.1986 36.5 30C36.5325 29.9902 36.5651 29.9804 36.5986 29.9703C37.9795 29.5697 39.3468 29.8109 40.5987 30.4762C41.3186 30.8748 41.9912 31.3499 42.6538 31.8362C42.8316 31.9664 43.008 32.091 43.2 32.2C43.1835 32.167 43.167 32.134 43.15 32.1C42.9849 30.452 44.4734 28.6268 45.45 27.4C45.5953 27.2286 45.7458 27.0633 45.9 26.9C45.9348 26.8619 45.9696 26.8239 46.0054 26.7847C48.0727 24.6043 51.3948 25.4963 53.75 26.65Z" fill="#FEC748"/>
<path d="M70.75 41.55C71.0622 41.5729 71.2894 41.6795 71.5625 41.8281C71.6045 41.8507 71.6465 41.8733 71.6898 41.8966C72.0134 42.0736 72.3152 42.2646 72.6 42.5C72.669 42.5568 72.669 42.5568 72.7394 42.6148C73.4395 43.2204 74.0103 44.0572 74.1105 44.9994C74.1719 45.9162 73.8567 46.7958 73.2556 47.4914C72.7369 48.0246 72.1411 48.3225 71.4 48.4C71.431 48.4177 71.462 48.4354 71.4939 48.4537C73.1103 49.4254 74.361 51.0727 74.8654 52.8846C75.1593 54.2907 74.9669 55.7799 74.2 57C74.0896 57.1557 73.972 57.3034 73.85 57.45C73.8264 57.4802 73.8029 57.5104 73.7787 57.5416C73.1497 58.3265 72.0628 58.8566 71.0703 58.9875C70.1882 59.0522 69.4045 59.0022 68.6 58.6C68.6254 58.6496 68.6508 58.6992 68.6769 58.7504C69.6055 60.5772 69.6055 60.5772 69.3437 61.5625C69.1438 62.1315 68.8157 62.5509 68.2781 62.8219C68.1857 62.8653 68.0931 62.9082 68 62.95C68.0345 62.9767 68.0689 63.0034 68.1045 63.0308C68.9779 63.7234 69.5561 64.6033 69.9125 65.6562C69.9248 65.6926 69.9371 65.729 69.9498 65.7665C70.1179 66.2847 70.1686 66.7775 70.1685 67.3201C70.1687 67.43 70.1705 67.5399 70.1724 67.6498C70.1842 69.1455 69.4623 70.4864 68.4375 71.5344C67.0006 72.9501 65.0956 73.5275 63.1163 73.5178C62.6748 73.5097 62.277 73.4662 61.85 73.35C61.7888 73.3372 61.7276 73.3245 61.6646 73.3113C60.3144 73.0259 59.0584 72.2746 58.0736 71.321C57.9993 71.2493 57.924 71.1788 57.8486 71.1082C57.5101 70.786 57.232 70.44 56.9638 70.0576C56.8792 69.9404 56.8027 69.8486 56.7 69.75C56.6841 69.7875 56.6683 69.825 56.6519 69.8637C56.3797 70.4607 55.9816 70.8521 55.4 71.15C55.3647 71.1689 55.3295 71.1878 55.2931 71.2072C54.5807 71.5588 53.6503 71.6258 52.8873 71.4025C52.5326 71.2668 52.2098 71.0677 51.9 70.85C51.8799 70.8833 51.8599 70.9166 51.8392 70.951C50.8856 72.497 49.3946 73.3588 47.6583 73.7833C47.3958 73.8438 47.1315 73.8913 46.8656 73.9344C46.8288 73.9403 46.7921 73.9463 46.7542 73.9525C46.1118 74.05 45.4671 74.0619 44.8187 74.0625C44.7755 74.0626 44.7323 74.0626 44.6878 74.0627C43.4947 74.0623 42.2685 74.0062 41.1 73.75C41.0421 73.7374 41.0421 73.7374 40.983 73.7246C39.3893 73.3711 37.7332 72.7453 36.7832 71.3355C36.6377 71.0986 36.5156 70.8526 36.4 70.6C36.384 70.5656 36.368 70.5313 36.3515 70.4959C35.95 69.5423 36.1071 68.3319 36.4732 67.3907C36.8688 66.4315 37.5301 65.5847 38.35 64.95C38.087 64.8577 37.8275 64.7828 37.5562 64.7187C36.9126 64.5565 36.236 64.2583 35.75 63.8C35.7106 63.7645 35.6712 63.729 35.6306 63.6924C35.3123 63.3925 35.0669 63.075 35.0433 62.6224C35.0435 62.5769 35.0436 62.5313 35.0437 62.4844C35.0436 62.4392 35.0435 62.394 35.0433 62.3474C35.05 62.2 35.05 62.2 35.0746 62.0305C35.1336 61.6113 35.2004 61.0692 34.95 60.7C34.4661 60.1239 33.633 59.9767 32.9217 59.9078C32.8226 59.8994 32.7235 59.891 32.6244 59.8832C32.4478 59.8691 32.2713 59.8529 32.0949 59.8369C32.043 59.8322 32.043 59.8322 31.9901 59.8274C30.8762 59.7252 29.7168 59.5321 28.7 59.05C28.6695 59.0357 28.639 59.0214 28.6076 59.0067C27.0965 58.2875 26.1582 56.9845 25.5926 55.4435C25.1311 54.0575 25.1525 52.5318 25.791 51.207C25.9859 50.8189 26.2069 50.4729 26.5 50.15C26.5374 50.1085 26.5749 50.067 26.6134 50.0242C27.2315 49.3732 28.0069 48.9949 28.8 48.6C28.8462 48.5769 28.8925 48.5539 28.9401 48.5301C30.9094 47.5552 30.9094 47.5552 31.7 47.6C31.733 47.666 31.766 47.732 31.8 47.8C31.7775 47.8256 31.755 47.8513 31.7318 47.8777C30.5698 49.2609 29.6714 51.269 29.8 53.1C29.8714 53.705 30.0091 54.3025 30.45 54.75C30.6083 54.8686 30.7732 54.9616 30.95 55.05C30.988 55.069 31.026 55.088 31.0652 55.1076C31.6976 55.3897 32.3935 55.4265 33.075 55.4187C33.1118 55.4185 33.1486 55.4183 33.1865 55.418C34.7121 55.4068 36.1905 55.0793 37.6561 54.6728C37.75 54.65 37.75 54.65 37.85 54.65C37.8547 54.7063 37.8547 54.7063 37.8595 54.7637C37.9139 55.2184 38.0563 55.5461 38.4125 55.8441C38.7905 56.1085 39.1395 56.2036 39.6 56.15C39.7358 56.1063 39.8616 56.0549 39.9904 55.9937C40.1 55.95 40.1 55.95 40.3 55.95C40.4092 56.0303 40.5101 56.1118 40.6125 56.2C41.2136 56.6917 41.8453 56.9432 42.6 57.1C42.6301 57.1087 42.6602 57.1174 42.6912 57.1264C43.4388 57.2885 44.3792 57.2094 45.1 56.95C45.1336 56.9379 45.1672 56.9258 45.2019 56.9134C46.5441 56.4131 47.4911 55.3966 48.0954 54.1216C48.533 53.1459 48.6246 52.1578 48.65 51.1C48.8058 51.1754 48.9364 51.2615 49.075 51.3656C49.3502 51.5602 49.6327 51.6886 49.95 51.8C49.9851 51.8124 50.0202 51.8247 50.0564 51.8375C50.8227 52.0534 51.6715 51.8958 52.3609 51.5348C52.5623 51.412 52.7331 51.2659 52.9 51.1C52.9606 51.2818 52.9172 51.3334 52.8418 51.5008C52.5376 52.2229 52.6611 53.1455 52.9423 53.857C53.1329 54.2992 53.3682 54.6979 53.7 55.05C53.732 55.0841 53.764 55.1182 53.797 55.1533C54.7258 56.0538 55.9273 56.2296 57.1636 56.2137C57.5878 56.2053 57.9523 56.1511 58.35 56C58.399 55.9815 58.399 55.9815 58.4491 55.9626C59.1346 55.6985 59.7413 55.3283 60.3 54.85C60.3404 54.8162 60.3809 54.7824 60.4226 54.7476C61.0056 54.2453 61.4386 53.6452 61.85 53C61.8636 53.0283 61.8772 53.0567 61.8912 53.0859C62.0701 53.433 62.2668 53.7273 62.6187 53.9125C62.9833 54.0167 63.2745 53.9175 63.6 53.75C64.0799 53.4619 64.3553 53.0154 64.55 52.5C64.5979 52.5526 64.5979 52.5526 64.6468 52.6062C64.9462 52.9006 65.3055 53.0841 65.6812 53.2625C65.717 53.2796 65.7529 53.2966 65.7898 53.3142C66.4313 53.6114 67.178 53.6629 67.8625 53.4687C68.389 53.2742 68.8194 52.9445 69.0656 52.4312C69.3219 51.7921 69.2841 51.2112 69.0537 50.5715C68.8193 50.0413 68.3461 49.6309 67.9242 49.2469C67.85 49.15 67.85 49.15 67.8543 49.0474C68.0061 48.7236 68.3741 48.4948 68.6449 48.2762C69.5409 47.5509 69.5409 47.5509 70.25 46.65C70.2718 46.6152 70.2937 46.5804 70.3162 46.5445C70.5223 46.1598 70.5174 45.7006 70.4058 45.2859C70.1771 44.6982 69.7682 44.1962 69.3117 43.767C69.25 43.7 69.25 43.7 69.25 43.6C69.3383 43.5439 69.3383 43.5439 69.4625 43.4781C69.9479 43.1964 70.4275 42.7794 70.6625 42.2625C70.7168 42.0271 70.7337 41.7906 70.75 41.55Z" fill="#EBAE30"/>
<path d="M63.85 9.40002C63.8665 9.40002 63.883 9.40002 63.9 9.40002C63.9046 10.6668 63.8932 11.9334 63.8814 13.2001C63.8792 13.437 63.8771 13.6739 63.8752 13.9109C63.8636 15.2911 63.8467 16.6705 63.8 18.05C63.864 17.9941 63.9279 17.9382 63.9918 17.8823C64.0275 17.8512 64.0631 17.8201 64.0997 17.788C64.2153 17.6867 64.3297 17.5843 64.4438 17.4813C64.5068 17.4244 64.5068 17.4244 64.5711 17.3664C64.6349 17.3088 64.6349 17.3088 64.7 17.25C65.1745 16.8216 65.1745 16.8216 65.3969 16.6281C65.5583 16.4876 65.7169 16.3442 65.875 16.2C66.2418 15.8663 66.2418 15.8663 66.3719 15.75C66.4017 15.7232 66.4316 15.6964 66.4623 15.6688C66.55 15.6 66.55 15.6 66.75 15.5C66.849 16.8695 66.948 18.239 67.05 19.65C67.3965 19.386 67.743 19.122 68.1 18.85C68.4563 18.5938 68.4563 18.5938 68.6219 18.4768C69.2151 18.0567 69.7948 17.6172 70.3758 17.1805C70.776 16.8799 71.1788 16.583 71.5821 16.2867C71.7799 16.1413 71.9774 15.9957 72.175 15.85C72.4118 15.6755 72.6487 15.501 72.8858 15.3268C73.4599 14.9048 74.0307 14.4785 74.6 14.05C74.6666 14.2496 74.5972 14.3601 74.5172 14.5434C74.5026 14.578 74.4879 14.6127 74.4728 14.6484C74.4408 14.7239 74.4086 14.7992 74.3763 14.8745C74.3062 15.0375 74.2373 15.2009 74.1683 15.3643C74.1323 15.4496 74.0962 15.5349 74.0601 15.6202C73.8825 16.0398 73.711 16.4618 73.5406 16.8844C73.4785 17.0383 73.4163 17.1921 73.3541 17.3459C73.3381 17.3856 73.3221 17.4253 73.3055 17.4661C73.1098 17.9502 72.9122 18.4335 72.7147 18.9168C71.8508 21.0307 71.8508 21.0307 71 23.15C71.0271 23.1348 71.0541 23.1196 71.082 23.104C71.2172 23.0422 71.3419 23.0151 71.4879 22.9869C71.5462 22.9755 71.6045 22.9641 71.6646 22.9524C71.7278 22.9402 71.7911 22.9281 71.8563 22.9156C71.9574 22.8959 72.0584 22.8761 72.1595 22.8562C72.2303 22.8423 72.3011 22.8284 72.3719 22.8146C72.7724 22.7362 73.1722 22.6543 73.5719 22.5719C73.6078 22.5645 73.6438 22.5571 73.6808 22.5495C74.173 22.4481 74.6643 22.3434 75.1551 22.2357C75.4738 22.166 75.7928 22.099 76.1125 22.0344C76.1756 22.0215 76.1756 22.0215 76.2399 22.0084C76.3957 21.9773 76.5408 21.95 76.7 21.95C76.617 22.1574 76.467 22.3034 76.3156 22.4625C76.2607 22.5211 76.2058 22.5798 76.151 22.6385C76.1247 22.6666 76.0984 22.6947 76.0712 22.7236C75.8793 22.9296 75.6973 23.1444 75.5149 23.3588C75.4641 23.4184 75.4133 23.478 75.3625 23.5375C75.3239 23.5828 75.3239 23.5828 75.2845 23.629C75.0934 23.852 74.8964 24.0687 74.6965 24.2838C74.5517 24.4408 74.4149 24.6021 74.2813 24.7688C74.0788 25.0207 73.8615 25.2551 73.6401 25.4902C73.4375 25.7066 73.2488 25.9311 73.0637 26.1627C72.9084 26.3503 72.7437 26.5284 72.5771 26.7059C72.4485 26.842 72.4485 26.842 72.35 27C72.4133 27.0056 72.4766 27.0111 72.5418 27.0168C72.8122 27.0471 73.0686 27.1119 73.3313 27.1813C73.8065 27.3036 74.2834 27.4155 74.7625 27.5219C75.4484 27.6745 76.1299 27.8412 76.8107 28.0146C76.9904 28.0603 77.1702 28.1052 77.35 28.15C77.3335 28.183 77.317 28.216 77.3 28.25C77.1968 28.2765 77.1968 28.2765 77.0581 28.2966C77.0057 28.3043 76.9533 28.3121 76.8994 28.3201C76.8414 28.3283 76.7835 28.3364 76.7238 28.3448C76.6631 28.3537 76.6025 28.3625 76.54 28.3717C76.3732 28.396 76.2064 28.4199 76.0395 28.4435C75.865 28.4684 75.6907 28.4937 75.5163 28.5189C75.2232 28.5612 74.9301 28.6031 74.637 28.6448C74.298 28.6931 73.9592 28.7419 73.6204 28.7911C73.2947 28.8383 72.969 28.8851 72.6432 28.9317C72.5045 28.9516 72.3658 28.9716 72.2271 28.9917C72.0334 29.0198 71.8395 29.0473 71.6457 29.0747C71.588 29.0831 71.5304 29.0915 71.471 29.1002C71.4182 29.1076 71.3654 29.115 71.311 29.1225C71.2652 29.1291 71.2193 29.1356 71.1721 29.1424C70.9862 29.154 70.8868 29.131 70.744 29.0108C70.7057 28.9732 70.6675 28.9356 70.6281 28.8969C69.6169 27.9641 68.2477 27.6286 66.9048 27.637C66.8034 27.6375 66.702 27.637 66.6005 27.6364C65.9384 27.6355 65.3003 27.7213 64.6594 27.8875C64.5832 27.9069 64.5832 27.9069 64.5054 27.9266C64.1055 28.0304 63.7141 28.1534 63.3242 28.2901C63.1987 28.3333 63.0786 28.3694 62.95 28.4C62.9488 28.3719 62.9476 28.3437 62.9464 28.3147C62.9025 27.4295 62.7275 26.7734 62.05 26.15C61.5546 25.7267 61.0859 25.5093 60.4278 25.5309C59.6913 25.6102 59.153 25.9865 58.6 26.45C58.4558 26.3779 58.4517 26.2876 58.3969 26.1375C57.8468 24.7856 56.6299 24.1004 55.351 23.558C54.5752 23.2412 53.7361 23.079 52.9091 22.9652C52.8093 22.9513 52.7097 22.936 52.6102 22.9205C52.5491 22.9117 52.488 22.9029 52.425 22.8938C52.3613 22.8846 52.2975 22.8753 52.2319 22.8658C52.0424 22.8463 51.8626 22.8581 51.6729 22.8733C50.8044 22.9268 50.8044 22.9268 50.5387 22.7086C50.3296 22.4431 50.2053 22.1345 50.0764 21.8244C49.9565 21.5506 49.8082 21.2938 49.6606 21.0343C49.5745 20.8821 49.4906 20.7287 49.4065 20.5754C49.3722 20.5132 49.338 20.451 49.3038 20.3887C49.2163 20.2297 49.129 20.0706 49.0417 19.9114C48.6706 19.2353 48.2979 18.5609 47.9 17.9C48.087 17.8377 48.131 17.8704 48.309 17.9461C48.3619 17.9683 48.4149 17.9904 48.4694 18.0132C48.527 18.0377 48.5845 18.0623 48.6438 18.0875C48.7672 18.139 48.8906 18.1903 49.0141 18.2414C49.0459 18.2547 49.0778 18.2679 49.1106 18.2815C49.6232 18.4934 50.1438 18.6847 50.663 18.8795C50.8577 18.9529 51.052 19.0271 51.2463 19.1016C51.3442 19.139 51.442 19.1764 51.5399 19.2138C51.6314 19.2489 51.7228 19.2841 51.8143 19.3193C52.1395 19.4434 52.4647 19.5563 52.8 19.65C52.7001 19.4354 52.6001 19.2208 52.5 19.0063C52.4846 18.9732 52.4692 18.9402 52.4534 18.9061C52.2657 18.5037 52.0774 18.1015 51.8877 17.7C51.8702 17.6629 51.8526 17.6257 51.8346 17.5874C51.7498 17.4079 51.6649 17.2283 51.5798 17.0489C51.403 16.675 51.2315 16.2994 51.0684 15.9193C50.9684 15.6872 50.8579 15.4631 50.7375 15.241C50.7251 15.211 50.7128 15.181 50.7 15.15C50.7165 15.117 50.733 15.084 50.75 15.05C51.4407 15.4681 52.131 15.8867 52.8168 16.3128C53.1351 16.5103 53.4548 16.7056 53.775 16.9C54.4531 17.3118 55.1274 17.7294 55.8 18.15C55.9022 17.0344 55.9918 15.9185 56.0704 14.801C56.0937 14.4698 56.1172 14.1385 56.1408 13.8073C56.1433 13.7722 56.1458 13.7371 56.1484 13.701C56.1926 13.0834 56.2436 12.4666 56.3 11.85C56.333 11.85 56.366 11.85 56.4 11.85C56.4196 11.8879 56.4392 11.9258 56.4594 11.9649C56.9532 12.9207 56.9532 12.9207 57.45 13.875C57.7082 14.369 57.9645 14.864 58.2202 15.3594C58.3722 15.6538 58.5248 15.9478 58.6793 16.2408C58.7071 16.2937 58.7349 16.3465 58.7636 16.401C58.8157 16.4999 58.868 16.5986 58.9204 16.6973C58.955 16.7629 58.955 16.7629 58.9903 16.8299C59.0104 16.8678 59.0305 16.9057 59.0512 16.9448C59.0983 17.0463 59.127 17.1408 59.15 17.25C59.183 17.25 59.216 17.25 59.25 17.25C59.2632 17.2147 59.2764 17.1793 59.29 17.1429C59.3533 16.9921 59.4279 16.8556 59.5098 16.7141C59.5413 16.6596 59.5727 16.605 59.6052 16.5488C59.6389 16.4909 59.6726 16.433 59.7063 16.375C59.7407 16.3156 59.7752 16.2561 59.8096 16.1966C60.004 15.8618 60.2016 15.5296 60.4067 15.2012C60.5858 14.9111 60.7563 14.6159 60.9286 14.3218C61.2555 13.7646 61.5841 13.2084 61.9173 12.6549C62.1087 12.3364 62.2981 12.0166 62.4875 11.6969C62.5133 11.6534 62.5133 11.6534 62.5396 11.609C62.8045 11.1617 63.0691 10.7143 63.3332 10.2665C63.3812 10.1852 63.4293 10.1039 63.4774 10.0227C63.5296 9.93459 63.5815 9.84637 63.6332 9.75806C63.6603 9.71216 63.6874 9.66626 63.7153 9.61897C63.7522 9.55609 63.7522 9.55609 63.7898 9.49193C63.8097 9.4616 63.8296 9.43127 63.85 9.40002Z" fill="#D46439"/>
<path d="M25.15 28.15C25.346 28.2621 25.5219 28.3895 25.7 28.5281C25.7578 28.573 25.8156 28.6179 25.8734 28.6627C25.9027 28.6855 25.9321 28.7084 25.9623 28.7319C26.0994 28.8385 26.2372 28.9442 26.375 29.05C26.4291 29.0917 26.4833 29.1334 26.5375 29.175C26.5643 29.1956 26.5911 29.2163 26.6187 29.2375C26.7 29.3 26.7812 29.3625 26.8625 29.425C26.8893 29.4456 26.9161 29.4662 26.9437 29.4875C26.998 29.5293 27.0524 29.5711 27.1068 29.613C27.239 29.7147 27.3713 29.8164 27.5037 29.918C27.743 30.1017 27.982 30.2858 28.2199 30.4713C28.2582 30.5011 28.2965 30.5309 28.3359 30.5617C28.4137 30.6224 28.4913 30.6833 28.5687 30.7443C28.7398 30.8787 28.9105 31.0096 29.0926 31.1289C29.121 31.1481 29.1495 31.1673 29.1789 31.1871C29.2535 31.2368 29.3293 31.2846 29.4052 31.3323C29.5147 31.4683 29.5119 31.4936 29.4959 31.6602C29.4821 31.7404 29.4668 31.8204 29.45 31.9C29.4429 31.936 29.4359 31.972 29.4286 32.0091C29.4136 32.0825 29.3981 32.1558 29.3821 32.229C29.0058 33.9463 28.787 36.0448 29.7547 37.6131C30.0048 37.982 30.0048 37.982 30.35 38.25C30.35 38.283 30.35 38.316 30.35 38.35C30.2748 38.424 30.2748 38.424 30.1719 38.5094C29.407 39.1639 28.8283 40.0092 28.7379 41.0377C28.7305 41.3067 28.7712 41.544 28.85 41.8C28.8632 41.8449 28.8764 41.8897 28.89 41.936C28.926 42.0575 28.9627 42.1788 29 42.3C28.9411 42.3554 28.9411 42.3554 28.881 42.4119C28.2983 42.9701 27.796 43.6167 27.775 44.4594C27.7994 45.027 28.0008 45.423 28.3 45.9C28.1833 46.0167 28.0773 46.0431 27.922 46.09C26.4032 46.5493 25.0794 47.4582 24.3094 48.8656C24.1067 49.25 23.9908 49.6259 23.9 50.05C23.8894 50.0903 23.8788 50.1306 23.8679 50.1721C23.8087 50.4018 23.7882 50.6272 23.7724 50.8639C23.7682 50.9269 23.7639 50.9898 23.7595 51.0547C23.7563 51.1027 23.7532 51.1506 23.75 51.2C21.7356 52.1378 21.7356 52.1378 20.8118 52.549C20.4421 52.7137 20.0731 52.88 19.7047 53.0475C19.6333 53.0799 19.6333 53.0799 19.5606 53.1129C19.2737 53.2432 19.2737 53.2432 18.987 53.3737C18.854 53.4344 18.7208 53.4949 18.5877 53.5553C18.5479 53.5735 18.5081 53.5917 18.4671 53.6104C18.2642 53.7024 18.0633 53.7842 17.85 53.85C18.0612 53.5483 18.3004 53.2846 18.5525 53.0173C18.7163 52.8427 18.8725 52.6655 19.0219 52.4781C19.2619 52.1781 19.5251 51.9017 19.7885 51.6223C19.9353 51.4663 20.0779 51.3073 20.2176 51.1449C20.3572 50.9842 20.5011 50.8273 20.6443 50.6698C20.7504 50.5495 20.8502 50.4255 20.95 50.3C19.5595 50.2539 18.1692 50.2359 16.7781 50.2234C16.4974 50.2208 16.2168 50.2181 15.9361 50.2154C15.3907 50.2101 14.8454 50.205 14.3 50.2C14.4479 50.0867 14.5936 49.996 14.7595 49.9108C14.8104 49.8845 14.8612 49.8582 14.9136 49.8312C14.9679 49.8034 15.0222 49.7756 15.0781 49.7469C15.1924 49.6879 15.3066 49.629 15.4209 49.5699C15.4772 49.5409 15.5335 49.5119 15.5915 49.482C15.8012 49.3736 16.01 49.2635 16.2187 49.1531C16.6031 48.9502 16.9889 48.7499 17.375 48.55C17.7693 48.3459 18.1634 48.1413 18.5562 47.9344C18.5935 47.9148 18.6308 47.8952 18.6692 47.875C18.861 47.7738 19.0525 47.672 19.2435 47.5694C19.3026 47.5377 19.3026 47.5377 19.3629 47.5055C19.4379 47.4653 19.5127 47.425 19.5874 47.3845C19.8388 47.25 19.8388 47.25 19.95 47.25C19.95 47.217 19.95 47.184 19.95 47.15C19.8899 47.1385 19.8298 47.127 19.7679 47.1151C19.4398 47.0418 19.1279 46.924 18.8125 46.8094C18.7096 46.7724 18.6067 46.7355 18.5038 46.6986C18.4315 46.6726 18.3592 46.6466 18.2869 46.6206C18.0216 46.5253 17.7558 46.4315 17.4896 46.3385C17.4512 46.3251 17.4128 46.3116 17.3732 46.2978C17.2952 46.2705 17.2172 46.2433 17.1392 46.2161C16.5274 46.0022 15.9172 45.7844 15.3094 45.5594C14.8257 45.3805 14.3402 45.2105 13.8502 45.0498C13.4501 44.9181 13.0529 44.7791 12.6562 44.6375C12.5983 44.6169 12.5403 44.5963 12.4806 44.575C12.1508 44.4568 11.8241 44.333 11.5 44.2C11.55 44.1 11.55 44.1 11.6596 44.0621C11.7081 44.0502 11.7566 44.0383 11.8066 44.026C11.8616 44.0123 11.9166 43.9987 11.9733 43.9846C12.0336 43.9701 12.094 43.9556 12.1562 43.9406C12.2189 43.9253 12.2816 43.9099 12.3462 43.8941C12.865 43.7674 13.386 43.6507 13.9072 43.5349C14.3735 43.4307 14.837 43.3176 15.3 43.2C15.8908 43.05 16.4833 42.9116 17.0784 42.7795C17.7388 42.632 18.3945 42.4677 19.05 42.3C18.8547 42.1376 18.6511 41.9989 18.4375 41.8625C18.401 41.8391 18.3645 41.8156 18.3269 41.7915C18.2014 41.7108 18.0757 41.6304 17.95 41.55C17.8534 41.4881 17.7567 41.4262 17.6601 41.3643C17.4494 41.2293 17.2386 41.0944 17.0277 40.9596C16.8102 40.8205 16.5927 40.6813 16.3754 40.542C15.9011 40.2381 15.4266 39.9346 14.95 39.6344C14.6288 39.4321 14.3092 39.2274 13.9908 39.0207C13.5173 38.7135 13.0413 38.4101 12.5657 38.106C12.3976 37.9985 12.2294 37.8909 12.0613 37.7832C12.006 37.7478 11.9507 37.7124 11.8937 37.6759C11.7889 37.6088 11.6841 37.5417 11.5793 37.4746C11.507 37.4283 11.507 37.4283 11.4332 37.3811C11.3635 37.3364 11.3635 37.3364 11.2924 37.2908C11.1924 37.2271 11.0921 37.1638 10.9915 37.1008C10.9159 37.0533 10.9159 37.0533 10.8386 37.0049C10.7928 36.9764 10.747 36.9478 10.6999 36.9184C10.6669 36.8958 10.6339 36.8733 10.6 36.85C10.6 36.8335 10.6 36.817 10.6 36.8C11.2249 36.7921 11.8456 36.8169 12.4695 36.8494C12.5724 36.8547 12.6752 36.8599 12.7781 36.865C13.0503 36.8788 13.3225 36.8929 13.5947 36.907C13.8192 36.9186 14.0438 36.93 14.2684 36.9415C15.5858 37.0086 16.903 37.0772 18.2196 37.1594C18.6806 37.1878 19.1378 37.2091 19.6 37.2C19.5703 37.1624 19.5405 37.1247 19.5099 37.086C19.1966 36.6858 18.9037 36.2745 18.6196 35.8531C18.5481 35.7472 18.4761 35.6416 18.4041 35.536C18.3579 35.4678 18.3117 35.3995 18.2656 35.3313C18.2439 35.2994 18.2222 35.2676 18.1998 35.2348C18.05 35.0115 18.05 35.0115 18.05 34.9C18.3141 34.9866 18.5762 35.0772 18.8375 35.1719C19.1132 35.2708 19.3902 35.361 19.6707 35.4455C19.842 35.4976 20.0127 35.5514 20.1833 35.6057C20.5693 35.7285 20.956 35.8486 21.3437 35.9656C21.3856 35.9784 21.4275 35.9911 21.4707 36.0042C21.5101 36.016 21.5496 36.0279 21.5902 36.0401C21.6247 36.0505 21.6593 36.0609 21.6949 36.0716C21.8124 36.1034 21.9304 36.1273 22.05 36.15C22.0291 36.1049 22.0083 36.0597 21.9869 36.0132C21.5538 35.0735 21.1291 34.1312 20.721 33.1803C20.6243 32.9554 20.5259 32.7312 20.4269 32.5073C20.1237 31.8209 19.8269 31.1325 19.5437 30.4375C19.5302 30.4045 19.5167 30.3715 19.5028 30.3375C19.0339 29.19 19.0339 29.19 19.05 28.85C19.335 29.0025 19.5817 29.1834 19.8344 29.3844C19.9147 29.4476 19.995 29.5107 20.0754 29.5739C20.1141 29.6043 20.1527 29.6347 20.1926 29.6661C20.3281 29.772 20.4652 29.8754 20.6031 29.9781C21.2073 30.4284 21.803 30.8903 22.4 31.35C22.5083 31.4334 22.6166 31.5167 22.725 31.6C22.7791 31.6417 22.8333 31.6834 22.8875 31.725C22.9143 31.7456 22.9411 31.7663 22.9687 31.7875C23.05 31.85 23.1312 31.9125 23.2125 31.975C23.2393 31.9956 23.2661 32.0162 23.2937 32.0375C23.348 32.0793 23.4024 32.1211 23.4568 32.163C23.589 32.2647 23.7213 32.3664 23.8537 32.468C24.17 32.7109 24.4853 32.955 24.8 33.2C25.0736 33.413 25.3473 33.6258 25.6219 33.8375C25.6976 33.8959 25.6976 33.8959 25.7748 33.9555C25.8644 34.0232 25.9565 34.0877 26.05 34.15C25.9823 33.6635 25.9074 33.1786 25.8281 32.6938C25.758 32.2629 25.6884 31.832 25.625 31.4C25.5622 30.9734 25.4939 30.5476 25.425 30.1219C25.4141 30.0546 25.4032 29.9872 25.3923 29.9199C25.3453 29.6293 25.2981 29.3387 25.2506 29.0483C25.2368 28.9634 25.2231 28.8786 25.2094 28.7938C25.2032 28.7565 25.197 28.7193 25.1906 28.681C25.1618 28.5022 25.1433 28.3312 25.15 28.15Z" fill="#DA6D35"/>
<path d="M81.8 49.8C81.7588 49.8321 81.7175 49.8643 81.675 49.8974C81.3131 50.1803 80.9547 50.4671 80.5988 50.7576C80.3508 50.9596 80.1001 51.158 79.848 51.355C79.6175 51.5353 79.3908 51.7197 79.1652 51.9062C79.062 51.9903 78.9568 52.0704 78.85 52.15C79.8001 52.3365 80.7521 52.501 81.7086 52.6504C82.329 52.7474 82.947 52.8504 83.5638 52.9681C83.9133 53.0347 84.2632 53.0948 84.6153 53.1462C84.8455 53.1806 85.0729 53.2243 85.301 53.2709C85.7064 53.353 86.1134 53.4199 86.5219 53.4843C86.5931 53.4957 86.6644 53.5071 86.7356 53.5184C86.9071 53.5458 87.0785 53.5729 87.25 53.6C87.104 53.6973 87.0069 53.7319 86.8397 53.7758C86.7872 53.7897 86.7347 53.8036 86.6806 53.8179C86.6241 53.8326 86.5676 53.8473 86.5094 53.8625C86.3903 53.894 86.2712 53.9255 86.1522 53.957C86.0628 53.9805 86.0628 53.9805 85.9716 54.0046C85.7307 54.0683 85.4903 54.134 85.25 54.2C84.7949 54.3245 84.3393 54.4472 83.8836 54.5697C83.4945 54.6744 83.1056 54.78 82.717 54.8864C82.469 54.9542 82.2208 55.0213 81.9725 55.0877C81.8598 55.1178 81.7471 55.148 81.6344 55.1781C81.5796 55.1927 81.5248 55.2074 81.4683 55.2224C81.1128 55.318 80.7591 55.4179 80.408 55.5289C80.2335 55.5825 80.0827 55.6115 79.9 55.6C79.9 55.633 79.9 55.666 79.9 55.7C79.9271 55.7055 79.9542 55.7111 79.9822 55.7168C80.2649 55.7768 80.5378 55.8543 80.8125 55.9437C80.8964 55.9706 80.9803 55.9975 81.0643 56.0244C81.1047 56.0374 81.1451 56.0504 81.1867 56.0638C81.3356 56.1114 81.4849 56.1574 81.6344 56.2031C81.9728 56.3068 82.3105 56.4124 82.6482 56.5181C82.7473 56.5491 82.8463 56.58 82.9453 56.6109C83.5046 56.7854 84.0632 56.9619 84.6218 57.1385C85.031 57.2679 85.4403 57.3972 85.85 57.525C86.341 57.6782 86.8314 57.8334 87.3218 57.9885C87.4427 58.0267 87.5635 58.0649 87.6844 58.1031C87.7236 58.1155 87.7628 58.1279 87.8032 58.1406C88.0623 58.2225 88.3217 58.3036 88.5813 58.3843C88.8553 58.4697 89.1282 58.5578 89.4 58.65C89.2746 58.7754 89.1943 58.7821 89.0215 58.8187C88.9622 58.8316 88.9028 58.8445 88.8417 58.8578C88.8096 58.8646 88.7774 58.8715 88.7444 58.8785C88.5695 58.9158 88.3949 58.9545 88.2203 58.9933C88.1829 59.0017 88.1455 59.01 88.1069 59.0186C87.6422 59.1229 87.1805 59.2396 86.7188 59.3562C86.5477 59.3993 86.3767 59.4424 86.2057 59.4855C86.1653 59.4957 86.1249 59.5059 86.0833 59.5164C85.6636 59.622 85.2428 59.7224 84.8215 59.8213C84.6903 59.8523 84.5593 59.8839 84.4283 59.9156C83.9482 60.0318 83.4677 60.1464 82.9861 60.2568C82.925 60.2708 82.925 60.2708 82.8627 60.2851C82.6945 60.3237 82.5263 60.3623 82.358 60.4008C81.9286 60.4991 81.4996 60.5985 81.0725 60.7066C81.0397 60.7149 81.007 60.7232 80.9733 60.7317C80.8223 60.7701 80.6714 60.8089 80.5206 60.8484C80.4422 60.8686 80.4422 60.8686 80.3621 60.8892C80.3172 60.901 80.2723 60.9128 80.226 60.925C80.0973 60.9505 79.9808 60.9545 79.85 60.95C79.85 60.983 79.85 61.016 79.85 61.05C79.8898 61.0673 79.8898 61.0673 79.9305 61.0849C80.0877 61.1705 80.2232 61.2792 80.3625 61.3906C80.3929 61.4147 80.4233 61.4388 80.4547 61.4636C80.7222 61.6762 80.9871 61.892 81.2518 62.108C81.4941 62.3055 81.739 62.4993 81.9854 62.6917C82.2103 62.8677 82.432 63.0474 82.6531 63.2281C82.8911 63.4225 83.1307 63.6136 83.375 63.8C83.6544 64.0131 83.9273 64.2333 84.1994 64.4556C84.4145 64.6311 84.6312 64.8042 84.85 64.975C85.1378 65.1996 85.4212 65.4292 85.7037 65.6604C85.9517 65.8625 86.2036 66.059 86.4596 66.2509C86.5239 66.2995 86.5871 66.3496 86.65 66.4C86.65 66.4165 86.65 66.433 86.65 66.45C86.2929 66.4186 85.9408 66.3704 85.5871 66.3125C85.5064 66.2994 85.5064 66.2994 85.424 66.2861C85.2472 66.2575 85.0705 66.2288 84.8938 66.2C84.7693 66.1798 84.6449 66.1597 84.5205 66.1396C84.2612 66.0976 84.0019 66.0556 83.7426 66.0135C83.3608 65.9517 82.9789 65.8902 82.5971 65.8289C82.5364 65.8191 82.4757 65.8094 82.4131 65.7993C82.1734 65.7608 81.9337 65.7224 81.6939 65.6839C81.1426 65.5955 80.5913 65.5071 80.0404 65.4162C79.9668 65.4041 79.8932 65.392 79.8195 65.3799C79.6913 65.3588 79.5631 65.3375 79.4349 65.3159C79.3804 65.307 79.326 65.2981 79.2699 65.2888C79.2244 65.2812 79.1788 65.2736 79.1319 65.2658C78.9869 65.2484 78.8459 65.2473 78.7 65.25C79.1498 66.0342 79.605 66.8148 80.0672 67.5918C80.1122 67.6677 80.1122 67.6677 80.1582 67.7452C80.2223 67.8533 80.2867 67.9613 80.3512 68.0692C80.3833 68.1233 80.4154 68.1774 80.4484 68.2332C80.4775 68.282 80.5066 68.3308 80.5366 68.3811C80.6 68.5 80.6 68.5 80.6 68.6C80.3262 68.572 80.0752 68.5206 79.8125 68.4375C79.4938 68.34 79.1739 68.2538 78.85 68.175C78.46 68.0797 78.0751 67.9723 77.6906 67.8568C77.4449 67.7835 77.1978 67.7158 76.95 67.65C77.1665 68.0945 77.3927 68.5324 77.6313 68.9656C77.8606 69.3822 78.0823 69.8022 78.3 70.225C78.5118 70.6361 78.7269 71.0449 78.95 71.45C79.2041 71.9113 79.4471 72.3778 79.688 72.8461C79.9075 73.2714 80.1342 73.6922 80.3679 74.1099C80.4028 74.173 80.4028 74.173 80.4385 74.2373C80.4589 74.2737 80.4793 74.3102 80.5004 74.3477C80.5492 74.4482 80.5773 74.5409 80.6 74.65C80.3459 74.613 80.1168 74.5156 79.8793 74.4224C79.8322 74.4041 79.785 74.3858 79.7364 74.3669C79.5805 74.3063 79.4246 74.2453 79.2688 74.1843C79.16 74.142 79.0513 74.0996 78.9425 74.0573C78.0169 73.6967 77.0922 73.334 76.1678 72.9706C76.1159 72.9502 76.064 72.9298 76.0106 72.9088C75.9142 72.871 75.8179 72.8331 75.7215 72.7952C75.6567 72.7697 75.6567 72.7697 75.5906 72.7437C75.5351 72.7219 75.5351 72.7219 75.4784 72.6996C75.3028 72.6317 75.1263 72.5661 74.95 72.5C74.95 73.7705 74.95 75.041 74.95 76.35C74.7705 76.3051 74.6716 76.261 74.5176 76.1666C74.472 76.1388 74.4265 76.111 74.3795 76.0823C74.3061 76.0369 74.3061 76.0369 74.2313 75.9906C74.18 75.9592 74.1288 75.9277 74.076 75.8954C73.6896 75.6574 73.3064 75.4145 72.9242 75.1697C72.5687 74.9423 72.2099 74.7204 71.85 74.5C71.2624 74.14 70.68 73.7722 70.1 73.4C70.2359 73.2599 70.3831 73.1499 70.5406 73.0343C71.7837 72.0912 72.6437 70.7485 72.8941 69.1986C73.0345 68.1529 72.8993 67.1053 72.6 66.1C72.5754 66.0145 72.5754 66.0145 72.5504 65.9273C72.5183 65.8178 72.4845 65.7088 72.45 65.6C72.5335 65.5644 72.5335 65.5644 72.6188 65.5281C73.3736 65.1487 73.9889 64.3354 74.2606 63.5504C74.3099 63.401 74.3561 63.251 74.4 63.1C74.4101 63.0659 74.4202 63.0319 74.4307 62.9968C74.5271 62.5138 74.4624 61.9844 74.1964 61.5655C74.0727 61.3868 73.9388 61.2173 73.8 61.05C73.9086 60.9414 73.9697 60.9208 74.1125 60.8718C75.529 60.3155 76.4575 58.9617 77.0574 57.6234C77.508 56.5697 77.7202 55.4363 77.7188 54.2937C77.7188 54.2603 77.7188 54.227 77.7188 54.1926C77.7172 53.5922 77.6465 53.0314 77.5 52.45C77.4842 52.3819 77.4684 52.3138 77.4527 52.2457C77.357 51.8554 77.2246 51.491 77.0684 51.1218C76.9995 50.9488 76.9481 50.7797 76.9 50.6C77.154 50.5042 77.4016 50.4643 77.6688 50.4281C78.0083 50.3814 78.3448 50.3241 78.6814 50.2599C79.0773 50.1847 79.4746 50.1174 79.8719 50.05C79.9821 50.0312 80.0923 50.0125 80.2025 49.9937C80.2753 49.9813 80.3481 49.9689 80.4209 49.9567C80.61 49.9246 80.7987 49.8911 80.9871 49.8554C81.045 49.8447 81.045 49.8447 81.1041 49.8337C81.1777 49.8199 81.2514 49.8058 81.3249 49.7913C81.4967 49.7594 81.6339 49.7369 81.8 49.8Z" fill="#D96C36"/>
<path d="M53.35 34.65C53.4266 34.7649 53.481 34.8638 53.5375 34.9875C53.7844 35.4788 54.1161 35.6702 54.6187 35.8656C55.0811 35.9534 55.4824 35.9262 55.9 35.7C55.9677 35.6514 56.0347 35.6018 56.1 35.55C56.1109 35.5851 56.1219 35.6201 56.1332 35.6563C56.3329 36.2537 56.6437 36.6134 57.1969 36.9125C57.7823 37.1864 58.3957 37.1439 59 36.95C59.4551 36.7628 59.8288 36.5198 60.2 36.2C60.2662 36.1495 60.3328 36.0993 60.4 36.05C60.3666 36.2502 60.3045 36.4267 60.2312 36.6156C59.8113 37.7818 59.851 38.9919 60.3801 40.1209C60.9107 41.1544 61.8023 41.954 62.9044 42.3363C63.2148 42.4317 63.5292 42.4998 63.85 42.55C63.85 42.583 63.85 42.616 63.85 42.65C63.7753 42.7094 63.6975 42.765 63.6187 42.8188C62.7681 43.4235 61.9189 44.1548 61.6726 45.2156C61.6343 45.4428 61.6129 45.6701 61.6 45.9C61.3877 45.7815 61.2053 45.6357 61.0187 45.4813C59.9516 44.6153 58.792 43.8892 57.45 43.55C57.3897 43.533 57.3897 43.533 57.3283 43.5156C56.2443 43.2451 55.0324 43.5522 54.0828 44.0957C53.9339 44.1921 53.7916 44.2934 53.65 44.4C53.6033 44.4339 53.5566 44.4677 53.5086 44.5026C53.1825 44.7517 52.9434 45.0295 52.7047 45.359C52.6244 45.4671 52.5487 45.5595 52.45 45.65C52.4318 45.6144 52.4136 45.5787 52.3949 45.542C52.008 44.8049 51.4841 44.3829 50.6898 44.1125C49.999 43.9283 49.3331 44.0702 48.7094 44.3906C48.2422 44.6628 47.9524 45.0052 47.65 45.45C47.5045 45.3773 47.4857 45.2749 47.4187 45.1281C47.0341 44.346 46.4056 43.8228 45.6 43.5C44.7035 43.2141 43.8193 43.3069 42.9781 43.7156C42.7285 43.8464 42.5198 43.9897 42.3177 44.1858C42.25 44.25 42.25 44.25 42.2 44.25C42.2017 44.1992 42.2035 44.1484 42.2052 44.0961C42.225 43.283 42.0604 42.6286 41.4969 42.0094C41.1134 41.6489 40.617 41.4303 40.1 41.35C40.2094 41.2406 40.3004 41.2124 40.445 41.1651C41.2153 40.9094 41.8969 40.4367 42.5 39.9C42.5423 39.8631 42.5847 39.8262 42.6283 39.7881C42.7539 39.6771 42.8772 39.5641 43 39.45C43.0386 39.4152 43.0773 39.3804 43.1172 39.3446C43.43 39.051 43.6412 38.723 43.85 38.35C43.8855 38.2892 43.8855 38.2892 43.9217 38.2272C44.2049 37.7093 44.4079 37.0424 44.4049 36.4522C44.4047 36.3966 44.4045 36.341 44.4044 36.2837C44.404 36.2262 44.4035 36.1687 44.4031 36.1094C44.4029 36.0509 44.4026 35.9924 44.4024 35.9322C44.4018 35.7881 44.401 35.6441 44.4 35.5C44.6332 35.5287 44.8475 35.5736 45.0713 35.6449C45.1339 35.6645 45.1965 35.6841 45.261 35.7043C45.2942 35.7148 45.3275 35.7253 45.3617 35.7361C46.0817 35.9625 46.8072 36.1632 47.5375 36.3531C47.6069 36.3712 47.6069 36.3712 47.6777 36.3897C47.8098 36.4241 47.942 36.4583 48.0742 36.4924C48.1136 36.5026 48.153 36.5128 48.1936 36.5233C49.2723 36.7995 50.3493 36.6197 51.35 36.15C51.4036 36.125 51.4572 36.0999 51.5125 36.074C52.2147 35.7204 52.8171 35.2235 53.35 34.65Z" fill="#E29844"/>
<path d="M33.25 71.95C33.3094 72.0247 33.3649 72.1025 33.4188 72.1813C33.963 72.9469 34.6099 73.6217 35.35 74.2C35.4123 74.2499 35.4745 74.2997 35.5367 74.3496C37.6256 76.0048 40.1137 76.9202 42.7094 77.4094C42.7496 77.4171 42.7899 77.4249 42.8314 77.4329C43.5884 77.5699 44.3458 77.6167 45.114 77.613C45.2467 77.6125 45.3793 77.613 45.512 77.6137C46.3282 77.6144 47.1346 77.5532 47.9344 77.3844C47.9865 77.3737 48.0387 77.363 48.0924 77.352C48.4804 77.2703 48.8604 77.1699 49.2385 77.0508C49.3578 77.0133 49.4786 76.9804 49.6 76.95C49.6 79.2105 49.6 81.471 49.6 83.8C49.4778 83.6778 49.4004 83.5821 49.3104 83.4387C49.2834 83.396 49.2564 83.3532 49.2286 83.3092C49.1996 83.2629 49.1705 83.2165 49.1406 83.1688C49.0776 83.0689 49.0146 82.9691 48.9516 82.8693C48.9186 82.8171 48.8857 82.7649 48.8518 82.711C48.6825 82.4431 48.5116 82.1763 48.3406 81.9094C48.2945 81.8372 48.2945 81.8372 48.2473 81.7635C47.9665 81.3246 47.6833 80.8873 47.4 80.45C47.399 80.4811 47.398 80.5122 47.3969 80.5442C47.351 81.9261 47.3046 83.308 47.2532 84.6897C47.249 84.8016 47.2449 84.9134 47.2408 85.0253C47.2185 85.6342 47.1924 86.2421 47.15 86.85C47.0232 86.6917 46.9312 86.5271 46.8389 86.3467C46.8238 86.3174 46.8087 86.2881 46.7932 86.2579C46.761 86.1951 46.7288 86.1324 46.6968 86.0696C46.6293 85.9375 46.5614 85.8055 46.4936 85.6736C46.4596 85.6076 46.4257 85.5415 46.3918 85.4755C46.2597 85.2183 46.1258 84.9619 45.9906 84.7063C45.8094 84.3631 45.6294 84.0192 45.45 83.675C45.3995 83.5782 45.349 83.4814 45.2984 83.3846C45.2248 83.2435 45.1513 83.1025 45.0779 82.9613C45.0104 82.8314 44.9427 82.7016 44.875 82.5719C44.8552 82.5335 44.8353 82.4952 44.8149 82.4557C44.7043 82.2445 44.5861 82.0458 44.45 81.85C44.4418 81.91 44.4418 81.91 44.4334 81.9712C44.2751 83.1139 44.0784 84.2474 43.8678 85.3816C43.8048 85.7217 43.7453 86.0622 43.6875 86.4031C43.6286 86.7458 43.5659 87.0874 43.4969 87.4281C43.4894 87.4666 43.4818 87.505 43.4741 87.5447C43.4278 87.7663 43.3614 87.9503 43.25 88.15C43.217 88.15 43.184 88.15 43.15 88.15C42.8253 87.5616 42.5462 86.965 42.2906 86.3438C42.2528 86.2527 42.215 86.1617 42.1772 86.0706C41.7929 85.1431 41.4211 84.2105 41.0499 83.2776C41.0269 83.2199 41.0039 83.1622 40.9803 83.1027C40.9369 82.9937 40.8936 82.8847 40.8504 82.7757C40.8313 82.7275 40.8121 82.6793 40.7924 82.6297C40.7757 82.5875 40.759 82.5454 40.7417 82.502C40.7012 82.3992 40.7012 82.3992 40.65 82.3C40.64 82.3285 40.63 82.357 40.6197 82.3864C40.157 83.7027 39.6941 85.019 39.2273 86.3339C39.0211 86.9147 38.8162 87.4959 38.6132 88.0778C38.5783 88.1775 38.5435 88.2773 38.5087 88.377C38.4856 88.443 38.4626 88.5089 38.4396 88.5749C38.4282 88.6073 38.4169 88.6398 38.4052 88.6733C38.3487 88.8349 38.2924 88.9965 38.2363 89.1581C38.1739 89.3376 38.1113 89.5169 38.0486 89.6963C38.0207 89.7772 38.0207 89.7772 37.9921 89.8598C37.9662 89.9339 37.9662 89.9339 37.9397 90.0094C37.9247 90.0525 37.9097 90.0956 37.8943 90.1399C37.85 90.25 37.85 90.25 37.75 90.4C37.75 87.3805 37.75 84.361 37.75 81.25C37.3375 81.514 36.925 81.778 36.5 82.05C35.925 82.4156 35.925 82.4156 35.6565 82.5863C35.376 82.765 35.0968 82.9455 34.8182 83.1269C34.6473 83.238 34.4756 83.3465 34.3 83.45C34.3717 83.1187 34.4517 82.7904 34.5375 82.4625C34.5505 82.4129 34.5634 82.3634 34.5767 82.3123C34.679 81.9233 34.7874 81.5363 34.8998 81.1502C34.9721 80.9012 35.0387 80.6519 35.1 80.4C35.0425 80.4271 35.0425 80.4271 34.9837 80.4547C34.2325 80.808 33.4801 81.1575 32.72 81.4914C32.2044 81.7182 31.6947 81.9569 31.1864 82.1994C31.0461 82.2663 30.9057 82.333 30.7653 82.3996C30.6935 82.4338 30.6217 82.4681 30.55 82.5026C30.4446 82.5531 30.339 82.6032 30.2334 82.6531C30.1852 82.6765 30.1852 82.6765 30.136 82.7003C30.0587 82.7366 29.9795 82.7687 29.9 82.8C29.867 82.7835 29.834 82.767 29.8 82.75C30.2508 81.9755 30.7058 81.204 31.1727 80.4391C31.4975 79.9064 31.816 79.37 32.1335 78.8329C32.3188 78.5196 32.505 78.2074 32.7 77.9C32.648 77.8954 32.596 77.8908 32.5425 77.886C32.2281 77.8464 31.926 77.7569 31.6209 77.6736C31.5557 77.656 31.4905 77.6384 31.4253 77.6208C31.2894 77.584 31.1535 77.547 31.0177 77.5099C30.8437 77.4624 30.6696 77.4154 30.4955 77.3686C30.3611 77.3323 30.2269 77.2959 30.0926 77.2593C29.9973 77.2334 29.9019 77.2077 29.8065 77.182C29.7488 77.1662 29.691 77.1503 29.6315 77.134C29.5806 77.1202 29.5298 77.1063 29.4774 77.0921C29.35 77.05 29.35 77.05 29.2 76.95C29.5632 76.6873 29.9284 76.4285 30.3004 76.1785C30.3337 76.1561 30.3671 76.1337 30.4014 76.1106C30.5379 76.019 30.6744 75.9275 30.8111 75.8362C30.9129 75.7682 31.0145 75.7 31.116 75.6317C31.1467 75.6113 31.1774 75.5909 31.209 75.5699C31.3728 75.4594 31.5157 75.3452 31.65 75.2C31.5877 75.1825 31.5254 75.1651 31.4611 75.1471C31.0696 75.0295 30.6869 74.8862 30.3033 74.7451C30.1708 74.6965 30.0381 74.6484 29.9054 74.6003C29.8212 74.5694 29.7371 74.5386 29.6529 74.5076C29.6132 74.4933 29.5735 74.479 29.5325 74.4642C29.2557 74.3614 29.2557 74.3614 29.2 74.25C29.3219 74.1789 29.4437 74.1078 29.5656 74.0368C29.6736 73.9738 29.7816 73.9107 29.8896 73.8477C30.1584 73.691 30.4271 73.5342 30.6959 73.3776C31.129 73.1251 31.562 72.8725 31.9943 72.6188C32.0276 72.5992 32.0609 72.5797 32.0952 72.5596C32.259 72.4635 32.4229 72.3673 32.5867 72.271C32.6462 72.2361 32.7057 72.2012 32.7652 72.1662C32.8441 72.1199 32.8441 72.1199 32.9246 72.0726C33.1364 71.95 33.1364 71.95 33.25 71.95Z" fill="#D25F3B"/>
<path d="M39.1762 11.8846C39.2881 11.9692 39.3943 12.0578 39.5 12.15C39.5399 12.1833 39.5798 12.2166 39.6209 12.251C40.6355 13.124 41.6051 14.5665 41.7104 15.9345C41.7352 16.6518 41.6713 17.213 41.3625 17.8625C41.347 17.8956 41.3314 17.9287 41.3154 17.9629C41.1853 18.2211 41.013 18.406 40.8 18.6C40.8592 18.598 40.8592 18.598 40.9196 18.596C42.8388 18.5408 42.8388 18.5408 43.55 19.15C43.5816 19.1762 43.6132 19.2023 43.6457 19.2293C43.9944 19.5453 44.1626 19.8915 44.1875 20.3625C44.1537 21.2693 43.4128 22.0355 42.8 22.65C42.4192 23.0034 41.883 23.412 41.3406 23.4031C41.2777 23.4021 41.2148 23.4011 41.15 23.4C41.1564 23.4422 41.1627 23.4844 41.1693 23.5279C41.2325 23.9572 41.2823 24.386 41.3236 24.818C41.33 24.8835 41.3364 24.949 41.343 25.0165C41.3598 25.1886 41.3765 25.3607 41.393 25.5328C41.4099 25.7072 41.4269 25.8816 41.4439 26.056C41.4743 26.3681 41.5045 26.6802 41.5346 26.9923C41.5528 27.1781 41.5717 27.3638 41.591 27.5495C41.6025 27.677 41.605 27.8032 41.6031 27.9312C41.6027 27.9731 41.6022 28.015 41.6018 28.0582C41.6009 28.1036 41.6009 28.1036 41.6 28.15C41.1993 27.7536 40.8253 27.3372 40.4717 26.8984C40.2479 26.6254 40.0141 26.361 39.7823 26.0948C39.6039 25.8893 39.4271 25.6822 39.2502 25.4754C39.1446 25.352 39.0387 25.2288 38.9326 25.1059C38.9052 25.074 38.8778 25.0422 38.8495 25.0094C38.797 24.9483 38.7443 24.8874 38.6916 24.8264C38.5865 24.7043 38.4896 24.5843 38.4 24.45C38.387 24.4762 38.3739 24.5023 38.3605 24.5293C37.8743 25.4967 37.8743 25.4967 37.5 25.9C37.4695 25.9351 37.4389 25.9701 37.4074 26.0062C37.0347 26.4111 36.5196 26.7406 35.9604 26.7668C35.0305 26.7824 35.0305 26.7824 34.6 26.55C34.5341 26.5147 34.5341 26.5147 34.4668 26.4787C33.9048 26.1579 33.4877 25.7346 33.283 25.109C33.1578 24.5058 33.22 23.9002 33.5289 23.3627C33.7047 23.0962 33.8983 22.8952 34.15 22.7C34.0981 22.6945 34.0461 22.689 33.9926 22.6834C33.1725 22.5923 32.5462 22.4028 31.95 21.8C31.8598 21.6195 31.8663 21.4436 31.9 21.25C32.2483 20.4494 32.8957 19.9089 33.6815 19.5627C33.9484 19.4634 34.2205 19.4021 34.5 19.35C34.4383 19.2963 34.4383 19.2963 34.3754 19.2416C33.5164 18.4809 32.7346 17.4313 32.642 16.247C32.5875 15.043 32.991 13.9398 33.7822 13.0287C33.8211 12.9862 33.86 12.9438 33.9 12.9C33.9404 12.8549 33.9808 12.8099 34.0225 12.7635C35.3898 11.3143 37.4362 10.7183 39.1762 11.8846Z" fill="#E4A646"/>
<path d="M54.3937 57.3063C54.6403 57.5143 54.7979 57.7685 54.95 58.05C54.9681 58.0812 54.9862 58.1123 55.0049 58.1444C55.1725 58.4914 55.1115 58.925 55.1 59.3C55.1212 59.2752 55.1424 59.2504 55.1642 59.2248C55.2585 59.1157 55.3541 59.0077 55.45 58.9C55.4888 58.8553 55.4888 58.8553 55.5283 58.8096C56.0739 58.2175 56.9174 57.8418 57.7156 57.7891C58.451 57.7697 59.1635 57.9803 59.7469 58.4407C60.2005 58.8714 60.5241 59.4899 60.5594 60.1166C60.5712 60.8103 60.3902 61.4049 59.95 61.95C59.7062 62.2002 59.4718 62.4079 59.15 62.55C59.117 62.55 59.084 62.55 59.05 62.55C59.05 62.583 59.05 62.616 59.05 62.65C59.0801 62.6623 59.1103 62.6745 59.1414 62.6871C59.3547 62.8107 59.4292 63.022 59.5 63.25C59.5591 63.7547 59.5297 64.1884 59.2211 64.6071C58.9159 64.9782 58.5822 65.2265 58.1 65.3C57.9301 65.3113 57.7608 65.3147 57.5906 65.3157C57.5478 65.3159 57.5051 65.3162 57.461 65.3165C57.2056 65.3136 56.9919 65.2822 56.75 65.2C56.7541 65.2495 56.7582 65.299 56.7625 65.35C56.7618 65.6639 56.5846 65.9472 56.3783 66.1756C55.2545 67.2434 53.0863 67.7349 51.586 67.7237C50.6384 67.6986 49.809 67.3731 49.1406 66.6879C48.856 66.3591 48.7031 66.0026 48.55 65.6C48.5015 65.6271 48.5015 65.6271 48.4521 65.6547C47.9523 65.9009 47.3803 65.9597 46.8402 65.8039C46.7159 65.7454 46.6105 65.6814 46.5 65.6C46.468 65.5783 46.436 65.5566 46.4031 65.5342C46.0136 65.2396 45.826 64.8213 45.75 64.35C45.6908 64.3518 45.6316 64.3535 45.5707 64.3553C44.8585 64.3702 44.3247 64.3014 43.7865 63.7928C43.4708 63.4589 43.368 63.1569 43.3781 62.6983C43.4473 62.2295 43.7534 61.8103 44.1 61.5C44.5566 61.1625 44.9917 60.9858 45.55 60.9C45.5263 60.8784 45.5025 60.8567 45.4781 60.8344C45.3119 60.6549 45.3364 60.4354 45.3394 60.2049C45.372 59.7261 45.5224 59.1642 45.8808 58.8231C46.2576 58.5625 46.7628 58.6166 47.2 58.65C47.6068 58.7297 47.9724 58.951 48.3 59.2C48.333 59.2495 48.366 59.299 48.4 59.35C48.4212 59.3229 48.4424 59.2958 48.4642 59.2678C48.6835 59.0003 48.8629 58.8264 49.2226 58.7864C49.591 58.772 49.8099 58.8797 50.1 59.1C50.1255 59.0462 50.151 58.9924 50.1773 58.9369C50.6153 58.0449 51.2188 57.3738 52.1588 56.9955C52.9134 56.7523 53.7448 56.8536 54.3937 57.3063Z" fill="#F2D94C"/>
<path d="M22.1 62.1C22.5031 62.3967 22.8531 62.7411 23.2 63.1C23.3472 62.9556 23.4856 62.81 23.6156 62.65C23.8621 62.3647 24.1482 62.1713 24.5281 62.1313C24.8572 62.1379 25.1286 62.2882 25.3672 62.508C25.5404 62.6961 25.6644 62.8571 25.75 63.1C25.777 63.0935 25.8041 63.0869 25.8319 63.0802C26.1102 63.0152 26.385 62.9727 26.6689 62.9426C26.7128 62.9377 26.7567 62.9329 26.802 62.9278C26.944 62.9121 27.0861 62.8967 27.2281 62.8813C27.426 62.8595 27.6238 62.8375 27.8217 62.8155C27.8954 62.8073 27.8954 62.8073 27.9707 62.7989C28.2751 62.7648 28.5792 62.7284 28.883 62.6893C28.9196 62.6846 28.9562 62.6799 28.994 62.675C29.1623 62.6533 29.3305 62.6311 29.4987 62.6084C29.8353 62.5645 30.1607 62.5405 30.5 62.55C30.2129 62.9012 29.8901 63.2162 29.5691 63.5358C29.5079 63.5969 29.4467 63.6581 29.3855 63.7192C29.2253 63.8792 29.065 64.0391 28.9046 64.1989C28.7406 64.3623 28.5767 64.526 28.4129 64.6896C28.0921 65.0099 27.7711 65.33 27.45 65.65C27.4968 65.7127 27.5436 65.7753 27.5904 65.8379C27.6165 65.8728 27.6426 65.9077 27.6694 65.9436C27.746 66.0448 27.8243 66.1444 27.9031 66.2438C28.2357 66.6898 28.4764 67.2326 28.4 67.8C28.2726 68.4005 27.9997 68.8411 27.5 69.2C27.1932 69.378 26.9329 69.4076 26.5812 69.4094C26.5179 69.4101 26.4547 69.4108 26.3894 69.4115C26.1908 69.3995 26.038 69.3615 25.85 69.3C25.8742 69.3353 25.8985 69.3707 25.9234 69.4071C26.3382 70.042 26.6966 70.7841 26.75 71.55C26.7534 71.588 26.7568 71.626 26.7603 71.6651C26.7879 72.2395 26.5778 72.7576 26.2203 73.1983C25.9979 73.438 25.7393 73.6011 25.45 73.75C25.4039 73.7745 25.3578 73.799 25.3103 73.8242C24.6857 74.1119 23.8852 74.1025 23.2428 73.8664C22.4678 73.506 21.9101 72.953 21.5934 72.1559C21.5231 71.9034 21.5293 71.6595 21.55 71.4C21.4878 71.4163 21.4256 71.4325 21.3615 71.4492C21.0787 71.5118 20.8042 71.5152 20.5156 71.5125C20.4625 71.5121 20.4095 71.5118 20.3548 71.5114C19.1531 71.495 18.1704 71.1705 17.3109 70.311C16.7563 69.7111 16.624 68.919 16.6361 68.1344C16.6472 67.8574 16.7058 67.6379 16.85 67.4C16.8706 67.365 16.8912 67.3299 16.9125 67.2938C17.2781 66.7453 17.8867 66.5043 18.5088 66.3643C18.8368 66.306 19.1679 66.2749 19.5 66.25C19.4739 66.2311 19.4478 66.2123 19.4209 66.1928C18.7791 65.7129 18.2196 65.1413 18 64.35C17.978 64.1952 17.9737 64.0438 17.975 63.8875C17.9753 63.8459 17.9756 63.8043 17.9759 63.7614C17.9926 63.1789 18.2497 62.7518 18.6 62.3C18.623 62.2682 18.646 62.2363 18.6697 62.2035C18.8796 61.9314 19.1529 61.7662 19.45 61.6C19.4812 61.5818 19.5124 61.5635 19.5445 61.5448C20.3795 61.1442 21.4099 61.6306 22.1 62.1Z" fill="#E4A346"/>
<path d="M56.4 72.45C56.5784 72.5212 56.6416 72.5946 56.7297 72.7635C56.753 72.8074 56.7763 72.8512 56.8003 72.8964C56.825 72.944 56.8496 72.9916 56.875 73.0406C56.9288 73.1419 56.9827 73.2432 57.0367 73.3443C57.064 73.3957 57.0913 73.4471 57.1194 73.5001C57.2382 73.7211 57.3623 73.9388 57.4875 74.1563C57.5118 74.1985 57.536 74.2408 57.561 74.2844C57.6126 74.3742 57.6643 74.4641 57.716 74.5539C57.8585 74.8018 58.0006 75.0499 58.1426 75.2982C58.1766 75.3575 58.2106 75.4169 58.2445 75.4762C58.4324 75.8044 58.6192 76.1332 58.8031 76.4637C58.8513 76.5501 58.8513 76.5501 58.9004 76.6383C58.9614 76.7481 59.0223 76.858 59.083 76.9679C59.1101 77.0168 59.1373 77.0657 59.1652 77.116C59.2008 77.1804 59.2008 77.1804 59.2371 77.2461C59.2979 77.3559 59.2979 77.3559 59.4 77.45C59.449 77.4246 59.4981 77.3992 59.5486 77.3731C60.2933 76.9914 61.0376 76.7019 61.85 76.5C61.8987 76.4876 61.9474 76.4751 61.9976 76.4623C62.8736 76.2702 63.7801 76.3881 64.55 76.85C65.1 77.2194 65.3973 77.8755 65.5406 78.5031C65.5929 78.794 65.6137 79.0765 65.6156 79.3719C65.6159 79.4085 65.6162 79.4452 65.6165 79.4829C65.6088 80.0611 65.3837 80.6751 64.9844 81.1C64.1757 81.8103 63.0343 81.9059 62 81.85C61.866 81.8364 61.7334 81.8188 61.6 81.8C61.6108 81.8514 61.6108 81.8514 61.6219 81.9039C61.8332 83.0958 61.8274 84.5355 61.1094 85.5688C60.7623 85.9945 60.2912 86.2291 59.75 86.3C58.9116 86.3446 58.1209 86.2679 57.4658 85.7092C56.9656 85.2377 56.6351 84.567 56.5923 83.8752C56.5902 83.7489 56.5912 83.6231 56.5937 83.4969C56.5942 83.4536 56.5946 83.4103 56.5951 83.3657C56.5963 83.2605 56.5981 83.1552 56.6 83.05C56.5215 83.0717 56.5215 83.0717 56.4414 83.0938C55.9369 83.2218 55.4519 83.2705 54.9312 83.2719C54.8449 83.2726 54.8449 83.2726 54.7569 83.2734C53.9805 83.2658 53.2777 83.0781 52.7031 82.5344C52.2337 82.0229 51.9433 81.3582 51.925 80.6594C51.9618 79.8734 52.3087 79.2805 52.8726 78.7537C53.5322 78.1664 54.3714 77.8066 55.206 77.5455C55.3453 77.5056 55.3453 77.5056 55.45 77.45C55.4788 77.3612 55.4788 77.3612 55.4947 77.252C55.5021 77.2095 55.5095 77.1671 55.5171 77.1233C55.5249 77.0764 55.5326 77.0296 55.5406 76.9813C55.5583 76.8795 55.576 76.7777 55.5937 76.676C55.603 76.6223 55.6122 76.5687 55.6217 76.5134C55.6678 76.2472 55.7165 75.9814 55.7656 75.7156C55.7758 75.6605 55.7859 75.6054 55.7964 75.5486C55.9004 74.9893 56.0122 74.4316 56.125 73.874C56.2208 73.4001 56.3121 72.9255 56.4 72.45Z" fill="#E4A346"/>
<path d="M80 36.2C80.0677 36.2486 80.1343 36.2987 80.2 36.35C80.2609 36.3945 80.2609 36.3945 80.323 36.4398C80.4681 36.5657 80.5745 36.7046 80.6813 36.8625C80.7009 36.8913 80.7205 36.9201 80.7407 36.9497C80.9368 37.2442 81.0592 37.491 81.05 37.85C81.0725 37.8294 81.095 37.8088 81.1182 37.7875C81.5201 37.4266 81.9353 37.0815 82.45 36.9C82.4914 36.8851 82.5329 36.8702 82.5756 36.8549C83.2101 36.6539 83.8109 36.7079 84.4031 36.9875C85.0528 37.3294 85.4368 37.8876 85.6672 38.5799C85.7935 39.0424 85.8567 39.6349 85.6469 40.0813C85.2508 40.7314 84.5747 41.041 83.8592 41.224C83.1556 41.3915 82.4711 41.4194 81.75 41.4C81.7662 41.4544 81.7825 41.5088 81.7992 41.5648C81.8654 41.8306 81.8651 42.0899 81.8625 42.3625C81.8621 42.4136 81.8618 42.4647 81.8614 42.5174C81.8507 43.2677 81.7128 44.0167 81.2 44.6C80.768 44.9782 80.3249 45.1288 79.7563 45.1219C79.7124 45.1215 79.6686 45.1211 79.6234 45.1207C79.0224 45.1055 78.5587 44.88 78.1156 44.4781C78.0775 44.4358 78.0393 44.3936 78 44.35C77.9304 44.2804 77.9304 44.2804 77.8594 44.2094C77.321 43.5711 76.9338 42.5263 76.95 41.7C76.8919 41.6935 76.8339 41.687 76.7741 41.6802C76.5681 41.6544 76.3671 41.6137 76.165 41.5664C76.1118 41.5542 76.1118 41.5542 76.0575 41.5417C75.9435 41.5155 75.8296 41.489 75.7156 41.4625C75.6372 41.4444 75.5587 41.4263 75.4802 41.4082C74.9028 41.2749 74.326 41.1392 73.75 41C73.8645 40.8723 73.9753 40.8048 74.1301 40.7322C74.1776 40.7097 74.2251 40.6872 74.274 40.664C74.3259 40.6398 74.3778 40.6156 74.4313 40.5906C74.5434 40.5376 74.6556 40.4846 74.7678 40.4314C74.7977 40.4173 74.8276 40.4032 74.8584 40.3887C75.1053 40.2719 75.3509 40.1526 75.5963 40.0326C75.6337 40.0143 75.6712 39.9961 75.7098 39.9772C75.8594 39.9042 76.009 39.8311 76.1585 39.7577C76.2633 39.7063 76.3683 39.6551 76.4732 39.6039C76.5049 39.5883 76.5365 39.5727 76.569 39.5566C76.7886 39.45 76.7886 39.45 76.9 39.45C76.8919 39.3956 76.8839 39.3412 76.8756 39.2852C76.7526 38.2948 76.7981 37.2966 77.3967 36.4658C78.0791 35.7009 79.1603 35.6522 80 36.2Z" fill="#E39E46"/>
<path d="M70.0344 32.2625C70.1242 32.3403 70.2126 32.4196 70.3 32.5C70.3391 32.536 70.3391 32.536 70.3791 32.5727C71.4256 33.5452 72.151 34.9088 72.2058 36.3537C72.2385 37.5048 72.183 38.7919 71.45 39.75C71.3679 39.8346 71.2848 39.9182 71.2 40C71.1995 39.9687 71.1991 39.9374 71.1986 39.9051C71.1601 37.8228 70.7367 35.8281 69.1941 34.3256C67.8116 33.121 65.9923 32.8512 64.2161 32.9581C63.7463 32.9934 63.2829 33.0621 62.8214 33.1561C62.6502 33.1897 62.5159 33.2132 62.35 33.15C63.1729 32.272 64.1478 31.6136 65.3 31.25C65.3523 31.233 65.4045 31.216 65.4584 31.1984C67.0227 30.7787 68.7843 31.2737 70.0344 32.2625Z" fill="#FFF368"/>
<path d="M33.15 19.9C33.2049 20.0648 33.1923 20.0911 33.15 20.25C33.1165 20.7011 33.1525 21.035 33.4094 21.4094C33.8379 21.8379 34.4047 22.0103 35 22.05C34.9668 22.2494 34.906 22.425 34.8313 22.6125C34.7979 22.6992 34.7979 22.6992 34.7639 22.7877C34.7278 22.8795 34.6906 22.9709 34.6502 23.0608C34.542 23.3222 34.533 23.5798 34.5281 23.8594C34.5265 23.9174 34.5265 23.9174 34.5248 23.9765C34.526 24.2936 34.6265 24.4664 34.843 24.7006C35.1059 24.9336 35.3288 25.1049 35.691 25.0969C36.3631 25.0144 36.8276 24.6011 37.25 24.1C37.5219 23.7498 37.7771 23.3835 38 23C38.2789 23.1983 38.525 23.4117 38.7641 23.6561C38.797 23.6892 38.8299 23.7224 38.8637 23.7565C38.9677 23.8614 39.0714 23.9666 39.175 24.0719C39.2787 24.1769 39.3824 24.2819 39.4863 24.3867C39.5505 24.4516 39.6147 24.5166 39.6786 24.5817C39.8655 24.7707 40.0587 24.9487 40.2607 25.1216C40.344 25.1948 40.4226 25.2707 40.5 25.35C40.6591 24.954 40.7673 24.545 40.8798 24.1337C40.9056 24.0397 40.9318 23.9459 40.958 23.852C40.9733 23.7964 40.9886 23.7408 41.0043 23.6835C41.05 23.55 41.05 23.55 41.15 23.45C41.2247 23.9033 41.2801 24.3559 41.3236 24.8131C41.33 24.8787 41.3364 24.9443 41.343 25.0119C41.3599 25.1844 41.3765 25.3569 41.393 25.5294C41.4098 25.7041 41.4269 25.8789 41.4439 26.0536C41.4743 26.3664 41.5045 26.6792 41.5346 26.992C41.5527 27.1779 41.5717 27.3638 41.591 27.5496C41.6025 27.6771 41.605 27.8033 41.6031 27.9313C41.6027 27.9732 41.6022 28.0151 41.6018 28.0582C41.6009 28.1037 41.6009 28.1037 41.6 28.15C41.1993 27.7536 40.8253 27.3372 40.4717 26.8985C40.2479 26.6255 40.0141 26.3611 39.7823 26.0948C39.6039 25.8893 39.4271 25.6823 39.2502 25.4754C39.1446 25.352 39.0387 25.2289 38.9326 25.1059C38.9052 25.074 38.8778 25.0422 38.8495 25.0094C38.797 24.9484 38.7443 24.8874 38.6916 24.8265C38.5865 24.7043 38.4896 24.5843 38.4 24.45C38.387 24.4762 38.3739 24.5023 38.3605 24.5293C37.8743 25.4967 37.8743 25.4967 37.5 25.9C37.4695 25.9351 37.4389 25.9701 37.4074 26.0063C37.0347 26.4112 36.5196 26.7406 35.9604 26.7668C35.0305 26.7825 35.0305 26.7825 34.6 26.55C34.5561 26.5265 34.5121 26.503 34.4668 26.4787C33.9048 26.158 33.4877 25.7346 33.283 25.109C33.1578 24.5059 33.22 23.9003 33.5289 23.3627C33.7047 23.0963 33.8983 22.8952 34.15 22.7C34.0981 22.6945 34.0461 22.6891 33.9926 22.6834C33.1725 22.5923 32.5462 22.4029 31.95 21.8C31.8598 21.6196 31.8663 21.4436 31.9 21.25C32.1315 20.7178 32.5086 20.2584 33 19.95C33.0495 19.9335 33.099 19.917 33.15 19.9Z" fill="#DA6D37"/>
<path d="M56.4 72.45C56.5784 72.5212 56.6416 72.5946 56.7297 72.7635C56.753 72.8074 56.7763 72.8512 56.8003 72.8964C56.825 72.944 56.8496 72.9916 56.875 73.0406C56.9288 73.1419 56.9827 73.2432 57.0367 73.3443C57.064 73.3957 57.0913 73.4471 57.1194 73.5001C57.2382 73.7211 57.3623 73.9388 57.4875 74.1563C57.5118 74.1985 57.536 74.2408 57.5611 74.2844C57.6127 74.3742 57.6643 74.4641 57.716 74.5539C57.8585 74.8018 58.0006 75.0499 58.1426 75.2982C58.1766 75.3575 58.2106 75.4169 58.2446 75.4762C58.4324 75.8044 58.6192 76.1332 58.8031 76.4637C58.8352 76.5213 58.8673 76.579 58.9004 76.6383C58.9614 76.7481 59.0223 76.858 59.083 76.9679C59.1101 77.0168 59.1373 77.0657 59.1652 77.116C59.2008 77.1804 59.2008 77.1804 59.2371 77.2461C59.2979 77.3559 59.2979 77.3559 59.4 77.45C59.449 77.4246 59.4981 77.3992 59.5486 77.3731C60.2934 76.9914 61.0376 76.7019 61.85 76.5C61.8987 76.4876 61.9475 76.4751 61.9977 76.4623C62.8736 76.2702 63.7801 76.3881 64.55 76.85C65.1 77.2194 65.3973 77.8755 65.5406 78.5031C65.593 78.794 65.6138 79.0765 65.6156 79.3719C65.6159 79.4085 65.6162 79.4452 65.6165 79.4829C65.6088 80.0611 65.3837 80.6751 64.9844 81.1C64.7308 81.3261 64.4327 81.5234 64.1 81.6C64.107 81.568 64.114 81.536 64.1212 81.5031C64.3253 80.4944 64.3039 79.4244 63.7494 78.535C63.4653 78.1492 63.1404 77.9051 62.6688 77.8156C62.5959 77.8094 62.523 77.8043 62.45 77.8C62.4044 77.7962 62.3587 77.7924 62.3117 77.7885C61.3221 77.7425 60.3431 78.2235 59.5291 78.7444C59.2778 78.9011 59.2778 78.9011 59.1489 78.8962C59.0058 78.8293 58.9674 78.7401 58.891 78.6029C58.8466 78.5245 58.8466 78.5245 58.8013 78.4444C58.77 78.3875 58.7386 78.3305 58.7063 78.2719C58.673 78.2126 58.6397 78.1534 58.6063 78.0943C58.5548 78.003 58.5034 77.9117 58.4522 77.8203C58.3148 77.575 58.1731 77.3323 58.0302 77.0902C57.7556 76.625 57.4895 76.1557 57.2313 75.6813C57.2029 75.6295 57.1746 75.5777 57.1455 75.5244C57.1198 75.4768 57.0941 75.4292 57.0676 75.3801C57.0448 75.338 57.022 75.2959 56.9986 75.2525C56.95 75.15 56.95 75.15 56.95 75.05C56.7578 75.2275 56.6246 75.4068 56.5 75.6375C56.4816 75.6708 56.4632 75.704 56.4442 75.7383C56.3191 75.9666 56.1992 76.1974 56.0799 76.4287C56.036 76.5137 56.036 76.5137 55.9913 76.6004C55.9329 76.714 55.8748 76.8277 55.8171 76.9417C55.7904 76.9939 55.7637 77.046 55.7361 77.0998C55.7004 77.1703 55.7004 77.1703 55.6639 77.2423C55.6 77.35 55.6 77.35 55.5 77.4C55.5278 76.9777 55.5977 76.5707 55.6813 76.1563C55.7014 76.0546 55.7215 75.9529 55.7415 75.8512C55.7556 75.7796 55.7697 75.7081 55.7839 75.6366C55.8613 75.245 55.935 74.8528 56.0087 74.4605C56.1349 73.7894 56.2632 73.119 56.4 72.45Z" fill="#D6683A"/>
<path d="M51.7 27.35C51.7458 27.3653 51.7916 27.3806 51.8387 27.3963C53.2743 27.8796 54.8625 28.5551 55.5904 29.9778C55.6101 30.0181 55.6297 30.0585 55.65 30.1C55.6702 30.1342 55.6903 30.1683 55.7111 30.2035C55.7591 30.3225 55.7424 30.3813 55.7 30.5C55.6647 30.4764 55.6294 30.4527 55.593 30.4283C54.4738 29.7071 53.2026 29.2885 51.9 29.05C51.8262 29.036 51.8262 29.036 51.751 29.0216C51.2973 28.9424 50.8528 28.9322 50.3938 28.9344C50.3552 28.9345 50.3166 28.9346 50.2769 28.9346C49.7255 28.9365 49.1902 28.9574 48.65 29.078C48.5492 29.1002 48.4483 29.1188 48.3467 29.1369C46.8971 29.4149 45.4873 30.2387 44.4191 31.2446C44.35 31.3 44.35 31.3 44.25 31.3C44.4624 29.9088 45.6674 28.412 46.75 27.6C48.1593 26.6264 50.1478 26.819 51.7 27.35Z" fill="#FFF368"/>
<path d="M25 62.2469C25.3519 62.4375 25.6166 62.7213 25.75 63.1C25.777 63.0935 25.8041 63.0869 25.8319 63.0802C26.1102 63.0152 26.385 62.9727 26.6689 62.9426C26.7128 62.9377 26.7567 62.9329 26.802 62.9278C26.944 62.9121 27.086 62.8967 27.2281 62.8813C27.426 62.8595 27.6238 62.8375 27.8217 62.8155C27.8708 62.81 27.92 62.8045 27.9707 62.7989C28.2751 62.7648 28.5792 62.7284 28.883 62.6893C28.9196 62.6846 28.9562 62.6799 28.994 62.675C29.1623 62.6533 29.3305 62.6311 29.4987 62.6085C29.8353 62.5645 30.1607 62.5405 30.5 62.55C30.2129 62.9012 29.8901 63.2162 29.5691 63.5358C29.5079 63.5969 29.4467 63.6581 29.3854 63.7192C29.2253 63.8792 29.0649 64.0391 28.9046 64.1989C28.7406 64.3623 28.5767 64.526 28.4129 64.6896C28.0921 65.0099 27.7711 65.33 27.45 65.65C27.4968 65.7127 27.5436 65.7753 27.5904 65.8379C27.6295 65.8902 27.6295 65.8902 27.6694 65.9436C27.746 66.0448 27.8243 66.1444 27.9031 66.2438C28.2357 66.6898 28.4763 67.2327 28.4 67.8C28.2726 68.4005 27.9997 68.8411 27.5 69.2C27.0773 69.4452 26.5352 69.4817 26.0621 69.3664C25.9531 69.325 25.9531 69.325 25.8 69.25C25.8 69.217 25.8 69.184 25.8 69.15C25.8577 69.1253 25.9155 69.1005 25.975 69.075C26.4747 68.8216 26.7601 68.3748 26.9517 67.8614C27.1083 67.3297 27.1591 66.6673 26.9133 66.1567C26.8057 65.9754 26.6856 65.8112 26.55 65.65C26.5216 65.6162 26.4933 65.5824 26.4641 65.5475C26.3934 65.4644 26.3218 65.3821 26.25 65.3C26.4595 65.0846 26.6745 64.8814 26.9053 64.6887C27.0164 64.5846 27.1072 64.4706 27.2 64.35C27.1633 64.3531 27.1266 64.3561 27.0888 64.3592C26.4084 64.4146 25.7329 64.4689 25.05 64.45C24.9898 64.2822 24.9405 64.116 24.9035 63.9418C24.8957 63.9053 24.8879 63.8689 24.8799 63.8313C24.8641 63.756 24.8487 63.6806 24.8338 63.6051C24.7851 63.382 24.7408 63.2429 24.55 63.1C24.2013 62.9838 23.8419 63.0384 23.5 63.15C23.434 63.15 23.368 63.15 23.3 63.15C23.435 62.7561 23.7394 62.4405 24.1031 62.2438C24.4376 62.0995 24.6663 62.1009 25 62.2469Z" fill="#D66739"/>
<path d="M76.9 39.5C76.82 39.7482 76.6737 39.9351 76.5188 40.1406C76.493 40.1753 76.4672 40.2099 76.4406 40.2456C76.3773 40.3306 76.3137 40.4153 76.25 40.5C76.2807 40.5051 76.3114 40.5102 76.3431 40.5155C76.6178 40.5627 76.884 40.6334 77.15 40.7156C77.1829 40.725 77.2159 40.7345 77.2498 40.7442C77.3996 40.7924 77.4843 40.8237 77.5662 40.9613C77.5774 41.0071 77.5885 41.0529 77.6 41.1C77.6221 41.1829 77.6221 41.1829 77.6447 41.2674C77.6674 41.3593 77.6674 41.3593 77.6906 41.4531C77.8611 42.112 78.11 42.8553 78.7 43.25C79.0287 43.4397 79.3699 43.4593 79.7342 43.3654C80.2496 43.1779 80.4834 42.8933 80.7178 42.4115C80.8551 42.1112 80.926 41.8302 80.95 41.5C80.9526 41.4659 80.9552 41.4317 80.9579 41.3966C80.9752 41.1645 80.9888 40.9324 81 40.7C81.3091 40.7345 81.6107 40.7891 81.9156 40.85C82.7686 41.0147 83.6354 41.0653 84.5 40.95C84.0578 41.3922 82.9466 41.4064 82.3591 41.4101C82.1559 41.4091 81.9531 41.4055 81.75 41.4C81.7662 41.4544 81.7825 41.5088 81.7992 41.5648C81.8654 41.8306 81.8651 42.0899 81.8625 42.3625C81.8621 42.4136 81.8618 42.4647 81.8614 42.5173C81.8507 43.2677 81.7128 44.0167 81.2 44.6C80.768 44.9782 80.3249 45.1288 79.7563 45.1219C79.6905 45.1213 79.6905 45.1213 79.6234 45.1207C79.0224 45.1055 78.5587 44.88 78.1156 44.4781C78.0775 44.4358 78.0393 44.3936 78 44.35C77.9536 44.3036 77.9072 44.2572 77.8594 44.2094C77.321 43.5711 76.9338 42.5263 76.95 41.7C76.8629 41.6902 76.8629 41.6902 76.7741 41.6802C76.5681 41.6544 76.3671 41.6137 76.165 41.5664C76.1296 41.5583 76.0941 41.5501 76.0575 41.5417C75.9435 41.5155 75.8296 41.489 75.7156 41.4625C75.6372 41.4444 75.5587 41.4263 75.4802 41.4082C74.9028 41.2749 74.326 41.1392 73.75 41C73.8653 40.8711 73.9776 40.8037 74.1336 40.7305C74.1816 40.7077 74.2296 40.6849 74.2791 40.6615C74.3313 40.6371 74.3836 40.6127 74.4375 40.5875C74.55 40.5344 74.6624 40.4813 74.7748 40.4281C74.8045 40.4141 74.8342 40.4001 74.8648 40.3857C75.1011 40.2739 75.336 40.1593 75.5705 40.0438C75.6411 40.0091 75.7116 39.9745 75.7822 39.9399C75.8861 39.8889 75.99 39.8378 76.0937 39.7863C76.1908 39.7382 76.288 39.6905 76.3854 39.643C76.4413 39.6154 76.4972 39.5878 76.5548 39.5593C76.7 39.5 76.7 39.5 76.9 39.5Z" fill="#DD7334"/>
<path d="M39.278 12.5641C39.9024 13.1114 40.3505 13.8598 40.6 14.65C40.5835 14.6995 40.567 14.749 40.55 14.8C40.501 14.7674 40.4519 14.7348 40.4014 14.7012C39.9484 14.4058 39.5088 14.1834 39 14C38.9571 13.9821 38.9142 13.9642 38.8699 13.9457C38.1217 13.6606 37.1187 13.7197 36.3963 14.0367C36.0507 14.1972 35.7406 14.3648 35.4691 14.6375C35.4 14.7 35.4 14.7 35.3 14.7C35.2808 14.7435 35.2808 14.7435 35.2611 14.7879C35.1944 14.9104 35.1185 14.9934 35.0219 15.0938C34.4566 15.7193 34.0031 16.549 33.75 17.35C33.717 17.3335 33.684 17.317 33.65 17.3C33.6108 17.18 33.5773 17.0628 33.5469 16.9406C33.5382 16.9076 33.5295 16.8746 33.5206 16.8405C33.2682 15.8607 33.2958 14.8285 33.7875 13.9344C33.9628 13.6639 34.1745 13.4294 34.4 13.2C34.4302 13.1692 34.4603 13.1384 34.4914 13.1066C35.0563 12.5737 35.7707 12.2807 36.5 12.05C36.5456 12.0356 36.5911 12.0211 36.6381 12.0063C37.5469 11.7779 38.5528 11.9681 39.278 12.5641Z" fill="#F3DA86"/>
<path d="M40.6469 31C40.6812 31.0118 40.7155 31.0237 40.7508 31.0359C40.9942 31.123 41.2205 31.231 41.45 31.35C41.45 31.3665 41.45 31.383 41.45 31.4C41.4162 31.4005 41.3824 31.4009 41.3475 31.4014C39.0597 31.4406 36.8948 31.8908 35.2145 33.5324C34.508 34.2737 33.9939 35.2656 33.7156 36.2469C33.7044 36.2858 33.6931 36.3248 33.6816 36.3649C33.6542 36.4599 33.6271 36.5549 33.6 36.65C33.1487 35.973 33.2258 34.7884 33.3375 34.0187C33.3564 33.9287 33.3772 33.8391 33.4 33.75C33.4128 33.6987 33.4257 33.6474 33.4389 33.5945C33.6427 32.8631 33.9642 32.3226 34.5 31.8C34.5329 31.7667 34.5658 31.7333 34.5996 31.699C36.1751 30.2013 38.7514 30.3436 40.6469 31Z" fill="#FFF368"/>
<path d="M19 66.65C18.9903 66.6784 18.9807 66.7069 18.9707 66.7362C18.9577 66.7748 18.9447 66.8134 18.9313 66.8531C18.9121 66.9097 18.9121 66.9097 18.8926 66.9674C18.8785 67.0112 18.8645 67.0549 18.85 67.1C18.8322 67.152 18.8144 67.2039 18.7961 67.2574C18.6114 68.0292 18.7315 68.863 19.1031 69.5563C19.3945 70.0236 19.7742 70.4181 20.2209 70.7397C20.247 70.7596 20.2731 70.7795 20.3 70.8C20.3 70.8165 20.3 70.833 20.3 70.85C19.3058 70.8355 18.4529 70.5703 17.7129 69.8731C17.2801 69.4014 17.0524 68.8886 17.0766 68.2475C17.1278 67.8162 17.3833 67.5205 17.7082 67.2477C18.0329 67.0241 18.5965 66.65 19 66.65Z" fill="#F2D685"/>
<path d="M60.95 82.65C60.9995 82.6748 60.9995 82.6748 61.05 82.7C61.1281 82.9808 61.1092 83.2735 61.1094 83.5625C61.11 83.6172 61.1106 83.672 61.1112 83.7283C61.1123 84.3159 61.0187 84.8388 60.6166 85.2946C60.0724 85.7877 59.4192 85.8418 58.7168 85.8098C58.2052 85.767 57.8149 85.4809 57.4688 85.1219C57.1907 84.7909 57.0053 84.378 56.95 83.95C57.2116 84.0474 57.455 84.1783 57.7015 84.3083C58.1589 84.5429 58.8037 84.6151 59.3052 84.4695C60.1624 84.1327 60.579 83.4443 60.95 82.65Z" fill="#F2D885"/>
<path d="M56.2156 43.9344C56.2619 43.9347 56.3082 43.935 56.3559 43.9352C56.7062 43.9415 57.0187 43.9806 57.35 44.1C57.4082 44.1207 57.4664 44.1414 57.5264 44.1627C58.5475 44.5419 59.3852 45.1381 60.2 45.85C60.0153 45.85 59.9047 45.7944 59.7344 45.7219C57.9983 45.0063 55.8987 44.6241 54.0973 45.3564C53.866 45.4601 53.6432 45.582 53.4228 45.7071C53.3333 45.7574 53.2418 45.8041 53.15 45.85C53.117 45.8335 53.084 45.817 53.05 45.8C53.8426 44.7594 54.8558 43.9257 56.2156 43.9344Z" fill="#FFE085"/>
<path d="M58.94 58.3304C59.4653 58.6626 59.8824 59.0895 60.0795 59.6898C60.2001 60.3377 60.0749 60.9846 59.7348 61.5422C59.6367 61.6669 59.5269 61.7553 59.4 61.85C59.4016 61.8051 59.4016 61.8051 59.4032 61.7593C59.4266 60.9869 59.4382 60.2668 58.9 59.65C58.6276 59.383 58.3107 59.2592 57.95 59.15C57.9037 59.1356 57.9037 59.1356 57.8564 59.1209C57.1494 58.9821 56.4328 59.1798 55.75 59.35C55.843 59.1414 55.9787 59.0375 56.1625 58.9093C56.1934 58.8876 56.2243 58.8658 56.2561 58.8434C57.0054 58.3284 58.0497 57.8892 58.94 58.3304Z" fill="#FEF368"/>
<path d="M21.8287 62.5018C21.9428 62.5942 22.0151 62.6818 22.1 62.8C22.062 62.799 22.024 62.7979 21.9848 62.7969C21.8097 62.7927 21.6345 62.7901 21.4594 62.7875C21.3996 62.7859 21.3398 62.7842 21.2782 62.7825C20.788 62.7771 20.325 62.8614 19.9283 63.1692C19.5437 63.5662 19.4902 63.9774 19.4906 64.5032C19.4906 64.5498 19.4906 64.5964 19.4905 64.6445C19.4931 64.9891 19.5219 65.3134 19.6 65.65C19.103 65.2868 18.7088 64.6377 18.55 64.05C18.4856 63.6264 18.4892 63.1857 18.7162 62.8104C19.5582 61.7014 20.7297 61.7508 21.8287 62.5018Z" fill="#F1CA84"/>
<path d="M84.0592 37.3531C84.186 37.4259 84.2906 37.5032 84.4 37.6C84.4351 37.6296 84.4701 37.6592 84.5063 37.6897C84.9497 38.097 85.2918 38.6393 85.3219 39.25C85.3082 39.6348 85.1386 39.9435 84.883 40.2246C84.7508 40.3447 84.6095 40.4203 84.45 40.5C84.4472 40.4275 84.4472 40.4275 84.4443 40.3535C84.4099 39.6707 84.2895 39.0592 83.775 38.5656C83.2598 38.1495 82.5935 37.9204 81.95 37.8C82.0717 37.6605 82.1972 37.5962 82.3656 37.5219C82.4119 37.5012 82.4581 37.4805 82.5057 37.4592C82.9859 37.2623 83.5553 37.185 84.0592 37.3531Z" fill="#F2D584"/>
<path d="M53.8604 57.6772C54.2421 57.9867 54.4568 58.3685 54.55 58.85C54.5604 59.0027 54.5574 59.1467 54.55 59.3C54.5005 59.249 54.5005 59.249 54.45 59.1969C54.4002 59.1477 54.3502 59.0987 54.3 59.05C54.2555 59.0067 54.2555 59.0067 54.2102 58.9625C53.7663 58.5506 53.3313 58.4325 52.7356 58.4398C51.9912 58.4806 51.2924 58.8656 50.7 59.3C50.65 59.15 50.65 59.15 50.7186 59.0107C51.114 58.3836 51.5775 57.6485 52.3309 57.4184C52.8749 57.3345 53.3982 57.3541 53.8604 57.6772Z" fill="#FEF367"/>
<path d="M22 71.5C22.0225 71.5176 22.045 71.5352 22.0682 71.5533C22.86 72.1611 23.57 72.5406 24.5949 72.4643C25.0832 72.3979 25.5383 72.1515 25.9383 71.8758C26.0395 71.8071 26.1394 71.7518 26.25 71.7C26.2756 72.0468 26.2588 72.3131 26.05 72.6C25.6256 73.0762 24.9127 73.3155 24.29 73.3619C23.6116 73.3763 23.1959 73.1748 22.7082 72.7131C22.4166 72.405 22.0736 71.9249 22 71.5Z" fill="#F1CF84"/>
<path d="M52.9 79.5C52.9165 79.5 52.933 79.5 52.95 79.5C52.9543 79.5418 52.9586 79.5837 52.9631 79.6268C53.0409 80.2713 53.1891 80.8808 53.6 81.4C53.6299 81.4407 53.6598 81.4813 53.6906 81.5232C54.2543 82.1765 55.1373 82.4345 55.95 82.6C55.9253 82.6495 55.9253 82.6495 55.9 82.7C54.8489 82.7345 53.8506 82.7105 53 82.0063C52.6734 81.6974 52.5475 81.3571 52.5329 80.9131C52.5248 80.3712 52.6536 79.9847 52.9 79.5Z" fill="#F0CA83"/>
<path d="M41.05 19.05C42.584 18.9918 42.584 18.9918 43.2 19.45C43.4793 19.7448 43.5266 20.0438 43.5187 20.4389C43.4445 21.0769 43.0352 21.5638 42.55 21.95C42.5608 21.9243 42.5716 21.8987 42.5828 21.8723C42.7578 21.391 42.8184 20.7454 42.6 20.2687C42.2532 19.7078 41.6752 19.3381 41.05 19.15C41.05 19.117 41.05 19.084 41.05 19.05Z" fill="#F0C783"/>
<path d="M34.85 41C34.7824 41.1353 34.7228 41.1335 34.5813 41.1813C33.7112 41.5201 33.2665 42.2382 32.9 43.05C32.8738 43.1076 32.8476 43.1651 32.8205 43.2244C32.7447 43.4132 32.6903 43.6 32.6406 43.7969C32.6318 43.8311 32.6229 43.8653 32.6138 43.9005C32.5923 43.9836 32.5711 44.0668 32.55 44.15C32.2984 43.9153 32.2431 43.6541 32.2296 43.319C32.2204 42.6564 32.403 42.0419 32.8483 41.5391C33.4401 40.9654 34.0723 40.9645 34.85 41Z" fill="#FFF368"/>
<path d="M45.8 44.2C46.1822 44.4968 46.488 44.8444 46.75 45.25C46.75 45.283 46.75 45.316 46.75 45.35C46.6259 45.2886 46.5029 45.2255 46.3801 45.1615C45.5117 44.7129 44.7325 44.4816 43.7469 44.4875C43.682 44.4871 43.6171 44.4868 43.5503 44.4864C43.1882 44.4871 42.8512 44.5094 42.5 44.6C42.6959 44.3822 42.8998 44.2521 43.1594 44.1188C43.1974 44.0992 43.2354 44.0795 43.2746 44.0593C44.1428 43.6201 44.993 43.626 45.8 44.2Z" fill="#FFE084"/>
<path d="M51 44.5C51.4849 44.814 51.9106 45.2701 52.15 45.8C52.1335 45.833 52.117 45.866 52.1 45.9C52.0715 45.8782 52.0429 45.8564 52.0135 45.834C50.9661 45.0647 49.8464 44.8938 48.5895 45.0781C48.5204 45.089 48.5204 45.089 48.45 45.1C49.1053 44.4141 50.1087 43.9806 51 44.5Z" fill="#FFE085"/>
<path d="M79.55 36.6C79.9145 36.8721 80.2982 37.2345 80.5 37.65C80.4835 37.683 80.467 37.716 80.45 37.75C80.4245 37.7276 80.3989 37.7052 80.3726 37.6822C79.799 37.2051 79.1873 37.0423 78.45 37.1C78.1231 37.1791 77.8343 37.3231 77.55 37.5C77.592 37.1347 77.7698 36.8474 78.0551 36.614C78.5365 36.3039 79.0485 36.3358 79.55 36.6Z" fill="#EFC383"/>
<path d="M47.7281 59.2C47.8132 59.2495 47.8132 59.2495 47.9 59.3C47.9 59.3165 47.9 59.333 47.9 59.35C47.8523 59.3549 47.8045 59.3598 47.7553 59.3649C47.1488 59.435 46.5928 59.5427 46.15 60C46.0367 60.1605 45.9397 60.3253 45.85 60.5C45.7181 60.3681 45.7321 60.2996 45.7281 60.1156C45.7334 59.8717 45.7553 59.7133 45.9151 59.5266C46.4047 59.0854 47.1074 58.9189 47.7281 59.2Z" fill="#FAF189"/>
<path d="M32.9 20C32.933 20.0165 32.966 20.033 33 20.05C32.769 20.281 32.538 20.512 32.3 20.75C32.267 20.7335 32.234 20.717 32.2 20.7C32.2696 20.6206 32.3394 20.5415 32.4094 20.4625C32.4677 20.3964 32.4677 20.3964 32.5272 20.3289C32.6442 20.2061 32.7651 20.1026 32.9 20Z" fill="#E6984D"/>
</svg>
