<svg width="100" height="100" viewBox="0 0 100 100" fill="none" xmlns="http://www.w3.org/2000/svg">
<path d="M24.4231 43.7168C26.8238 44.9254 28.548 46.0003 30.011 48.2813C31.219 50.1466 32.2429 50.5781 34.386 51.125C34.8578 51.2165 35.3296 51.3081 35.8157 51.4024C37.011 51.6875 37.011 51.6875 38.011 52.6875C38.3582 55.1946 38.4203 57.4599 37.1673 59.6875C34.7618 61.7679 32.7021 62.7124 29.511 62.6875C27.761 62.2188 27.761 62.2188 26.511 61.6875C26.346 60.2025 26.181 58.7175 26.011 57.1875C25.5263 57.1256 25.0416 57.0638 24.5423 57C23.7843 56.8453 23.7843 56.8453 23.011 56.6875C22.3245 55.3145 22.4489 54.2081 22.511 52.6875C22.676 52.1925 22.841 51.6975 23.011 51.1875C22.5231 51.163 22.0352 51.1385 21.5325 51.1133C20.8963 51.0759 20.2602 51.0385 19.6048 51C18.9725 50.9652 18.3402 50.9304 17.6887 50.8946C16.011 50.6875 16.011 50.6875 14.511 49.6875C13.9798 48.0313 13.9798 48.0313 14.011 46.1875C16.983 43.0804 20.3907 42.2054 24.4231 43.7168Z" fill="#CEDDE0"/>
<path d="M66.511 53.6875C69.0402 53.8561 70.9946 54.027 73.011 55.6875C73.243 56.2908 73.243 56.2908 73.4797 56.9062C73.9291 58.3491 73.9291 58.3491 75.5735 59.125C77.011 60.1875 77.011 60.1875 77.3235 61.9688C77.011 63.6875 77.011 63.6875 76.1809 64.4961C74.7944 65.3155 73.5516 65.6279 71.9797 65.9688C70.155 66.368 69.0812 66.6407 67.511 67.6875C64.6463 67.5773 62.8428 66.742 60.511 65.1875C59.2963 63.3654 59.4301 62.3313 59.511 60.1875C59.181 60.1875 58.851 60.1875 58.511 60.1875C58.2922 59.125 58.2922 59.125 58.511 57.6875C59.7488 56.1052 61.1499 54.9081 63.1165 54.4043C64.0778 54.295 65.0447 54.2375 66.011 54.1875C66.176 54.0225 66.341 53.8575 66.511 53.6875Z" fill="#A0B2BC"/>
<path d="M79.511 37.1874C82.3571 38.501 83.5252 40.5658 85.011 43.1874C85.341 43.6824 85.671 44.1774 86.011 44.6874C86.2924 46.8579 86.2703 47.826 84.9798 49.6249C83.2023 50.9108 82.201 51.1874 80.011 51.1874C78.059 50.5368 76.2348 49.9151 75.011 48.1874C75.011 47.6924 75.011 47.1974 75.011 46.6874C74.4129 46.6462 73.8148 46.6049 73.1985 46.5624C71.0589 46.3002 69.7039 45.55 68.011 44.1874C67.3279 42.8212 67.4468 41.6964 67.511 40.1874C68.011 39.6874 68.011 39.6874 69.5735 39.5312C71.4543 39.1975 72.4695 38.6034 74.0677 37.623C75.852 36.7992 77.6025 36.8525 79.511 37.1874Z" fill="#CFDDE0"/>
<path d="M67.761 17C70.6233 17.068 73.6666 18.0616 75.8762 19.9121C77.1397 21.4554 77.205 23.2139 77.1907 25.1523C76.8701 26.9992 75.8313 27.8986 74.511 29.1875C72.8912 29.9974 71.2618 29.9761 69.511 29.6875C68.2159 29.0001 67.1439 28.1109 66.011 27.1875C65.1809 26.6822 64.3486 26.1802 63.511 25.6875C63.346 25.5225 63.181 25.3575 63.011 25.1875C63.2759 21.8765 63.9056 17.4131 67.761 17Z" fill="#CEDCE0"/>
<path d="M55.511 18.6876C57.2581 19.2325 58.6996 19.8762 60.011 21.1876C60.5798 23.1126 60.6026 23.9669 59.8235 25.8438C59.011 27.1876 59.011 27.1876 58.511 27.6876C57.1733 27.7095 55.8476 27.7099 54.511 27.6876C52.519 27.5456 52.519 27.5456 50.9172 28.4376C48.8372 29.3855 46.7655 29.524 44.511 29.1876C44.016 28.8576 43.521 28.5276 43.011 28.1876C43.011 27.0626 43.011 27.0626 43.511 25.6876C45.2071 24.5315 47.073 23.8336 49.011 23.1876C49.5186 22.0242 50.0184 20.8574 50.511 19.6876C52.3901 18.4348 53.2792 18.5016 55.511 18.6876Z" fill="#A0B2BC"/>
<path d="M24.4583 43.7519C27.221 45.1684 29.1106 46.3867 30.511 49.1875C28.9325 51.4605 27.4732 52.5212 25.011 53.6875C23.5423 53.8125 23.5423 53.8125 22.511 53.6875C22.676 52.8625 22.841 52.0375 23.011 51.1875C22.5231 51.163 22.0352 51.1385 21.5325 51.1132C20.8963 51.0759 20.2602 51.0385 19.6048 51C18.9725 50.9652 18.3402 50.9303 17.6887 50.8945C16.011 50.6875 16.011 50.6875 14.511 49.6875C13.9798 48.0312 13.9798 48.0312 14.011 46.1875C16.9896 43.0734 20.4298 42.1808 24.4583 43.7519Z" fill="#A0B2BC"/>
<path d="M31.7922 25.0938C32.381 25.0831 32.381 25.0831 32.9817 25.0723C34.011 25.1875 34.011 25.1875 35.011 26.1875C34.9993 27.3477 34.9993 27.3477 34.8235 28.75C34.6189 30.5042 34.5019 32.1442 34.6047 33.9062C34.511 35.6875 34.511 35.6875 33.6985 36.9062C32.2483 37.8603 31.2426 38.1154 29.511 38.1875C28.851 37.8575 28.191 37.5275 27.511 37.1875C27.511 35.7025 27.511 34.2175 27.511 32.6875C26.9232 32.5792 26.9232 32.5792 26.3235 32.4688C25.011 32.1875 25.011 32.1875 24.011 31.6875C24.0547 29.067 24.0547 29.067 24.511 27.6875C26.5276 25.8472 29.1172 25.1158 31.7922 25.0938Z" fill="#CDDBDF"/>
<path d="M76.511 69.1875C77.006 69.5175 77.501 69.8475 78.011 70.1875C79.1152 70.5029 79.1152 70.5029 80.2922 70.7187C81.4811 70.955 82.4253 71.1447 83.511 71.6875C84.0355 73.4629 84.1608 74.3579 83.386 76.0625C82.181 77.6118 81.3239 78.1341 79.386 78.4648C78.7672 78.5177 78.1485 78.5705 77.511 78.625C76.8922 78.6856 76.2735 78.7462 75.636 78.8086C74.011 78.6875 74.011 78.6875 73.0461 77.8164C72.4828 76.628 72.3623 75.9851 72.4485 74.6875C72.5047 73.4754 72.5166 72.7066 72.1672 71.5312C72.011 70.6875 72.011 70.6875 72.5422 69.8125C73.9205 68.9233 74.9025 69.02 76.511 69.1875Z" fill="#A0B2BC"/>
<path d="M66.511 53.6875C70.1201 53.865 70.1201 53.865 71.761 55.2188C72.0085 55.5384 72.256 55.8581 72.511 56.1875C71.5735 59.625 71.5735 59.625 71.011 60.1875C70.4232 60.1462 69.8354 60.105 69.2297 60.0625C66.9597 60.0139 65.8032 60.8586 63.9934 62.1309C62.4417 63.0101 61.2556 62.8692 59.511 62.6875C59.511 61.8625 59.511 61.0375 59.511 60.1875C59.181 60.1875 58.851 60.1875 58.511 60.1875C58.2922 59.125 58.2922 59.125 58.511 57.6875C59.7488 56.1052 61.1499 54.9081 63.1165 54.4043C64.0778 54.295 65.0447 54.2375 66.011 54.1875C66.176 54.0225 66.341 53.8575 66.511 53.6875Z" fill="#CCDADF"/>
<path d="M68.011 39.6875C69.8643 40.3053 70.3356 41.1708 71.511 42.6875C72.6191 43.3463 72.6191 43.3463 74.4798 43.0625C75.5618 43.043 75.5618 43.043 76.511 43.1875C77.4173 44.375 77.4173 44.375 78.011 45.6875C79.6183 46.759 80.6263 46.9204 82.5403 46.8887C83.6827 46.7445 83.6827 46.7445 84.761 45.4375C85.0085 45.025 85.256 44.6125 85.511 44.1875C86.011 44.6875 86.011 44.6875 86.1985 46.3125C86.011 48.1875 86.011 48.1875 84.9798 49.625C83.2023 50.9109 82.201 51.1875 80.011 51.1875C78.059 50.5368 76.2348 49.9151 75.011 48.1875C75.011 47.6925 75.011 47.1975 75.011 46.6875C74.4129 46.6462 73.8148 46.605 73.1985 46.5625C71.0589 46.3003 69.7039 45.5501 68.011 44.1875C67.3279 42.8213 67.4468 41.6965 67.511 40.1875C67.676 40.0225 67.841 39.8575 68.011 39.6875Z" fill="#A0B2BC"/>
<path d="M55.511 18.6876C56.7432 19.1015 57.8389 19.6135 59.011 20.1876C58.491 21.863 58.0027 22.192 56.4172 23.0313C55.0825 23.5569 54.1376 23.7255 52.6672 23.8751C50.5626 24.2722 50.2682 25.0249 49.011 26.6876C46.9655 27.6214 45.2444 27.7939 43.011 27.6876C43.1399 26.7559 43.1399 26.7559 43.511 25.6876C44.3821 25.0723 44.3821 25.0723 45.4485 24.5938C45.9725 24.3512 45.9725 24.3512 46.5071 24.1036C47.3281 23.7634 48.1679 23.4686 49.011 23.1876C49.5186 22.0242 50.0184 20.8574 50.511 19.6876C52.3901 18.4348 53.2792 18.5016 55.511 18.6876Z" fill="#CCDADF"/>
<path d="M24.1946 43.6933C25.2271 44.3051 26.1477 44.8524 27.011 45.6875C27.011 46.1825 27.011 46.6775 27.011 47.1875C26.011 48.1875 26.011 48.1875 24.3547 48.2812C22.511 48.1875 22.511 48.1875 21.1985 47.875C19.682 47.6355 18.9144 48.1056 17.511 48.6875C15.8547 48.75 15.8547 48.75 14.511 48.6875C14.346 47.8625 14.181 47.0375 14.011 46.1875C17.0774 43.5299 20.1373 41.9593 24.1946 43.6933Z" fill="#C8D7DC"/>
<path d="M24.011 29.1875C24.176 29.8475 24.341 30.5075 24.511 31.1875C28.2145 31.3639 31.1799 30.8531 34.511 29.1875C34.5651 30.2286 34.6039 31.2705 34.636 32.3125C34.6592 32.8926 34.6824 33.4727 34.7063 34.0703C34.511 35.6875 34.511 35.6875 33.5969 36.8711C32.2087 37.9147 31.2383 38.1155 29.511 38.1875C28.851 37.8575 28.191 37.5275 27.511 37.1875C27.511 35.7025 27.511 34.2175 27.511 32.6875C26.9232 32.5792 26.9232 32.5792 26.3235 32.4688C25.011 32.1875 25.011 32.1875 24.011 31.6875C24.011 30.8625 24.011 30.0375 24.011 29.1875Z" fill="#C9D8DD"/>
<path d="M76.511 22.1875C76.676 22.1875 76.841 22.1875 77.011 22.1875C77.3458 26.0714 77.3458 26.0714 75.8235 27.9062C74.0662 29.6217 73.0603 29.8876 70.5891 29.8652C68.6896 29.5521 67.4667 28.374 66.011 27.1875C65.1809 26.6822 64.3486 26.1802 63.511 25.6875C63.011 25.1875 63.011 25.1875 62.9797 23.9062C62.99 23.5041 63.0004 23.1019 63.011 22.6875C63.176 23.0175 63.341 23.3475 63.511 23.6875C64.6055 23.8843 64.6055 23.8843 65.886 23.9375C67.8054 24.09 69.2387 24.4211 71.011 25.1875C73.5392 25.6853 73.5392 25.6853 76.011 25.1875C76.176 24.1975 76.341 23.2075 76.511 22.1875Z" fill="#9EB0BB"/>
<path d="M27.011 55.6875C27.2585 56.1103 27.506 56.5331 27.761 56.9688C28.8715 58.3182 28.8715 58.3182 30.2747 58.2598C34.2616 57.934 34.2616 57.934 38.011 56.6875C37.7742 58.819 36.5498 59.7952 35.011 61.1875C33.2189 62.3822 31.6274 62.6676 29.511 62.6875C27.761 62.2188 27.761 62.2188 26.511 61.6875C26.346 60.2025 26.181 58.7175 26.011 57.1875C24.526 56.94 24.526 56.94 23.011 56.6875C23.011 56.5225 23.011 56.3575 23.011 56.1875C24.3923 55.8888 25.5912 55.6875 27.011 55.6875Z" fill="#A0B2BC"/>
<path d="M75.011 37.1876C77.4081 36.9958 79.071 36.9676 81.261 38.0626C82.48 39.1597 82.8963 39.5825 83.011 41.1876C81.2626 42.0618 79.371 41.6045 77.511 41.1876C75.9797 40.2813 75.9797 40.2813 75.011 39.1876C75.011 38.5276 75.011 37.8676 75.011 37.1876Z" fill="#FCFDFD"/>
<path d="M24.011 29.1875C24.176 29.8475 24.341 30.5075 24.511 31.1875C28.2145 31.3639 31.1799 30.8531 34.511 29.1875C34.511 30.5075 34.511 31.8275 34.511 33.1875C30.2967 34.3304 30.2967 34.3304 28.011 34.1875C27.846 33.6925 27.681 33.1975 27.511 32.6875C26.9232 32.5792 26.9232 32.5792 26.3235 32.4688C25.011 32.1875 25.011 32.1875 24.011 31.6875C24.011 30.8625 24.011 30.0375 24.011 29.1875Z" fill="#A0B1BC"/>
<path d="M74.9485 69.0312C76.6429 69.2007 77.2804 69.5516 78.511 70.6875C77.9351 71.9215 77.4871 72.7114 76.511 73.6875C74.9115 73.8577 73.9152 73.9482 72.5423 73.0625C72.011 72.1875 72.011 72.1875 72.1048 71.1562C72.769 69.5724 73.235 69.2175 74.9485 69.0312Z" fill="#C8D6DC"/>
<path d="M66.011 17.1876C68.4716 17.1042 70.2627 17.0634 72.511 18.1876C72.346 18.8476 72.181 19.5076 72.011 20.1876C69.4011 20.2776 67.4747 20.173 65.011 19.1876C65.341 18.5276 65.671 17.8676 66.011 17.1876Z" fill="#FBFCFC"/>
<path d="M50.011 32.6876C49.5735 35.0626 49.5735 35.0626 49.011 36.1876C47.856 36.1876 46.701 36.1876 45.511 36.1876C45.346 35.3626 45.181 34.5376 45.011 33.6876C46.8331 32.4729 47.8672 32.6067 50.011 32.6876Z" fill="#A2B3BD"/>
<path d="M66.0422 80.1562C66.7693 80.1717 66.7693 80.1717 67.511 80.1875C67.8235 81.375 67.8235 81.375 68.011 82.6875C67.681 83.0175 67.351 83.3475 67.011 83.6875C65.6985 83.5 65.6985 83.5 64.511 83.1875C64.3199 82.3594 64.154 81.5252 64.011 80.6875C64.511 80.1875 64.511 80.1875 66.0422 80.1562Z" fill="#A0B2BC"/>
<path d="M30.511 25.1875C29.9905 26.5597 29.5246 27.1769 28.3547 28.0938C26.7991 28.7811 26.1066 28.689 24.511 28.1875C26.167 26.2768 27.9157 25.1875 30.511 25.1875Z" fill="#FBFCFC"/>
<path d="M34.011 36.1875C33.0823 37.3742 32.5217 37.6845 31.0422 38.0938C29.4609 38.1906 28.8141 38.0395 27.511 37.1875C27.511 36.8575 27.511 36.5275 27.511 36.1875C28.3126 36.0897 29.1148 35.9969 29.9172 35.9063C30.3639 35.854 30.8106 35.8018 31.2708 35.7481C32.511 35.6875 32.511 35.6875 34.011 36.1875Z" fill="#A2B4BE"/>
<path d="M32.8235 42.125C33.2154 42.1456 33.6072 42.1662 34.011 42.1875C33.8547 43.125 33.8547 43.125 33.511 44.1875C32.011 45.1875 32.011 45.1875 30.011 45.1875C30.3913 43.2861 30.6852 42.2268 32.8235 42.125Z" fill="#C8D6DC"/>
<path d="M55.511 18.6876C55.346 19.1826 55.181 19.6776 55.011 20.1876C53.9778 20.5528 53.9778 20.5528 52.7297 20.7813C52.3166 20.8606 51.9034 20.9399 51.4778 21.0216C50.9992 21.1037 50.9992 21.1037 50.511 21.1876C50.511 20.6926 50.511 20.1976 50.511 19.6876C52.3331 18.4729 53.3672 18.6067 55.511 18.6876Z" fill="#FCFDFD"/>
<path d="M46.511 32.6875C47.666 32.6875 48.821 32.6875 50.011 32.6875C49.846 33.5125 49.681 34.3375 49.511 35.1875C48.2922 34.7812 48.2922 34.7812 47.011 34.1875C46.846 33.6925 46.681 33.1975 46.511 32.6875Z" fill="#CCDADF"/>
</svg>
