<svg width="100" height="100" viewBox="0 0 100 100" fill="none" xmlns="http://www.w3.org/2000/svg">
<path d="M59.0664 19.3446C60.9129 19.9184 62.2018 19.2905 63.9219 18.5868C66.1201 17.995 67.8649 17.9674 70.0469 18.6493C72.5115 20.0913 74.0672 21.7108 74.8907 24.4618C75.0376 25.0351 75.0376 25.0351 75.1875 25.62C75.5174 26.8161 75.5174 26.8161 76.8907 27.9305C78.1172 29.2234 78.2467 29.4676 78.3282 31.1493C78.1949 33.1674 77.5326 34.2462 76.0469 35.6493C74.7049 36.5033 74.1661 36.6493 72.5469 36.6493C72.5469 36.9793 72.5469 37.3093 72.5469 37.6493C72.9182 37.7627 73.2894 37.8762 73.6719 37.993C75.3512 38.7945 76.0611 39.5792 77.0469 41.1493C77.1719 42.5555 77.1719 42.5555 77.0469 43.6493C77.48 43.7421 77.9132 43.8349 78.3594 43.9305C80.5659 44.8704 81.8302 46.0868 83.0469 48.1493C83.4077 50.2416 83.3524 51.174 82.2032 52.9618C80.9954 54.2022 79.7711 55.4251 78.5469 56.6493C78.1138 57.2835 78.1138 57.2835 77.6719 57.9305C76.0822 59.6527 74.208 60.3227 72.0469 61.1493C72.6817 63.4576 73.6594 65.2236 74.9864 67.1844C76.1845 69.2468 76.2119 71.298 76.0469 73.6493C75.1505 75.7252 74.1392 76.7851 72.0469 77.6493C68.2674 78.0096 68.2674 78.0096 66.5469 77.1493C66.4128 77.5309 66.2788 77.9124 66.1407 78.3055C65.2511 80.3188 65.2511 80.3188 64.0469 81.1493C62.3907 81.6493 62.3907 81.6493 60.5469 81.6493C58.6451 80.3934 57.3913 79.2643 56.5469 77.1493C56.4317 76.0048 56.4317 76.0048 56.4532 74.8368C56.4564 74.4488 56.4596 74.0608 56.4629 73.661C56.5469 72.6493 56.5469 72.6493 57.0469 71.6493C56.4591 71.6905 55.8713 71.7318 55.2657 71.7743C52.8642 71.7914 51.5189 70.964 49.5469 69.6493C49.7629 67.2734 50.2107 66.1893 52.0469 64.6493C51.8922 64.3915 51.7375 64.1337 51.5782 63.868C50.8702 62.244 50.6092 60.9233 50.5469 59.1493C51.9217 56.5246 54.4933 55.4315 57.0469 54.1493C56.7994 53.6234 56.7994 53.6234 56.5469 53.0868C55.9723 51.4348 55.7938 50.3848 56.0469 48.6493C57.0557 47.2307 57.8301 46.3389 59.5508 45.8837C61.0504 45.6845 62.5357 45.6493 64.0469 45.6493C63.7994 45.2626 63.7994 45.2626 63.5469 44.868C62.844 43.1547 62.8283 41.9921 63.0469 40.1493C63.7731 38.8487 64.5982 37.8115 65.5469 36.6493C64.5656 35.7075 64.5656 35.7075 63.0469 35.1493C61.8439 35.4062 60.7757 35.8014 59.6387 36.2684C58.5469 36.6493 58.5469 36.6493 56.5469 36.6493C56.5005 37.4382 56.5005 37.4382 56.4532 38.243C55.9718 40.5018 55.3145 41.2106 53.5469 42.6493C51.8245 43.7433 50.4398 43.7557 48.4219 43.7118C47.8831 43.7028 47.3442 43.6937 46.7891 43.6844C46.3792 43.6728 45.9692 43.6612 45.5469 43.6493C45.573 44.1472 45.573 44.1472 45.5996 44.6552C45.7341 49.0403 45.7341 49.0403 44.0469 51.1493C44.3299 51.3182 44.6128 51.487 44.9043 51.661C45.4544 51.9955 45.4544 51.9955 46.0157 52.3368C46.5638 52.6674 46.5638 52.6674 47.1231 53.0048C48.0469 53.6493 48.0469 53.6493 48.5469 54.6493C48.5685 55.9872 48.5696 57.3126 48.5469 58.6493C48.362 60.6724 48.362 60.6724 49.5469 62.1493C49.7657 63.3993 49.7657 63.3993 49.5469 64.6493C48.0832 65.9758 46.9241 66.2233 45.0157 66.1805C43.1453 65.9959 43.1453 65.9959 42.0157 66.6805C40.8108 67.2635 39.8795 67.2533 38.5723 67.0126C35.3705 65.8782 32.787 63.4721 30.5157 61.0243C28.8174 59.2297 27.4175 58.6708 25.0742 58.0262C23.1885 57.3343 22.5588 56.3793 21.5469 54.6493C21.4197 53.3021 21.5031 52.0069 21.5469 50.6493C21.2994 50.3193 21.0519 49.9893 20.7969 49.6493C19.826 48.3548 19.811 47.2532 19.8614 45.663C20.156 44.0534 21.0856 42.9411 22.0469 41.6493C22.0695 40.1106 22.0695 40.1106 21.8907 38.4305C22.0469 36.6493 22.0469 36.6493 23.0782 35.493C24.7498 34.5327 26.1762 34.0895 28.0469 33.6493C27.985 33.2471 27.9232 32.8449 27.8594 32.4305C28.1701 29.4785 29.77 27.2022 32.0489 25.3231C34.9433 23.4283 37.4112 23.0789 40.8594 23.0868C41.4227 23.0855 41.986 23.0842 42.5664 23.0829C44.0469 23.1493 44.0469 23.1493 45.5469 23.6493C45.5057 23.278 45.4644 22.9068 45.4219 22.5243C45.5469 21.1493 45.5469 21.1493 46.3594 20.0555C50.2186 17.1104 54.7964 17.7565 59.0664 19.3446Z" fill="#D0DEE1"/>
<path d="M78.0469 29.1492C78.2909 32.7483 78.2909 32.7483 77.1719 34.5867C75.6112 36.0606 74.7051 36.6492 72.5469 36.6492C72.5469 36.9792 72.5469 37.3092 72.5469 37.6492C72.9181 37.7626 73.2894 37.876 73.6719 37.9929C75.3511 38.7944 76.061 39.5791 77.0469 41.1492C77.1719 42.5554 77.1719 42.5554 77.0469 43.6492C77.48 43.742 77.9131 43.8348 78.3594 43.9304C80.5659 44.8702 81.8302 46.0866 83.0469 48.1492C83.4076 50.2415 83.3524 51.1739 82.2031 52.9617C80.9953 54.2021 79.7711 55.425 78.5469 56.6492C78.1138 57.2834 78.1138 57.2834 77.6719 57.9304C76.0822 59.6526 74.208 60.3226 72.0469 61.1492C72.6817 63.4575 73.6594 65.2235 74.9863 67.1843C76.1845 69.2466 76.2119 71.2978 76.0469 73.6492C75.1505 75.7251 74.1392 76.785 72.0469 77.6492C68.2674 78.0094 68.2674 78.0094 66.5469 77.1492C66.4128 77.5307 66.2788 77.9123 66.1406 78.3054C65.251 80.3187 65.251 80.3187 64.0469 81.1492C62.3906 81.6492 62.3906 81.6492 60.5469 81.6492C58.6451 80.3933 57.3913 79.2642 56.5469 77.1492C56.4316 76.0046 56.4316 76.0046 56.4531 74.8367C56.4563 74.4487 56.4596 74.0607 56.4629 73.6609C56.5469 72.6492 56.5469 72.6492 57.0469 71.6492C56.4591 71.6904 55.8712 71.7317 55.2656 71.7742C52.8641 71.7913 51.5189 70.9638 49.5469 69.6492C49.7629 67.2733 50.2107 66.1892 52.0469 64.6492C51.8148 64.2625 51.8148 64.2625 51.5781 63.8679C50.8702 62.2438 50.6091 60.9232 50.5469 59.1492C51.9217 56.5245 54.4933 55.4314 57.0469 54.1492C56.8819 53.7985 56.7169 53.4479 56.5469 53.0867C55.9723 51.4347 55.7938 50.3847 56.0469 48.6492C57.0556 47.2306 57.8301 46.3388 59.5508 45.8835C61.0503 45.6843 62.5356 45.6492 64.0469 45.6492C63.7994 45.2625 63.7994 45.2625 63.5469 44.8679C62.844 43.1546 62.8282 41.992 63.0469 40.1492C63.7731 38.8486 64.5982 37.8113 65.5469 36.6492C64.5655 35.7074 64.5655 35.7074 63.0469 35.1492C61.8439 35.406 60.7757 35.8013 59.6387 36.2683C58.5469 36.6492 58.5469 36.6492 56.5469 36.6492C56.5159 37.1751 56.485 37.701 56.4531 38.2429C55.9718 40.5016 55.3144 41.2105 53.5469 42.6492C51.8245 43.7432 50.4398 43.7555 48.4219 43.7117C47.883 43.7026 47.3442 43.6936 46.7891 43.6843C46.3791 43.6727 45.9692 43.6611 45.5469 43.6492C45.3819 43.9792 45.2169 44.3092 45.0469 44.6492C44.82 44.2676 44.5931 43.886 44.3594 43.4929C43.7778 42.531 43.1704 41.5845 42.5469 40.6492C42.8614 40.6782 43.1759 40.7072 43.5 40.7371C46.9012 40.9163 48.8866 40.2676 51.5469 38.1492C52.4167 37.2794 52.2328 36.0523 52.3281 34.8679C52.37 34.362 52.4119 33.856 52.4551 33.3347C52.5005 32.7479 52.5005 32.7479 52.5469 32.1492C53.0535 32.2207 53.0535 32.2207 53.5703 32.2937C54.0163 32.3491 54.4623 32.4046 54.9219 32.4617C55.5832 32.5487 55.5832 32.5487 56.2578 32.6375C57.6739 32.6503 58.3333 32.3328 59.5469 31.6492C60.7643 31.8115 61.7739 32.2369 62.9219 32.6804C67.1645 33.9043 71.0468 32.8086 75.0469 31.1492C77.6929 29.1492 77.6929 29.1492 78.0469 29.1492Z" fill="#CEDDE0"/>
<path d="M40.5469 36.1492C41.0419 36.3142 41.5369 36.4792 42.0469 36.6492C41.9531 38.0242 41.9531 38.0242 41.5469 39.6492C41.1344 39.9689 40.7219 40.2885 40.2969 40.6179C38.8871 41.5825 38.8871 41.5825 38.5469 43.3992C38.5469 45.3664 38.8407 45.7017 40.0469 47.1492C40.2969 48.4304 40.2969 48.4304 40.0469 49.6492C39.0156 50.4304 39.0156 50.4304 37.5469 51.1492C36.9309 51.5114 36.3163 51.876 35.7031 52.2429C34.0469 53.1492 34.0469 53.1492 33.0469 53.1492C31.9359 55.3058 31.9401 56.8086 32.5469 59.1492C33.4665 60.337 34.1342 60.5953 35.6094 60.7878C37.4599 60.8639 38.6648 60.8843 40.2656 59.8992C40.5235 59.6517 40.7813 59.4042 41.0469 59.1492C41.3769 59.1492 41.7069 59.1492 42.0469 59.1492C42.8594 60.1492 42.8594 60.1492 43.5469 61.1492C45.6118 60.8655 45.6118 60.8655 47.5469 60.1492C48.7931 61.2006 49.4733 61.8139 49.8281 63.4304C49.5469 64.6492 49.5469 64.6492 48.5469 65.5554C47.1376 66.1132 46.4773 66.2132 45.0156 66.1804C43.1453 65.9958 43.1453 65.9958 42.0156 66.6804C40.8108 67.2634 39.8795 67.2532 38.5723 67.0125C35.3705 65.8781 32.787 63.472 30.5156 61.0242C28.8173 59.2296 27.4175 58.6707 25.0742 58.0261C23.1885 57.3342 22.5588 56.3792 21.5469 54.6492C21.4197 53.3019 21.5031 52.0067 21.5469 50.6492C21.2994 50.3192 21.0519 49.9892 20.7969 49.6492C19.8265 48.3553 19.8078 47.2566 19.8672 45.6667C20.1627 43.9931 20.9613 42.9209 22.0469 41.6492C23.5469 41.1492 23.5469 41.1492 25.2031 41.1804C27.0472 41.1492 28.3237 40.7503 30.0469 40.1492C30.3769 40.3142 30.7069 40.4792 31.0469 40.6492C33.7213 40.9506 35.8403 41.1791 38.0469 39.5242C38.3769 39.0704 38.7069 38.6167 39.0469 38.1492C39.346 37.7676 39.645 37.386 39.9531 36.9929C40.1491 36.7145 40.345 36.436 40.5469 36.1492Z" fill="#A1B3BC"/>
<path d="M59.0664 19.3446C60.9129 19.9184 62.2018 19.2905 63.9219 18.5868C66.1163 17.996 67.8698 17.9603 70.0469 18.6493C72.2821 20.019 73.8055 21.3196 74.5469 23.868C74.5469 24.2909 74.5469 24.7137 74.5469 25.1493C72.3522 26.3844 70.5205 26.4206 68.0469 26.1493C67.3013 25.9177 66.5616 25.6666 65.8281 25.3993C61.4222 23.9651 55.5115 23.6291 51.2969 25.743C50.1658 26.4073 49.0947 27.1155 48.0234 27.8719C43.5455 30.6508 38.1209 29.8656 33.0469 29.6493C32.9869 30.27 32.927 30.8907 32.8652 31.5302C32.5596 33.9515 31.7574 35.4112 30.0469 37.1493C28.0375 38.4746 26.449 39.0148 24.0469 38.6493C22.8594 37.6493 22.8594 37.6493 22.0469 36.6493C23.9994 34.8743 25.5355 34.2402 28.0469 33.6493C27.985 33.2471 27.9231 32.8449 27.8594 32.4305C28.1701 29.4785 29.77 27.2022 32.0488 25.3231C34.9432 23.4283 37.4112 23.0789 40.8594 23.0868C41.4227 23.0855 41.986 23.0842 42.5664 23.0829C44.0469 23.1493 44.0469 23.1493 45.5469 23.6493C45.5056 23.278 45.4644 22.9068 45.4219 22.5243C45.5469 21.1493 45.5469 21.1493 46.3594 20.0555C50.2185 17.1104 54.7964 17.7565 59.0664 19.3446Z" fill="#FEFEFE"/>
<path d="M75.2129 53.1727C75.7872 53.2887 76.3614 53.4047 76.9531 53.5243C77.8242 53.6906 77.8242 53.6906 78.7129 53.8602C79.3732 54.0033 79.3732 54.0033 80.0469 54.1493C78.0464 57.8818 75.9792 59.6028 72.0469 61.1493C72.6817 63.4576 73.6594 65.2236 74.9863 67.1844C76.1845 69.2467 76.2119 71.2979 76.0469 73.6493C75.1505 75.7252 74.1392 76.7851 72.0469 77.6493C68.2674 78.0095 68.2674 78.0095 66.5469 77.1493C66.4128 77.5308 66.2788 77.9124 66.1406 78.3055C65.251 80.3188 65.251 80.3188 64.0469 81.1493C62.3906 81.6493 62.3906 81.6493 60.5469 81.6493C58.6436 80.3924 57.395 79.2636 56.5469 77.1493C56.4141 76.0047 56.4141 76.0047 56.4219 74.8368C56.4193 74.4488 56.4167 74.0608 56.4141 73.661C56.5469 72.6493 56.5469 72.6493 57.5469 71.6493C57.5469 72.1443 57.5469 72.6393 57.5469 73.1493C58.4322 73.1628 59.3177 73.1725 60.2031 73.1805C60.6962 73.1863 61.1893 73.1921 61.6973 73.1981C63.0967 73.2109 63.0967 73.2109 64.5469 72.6493C64.5469 72.3193 64.5469 71.9893 64.5469 71.6493C65.2069 71.3193 65.8669 70.9893 66.5469 70.6493C66.3819 69.3293 66.2169 68.0093 66.0469 66.6493C66.5419 66.3193 67.0369 65.9893 67.5469 65.6493C68.3089 63.3633 68.4752 61.2509 67.5996 58.9989C67.1115 58.0279 66.603 57.0828 66.0469 56.1493C66.3788 56.1003 66.7107 56.0513 67.0527 56.0008C67.4942 55.9261 67.9357 55.8513 68.3906 55.7743C68.8257 55.7047 69.2607 55.6351 69.709 55.5633C71.1275 55.2247 71.1275 55.2247 72.25 54.0868C73.5469 53.1493 73.5469 53.1493 75.2129 53.1727Z" fill="#A0B2BC"/>
<path d="M29.4219 62.2117C31.3535 63.3261 32.0964 64.1342 33.0469 66.1492C33.1987 67.5309 33.1432 68.752 33.0469 70.1492C33.5006 70.2626 33.9544 70.3761 34.4219 70.493C36.3544 71.2734 37.0235 71.8387 38.0469 73.6492C38.5217 75.8415 38.303 77.2253 37.1406 79.1492C34.7941 80.6215 32.7443 80.563 30.0469 80.1492C27.7551 79.1546 26.8725 77.9154 25.6406 75.8367C24.6141 74.1612 24.6141 74.1612 22.9629 73.2058C22.1922 73.0651 21.4177 72.9443 20.6406 72.8445C18.7921 72.5144 17.371 71.4733 16.0469 70.1492C16.0265 69.1494 16.0256 68.149 16.0469 67.1492C18.8594 65.6492 18.8594 65.6492 20.5469 65.6492C20.5469 64.8242 20.5469 63.9992 20.5469 63.1492C23.6315 61.2984 26.0754 61.2078 29.4219 62.2117Z" fill="#CDDBDF"/>
<path d="M33.5469 42.6493C35.0157 43.6806 35.0157 43.6806 36.0469 45.1493C36.1407 46.9306 36.1407 46.9306 35.5469 48.6493C33.5201 50.483 31.7373 50.9341 29.0469 51.1493C29.3769 51.6443 29.7069 52.1393 30.0469 52.6493C30.0469 53.8681 30.0469 53.8681 29.5469 55.1493C28.0347 56.4505 26.9514 57.0765 24.9844 57.4306C23.5469 57.1493 23.5469 57.1493 22.3594 56.1493C21.5479 54.6511 21.4585 54.2288 21.5157 52.6181C21.7471 50.7035 21.7471 50.7035 20.7969 49.6493C19.5932 48.0444 19.9198 46.6198 20.0469 44.6493C20.2119 44.3193 20.3769 43.9893 20.5469 43.6493C20.9594 43.7318 21.3719 43.8143 21.7969 43.8993C26.1601 44.5226 29.6216 41.9812 33.5469 42.6493Z" fill="#CFDDE0"/>
<path d="M78.0469 29.1492C78.2909 32.7483 78.2909 32.7483 77.1719 34.5867C75.6112 36.0606 74.7051 36.6492 72.5469 36.6492C72.3819 36.9792 72.2169 37.3092 72.0469 37.6492C71.8819 37.4842 71.7169 37.3192 71.5469 37.1492C70.0411 37.1742 68.541 37.2481 67.0371 37.3269C65.2147 37.1096 64.6812 36.5472 63.5469 35.1492C63.2091 35.2575 62.8714 35.3657 62.5234 35.4773C61.8544 35.6861 61.8544 35.6861 61.1719 35.8992C60.731 36.0384 60.2902 36.1776 59.8359 36.321C58.5469 36.6492 58.5469 36.6492 56.5469 36.6492C56.5159 37.1751 56.485 37.701 56.4531 38.2429C55.9718 40.5016 55.3144 41.2105 53.5469 42.6492C51.8245 43.7432 50.4398 43.7555 48.4219 43.7117C47.883 43.7026 47.3442 43.6936 46.7891 43.6843C46.3791 43.6727 45.9692 43.6611 45.5469 43.6492C45.3819 43.9792 45.2169 44.3092 45.0469 44.6492C44.82 44.2676 44.5931 43.886 44.3594 43.4929C43.7778 42.531 43.1704 41.5845 42.5469 40.6492C42.8614 40.6782 43.1759 40.7072 43.5 40.7371C46.9012 40.9163 48.8866 40.2676 51.5469 38.1492C52.4167 37.2794 52.2328 36.0523 52.3281 34.8679C52.37 34.362 52.4119 33.856 52.4551 33.3347C52.5005 32.7479 52.5005 32.7479 52.5469 32.1492C53.0535 32.2207 53.0535 32.2207 53.5703 32.2937C54.0163 32.3491 54.4623 32.4046 54.9219 32.4617C55.5832 32.5487 55.5832 32.5487 56.2578 32.6375C57.6739 32.6503 58.3333 32.3328 59.5469 31.6492C60.7643 31.8115 61.7739 32.2369 62.9219 32.6804C67.1645 33.9043 71.0468 32.8086 75.0469 31.1492C77.6929 29.1492 77.6929 29.1492 78.0469 29.1492Z" fill="#A0B2BC"/>
<path d="M44.5469 71.6492C47.4741 72.3424 49.6958 73.1413 51.5469 75.6492C51.8594 76.9304 51.8594 76.9304 51.5469 78.1492C50.2474 79.5668 49.2305 80.0938 47.3906 80.6492C44.7047 80.6492 42.7395 79.6453 40.6934 77.9363C40.0469 77.1492 40.0469 77.1492 39.8281 75.4304C40.0469 73.6492 40.0469 73.6492 40.8906 72.4304C42.3406 71.4508 42.8182 71.3803 44.5469 71.6492Z" fill="#A0B2BC"/>
<path d="M16.5469 66.6492C17.1347 67.2525 17.1347 67.2525 17.7344 67.8679C19.4403 69.5333 20.1693 69.7257 22.4844 69.7429C22.9162 69.75 23.348 69.7571 23.793 69.7644C25.0562 69.7309 25.0562 69.7309 26.0762 69.0945C27.0469 68.6492 27.0469 68.6492 28.0996 68.9011C30.9356 70.343 30.9356 70.343 31.5469 72.0242C31.5469 72.3954 31.5469 72.7667 31.5469 73.1492C29.3068 74.8292 27.7528 74.871 25.0469 74.6492C24.7169 74.3192 24.3869 73.9892 24.0469 73.6492C23.0477 73.3833 23.0477 73.3833 21.9219 73.2117C19.5378 72.731 17.7929 71.8952 16.0469 70.1492C15.9844 68.6492 15.9844 68.6492 16.0469 67.1492C16.2119 66.9842 16.3769 66.8192 16.5469 66.6492Z" fill="#A1B3BD"/>
<path d="M43.0781 71.4929C45.7907 71.7815 48.2802 72.6381 50.5469 74.1492C50.5469 74.4792 50.5469 74.8092 50.5469 75.1492C48.8228 76.55 47.2996 76.9064 45.082 76.8347C43.3012 76.5155 42.0418 75.6458 40.5469 74.6492C40.8886 72.9405 41.1622 71.7832 43.0781 71.4929Z" fill="#C8D6DC"/>
</svg>
