<svg width="100" height="100" viewBox="0 0 100 100" fill="none" xmlns="http://www.w3.org/2000/svg">
<path d="M58.011 16.2528C59.2356 16.7704 59.2356 16.7704 60.386 17.3778C61.4627 17.9572 61.4627 17.9572 62.511 18.2528C64.0222 17.3844 64.0222 17.3844 65.511 16.2528C68.276 15.7054 70.431 16.0139 72.8235 17.5028C73.3939 17.9086 73.9596 18.3216 74.511 18.7528C74.346 19.7428 74.181 20.7328 74.011 21.7528C74.5524 21.923 74.5524 21.923 75.1048 22.0966C76.8574 22.9145 77.8216 23.7236 79.011 25.2528C79.2298 27.0966 79.2298 27.0966 79.011 28.7528C76.8517 30.9121 72.5432 30.6682 69.6048 30.9091C66.5872 30.6132 64.0338 29.4084 61.511 27.7528C61.4079 28.1241 61.3048 28.4953 61.1985 28.8778C60.2624 30.7501 59.3876 31.3316 57.511 32.2528C55.994 32.4087 54.5295 32.3743 53.011 32.2528C52.9595 32.8819 52.9079 33.5109 52.8548 34.1591C52.6938 35.3763 52.5835 36.132 51.9485 37.1903C48.6646 39.1607 44.7274 39.0405 41.011 39.2528C41.2572 39.6189 41.5034 39.985 41.7571 40.3622C42.731 42.1586 42.6904 43.1983 42.4036 45.1727C41.8094 46.8075 40.8001 47.4692 39.3567 48.3642C38.511 48.7528 38.511 48.7528 37.511 48.7528C38.6849 50.5137 39.6419 50.8373 41.511 51.7528C42.6922 52.6387 42.9784 53.0842 43.263 54.5536C43.3378 58.4155 42.7149 60.9187 40.011 63.7528C38.288 65.0263 37.0724 65.3668 34.9798 65.2216C33.0535 64.8821 31.8709 64.1951 30.511 62.7528C30.1985 61.6591 30.1985 61.6591 30.011 60.7528C29.2685 60.5053 29.2685 60.5053 28.511 60.2528C27.8138 59.2372 27.8138 59.2372 27.1048 58.0028C25.9438 56.0889 25.9438 56.0889 23.886 55.2841C23.4323 55.2738 22.9785 55.2634 22.511 55.2528C22.181 54.9228 21.851 54.5928 21.511 54.2528C21.5227 53.1708 21.5227 53.1708 21.6985 51.9403C21.754 51.5317 21.8094 51.1231 21.8665 50.702C21.9142 50.3888 21.9619 50.0756 22.011 49.7528C21.6398 49.6394 21.2685 49.5259 20.886 49.4091C19.1627 48.5866 18.479 47.902 17.511 46.2528C17.2038 44.8474 17.1817 43.6555 17.511 42.2528C18.9299 40.3881 20.2842 39.4527 22.511 38.7528C22.346 38.5878 22.181 38.4228 22.011 38.2528C21.76 36.0769 21.7373 35.1048 23.1048 33.3466C24.405 32.3353 25.4499 31.7435 27.011 31.2528C26.982 30.9628 26.953 30.6727 26.9231 30.3739C26.8003 28.2468 26.7533 26.7382 28.136 25.0341C30.5756 22.7608 32.3293 22.5699 35.5911 22.6181C37.6124 22.8099 39.1673 23.4179 41.011 24.2528C41.0574 23.6805 41.0574 23.6805 41.1048 23.0966C41.511 21.7528 41.511 21.7528 42.5423 20.8153C44.5979 20.0281 45.8572 20.3291 48.011 20.7528C48.341 20.9178 48.671 21.0828 49.011 21.2528C49.0574 20.8352 49.0574 20.8352 49.1048 20.4091C50.5758 16.2224 54.1754 15.8084 58.011 16.2528Z" fill="#CFDDE0"/>
<path d="M58.011 16.2528C59.2356 16.7704 59.2356 16.7704 60.386 17.3778C61.4626 17.9572 61.4626 17.9572 62.511 18.2528C64.0222 17.3844 64.0222 17.3844 65.511 16.2528C68.2759 15.7054 70.431 16.0139 72.8235 17.5028C73.3939 17.9086 73.9596 18.3216 74.511 18.7528C74.346 19.7428 74.181 20.7328 74.011 21.7528C74.3925 21.8766 74.7741 22.0003 75.1672 22.1278C76.6292 22.8078 77.161 23.4108 78.011 24.7528C75.7501 26.61 73.9723 26.9268 71.0286 26.8993C69.3576 26.6588 68.2844 25.8089 67.011 24.7528C66.7635 24.2578 66.7635 24.2578 66.511 23.7528C65.987 23.8244 65.987 23.8244 65.4524 23.8974C64.9974 23.9528 64.5423 24.0082 64.0735 24.0653C63.621 24.1233 63.1686 24.1813 62.7024 24.2411C62.1126 24.2469 62.1126 24.2469 61.511 24.2528C61.016 23.7578 61.016 23.7578 60.511 23.2528C60.2325 23.8561 60.2325 23.8561 59.9485 24.4716C59.011 25.7528 59.011 25.7528 57.511 26.2216C56.011 26.2528 56.011 26.2528 54.511 25.2528C54.1397 25.7272 53.7685 26.2016 53.386 26.6903C52.1444 28.2768 50.9707 29.1342 48.9368 29.3856C46.599 29.3692 44.7085 29.1544 42.511 28.2528C42.4697 28.5209 42.4285 28.7891 42.386 29.0653C41.7207 31.1722 40.5888 32.7576 38.9172 34.1903C36.9378 34.9821 35.1159 34.8766 33.011 34.7528C32.8872 35.2942 32.8872 35.2942 32.761 35.8466C31.6579 37.9148 30.1578 38.8656 28.011 39.7528C26.4664 40.0194 25.0425 40.1153 23.511 39.7528C22.1322 38.7008 22.0261 38.3546 21.761 36.5653C22.0757 34.2835 22.715 33.6497 24.511 32.2528C25.9172 31.5966 25.9172 31.5966 27.011 31.2528C26.9675 30.8178 26.9675 30.8178 26.9231 30.3739C26.8002 28.2468 26.7532 26.7382 28.136 25.0341C30.5756 22.7608 32.3293 22.5699 35.5911 22.6181C37.6124 22.8099 39.1673 23.4179 41.011 24.2528C41.0574 23.6805 41.0574 23.6805 41.1047 23.0966C41.511 21.7528 41.511 21.7528 42.5422 20.8153C44.5979 20.0281 45.8572 20.3291 48.011 20.7528C48.341 20.9178 48.671 21.0828 49.011 21.2528C49.0574 20.8352 49.0574 20.8352 49.1047 20.4091C50.5757 16.2224 54.1754 15.8084 58.011 16.2528Z" fill="#CFDDE1"/>
<path d="M68.2805 53.9422C71.2671 55.9096 74.4487 58.2119 75.511 61.7528C75.617 63.4282 75.6004 65.077 75.511 66.7528C75.9647 66.794 76.4185 66.8353 76.886 66.8778C78.7662 67.3117 79.382 67.7057 80.511 69.2528C80.9996 70.8931 81.0861 71.9298 80.6985 73.5965C79.7912 75.1225 79.1648 75.5842 77.511 76.2528C75.383 76.4687 73.4168 76.3354 71.3235 75.909C70.8904 75.8575 70.4572 75.8059 70.011 75.7528C69.7873 75.9925 69.5637 76.2323 69.3333 76.4793C68.2269 77.52 67.5407 77.4693 66.0422 77.4715C64.3626 77.4151 63.6502 77.339 62.1985 76.4403C61.3065 74.8995 61.2998 74.0134 61.511 72.2528C63.1146 70.504 65.2677 68.9997 67.6223 68.5321C68.5735 68.534 68.5735 68.534 70.011 68.7528C70.011 68.2578 70.011 67.7628 70.011 67.2528C69.4747 67.1806 68.9385 67.1084 68.386 67.034C66.511 66.7528 66.511 66.7528 65.4485 66.409C64.4536 66.1503 64.4536 66.1503 63.4172 66.784C61.3185 67.4836 59.593 66.8424 57.511 66.2528C57.346 64.9328 57.181 63.6128 57.011 62.2528C56.7222 62.2322 56.4335 62.2115 56.136 62.1903C54.3677 61.5026 53.8538 60.4072 53.011 58.7528C52.9485 57.2215 52.9485 57.2215 53.511 55.7528C57.6919 51.4746 63.1378 51.0789 68.2805 53.9422Z" fill="#A0B2BC"/>
<path d="M60.011 22.7528C60.506 23.0828 61.001 23.4128 61.511 23.7528C62.9952 23.8475 64.1495 23.8952 65.5422 23.3466C65.8619 23.3156 66.1816 23.2847 66.511 23.2528C67.8235 24.4403 67.8235 24.4403 69.011 25.7528C70.86 26.6773 73.0743 26.5493 75.0168 25.9344C75.8621 25.5712 76.6881 25.1642 77.511 24.7528C77.841 24.5878 78.171 24.4228 78.511 24.2528C79.2643 25.7594 79.0998 27.0942 79.011 28.7528C76.8517 30.9121 72.5431 30.6682 69.6047 30.9091C66.5872 30.6132 64.0338 29.4084 61.511 27.7528C61.4079 28.1241 61.3047 28.4953 61.1985 28.8778C60.2623 30.7501 59.3876 31.3316 57.511 32.2528C55.994 32.4087 54.5294 32.3743 53.011 32.2528C52.9594 32.8819 52.9079 33.5109 52.8547 34.1591C52.6937 35.3762 52.5835 36.132 51.9485 37.1903C49.39 38.7254 46.4563 38.9106 43.5422 39.0653C43.0294 39.0943 43.0294 39.0943 42.5061 39.1239C41.6746 39.1704 40.8428 39.2121 40.011 39.2528C40.176 38.7578 40.341 38.2628 40.511 37.7528C37.9752 37.9641 36.2337 38.5762 33.9934 39.7587C30.8276 41.351 27.2628 41.8999 23.8352 40.9149C22.8813 40.5593 21.944 40.1599 21.011 39.7528C21.011 39.5878 21.011 39.4228 21.011 39.2528C21.4757 39.276 21.9404 39.2992 22.4192 39.3231C27.3455 39.5189 27.3455 39.5189 31.511 37.2528C31.7379 36.8094 31.9647 36.3659 32.1985 35.9091C33.011 34.7528 33.011 34.7528 33.9934 34.5536C34.7856 34.4982 35.5779 34.4449 36.3704 34.3934C38.1949 34.1685 39.1632 33.4752 40.511 32.2528C41.3011 30.9654 41.9353 29.6481 42.511 28.2528C42.9132 28.3353 43.3154 28.4178 43.7297 28.5028C47.8351 29.0907 47.8351 29.0907 51.6985 27.8778C52.8449 26.8951 53.698 26.0174 54.511 24.7528C55.006 25.0828 55.501 25.4128 56.011 25.7528C57.556 25.7939 57.556 25.7939 59.011 25.2528C59.7374 24.0215 59.7374 24.0215 60.011 22.7528Z" fill="#A0B2BC"/>
<path d="M73.511 33.7528C76.2202 34.6591 77.8549 35.9115 79.511 38.2528C80.1607 38.9025 80.1607 38.9025 80.8235 39.5653C82.6497 41.3915 83.1342 42.5087 83.2922 45.0341C83.3806 46.9661 83.3806 46.9661 84.011 48.7528C84.1047 50.5028 84.1047 50.5028 84.011 52.2528C83.011 53.2528 83.011 53.2528 81.0149 53.2938C80.2008 53.2545 79.387 53.2093 78.5735 53.1591C78.1655 53.1433 77.7575 53.1275 77.3371 53.1112C75.0654 52.9833 73.7629 52.8082 72.011 51.2528C70.8445 51.2308 69.6775 51.233 68.511 51.2528C66.82 50.8864 65.4599 50.5474 64.011 49.5966C63.511 48.7528 63.511 48.7528 63.636 47.4403C64.011 46.2528 64.011 46.2528 64.511 45.7528C66.5775 45.6567 68.4822 45.8664 70.511 46.2528C70.676 45.9228 70.841 45.5928 71.011 45.2528C70.3819 45.1291 69.7528 45.0053 69.1047 44.8778C67.758 44.5316 67.071 44.3019 65.9797 43.4091C65.1559 41.3769 65.6476 39.6621 66.4426 37.6727C68.0161 34.3252 69.6904 33.2012 73.511 33.7528Z" fill="#CEDCE0"/>
<path d="M42.011 37.7528C41.351 37.9178 40.691 38.0828 40.011 38.2528C40.011 38.5828 40.011 38.9128 40.011 39.2528C40.341 39.2528 40.671 39.2528 41.011 39.2528C42.4153 41.0892 42.8104 42.4572 42.511 44.7528C41.9661 45.5907 41.9661 45.5907 41.011 46.2528C39.4036 46.3641 39.4036 46.3641 37.5422 46.284C35.3057 46.1923 33.9634 46.1882 32.011 47.2528C30.8313 47.3504 30.8313 47.3504 29.636 47.3153C29.2364 47.3063 28.8368 47.2972 28.425 47.2879C28.1234 47.2763 27.8218 47.2647 27.511 47.2528C27.5007 47.6859 27.4904 48.119 27.4797 48.5653C26.8475 50.8411 25.5396 52.0684 23.511 53.2528C22.851 53.2528 22.191 53.2528 21.511 53.2528C21.676 52.0978 21.841 50.9428 22.011 49.7528C21.6397 49.6394 21.2685 49.5259 20.886 49.409C19.1627 48.5866 18.479 47.902 17.511 46.2528C17.2034 44.8457 17.1887 43.658 17.511 42.2528C18.5422 40.7215 18.5422 40.7215 20.011 39.7528C21.8525 39.8163 23.2707 40.1727 25.011 40.7528C31.3595 41.3772 36.0169 36.7702 42.011 37.7528Z" fill="#CFDDE0"/>
<path d="M58.011 16.2528C59.2356 16.7704 59.2356 16.7704 60.386 17.3778C61.4611 17.9576 61.4611 17.9576 62.511 18.2528C64.0494 17.394 64.0494 17.394 65.511 16.2528C67.0264 16.0727 68.4921 16.1313 70.011 16.2528C70.011 16.5828 70.011 16.9128 70.011 17.2528C69.0403 17.9539 69.0403 17.9539 67.7297 18.7215C67.3063 18.9735 66.8828 19.2255 66.4465 19.4852C62.6904 21.4936 60.4976 21.8962 56.4036 21.284C55.243 21.1288 55.243 21.1288 53.511 21.2528C52.1704 22.4501 52.1704 22.4501 51.011 23.7528C49.7219 24.0008 49.7219 24.0008 48.386 23.9715C45.6676 24.0888 44.1756 24.8688 42.0461 26.5164C38.2078 29.2467 32.5823 29.6374 28.011 29.2528C27.681 29.0878 27.351 28.9228 27.011 28.7528C27.0799 27.2704 27.1557 26.1466 28.177 25.0145C31.1182 22.567 33.2767 22.452 37.011 22.7528C38.4409 23.1365 39.656 23.6392 41.011 24.2528C41.0574 23.6804 41.0574 23.6804 41.1047 23.0965C41.511 21.7528 41.511 21.7528 42.5422 20.8153C44.5979 20.028 45.8572 20.3291 48.011 20.7528C48.341 20.9178 48.671 21.0828 49.011 21.2528C49.0574 20.8351 49.0574 20.8351 49.1047 20.409C50.5757 16.2224 54.1754 15.8083 58.011 16.2528Z" fill="#FEFEFE"/>
<path d="M69.511 54.7528C70.6575 55.5508 71.182 56.0808 72.011 57.2528C72.011 58.879 71.7605 59.8232 70.9485 61.2216C69.4283 62.083 68.16 61.6126 66.511 61.2528C66.181 61.0878 65.851 60.9228 65.511 60.7528C65.3905 61.0545 65.2699 61.3561 65.1458 61.6669C64.3775 62.9813 63.6834 63.4043 62.3547 64.1278C61.9751 64.3418 61.5955 64.5558 61.2043 64.7763C59.8759 65.3068 58.9288 65.3797 57.511 65.2528C57.011 64.7528 57.011 64.7528 56.9797 63.4716C56.99 63.0694 57.0004 62.6672 57.011 62.2528C56.7222 62.2322 56.4335 62.2116 56.136 62.1903C54.3677 61.5027 53.8538 60.4073 53.011 58.7528C52.9485 57.2216 52.9485 57.2216 53.511 55.7528C58.2108 50.9438 64.1015 51.274 69.511 54.7528Z" fill="#CFDDE0"/>
<path d="M63.511 46.7528C63.85 46.8611 64.189 46.9694 64.5383 47.0809C69.0483 48.4302 72.5312 48.7825 77.011 47.2528C77.506 47.5828 78.001 47.9128 78.511 48.2528C80.282 48.4612 80.282 48.4612 82.011 48.2528C82.341 47.7578 82.671 47.2628 83.011 46.7528C84.1741 48.5701 84.168 50.133 84.011 52.2528C83.011 53.2528 83.011 53.2528 81.0149 53.2938C80.2008 53.2545 79.387 53.2093 78.5735 53.1591C77.9615 53.1354 77.9615 53.1354 77.3372 53.1112C75.0654 52.9833 73.7629 52.8082 72.011 51.2528C70.8445 51.2308 69.6775 51.233 68.511 51.2528C64.5901 50.4033 64.5901 50.4033 63.511 48.7528C63.511 48.0928 63.511 47.4328 63.511 46.7528Z" fill="#A0B2BC"/>
<path d="M22.511 62.2528C23.4798 62.8153 23.4798 62.8153 24.011 63.7528C24.1048 65.3465 24.1048 65.3465 24.011 66.7528C24.506 66.9178 25.001 67.0828 25.511 67.2528C25.6673 68.409 25.6673 68.409 25.511 69.7528C23.8544 71.2541 22.2554 71.4964 20.0442 71.3915C18.2117 71.1455 17.0977 70.7566 15.511 69.7528C14.9798 67.9715 14.9798 67.9715 15.011 66.2528C15.341 65.9228 15.671 65.5928 16.011 65.2528C16.506 65.2528 17.001 65.2528 17.511 65.2528C17.6038 64.6495 17.6038 64.6495 17.6985 64.034C17.8016 63.6112 17.9048 63.1884 18.011 62.7528C19.5359 61.9903 20.8322 62.135 22.511 62.2528Z" fill="#CCDADF"/>
<path d="M41.511 45.2528C41.511 45.7478 41.511 46.2428 41.511 46.7528C38.8824 48.7528 38.8824 48.7528 37.511 48.7528C37.7585 49.4953 37.7585 49.4953 38.011 50.2528C35.371 50.2528 32.731 50.2528 30.011 50.2528C29.681 51.0778 29.351 51.9028 29.011 52.7528C28.3648 53.4394 27.6988 54.108 27.011 54.7528C26.681 55.2478 26.351 55.7428 26.011 56.2528C22.6879 55.5143 22.6879 55.5143 21.7922 54.1903C21.6994 53.8809 21.6066 53.5716 21.511 53.2528C22.0472 53.0569 22.5835 52.8609 23.136 52.6591C24.9658 51.8738 25.93 50.9574 27.011 49.2528C27.1953 48.5908 27.3655 47.9244 27.511 47.2528C28.1259 47.1532 28.1259 47.1532 28.7532 47.0516C29.5614 46.9192 29.5614 46.9192 30.386 46.7841C31.1865 46.6535 31.1865 46.6535 32.0032 46.5204C33.4384 46.2905 33.4384 46.2905 34.5286 45.9696C35.8219 45.6842 37.0324 45.7246 38.3547 45.7528C39.24 45.7716 40.1259 45.7762 41.011 45.7528C41.176 45.5878 41.341 45.4228 41.511 45.2528Z" fill="#A0B2BC"/>
<path d="M73.511 33.7528C76.1567 34.6379 77.9838 35.8704 79.511 38.2528C79.676 38.7478 79.841 39.2428 80.011 39.7528C79.846 39.9178 79.681 40.0828 79.511 40.2528C78.3423 40.1013 77.1756 39.9335 76.011 39.7528C74.5518 39.6351 74.5518 39.6351 73.5598 40.2606C72.3023 40.8507 71.596 40.8035 70.2297 40.6278C69.6564 40.5621 69.6564 40.5621 69.0715 40.495C68.011 40.2528 68.011 40.2528 66.511 39.2528C66.7231 38.5217 66.9434 37.7929 67.1672 37.0653C67.2891 36.6593 67.4109 36.2532 67.5364 35.8348C68.6597 33.2739 71.0888 33.4031 73.511 33.7528Z" fill="#FEFEFE"/>
<path d="M66.511 53.2528C66.3547 54.6903 66.3547 54.6903 66.011 56.2528C64.276 57.4095 63.5484 57.4226 61.511 57.2528C61.016 56.9228 60.521 56.5928 60.011 56.2528C60.011 57.0778 60.011 57.9028 60.011 58.7528C58.4235 59.7068 57.4581 59.8333 55.636 59.5653C55.2364 59.5099 54.8368 59.4545 54.425 59.3974C53.9726 59.3258 53.9726 59.3258 53.511 59.2528C53.1047 58.1903 53.1047 58.1903 53.011 56.7528C54.4301 54.4639 55.8211 53.3071 58.384 52.4853C61.2368 51.8969 63.9438 51.7749 66.511 53.2528Z" fill="#FDFDFE"/>
<path d="M42.511 57.2528C42.8411 58.1102 42.8411 58.1102 43.011 59.2528C42.0001 61.5224 40.5641 63.344 38.5735 64.8153C36.5617 65.3786 35.0088 65.3612 33.011 64.7528C30.6697 63.3082 30.6697 63.3082 30.1985 61.6591C30.1366 61.36 30.0747 61.0609 30.011 60.7528C29.516 60.5878 29.021 60.4228 28.511 60.2528C29.8223 59.5972 31.0625 59.4756 32.511 59.2528C33.3308 59.0981 33.3308 59.0981 34.1672 58.9403C34.6107 58.8784 35.0541 58.8166 35.511 58.7528C35.676 58.9178 35.841 59.0828 36.011 59.2528C38.8626 59.5324 40.265 59.0057 42.511 57.2528Z" fill="#A0B2BC"/>
<path d="M15.011 66.2528C15.3204 66.5003 15.6297 66.7478 15.9485 67.0028C17.8604 67.9205 19.234 67.8408 21.3196 67.7723C22.6109 67.7512 23.7636 67.9202 25.011 68.2528C25.176 67.9228 25.341 67.5928 25.511 67.2528C25.6672 68.4091 25.6672 68.4091 25.511 69.7528C23.8544 71.2541 22.2553 71.4964 20.0442 71.3915C18.2117 71.1455 17.0977 70.7566 15.511 69.7528C15.0422 67.9091 15.0422 67.9091 15.011 66.2528Z" fill="#A0B2BC"/>
<path d="M57.011 79.2528C57.9398 79.2977 58.8672 79.3759 59.7922 79.4716C60.5512 79.5479 60.5512 79.5479 61.3254 79.6259C61.9123 79.6887 61.9123 79.6887 62.511 79.7528C62.2692 82.9563 62.2692 82.9563 61.1672 84.2216C59.6851 84.9025 58.6243 84.9282 57.011 84.7528C56.011 83.7528 56.011 83.7528 56.0051 82.7977C56.4554 79.8084 56.4554 79.8084 57.011 79.2528Z" fill="#A0B2BC"/>
<path d="M27.511 72.2528C30.671 72.5509 30.671 72.5509 32.011 73.3466C32.787 74.753 32.4345 75.7542 32.011 77.2528C30.4861 78.0153 29.1898 77.8706 27.511 77.7528C26.511 77.1591 26.511 77.1591 26.011 76.2528C26.1415 74.5126 26.528 73.7273 27.511 72.2528Z" fill="#C7D5DC"/>
</svg>
