<svg width="100" height="100" viewBox="0 0 100 100" fill="none" xmlns="http://www.w3.org/2000/svg">
<path d="M48 6C48.1187 6.11866 48.1493 6.21243 48.2076 6.36973C48.2295 6.42773 48.2513 6.48573 48.2738 6.5455C48.2856 6.57709 48.2974 6.60867 48.3096 6.64122C48.7222 7.74142 49.187 8.82028 49.65 9.9C49.6747 9.95755 49.6747 9.95755 49.6998 10.0163C50.8463 12.6915 52.0746 15.3575 53.531 17.8798C53.6143 18.025 53.6957 18.1712 53.7768 18.3176C54.0153 18.7471 54.2688 19.1667 54.5279 19.584C54.576 19.6613 54.6239 19.7387 54.6717 19.8162C55.5292 21.2056 56.4942 22.5254 57.5941 23.733C57.6645 23.8108 57.7341 23.8893 57.8027 23.9686C57.9883 24.1827 58.1778 24.3773 58.3945 24.56C58.5101 24.6586 58.6202 24.762 58.7313 24.8656C59.3548 25.4388 59.3548 25.4388 60.1094 25.7344C60.6224 25.814 61.1098 26.034 61.525 26.3438C61.7327 26.497 61.8924 26.5512 62.15 26.55C62.2099 26.5524 62.2699 26.5548 62.3316 26.5572C63.5066 26.5944 64.5258 26.0654 65.3719 25.2762C65.5694 25.0836 65.7359 24.8712 65.9 24.65C65.9393 24.5995 65.9786 24.5489 66.0191 24.4969C66.3962 24.0015 66.6727 23.4557 66.95 22.9C67.0669 23.0169 67.0699 23.0908 67.0917 23.25C67.3003 24.7738 68.0501 26.4086 69.287 27.3674C70.874 28.5325 72.8686 28.6948 74.7699 28.4203C75.6137 28.2885 76.4362 28.1088 77.25 27.85C77.2814 27.8401 77.3128 27.8302 77.3451 27.82C79.6484 27.0921 81.8623 26.122 83.9576 24.9172C84.1571 24.8025 84.3577 24.6902 84.5596 24.5797C85.279 24.1848 85.9689 23.7576 86.65 23.3C86.7107 23.2595 86.7715 23.219 86.8322 23.1785C86.8711 23.1526 86.91 23.1267 86.95 23.1C86.983 23.1165 87.016 23.133 87.05 23.15C86.9198 23.2573 86.7896 23.3646 86.6594 23.4719C86.6204 23.504 86.5814 23.5361 86.5413 23.5692C86.3321 23.7415 86.1226 23.9133 85.9125 24.0844C85.605 24.3357 85.3023 24.5925 85 24.85C84.9706 24.875 84.9413 24.9 84.911 24.9257C84.5736 25.2128 84.239 25.5021 83.9109 25.7998C83.8103 25.8907 83.7087 25.98 83.6063 26.0688C83.4106 26.2392 83.2195 26.4144 83.0287 26.5902C82.8651 26.7407 82.7003 26.8895 82.5344 27.0375C82.3638 27.1904 82.2005 27.3479 82.0402 27.5114C81.9532 27.5969 81.8634 27.6759 81.7705 27.7549C81.5204 27.9726 81.287 28.2058 81.0529 28.4404C81.0066 28.4867 80.9603 28.533 80.9126 28.5807C80.8151 28.678 80.7178 28.7755 80.6205 28.873C80.4968 28.9969 80.3729 29.1207 80.249 29.2443C80.1294 29.3637 80.0099 29.4833 79.8904 29.6029C79.8245 29.6687 79.8245 29.6687 79.7572 29.7359C79.5377 29.9562 79.3255 30.1797 79.1227 30.4156C79.0369 30.5152 78.9477 30.6108 78.8566 30.7057C78.8076 30.757 78.8076 30.757 78.7576 30.8094C78.7242 30.8445 78.6907 30.8795 78.6563 30.9156C78.393 31.1931 78.1417 31.4733 77.9037 31.7729C77.7895 31.9128 77.6693 32.0453 77.5469 32.1781C77.3585 32.3833 77.1805 32.5929 77.0086 32.8119C76.9286 32.9136 76.848 33.0144 76.7664 33.1146C75.0095 35.2783 73.251 37.7989 72.6 40.55C72.6439 40.5493 72.6439 40.5493 72.6887 40.5486C73.703 40.5837 74.6528 41.2099 75.35 41.9C75.3858 41.9328 75.4217 41.9656 75.4586 41.9994C76.4056 42.8839 77.169 44.4043 77.25 45.7C77.258 45.9502 77.2562 46.1998 77.25 46.45C77.2865 46.4579 77.323 46.4659 77.3605 46.474C77.6452 46.5376 77.9263 46.6061 78.2064 46.6873C80.1278 47.2412 82.1705 47.4587 84.1594 47.6063C84.2103 47.61 84.2613 47.6138 84.3137 47.6177C84.4924 47.63 84.6712 47.6405 84.85 47.65C84.8888 47.6521 84.9276 47.6541 84.9676 47.6563C86.0142 47.7098 87.0619 47.7157 88.1096 47.7266C88.3517 47.7292 88.5938 47.7319 88.8358 47.7347C89.3072 47.74 89.7786 47.7451 90.25 47.75C90.0869 47.8348 89.935 47.8842 89.7559 47.9275C89.6979 47.9417 89.64 47.9559 89.5804 47.9705C89.5188 47.9854 89.4572 48.0003 89.3938 48.0156C88.6384 48.2015 87.8919 48.4011 87.1512 48.6387C86.9315 48.7091 86.7114 48.7764 86.4896 48.8396C84.0158 49.5456 80.6632 50.6569 79.3314 53.0352C79.0794 53.5453 79.0217 54.1469 79.1951 54.6918C79.3965 55.2194 79.7342 55.6282 80.1 56.05C80.0643 56.0575 80.0287 56.065 79.9919 56.0728C79.2337 56.2338 78.486 56.4055 77.75 56.65C77.703 56.6654 77.656 56.6807 77.6076 56.6966C75.6519 57.3248 75.6519 57.3248 74.05 58.55C73.9928 58.678 73.9421 58.8032 73.8938 58.9344C73.5287 59.8664 72.9164 60.8896 72.0893 61.4789C71.9053 61.6255 71.8993 61.8809 71.8734 62.1027C71.6589 64.1388 72.3313 65.9762 73.25 67.75C73.2727 67.7949 73.2954 67.8398 73.3188 67.8861C74.1517 69.5288 75.3154 71.0258 76.5064 72.4214C76.644 72.5827 76.7774 72.7466 76.9094 72.9125C77.1419 73.1987 77.3944 73.465 77.6489 73.7318C77.8217 73.913 77.9916 74.0959 78.1578 74.2832C78.3902 74.5418 78.6322 74.7894 78.8783 75.035C78.9442 75.1009 78.9442 75.1009 79.0114 75.1682C79.1035 75.2603 79.1956 75.3524 79.2878 75.4443C79.4281 75.5844 79.5681 75.7246 79.7081 75.8649C79.7982 75.955 79.8882 76.045 79.9783 76.135C80.0197 76.1764 80.0611 76.2179 80.1037 76.2606C80.3173 76.4734 80.534 76.6784 80.7644 76.873C80.8919 76.9877 80.9947 77.115 81.1 77.25C80.9617 77.1854 80.8475 77.1147 80.7301 77.0174C80.6982 76.9912 80.6664 76.9651 80.6336 76.9381C80.5998 76.9101 80.5661 76.882 80.5313 76.8531C80.4589 76.7937 80.3865 76.7343 80.3141 76.675C80.2779 76.6454 80.2417 76.6157 80.2045 76.5852C79.9704 76.3944 79.7322 76.209 79.494 76.0234C79.393 75.9446 79.2922 75.8656 79.1914 75.7865C78.675 75.3825 78.1526 74.9871 77.6271 74.595C77.4998 74.4999 77.3729 74.4044 77.2461 74.3088C76.4607 73.717 75.6641 73.1419 74.8593 72.577C74.7494 72.4996 74.64 72.4217 74.5307 72.3438C72.5249 70.9193 70.4192 69.5675 68.2 68.5C68.2273 68.5318 68.2273 68.5318 68.2551 68.5643C68.3079 68.6259 68.3606 68.6875 68.4133 68.7492C68.4706 68.8158 68.5284 68.882 68.5867 68.9477C68.6138 68.9783 68.6409 69.009 68.6688 69.0406C68.6939 69.0688 68.719 69.097 68.7449 69.126C68.8 69.2 68.8 69.2 68.8 69.3C68.6537 69.2308 68.5238 69.1514 68.3916 69.0582C68.3314 69.0159 68.3314 69.0159 68.27 68.9727C68.2273 68.9425 68.1846 68.9124 68.1406 68.8813C68.0743 68.8347 68.0743 68.8347 68.0067 68.7872C67.7904 68.6353 67.575 68.4823 67.3609 68.3273C67.3237 68.3006 67.2865 68.2738 67.2481 68.2462C67.1788 68.1963 67.1098 68.1461 67.0411 68.0954C66.7813 67.9087 66.491 67.7041 66.1621 67.6971C66.0076 67.77 65.9205 67.87 65.8063 67.9969C65.3235 68.5023 64.7332 68.8177 64.1188 69.1406C64.0675 69.1676 64.0163 69.1946 63.9636 69.2223C63.1008 69.6657 62.1875 69.9793 61.2086 69.9422C61.1703 69.9409 61.1319 69.9397 61.0924 69.9384C60.9339 69.933 60.7756 69.9273 60.6173 69.9178C60.1403 69.8807 60.1403 69.8807 59.7071 70.0467C59.5899 70.1747 59.4951 70.305 59.4 70.45C59.3393 70.5272 59.2782 70.6041 59.2166 70.6807C59.1576 70.7587 59.0989 70.8371 59.0406 70.9156C59.0088 70.9584 58.9769 71.0012 58.9441 71.0453C58.0366 72.2757 57.2851 73.5852 56.6 74.95C56.5643 75.0208 56.5643 75.0208 56.5278 75.093C55.9433 76.2574 55.4259 77.475 55.0135 78.7113C54.9634 78.8603 54.9102 79.0049 54.85 79.15C54.6192 79.7101 54.427 80.291 54.2535 80.8711C54.2124 81.0084 54.1705 81.1453 54.1277 81.282C53.4942 83.32 52.9852 85.385 52.5478 87.4731C52.5179 87.6156 52.4876 87.7579 52.4566 87.9002C52.3847 88.2304 52.3187 88.56 52.2656 88.8938C52.2591 88.9335 52.2527 88.9733 52.246 89.0143C52.2305 89.1095 52.2152 89.2047 52.2 89.3C52.1835 89.3 52.167 89.3 52.15 89.3C52.1335 83.789 52.117 78.278 52.1 72.6C51.5803 72.7733 51.5803 72.7733 51.05 72.95C50.835 72.9982 50.6319 73.0409 50.4156 73.0719C50.3673 73.0798 50.319 73.0878 50.2692 73.096C49.9608 73.144 49.6619 73.1596 49.35 73.15C49.3365 73.1912 49.3229 73.2324 49.309 73.2748C49.2559 73.4324 49.2008 73.589 49.1447 73.7455C49.0022 74.1441 48.8719 74.5446 48.75 74.95C48.7106 75.0771 48.671 75.2042 48.6313 75.3313C48.6208 75.3646 48.6104 75.3979 48.5997 75.4322C48.4799 75.8148 48.359 76.1972 48.2381 76.5795C48.2009 76.6973 48.1637 76.815 48.1266 76.9328C47.9933 77.3554 47.8595 77.7778 47.725 78.2C47.4971 78.9158 47.2693 79.6315 47.05 80.35C47.0335 80.35 47.017 80.35 47 80.35C46.9835 79.525 46.967 78.7 46.95 77.85C46.8061 78.1609 46.8061 78.1609 46.6594 78.4781C46.4531 78.9234 46.2446 79.3674 46.0313 79.8094C45.3379 81.2511 44.6997 82.7195 44.0522 84.1821C44.0062 84.286 43.9601 84.3899 43.914 84.4938C43.5273 85.3657 43.1518 86.2423 42.7771 87.1195C42.7016 87.2964 42.6258 87.4732 42.55 87.65C42.5335 87.65 42.517 87.65 42.5 87.65C42.5 87.6185 42.4999 87.587 42.4999 87.5546C42.4969 85.6887 42.4932 83.8227 42.4886 81.9568C42.488 81.7327 42.4874 81.5087 42.4869 81.2846C42.4867 81.2177 42.4867 81.2177 42.4865 81.1495C42.4848 80.4273 42.4835 79.7051 42.4825 78.9829C42.4814 78.2418 42.4797 77.5007 42.4776 76.7597C42.4762 76.3024 42.4754 75.8452 42.475 75.3879C42.4748 75.0743 42.474 74.7607 42.4727 74.4472C42.472 74.2663 42.4716 74.0854 42.4718 73.9044C42.472 73.7082 42.471 73.5119 42.4699 73.3157C42.4703 73.2302 42.4703 73.2302 42.4707 73.1429C42.4678 72.8267 42.4381 72.5863 42.3 72.3C42.0296 72.0364 41.7622 72.0314 41.4037 72.0312C39.0973 72.0819 36.6313 74.1285 34.7798 75.3789C34.6142 75.4906 34.448 75.6013 34.2816 75.7117C34.025 75.8826 33.7711 76.0571 33.5188 76.2344C33.4761 76.2643 33.4335 76.2942 33.3896 76.325C32.7161 76.7985 32.0515 77.2839 31.3895 77.7732C31.2301 77.891 31.0705 78.0083 30.9105 78.1252C30.4779 78.4418 30.0504 78.7636 29.6284 79.0942C29.3837 79.2857 29.1367 79.4737 28.8875 79.6594C28.5492 79.9116 28.2165 80.1703 27.8857 80.4323C27.7997 80.5003 27.7135 80.568 27.6271 80.6355C27.2932 80.8971 26.9609 81.1607 26.6301 81.4262C26.4515 81.5694 26.272 81.7114 26.0916 81.8522C25.7574 82.113 25.4291 82.3802 25.1024 82.6504C24.8753 82.8383 24.6466 83.0239 24.4158 83.2074C24.2389 83.3488 24.0639 83.4925 23.8889 83.6361C23.798 83.7107 23.707 83.785 23.6158 83.8592C23.3389 84.0847 23.065 84.3134 22.7929 84.5448C22.5686 84.7352 22.3411 84.9214 22.1121 85.1063C22.0193 85.1838 21.9335 85.2627 21.85 85.35C21.817 85.3335 21.784 85.317 21.75 85.3C21.7809 85.2703 21.8117 85.2406 21.8436 85.21C22.1108 84.9484 22.3524 84.6816 22.5859 84.3893C22.7029 84.2465 22.825 84.1107 22.95 83.975C23.1518 83.7555 23.342 83.5294 23.5293 83.2975C23.6669 83.1293 23.8081 82.9645 23.95 82.8C24.205 82.504 24.4539 82.2035 24.7 81.9C24.7708 81.8135 24.8416 81.7271 24.9125 81.6406C24.9496 81.5952 24.9868 81.5497 25.025 81.5029C25.0908 81.4224 25.1566 81.3419 25.2227 81.2615C25.5596 80.8514 25.8892 80.4369 26.2099 80.014C26.3843 79.7845 26.5624 79.5585 26.7438 79.3344C27.0772 78.9213 27.3936 78.4958 27.7105 78.07C27.7927 77.9598 27.8753 77.8498 27.9582 77.74C29.3639 75.8775 30.6935 73.9477 31.9 71.95C31.9385 71.8866 31.9385 71.8866 31.9777 71.8218C32.1314 71.5682 32.2841 71.314 32.4353 71.0588C32.4756 70.991 32.5162 70.9233 32.5571 70.8558C32.6034 70.7793 32.6486 70.7022 32.6938 70.625C32.7173 70.5853 32.7409 70.5456 32.7652 70.5047C32.8112 70.4003 32.8112 70.4003 32.7678 70.2959C32.6944 70.1921 32.6202 70.1211 32.5219 70.0406C31.7228 69.3568 31.1994 68.5561 30.9094 67.5406C30.899 67.5044 30.8886 67.4682 30.878 67.4309C30.5982 66.3864 30.7276 65.2789 31 64.25C31.0104 64.2104 31.0209 64.1708 31.0316 64.13C31.252 63.3282 31.6133 62.4754 32.1 61.8C32.0422 61.7872 31.9844 61.7743 31.9248 61.7611C31.6029 61.6896 31.2811 61.6179 30.9593 61.5457C30.8879 61.5297 30.8165 61.5137 30.7451 61.4978C30.641 61.4746 30.537 61.4513 30.433 61.4279C30.3715 61.4142 30.3099 61.4004 30.2465 61.3862C30.1 61.35 30.1 61.35 30 61.3C29.6585 61.2558 29.4496 61.3887 29.1625 61.5625C29.1163 61.5898 29.0701 61.617 29.0225 61.6451C28.8811 61.7291 28.7404 61.8143 28.6 61.9C28.56 61.9243 28.5199 61.9486 28.4787 61.9736C26.3819 63.2528 24.4191 64.7602 22.55 66.35C22.5335 66.317 22.517 66.284 22.5 66.25C22.5611 66.131 22.6252 66.0178 22.6938 65.9031C23.2687 64.9076 23.8359 63.7849 23.7 62.6C23.5835 62.191 23.339 61.9375 22.9781 61.7299C20.9145 60.6951 17.6284 62.0515 15.6334 62.7056C15.3537 62.7986 15.0767 62.8984 14.8 63C14.6854 63.0407 14.5709 63.0813 14.4563 63.1219C14.1993 63.2137 13.9431 63.3075 13.6875 63.4031C13.6562 63.4148 13.625 63.4264 13.5928 63.4385C13.3269 63.5384 13.0634 63.6438 12.8 63.75C12.7443 63.7724 12.6886 63.7949 12.6312 63.818C10.6619 64.6126 8.71525 65.4533 6.79307 66.3563C6.69479 66.4025 6.59646 66.4485 6.49812 66.4945C4.62564 67.3635 4.62564 67.3635 2.78804 68.3027C2.64373 68.3802 2.49876 68.4562 2.35313 68.5313C2.28284 68.5678 2.28284 68.5678 2.21113 68.6051C2.17446 68.6199 2.13779 68.6347 2.1 68.65C2.067 68.6335 2.034 68.617 2 68.6C2.08111 68.549 2.08111 68.549 2.16387 68.4969C3.24688 67.8146 4.32373 67.123 5.39344 66.42C5.51128 66.3426 5.62915 66.2652 5.74702 66.1879C6.89315 65.4355 8.03593 64.6788 9.16822 63.9058C9.2991 63.8165 9.43012 63.7274 9.56113 63.6383C9.82431 63.4592 10.0872 63.2797 10.35 63.1C10.3855 63.0757 10.4211 63.0514 10.4577 63.0264C11.2413 62.4905 12.0178 61.9444 12.793 61.3963C12.9319 61.2981 13.071 61.2 13.2102 61.1021C14.2772 60.3514 15.3319 59.5839 16.3684 58.7913C16.6309 58.5905 16.8945 58.3913 17.1594 58.1938C17.8404 57.6846 18.5065 57.1577 19.1647 56.6195C19.2811 56.5247 19.3983 56.431 19.5156 56.3375C20.1559 55.8261 20.7829 55.3004 21.3896 54.7496C21.4868 54.6619 21.5852 54.576 21.6844 54.4906C22.4072 53.8593 23.1419 53.1943 23.75 52.45C23.7717 52.424 23.7934 52.398 23.8157 52.3712C24.6131 51.4139 25.1777 50.4791 25.1 49.2C25.0024 48.4718 24.6055 47.8578 24.15 47.3C24.1172 47.2595 24.0844 47.219 24.0506 47.1773C23.816 46.8981 23.6457 46.8028 23.2852 46.7246C23.2249 46.7114 23.1646 46.6982 23.1025 46.6846C23.0085 46.6644 23.0085 46.6644 22.9125 46.6438C22.849 46.6299 22.7855 46.616 22.7201 46.6018C22.5635 46.5676 22.4068 46.5337 22.25 46.5C22.25 46.4835 22.25 46.467 22.25 46.45C22.5965 46.45 22.943 46.45 23.3 46.45C22.6377 45.8098 21.851 45.3005 21.05 44.85C20.9907 44.8166 20.9907 44.8166 20.9302 44.7825C19.1365 43.7778 17.2805 42.9972 15.35 42.3C15.35 42.2835 15.35 42.267 15.35 42.25C15.7449 42.2863 16.1381 42.3345 16.5315 42.384C16.646 42.3984 16.7605 42.4127 16.875 42.427C17.2004 42.4676 17.5258 42.5082 17.8511 42.5492C20.1237 42.8352 22.3929 43.0596 24.6856 43.0593C24.8206 43.0593 24.9555 43.0596 25.0905 43.0603C26.5304 43.0674 28.1891 43.0559 29.3543 42.0609C29.4223 41.9933 29.4867 41.9221 29.55 41.85C29.4701 41.5942 29.3131 41.4076 29.15 41.2C29.1209 41.1625 29.0918 41.125 29.0618 41.0863C29.0026 41.01 28.9433 40.9339 28.8839 40.8578C28.788 40.7345 28.6932 40.6104 28.5985 40.4862C28.2063 39.9723 27.7916 39.4773 27.3725 38.9852C27.2991 38.8989 27.2259 38.8125 27.1527 38.726C26.8541 38.3741 26.5476 38.0314 26.233 37.6938C26.1303 37.5827 26.0298 37.4709 25.9313 37.3563C25.711 37.102 25.4797 36.8579 25.2494 36.6128C25.1277 36.4831 25.0063 36.3529 24.8855 36.2223C24.2709 35.5599 23.6299 34.924 22.9898 34.2864C22.8382 34.1352 22.6867 33.984 22.5352 33.8327C22.2402 33.5383 21.9452 33.2441 21.65 32.95C21.849 32.95 21.9551 33.0435 22.1125 33.1531C22.1806 33.1995 22.2487 33.2458 22.3168 33.292C22.3541 33.3174 22.3914 33.3428 22.4298 33.3689C22.6495 33.5172 22.8717 33.6616 23.0938 33.8063C23.1424 33.838 23.1911 33.8697 23.2413 33.9024C24.2043 34.5287 25.1738 35.1444 26.15 35.75C26.2019 35.7822 26.2537 35.8144 26.3072 35.8476C27.2455 36.4299 28.1891 37.0056 29.15 37.55C28.5677 36.596 27.9154 35.7087 27.2 34.85C27.1788 34.8245 27.1576 34.799 27.1358 34.7727C26.843 34.4208 26.5424 34.0779 26.2313 33.7422C26.1089 33.6096 25.9886 33.4755 25.8688 33.3406C25.6876 33.1385 25.4981 32.947 25.3049 32.7564C25.2122 32.6624 25.1259 32.5663 25.0406 32.4656C24.6801 32.0461 24.2784 31.6521 23.8561 31.2951C23.6785 31.1358 23.5126 30.9646 23.3459 30.794C23.1718 30.6171 22.9904 30.4522 22.8026 30.2899C22.5964 30.1092 22.399 29.9188 22.2 29.7303C21.8616 29.411 21.5103 29.1079 21.1563 28.8063C20.9484 28.6288 20.7427 28.4497 20.5406 28.2656C20.3327 28.077 20.1176 27.8992 19.8994 27.7227C19.7296 27.5833 19.5632 27.4404 19.3969 27.2969C19.1637 27.096 18.9281 26.8994 18.6865 26.7086C18.5807 26.6245 18.4758 26.5396 18.3713 26.4539C17.9185 26.0829 17.4582 25.7236 16.9918 25.3699C16.81 25.2315 16.6299 25.0909 16.45 24.95C16.483 24.9335 16.516 24.917 16.55 24.9C16.6761 24.9611 16.7968 25.0252 16.9188 25.0938C17.3644 25.3372 17.8221 25.5444 18.2864 25.7494C18.4409 25.8182 18.5939 25.8902 18.7469 25.9625C18.8811 26.0253 19.0156 26.0876 19.15 26.15C19.1963 26.1716 19.2427 26.1932 19.2904 26.2155C20.935 26.9794 22.6334 27.6179 24.35 28.2C24.402 28.2177 24.4541 28.2354 24.5077 28.2536C26.1559 28.8089 27.899 29.2399 29.625 29.4563C29.6893 29.4647 29.7535 29.4731 29.8197 29.4818C32.0957 29.7723 34.6568 29.6756 36.5928 28.2984C36.7155 28.2025 36.833 28.1028 36.95 28C37.0113 27.9494 37.0113 27.9494 37.0738 27.8979C38.1313 26.9991 38.7742 25.5647 38.95 24.2C38.9623 24.0355 38.9706 23.871 38.9781 23.7063C38.9803 23.6623 38.9824 23.6183 38.9847 23.573C38.9899 23.4654 38.995 23.3577 39 23.25C39.3216 23.279 39.6193 23.3376 39.9313 23.4188C41.947 23.9116 44.2163 23.9225 46.05 22.85C47.693 21.801 48.4404 20.0952 48.8844 18.2688C49.122 17.1689 49.2176 16.0665 49.2103 14.942C49.2094 14.7967 49.2093 14.6515 49.2093 14.5062C49.2077 13.6456 49.1843 12.7863 49.0813 11.9313C49.0746 11.8741 49.0679 11.8169 49.061 11.758C49.0473 11.6424 49.0335 11.5268 49.0195 11.4113C49.0021 11.2671 48.9855 11.123 48.9691 10.9787C48.8944 10.3436 48.7876 9.71424 48.6781 9.08438C48.6709 9.0423 48.6636 9.00022 48.6561 8.95687C48.52 8.17169 48.3679 7.39178 48.1375 6.62813C48.111 6.5397 48.0847 6.45123 48.0586 6.3627C48.0473 6.32522 48.036 6.28774 48.0244 6.24913C48 6.15 48 6.15 48 6Z" fill="#FEC648"/>
<path d="M23.8 46.85C24.2055 46.8786 24.5903 46.9772 24.983 47.076C25.1899 47.128 25.397 47.179 25.6041 47.2299C25.667 47.2453 25.667 47.2453 25.7312 47.2611C26.1236 47.3568 26.5176 47.4436 26.9125 47.5281C27.5333 47.6613 28.1504 47.8068 28.7671 47.9579C29.1897 48.0614 29.6129 48.1616 30.0374 48.2568C30.49 48.3585 30.9415 48.4643 31.393 48.5703C31.6866 48.639 31.9802 48.7071 32.2744 48.7726C32.3239 48.7837 32.3735 48.7947 32.4245 48.8061C32.5148 48.8262 32.6052 48.8461 32.6956 48.8657C32.9704 48.9268 33.2346 49.0059 33.5 49.1C33.3617 49.3553 33.2165 49.6026 33.0594 49.8469C32.6838 50.4546 32.4183 51.1063 32.25 51.8C32.2363 51.855 32.2225 51.9099 32.2084 51.9666C32.1697 52.1275 32.1327 52.2877 32.1 52.45C32.0872 52.5121 32.0872 52.5121 32.0741 52.5754C31.9943 52.9988 31.98 53.4174 31.9813 53.8469C31.9813 53.883 31.9813 53.9192 31.9814 53.9565C31.9883 55.6979 32.5902 57.2386 33.8125 58.4844C34.5286 59.1924 35.4297 59.7624 36.4 60.05C36.4443 60.0636 36.4886 60.0772 36.5342 60.0912C36.6721 60.1313 36.8103 60.1666 36.95 60.2C36.9915 60.2104 37.033 60.2207 37.0758 60.2314C37.7734 60.3773 38.6585 60.3969 39.35 60.2C39.3665 60.1835 39.383 60.167 39.4 60.15C39.4833 60.1479 39.5667 60.1478 39.65 60.15C39.6067 60.1964 39.5634 60.2428 39.5188 60.2906C38.9225 60.9898 38.8113 61.8135 38.85 62.7C38.9283 63.587 39.3865 64.4271 40.0654 64.9969C40.949 65.6469 41.8819 65.8683 42.9656 65.8656C43.0306 65.8664 43.0955 65.8672 43.1624 65.868C43.8113 65.8684 44.4184 65.7574 45.0219 65.5187C45.0661 65.5015 45.1103 65.4843 45.1559 65.4666C45.7324 65.2355 46.2616 64.9325 46.759 64.5607C46.85 64.5 46.85 64.5 46.95 64.5C46.9537 64.8652 46.9574 65.2304 46.9609 65.5957C46.9615 65.6536 46.9621 65.7115 46.9627 65.7711C46.9698 66.499 46.9759 67.2269 46.9804 67.9548C46.9808 68.0254 46.9812 68.0959 46.9817 68.1664C46.982 68.2192 46.982 68.2192 46.9823 68.2731C46.9828 68.3448 46.9832 68.4166 46.9837 68.4883C46.9848 68.6715 46.986 68.8546 46.9871 69.0378C46.9928 69.9762 47.0032 70.9145 47.0195 71.8528C47.0305 72.4938 47.0386 73.1348 47.0449 73.7759C47.0488 74.1632 47.0542 74.5504 47.0632 74.9377C47.1335 78.0104 47.1335 78.0104 46.2926 79.3047C46.1655 79.5041 46.068 79.7126 45.9719 79.9281C45.9374 80.0013 45.9028 80.0744 45.868 80.1474C45.2416 81.4825 44.6492 82.8337 44.0522 84.1821C44.0062 84.286 43.9601 84.3899 43.914 84.4938C43.5273 85.3657 43.1518 86.2423 42.7771 87.1194C42.7016 87.2963 42.6258 87.4732 42.55 87.65C42.5335 87.65 42.517 87.65 42.5 87.65C42.5 87.6185 42.4999 87.587 42.4999 87.5546C42.4969 85.6886 42.4932 83.8227 42.4886 81.9568C42.488 81.7327 42.4874 81.5087 42.4869 81.2846C42.4867 81.2177 42.4867 81.2177 42.4865 81.1495C42.4848 80.4273 42.4835 79.705 42.4825 78.9828C42.4814 78.2418 42.4797 77.5007 42.4776 76.7597C42.4762 76.3024 42.4754 75.8451 42.475 75.3879C42.4748 75.0743 42.474 74.7607 42.4727 74.4471C42.472 74.2662 42.4716 74.0853 42.4718 73.9044C42.472 73.7082 42.471 73.5119 42.4699 73.3156C42.4702 73.2586 42.4704 73.2016 42.4707 73.1429C42.4678 72.8267 42.4381 72.5863 42.3 72.3C42.0296 72.0363 41.7622 72.0314 41.4037 72.0312C39.0973 72.0819 36.6313 74.1285 34.7798 75.3788C34.6142 75.4906 34.448 75.6012 34.2816 75.7117C34.025 75.8826 33.7711 76.0571 33.5188 76.2344C33.4761 76.2643 33.4335 76.2942 33.3896 76.325C32.7161 76.7985 32.0515 77.2839 31.3895 77.7732C31.2301 77.891 31.0705 78.0083 30.9105 78.1252C30.4779 78.4418 30.0504 78.7636 29.6284 79.0942C29.3837 79.2857 29.1367 79.4737 28.8875 79.6594C28.5492 79.9116 28.2165 80.1702 27.8857 80.4323C27.7997 80.5002 27.7135 80.5679 27.6271 80.6355C27.2932 80.8971 26.9609 81.1607 26.6301 81.4262C26.4515 81.5693 26.272 81.7113 26.0916 81.8522C25.7574 82.1129 25.4291 82.3802 25.1024 82.6504C24.8753 82.8382 24.6466 83.0239 24.4158 83.2074C24.2389 83.3488 24.0639 83.4925 23.8889 83.6361C23.798 83.7106 23.707 83.785 23.6158 83.8592C23.3389 84.0847 23.065 84.3134 22.7929 84.5448C22.5686 84.7352 22.3411 84.9214 22.1121 85.1062C22.0193 85.1838 21.9335 85.2627 21.85 85.35C21.817 85.3335 21.784 85.317 21.75 85.3C21.7809 85.2703 21.8117 85.2406 21.8436 85.2099C22.1108 84.9483 22.3524 84.6815 22.5859 84.3892C22.7029 84.2465 22.825 84.1106 22.95 83.975C23.1518 83.7555 23.342 83.5294 23.5293 83.2974C23.6669 83.1293 23.8081 82.9645 23.95 82.8C24.205 82.5039 24.4539 82.2035 24.7 81.9C24.7708 81.8135 24.8416 81.727 24.9125 81.6406C24.9682 81.5724 24.9682 81.5724 25.025 81.5029C25.0908 81.4224 25.1566 81.3419 25.2227 81.2615C25.5596 80.8514 25.8892 80.4369 26.2099 80.014C26.3843 79.7844 26.5624 79.5584 26.7438 79.3344C27.0772 78.9213 27.3936 78.4958 27.7105 78.07C27.7927 77.9597 27.8753 77.8498 27.9582 77.74C29.3639 75.8775 30.6935 73.9477 31.9 71.95C31.9385 71.8865 31.9385 71.8865 31.9777 71.8218C32.1314 71.5681 32.2841 71.3139 32.4353 71.0588C32.4756 70.991 32.5162 70.9233 32.5571 70.8558C32.6034 70.7793 32.6486 70.7022 32.6938 70.625C32.7173 70.5853 32.7409 70.5456 32.7652 70.5047C32.8112 70.4003 32.8112 70.4003 32.7678 70.2959C32.6944 70.1921 32.6202 70.121 32.5219 70.0406C31.7228 69.3567 31.1994 68.5561 30.9094 67.5406C30.899 67.5044 30.8886 67.4682 30.878 67.4309C30.5982 66.3864 30.7276 65.2789 31 64.25C31.0104 64.2104 31.0209 64.1708 31.0316 64.13C31.252 63.3282 31.6133 62.4753 32.1 61.8C32.0422 61.7871 31.9844 61.7743 31.9248 61.7611C31.6029 61.6895 31.2811 61.6178 30.9593 61.5456C30.8879 61.5296 30.8165 61.5137 30.7451 61.4978C30.641 61.4746 30.537 61.4513 30.433 61.4279C30.3715 61.4141 30.3099 61.4004 30.2465 61.3862C30.1 61.35 30.1 61.35 30 61.3C29.6585 61.2557 29.4496 61.3887 29.1625 61.5625C29.0932 61.6034 29.0932 61.6034 29.0225 61.6451C28.8811 61.729 28.7404 61.8143 28.6 61.9C28.56 61.9243 28.5199 61.9486 28.4787 61.9736C26.3819 63.2528 24.4191 64.7602 22.55 66.35C22.5335 66.317 22.517 66.284 22.5 66.25C22.5611 66.131 22.6252 66.0177 22.6938 65.9031C23.2687 64.9075 23.8359 63.7848 23.7 62.6C23.5835 62.191 23.339 61.9375 22.9781 61.7299C20.9145 60.6951 17.6284 62.0515 15.6334 62.7056C15.3537 62.7986 15.0767 62.8984 14.8 63C14.6854 63.0407 14.5709 63.0813 14.4563 63.1219C14.1993 63.2137 13.9431 63.3075 13.6875 63.4031C13.6562 63.4148 13.625 63.4264 13.5928 63.4384C13.3269 63.5384 13.0634 63.6438 12.8 63.75C12.7443 63.7724 12.6886 63.7949 12.6312 63.818C10.6619 64.6126 8.71525 65.4533 6.79307 66.3563C6.69479 66.4024 6.59646 66.4485 6.49812 66.4945C4.62564 67.3635 4.62564 67.3635 2.78804 68.3027C2.64373 68.3802 2.49876 68.4562 2.35313 68.5312C2.30627 68.5556 2.25941 68.58 2.21113 68.6051C2.17446 68.6199 2.13779 68.6347 2.1 68.65C2.067 68.6335 2.034 68.617 2 68.6C2.05408 68.5659 2.10815 68.5319 2.16387 68.4969C3.24688 67.8145 4.32373 67.123 5.39344 66.42C5.51128 66.3426 5.62915 66.2652 5.74702 66.1878C6.89315 65.4355 8.03593 64.6788 9.16822 63.9058C9.2991 63.8165 9.43012 63.7274 9.56113 63.6383C9.82431 63.4592 10.0872 63.2797 10.35 63.1C10.3855 63.0757 10.4211 63.0514 10.4577 63.0264C11.2413 62.4904 12.0178 61.9443 12.793 61.3963C12.9319 61.298 13.071 61.2 13.2102 61.1021C14.2772 60.3514 15.3319 59.5838 16.3684 58.7912C16.6309 58.5905 16.8945 58.3913 17.1594 58.1937C17.8404 57.6846 18.5065 57.1577 19.1647 56.6195C19.2811 56.5247 19.3983 56.431 19.5156 56.3375C20.1559 55.8261 20.7829 55.3004 21.3896 54.7496C21.4868 54.6619 21.5852 54.576 21.6844 54.4906C22.4072 53.8592 23.1419 53.1943 23.75 52.45C23.7717 52.424 23.7934 52.398 23.8157 52.3712C24.6131 51.4139 25.1777 50.479 25.1 49.2C24.9828 48.3256 24.4395 47.6052 23.8607 46.9713C23.8 46.9 23.8 46.9 23.8 46.85Z" fill="#DD7A41"/>
<path d="M66.95 22.9C67.0669 23.0169 67.0699 23.0909 67.0917 23.25C67.3003 24.7738 68.0501 26.4087 69.287 27.3675C70.874 28.5325 72.8685 28.6948 74.7698 28.4204C75.6136 28.2885 76.4362 28.1088 77.25 27.85C77.2814 27.8401 77.3128 27.8302 77.3451 27.82C79.6484 27.0921 81.8623 26.122 83.9576 24.9172C84.1571 24.8025 84.3577 24.6902 84.5595 24.5797C85.279 24.1849 85.9688 23.7577 86.65 23.3C86.7107 23.2595 86.7714 23.219 86.8322 23.1785C86.8711 23.1526 86.9099 23.1267 86.95 23.1C86.983 23.1165 87.016 23.133 87.05 23.15C86.9198 23.2573 86.7896 23.3646 86.6594 23.4719C86.6204 23.504 86.5814 23.5361 86.5412 23.5692C86.3321 23.7415 86.1226 23.9133 85.9125 24.0844C85.605 24.3357 85.3023 24.5925 85 24.85C84.9706 24.875 84.9412 24.9 84.911 24.9257C84.5736 25.2128 84.239 25.5021 83.9109 25.7998C83.8103 25.8907 83.7086 25.98 83.6062 26.0688C83.4106 26.2392 83.2195 26.4145 83.0287 26.5902C82.8651 26.7407 82.7002 26.8896 82.5344 27.0375C82.3638 27.1904 82.2004 27.3479 82.0402 27.5115C81.9532 27.5969 81.8633 27.6759 81.7705 27.7549C81.5204 27.9726 81.287 28.2058 81.0529 28.4405C81.0066 28.4867 80.9603 28.533 80.9125 28.5807C80.8151 28.6781 80.7177 28.7755 80.6204 28.873C80.4968 28.997 80.3729 29.1207 80.249 29.2443C80.1293 29.3637 80.0099 29.4834 79.8904 29.603C79.8245 29.6688 79.8245 29.6688 79.7572 29.7359C79.5377 29.9562 79.3255 30.1797 79.1227 30.4156C79.0369 30.5152 78.9477 30.6109 78.8566 30.7057C78.8076 30.7571 78.8076 30.7571 78.7576 30.8095C78.7242 30.8445 78.6907 30.8795 78.6562 30.9156C78.3929 31.1932 78.1416 31.4733 77.9037 31.7729C77.7895 31.9128 77.6693 32.0454 77.5469 32.1781C77.3585 32.3833 77.1805 32.5929 77.0086 32.8119C76.9286 32.9136 76.848 33.0144 76.7664 33.1147C75.0094 35.2784 73.251 37.799 72.6 40.55C72.6439 40.5493 72.6439 40.5493 72.6886 40.5487C73.7029 40.5837 74.6528 41.21 75.35 41.9C75.3858 41.9328 75.4216 41.9656 75.4586 41.9994C76.4056 42.8839 77.169 44.4043 77.25 45.7C77.258 45.9502 77.2562 46.1998 77.25 46.45C77.2865 46.458 77.3229 46.4659 77.3605 46.474C77.6452 46.5377 77.9263 46.6061 78.2064 46.6873C80.1278 47.2412 82.1705 47.4587 84.1594 47.6063C84.2103 47.6101 84.2612 47.6138 84.3137 47.6177C84.4924 47.63 84.6711 47.6405 84.85 47.65C84.8888 47.6521 84.9276 47.6542 84.9676 47.6563C86.0142 47.7098 87.0619 47.7158 88.1096 47.7266C88.3517 47.7292 88.5937 47.7319 88.8358 47.7347C89.3072 47.74 89.7786 47.7451 90.25 47.75C90.0868 47.8348 89.935 47.8842 89.7558 47.9276C89.6979 47.9417 89.64 47.9559 89.5803 47.9705C89.5188 47.9854 89.4572 48.0003 89.3937 48.0156C88.6384 48.2016 87.8919 48.4011 87.1512 48.6387C86.9315 48.7091 86.7114 48.7764 86.4896 48.8396C84.0157 49.5456 80.6632 50.6569 79.3314 53.0352C79.0794 53.5454 79.0217 54.1469 79.1951 54.6918C79.3965 55.2195 79.7342 55.6282 80.1 56.05C80.0643 56.0575 80.0287 56.0651 79.9919 56.0728C79.2336 56.2338 78.486 56.4056 77.75 56.65C77.703 56.6654 77.656 56.6808 77.6076 56.6966C75.6518 57.3249 75.6518 57.3249 74.05 58.55C73.9928 58.678 73.942 58.8032 73.8937 58.9344C73.5287 59.8664 72.9163 60.8896 72.0892 61.4789C71.9052 61.6255 71.8993 61.8809 71.8734 62.1028C71.6589 64.1388 72.3313 65.9762 73.25 67.75C73.2727 67.7949 73.2954 67.8398 73.3188 67.8861C74.1516 69.5288 75.3154 71.0259 76.5064 72.4214C76.644 72.5827 76.7774 72.7466 76.9094 72.9125C77.1419 73.1987 77.3944 73.465 77.6488 73.7318C77.8216 73.913 77.9915 74.0959 78.1578 74.2832C78.3902 74.5419 78.6321 74.7894 78.8783 75.035C78.9222 75.0789 78.9661 75.1229 79.0114 75.1682C79.1035 75.2603 79.1956 75.3524 79.2878 75.4444C79.4281 75.5844 79.5681 75.7247 79.7081 75.865C79.7981 75.955 79.8882 76.045 79.9783 76.135C80.0403 76.1972 80.0403 76.1972 80.1036 76.2606C80.3173 76.4734 80.534 76.6784 80.7644 76.873C80.8918 76.9877 80.9946 77.115 81.1 77.25C80.9616 77.1855 80.8475 77.1147 80.7301 77.0174C80.6982 76.9912 80.6664 76.9651 80.6336 76.9381C80.5829 76.8961 80.5829 76.8961 80.5312 76.8531C80.4589 76.7937 80.3865 76.7344 80.314 76.675C80.2779 76.6454 80.2417 76.6157 80.2045 76.5852C79.9704 76.3944 79.7322 76.209 79.494 76.0234C79.393 75.9446 79.2922 75.8656 79.1914 75.7865C78.675 75.3825 78.1525 74.9871 77.627 74.595C77.4998 74.4999 77.3729 74.4044 77.2461 74.3088C76.4607 73.717 75.6641 73.1419 74.8592 72.577C74.7494 72.4996 74.64 72.4217 74.5306 72.3438C72.8621 71.1588 71.1265 70.0692 69.3312 69.0875C69.2621 69.0495 69.2621 69.0495 69.1915 69.0107C68.9915 68.9014 68.7918 68.7944 68.5851 68.6981C68.1175 68.4768 67.8351 68.1981 67.5202 67.79C67.4094 67.648 67.292 67.5118 67.175 67.375C67.1298 67.3215 67.0846 67.268 67.0394 67.2145C66.9173 67.0701 66.7942 66.9267 66.6709 66.7834C66.4321 66.506 66.1976 66.2259 65.9668 65.9418C65.7819 65.7174 65.5918 65.4976 65.4021 65.2772C65.1892 65.0296 64.9786 64.78 64.7679 64.5305C64.6537 64.3952 64.5393 64.2601 64.425 64.125C64.3791 64.0709 64.3333 64.0167 64.2875 63.9625C64.2648 63.9357 64.2421 63.9089 64.2187 63.8813C63.9666 63.5834 63.7146 63.2854 63.4625 62.9875C63.4398 62.9607 63.4171 62.9339 63.3937 62.9062C63.3479 62.8522 63.3022 62.7981 63.2564 62.744C63.1408 62.6072 63.025 62.4705 62.909 62.334C62.6974 62.0849 62.487 61.8352 62.2812 61.5813C62.1501 61.4196 62.0165 61.2608 61.8793 61.1043C61.8348 61.0536 61.8348 61.0536 61.7895 61.0019C61.7307 60.935 61.6718 60.8684 61.6126 60.8019C61.5857 60.7714 61.5589 60.7408 61.5312 60.7094C61.5071 60.6823 61.483 60.6551 61.4582 60.6272C61.4 60.55 61.4 60.55 61.35 60.4C61.4002 60.3951 61.4504 60.3902 61.5021 60.3852C62.5549 60.2739 63.3671 59.9314 64.0625 59.1094C64.7393 58.2238 64.8899 57.1389 64.7804 56.0571C64.6944 55.5784 64.48 55.1729 64.25 54.75C64.2335 54.717 64.217 54.684 64.2 54.65C64.2515 54.658 64.3031 54.6659 64.3562 54.674C65.1751 54.7753 66.0687 54.7861 66.85 54.5C66.9084 54.4794 66.9668 54.4588 67.0269 54.4375C68.201 53.9794 69.0382 53.1395 69.5567 52.0013C69.6904 51.6886 69.7586 51.415 69.7758 51.0752C69.8026 50.665 69.8641 50.3833 70.1685 50.0945C70.3103 49.9729 70.4545 49.8546 70.5996 49.737C71.3512 49.0857 71.9335 48.0043 72.0102 47.0183C72.0152 46.8808 72.0164 46.7439 72.0156 46.6063C72.0154 46.5565 72.0151 46.5067 72.0149 46.4554C71.9946 45.1441 71.6804 43.7867 70.7383 42.8262C70.5166 42.6239 70.2829 42.4269 70.0037 42.3096C69.7168 42.1857 69.6108 42.05 69.4781 41.7719C69.2895 41.4098 69.08 41.1001 68.8 40.8C68.7632 40.7606 68.7265 40.7211 68.6886 40.6805C68.1112 40.1127 67.4483 39.8889 66.6576 39.8834C66.3255 39.8866 66.0656 39.9292 65.759 40.0612C65.65 40.1 65.65 40.1 65.5 40.05C65.5386 40.0053 65.5773 39.9606 65.6172 39.9145C65.8828 39.6064 66.145 39.297 66.3972 38.9778C66.5426 38.7971 66.693 38.6208 66.8433 38.4442C66.9881 38.2738 67.1309 38.1018 67.2719 37.9281C67.4697 37.685 67.6732 37.4472 67.8778 37.2097C68.0676 36.989 68.2526 36.7649 68.4361 36.5389C68.5872 36.3546 68.7415 36.1732 68.8958 35.9917C69.0398 35.822 69.1816 35.6509 69.3219 35.4781C69.4946 35.2658 69.6713 35.0574 69.85 34.85C70.105 34.554 70.354 34.2536 70.6 33.95C70.8619 33.6277 71.1268 33.3082 71.3958 32.9917C71.5397 32.8221 71.6816 32.6509 71.8219 32.4781C72.0197 32.235 72.2232 31.9972 72.4278 31.7597C72.6173 31.5393 72.8021 31.3155 72.9853 31.0899C73.1614 30.8751 73.3413 30.6638 73.5211 30.4522C73.6482 30.3021 73.7743 30.1513 73.9 30C73.2924 30.2594 72.6889 30.5262 72.0906 30.8063C71.5638 31.0522 71.0356 31.295 70.5052 31.5332C70.4252 31.5691 70.3454 31.6052 70.2656 31.6415C70.1535 31.6924 70.0411 31.7428 69.9287 31.793C69.8956 31.8082 69.8624 31.8233 69.8283 31.839C69.5824 31.9476 69.3372 32.0355 69.0701 31.9664C69.0091 31.9397 69.0091 31.9397 68.9469 31.9125C68.622 31.7832 68.2931 31.7136 67.95 31.65C67.9141 31.6433 67.8782 31.6366 67.8412 31.6297C66.6402 31.4445 65.3356 31.7859 64.2219 32.2158C64.0003 32.3014 63.7759 32.3768 63.55 32.45C63.5492 32.4187 63.5485 32.3874 63.5478 32.3551C63.5104 30.8984 63.3832 29.4509 62.8 28.1C62.7744 28.0405 62.7488 27.981 62.7224 27.9198C62.5347 27.5161 62.3002 27.185 62.0177 26.8432C61.9 26.7 61.9 26.7 61.8 26.55C61.8317 26.5508 61.8634 26.5516 61.896 26.5524C62.7366 26.582 62.7366 26.582 63.55 26.4C63.5988 26.3824 63.6476 26.3648 63.6978 26.3467C64.6005 25.9956 65.3251 25.4249 65.9 24.65C65.959 24.5742 65.959 24.5742 66.0191 24.4969C66.3962 24.0015 66.6727 23.4557 66.95 22.9Z" fill="#E39E45"/>
<path d="M48 6C48.1186 6.11866 48.1493 6.21243 48.2076 6.36973C48.2294 6.42773 48.2513 6.48573 48.2738 6.5455C48.2856 6.57709 48.2974 6.60867 48.3095 6.64122C48.7222 7.74142 49.187 8.82028 49.65 9.9C49.6746 9.95755 49.6746 9.95755 49.6998 10.0163C50.8463 12.6915 52.0746 15.3575 53.531 17.8798C53.6143 18.025 53.6956 18.1712 53.7768 18.3176C54.0153 18.7471 54.2687 19.1667 54.5279 19.584C54.5759 19.6613 54.6238 19.7387 54.6716 19.8162C55.5291 21.2056 56.4941 22.5254 57.5941 23.733C57.6645 23.8108 57.734 23.8893 57.8027 23.9686C57.9884 24.1828 58.178 24.3774 58.3947 24.5602C58.509 24.6577 58.6181 24.76 58.7281 24.8625C58.9744 25.086 59.238 25.2803 59.5087 25.4729C59.5898 25.5309 59.67 25.5903 59.75 25.65C59.75 25.6665 59.75 25.683 59.75 25.7C59.7155 25.701 59.681 25.702 59.6455 25.703C57.2924 25.7741 55.6033 26.6055 53.9742 28.3189C53.7486 28.5653 53.5482 28.8316 53.35 29.1C53.326 29.1323 53.302 29.1646 53.2773 29.1978C52.5832 30.1392 51.9478 31.1668 51.5 32.25C51.467 32.25 51.434 32.25 51.4 32.25C51.3708 32.1913 51.3417 32.1326 51.3117 32.0721C50.8798 31.2174 50.3688 30.4846 49.7 29.8C49.6706 29.7675 49.6412 29.735 49.6109 29.7016C48.7296 28.7483 47.4066 28.1714 46.15 27.95C46.1132 27.9415 46.0764 27.933 46.0385 27.9243C44.3574 27.6299 42.2385 28.0423 40.8314 29.0131C40.6839 29.1215 40.5414 29.2338 40.4 29.35C40.3642 29.3775 40.3285 29.405 40.2917 29.4334C39.1051 30.3908 38.6623 32.0325 38.4843 33.477C38.4654 33.6678 38.4538 33.8583 38.45 34.05C38.3045 33.9839 38.1976 33.9113 38.0822 33.8012C38.051 33.7717 38.0199 33.7423 37.9877 33.7119C37.9396 33.6658 37.9396 33.6658 37.8906 33.6187C37.6152 33.3568 37.3353 33.1011 37.05 32.85C37.062 32.8894 37.0741 32.9288 37.0865 32.9694C37.4227 34.0711 37.742 35.1683 37.9625 36.3C37.9809 36.3948 37.9809 36.3948 37.9998 36.4915C38.1315 37.1875 38.217 37.8635 38.213 38.5713C38.2124 38.6848 38.213 38.7983 38.2136 38.9118C38.2144 39.5957 38.1932 40.4103 37.7107 40.9498C37.4447 41.1426 37.1654 41.1298 36.85 41.1C36.8046 41.097 36.7592 41.0939 36.7125 41.0908C35.6807 40.9797 34.679 40.4824 33.75 40.05C33.6725 40.014 33.6725 40.014 33.5935 39.9773C32.447 39.4416 31.3275 38.8572 30.2314 38.2248C30.1057 38.1533 29.9789 38.0841 29.8515 38.0156C29.4203 37.7805 29.147 37.5848 28.9 37.15C28.8082 37.006 28.7135 36.8639 28.6187 36.7219C28.5932 36.6834 28.5677 36.6448 28.5414 36.6052C28.1324 35.9922 27.6728 35.4147 27.2 34.85C27.179 34.8248 27.158 34.7995 27.1364 34.7736C26.8434 34.4214 26.5426 34.0782 26.2312 33.7422C26.1088 33.6096 25.9886 33.4755 25.8687 33.3406C25.6876 33.1385 25.498 32.947 25.3048 32.7564C25.2121 32.6624 25.1259 32.5663 25.0406 32.4656C24.68 32.0461 24.2783 31.6521 23.856 31.2951C23.6784 31.1358 23.5125 30.9646 23.3458 30.794C23.1717 30.6171 22.9904 30.4522 22.8026 30.2899C22.5964 30.1092 22.399 29.9188 22.2 29.7303C21.8616 29.411 21.5102 29.1079 21.1562 28.8062C20.9483 28.6288 20.7427 28.4497 20.5406 28.2656C20.3327 28.077 20.1176 27.8992 19.8994 27.7227C19.7296 27.5833 19.5631 27.4404 19.3968 27.2969C19.1636 27.096 18.9281 26.8994 18.6865 26.7086C18.5807 26.6245 18.4758 26.5396 18.3712 26.4539C17.9185 26.0829 17.4581 25.7236 16.9918 25.3699C16.81 25.2315 16.6298 25.0909 16.45 24.95C16.483 24.9335 16.516 24.917 16.55 24.9C16.6761 24.9611 16.7967 25.0252 16.9187 25.0937C17.3643 25.3372 17.8221 25.5444 18.2864 25.7494C18.4409 25.8182 18.5939 25.8902 18.7468 25.9625C18.8811 26.0253 19.0155 26.0876 19.15 26.15C19.2195 26.1824 19.2195 26.1824 19.2904 26.2155C20.935 26.9794 22.6333 27.6179 24.35 28.2C24.402 28.2177 24.454 28.2354 24.5077 28.2536C26.1559 28.8089 27.899 29.2399 29.625 29.4562C29.6892 29.4647 29.7535 29.4731 29.8197 29.4818C32.0957 29.7723 34.6567 29.6756 36.5927 28.2984C36.7155 28.2025 36.833 28.1028 36.95 28C37.0112 27.9494 37.0112 27.9494 37.0738 27.8979C38.1313 26.9991 38.7742 25.5647 38.95 24.2C38.9622 24.0355 38.9705 23.871 38.9781 23.7062C38.9802 23.6623 38.9824 23.6183 38.9846 23.573C38.9899 23.4654 38.9949 23.3577 39 23.25C39.3215 23.279 39.6193 23.3376 39.9312 23.4187C41.9469 23.9116 44.2163 23.9225 46.05 22.85C47.693 21.801 48.4404 20.0952 48.8843 18.2687C49.1219 17.1689 49.2175 16.0665 49.2102 14.942C49.2093 14.7967 49.2092 14.6515 49.2092 14.5062C49.2077 13.6456 49.1843 12.7863 49.0812 11.9312C49.0745 11.8741 49.0678 11.8169 49.0609 11.758C49.0473 11.6424 49.0335 11.5268 49.0194 11.4113C49.002 11.2671 48.9854 11.123 48.9691 10.9787C48.8943 10.3436 48.7876 9.71424 48.6781 9.08437C48.6708 9.0423 48.6635 9.00022 48.6561 8.95687C48.5199 8.17169 48.3679 7.39178 48.1375 6.62812C48.111 6.5397 48.0847 6.45123 48.0585 6.3627C48.0472 6.32522 48.036 6.28774 48.0243 6.24913C48 6.15 48 6.15 48 6Z" fill="#D56539"/>
<path d="M60.2 25.75C60.2551 25.7642 60.3101 25.7784 60.3668 25.793C61.3852 26.0915 62.1517 26.7439 62.6641 27.6719C63.3918 29.1802 63.5916 30.7911 63.55 32.45C63.607 32.4246 63.664 32.3992 63.7227 32.3731C64.5745 31.9999 65.4283 31.7307 66.35 31.6C66.396 31.5935 66.4419 31.5869 66.4893 31.5801C66.6097 31.5656 66.7289 31.5563 66.85 31.55C66.9263 31.5461 66.9263 31.5461 67.0041 31.542C67.8126 31.5208 68.6034 31.694 69.35 32C69.1855 32.1097 69.0144 32.1894 68.8352 32.2711C68.7802 32.2963 68.7802 32.2963 68.7242 32.3221C68.6037 32.3774 68.4831 32.4325 68.3625 32.4875C68.2783 32.5261 68.1941 32.5646 68.1099 32.6032C67.4353 32.912 66.7595 33.2181 66.0829 33.5226C65.7625 33.6669 65.4424 33.8115 65.1222 33.9561C64.9606 34.0291 64.7991 34.1021 64.6375 34.175C64.5729 34.2042 64.5083 34.2334 64.4438 34.2625C64.0563 34.4375 64.0563 34.4375 63.9594 34.4813C63.8948 34.5105 63.8301 34.5397 63.7655 34.5688C63.6049 34.6414 63.4443 34.7139 63.2837 34.7864C62.9828 34.9223 62.682 35.0582 62.3812 35.1941C62.2402 35.2578 62.0991 35.3216 61.9581 35.3853C61.8912 35.4155 61.8244 35.4457 61.7576 35.4759C61.7102 35.4973 61.7102 35.4973 61.6618 35.5192C61.6158 35.54 61.6158 35.54 61.5688 35.5612C61.4812 35.6008 61.3936 35.6401 61.306 35.6795C61.2102 35.7228 61.1147 35.7666 61.0195 35.8112C60.7889 35.9181 60.5724 35.9863 60.3219 36.0375C59.7611 36.165 59.2093 36.4162 58.7789 36.8033C58.7 36.85 58.7 36.85 58.601 36.8451C58.4697 36.7865 58.4119 36.712 58.3219 36.6C57.5866 35.7443 56.5226 35.2002 55.45 34.9C55.4036 34.8869 55.3572 34.8738 55.3094 34.8602C54.8765 34.7483 54.4612 34.724 54.0156 34.7282C53.9806 34.7283 53.9455 34.7285 53.9094 34.7286C53.3537 34.7322 52.8296 34.7716 52.3 34.95C52.2682 34.9605 52.2364 34.9709 52.2037 34.9817C51.4887 35.2243 50.8165 35.6012 50.25 36.1C50.2091 36.1343 50.1683 36.1686 50.1262 36.2039C49.3757 36.8498 48.8394 37.673 48.5 38.6C48.2363 38.5479 47.9728 38.4946 47.7098 38.4391C47.66 38.4286 47.6101 38.4181 47.5588 38.4073C47.4575 38.3859 47.3562 38.3644 47.2549 38.3428C46.0513 38.0897 44.4841 37.8338 43.296 38.2899C43.1959 38.3274 43.1959 38.3274 43 38.35C42.8376 38.2571 42.7185 38.129 42.5906 37.9938C42.5157 37.9189 42.4408 37.844 42.3658 37.7692C42.3292 37.7318 42.2926 37.6944 42.2549 37.6559C42.1118 37.5115 41.963 37.3742 41.8125 37.2375C41.7601 37.1894 41.7078 37.1412 41.6555 37.093C41.6299 37.0695 41.6044 37.046 41.578 37.0218C41.4435 36.8981 41.3093 36.774 41.175 36.65C41.1208 36.6 41.0667 36.55 41.0125 36.5C40.9042 36.4 40.7958 36.3 40.6875 36.2C40.6607 36.1753 40.6339 36.1505 40.6063 36.1251C40.552 36.075 40.4978 36.0249 40.4435 35.9748C40.3094 35.851 40.1753 35.7272 40.041 35.6035C39.9878 35.5545 39.9345 35.5054 39.8813 35.4563C39.8549 35.432 39.8285 35.4077 39.8013 35.3826C39.6525 35.2453 39.5043 35.1074 39.3565 34.969C39.3238 34.9385 39.2912 34.908 39.2576 34.8767C39.1926 34.8156 39.1279 34.7541 39.0636 34.6923C38.8991 34.5352 38.7426 34.4143 38.5469 34.2969C38.442 34.2053 38.4042 34.1417 38.3901 34.0028C38.3893 33.6808 38.4439 33.3662 38.5 33.05C38.513 32.9739 38.513 32.9739 38.5262 32.8961C38.6359 32.2683 38.7731 31.6761 39.05 31.1C39.0652 31.0684 39.0803 31.0368 39.0959 31.0042C39.3031 30.5783 39.5372 30.2082 39.85 29.85C39.8764 29.8164 39.9029 29.7829 39.9301 29.7483C40.8066 28.6623 42.2357 28.2143 43.55 27.95C43.5944 27.9406 43.6387 27.9313 43.6844 27.9216C44.0898 27.8438 44.4905 27.8331 44.9018 27.8342C45.015 27.8344 45.1281 27.8332 45.2413 27.832C45.9136 27.829 46.5367 27.9423 47.175 28.1594C47.2195 28.1745 47.264 28.1896 47.3099 28.2051C48.2568 28.5376 49.0332 29.1084 49.75 29.8C49.7858 29.8333 49.8217 29.8665 49.8586 29.9008C50.4919 30.5037 51.0695 31.3394 51.4 32.15C51.4 32.183 51.4 32.216 51.4 32.25C51.433 32.25 51.466 32.25 51.5 32.25C51.508 32.2232 51.5161 32.1963 51.5244 32.1686C51.619 31.8676 51.7431 31.5941 51.8906 31.3157C51.9144 31.2706 51.9382 31.2256 51.9627 31.1792C52.4044 30.3577 52.9191 29.5794 53.5 28.85C53.5219 28.8223 53.5439 28.7946 53.5664 28.7661C54.7169 27.3245 56.3588 25.9523 58.258 25.7221C58.5464 25.6931 58.8355 25.6787 59.125 25.6657C59.2057 25.6612 59.2057 25.6612 59.2881 25.6566C59.6107 25.6422 59.8897 25.6609 60.2 25.75Z" fill="#E5AC47"/>
<path d="M37 32.8C37.2994 33.0077 37.5514 33.244 37.8047 33.506C37.9451 33.6486 38.0952 33.7784 38.2465 33.9093C38.4141 34.0562 38.5756 34.2094 38.7375 34.3625C39.022 34.6304 39.3084 34.896 39.597 35.1596C39.7742 35.3218 39.9496 35.4859 40.125 35.65C40.3992 35.9065 40.675 36.1612 40.9521 36.4146C41.1091 36.5582 41.2655 36.7025 41.4219 36.8469C41.4488 36.8718 41.4758 36.8967 41.5036 36.9224C41.6132 37.0236 41.7227 37.1248 41.8323 37.226C42.2207 37.5849 42.6099 37.9429 43 38.3C42.8329 38.4113 42.6589 38.4847 42.475 38.5625C41.9276 38.7993 41.4556 39.0611 41 39.45C40.9625 39.4796 40.925 39.5093 40.8863 39.5398C40.1785 40.121 39.6741 41.0459 39.55 41.95C39.5038 42.5214 39.5007 43.1064 39.7 43.65C39.7272 43.7268 39.7272 43.7268 39.7551 43.8051C39.8654 44.0921 39.991 44.3325 40.1883 44.5689C40.25 44.65 40.25 44.65 40.3 44.8C40.3916 44.853 40.3916 44.853 40.5 44.9C40.5724 44.9481 40.6443 44.9971 40.7156 45.0469C40.9048 45.175 41.0869 45.2684 41.3 45.35C41.3 45.3665 41.3 45.383 41.3 45.4C41.2704 45.4017 41.2409 45.4034 41.2104 45.4052C38.483 45.5739 35.8127 46.5213 33.95 48.6C33.8922 48.6861 33.8349 48.7726 33.7781 48.8594C33.6994 48.9629 33.6994 48.9629 33.6 49.05C33.2239 49.09 32.8101 48.9539 32.4469 48.8656C32.3315 48.8383 32.2161 48.8109 32.1008 48.7836C32.0424 48.7696 31.984 48.7557 31.9239 48.7413C31.7057 48.6895 31.4872 48.6394 31.2686 48.5895C30.7634 48.4741 30.2596 48.3541 29.7562 48.2312C29.1717 48.0888 28.5853 47.9569 27.9978 47.8279C27.4499 47.7075 26.9041 47.5806 26.3594 47.4469C25.8301 47.3171 25.3004 47.1913 24.7687 47.0719C24.7061 47.0578 24.6435 47.0437 24.5791 47.0292C24.2779 46.9618 23.9766 46.8948 23.6752 46.8282C23.5316 46.7964 23.388 46.7644 23.2444 46.7324C23.1429 46.7099 23.0414 46.6876 22.9398 46.6654C22.8479 46.6449 22.8479 46.6449 22.7541 46.624C22.673 46.6061 22.673 46.6061 22.5904 46.5879C22.45 46.55 22.45 46.55 22.25 46.45C22.5965 46.45 22.943 46.45 23.3 46.45C22.6377 45.8098 21.851 45.3005 21.05 44.85C21.0105 44.8277 20.9709 44.8055 20.9302 44.7825C19.1364 43.7778 17.2805 42.9972 15.35 42.3C15.35 42.2835 15.35 42.267 15.35 42.25C15.7448 42.2863 16.1381 42.3345 16.5314 42.384C16.6459 42.3984 16.7604 42.4127 16.875 42.427C17.2004 42.4676 17.5257 42.5082 17.8511 42.5492C20.1237 42.8351 22.3928 43.0596 24.6856 43.0593C24.8205 43.0592 24.9555 43.0596 25.0904 43.0603C26.5304 43.0674 28.1891 43.0559 29.3543 42.0609C29.4223 41.9933 29.4867 41.9221 29.55 41.85C29.47 41.5942 29.3131 41.4075 29.15 41.2C29.1063 41.1437 29.1063 41.1437 29.0617 41.0863C29.0026 41.01 28.9433 40.9338 28.8839 40.8578C28.7879 40.7345 28.6932 40.6104 28.5985 40.4862C28.2062 39.9723 27.7916 39.4773 27.3725 38.9852C27.2991 38.8989 27.2259 38.8125 27.1527 38.726C26.8541 38.3741 26.5475 38.0314 26.233 37.6937C26.1303 37.5827 26.0298 37.4709 25.9312 37.3562C25.711 37.102 25.4797 36.8579 25.2494 36.6128C25.1276 36.483 25.0063 36.3529 24.8855 36.2223C24.2708 35.5599 23.6298 34.924 22.9898 34.2864C22.8381 34.1352 22.6866 33.984 22.5351 33.8327C22.2402 33.5383 21.9452 33.2441 21.65 32.95C21.849 32.95 21.955 33.0434 22.1125 33.1531C22.1805 33.1995 22.2486 33.2458 22.3168 33.292C22.3541 33.3174 22.3914 33.3428 22.4298 33.3689C22.6495 33.5171 22.8717 33.6616 23.0937 33.8062C23.1424 33.838 23.1911 33.8697 23.2412 33.9023C24.2042 34.5287 25.1738 35.1444 26.15 35.75C26.2018 35.7822 26.2537 35.8144 26.3072 35.8476C26.9273 36.2324 27.5503 36.6122 28.1781 36.9844C28.2615 37.0338 28.2615 37.0338 28.3465 37.0843C28.6122 37.2412 28.8791 37.3952 29.1495 37.544C29.2738 37.6133 29.3959 37.6859 29.5179 37.759C33.2514 40.1631 33.2514 40.1631 37.4 41.05C37.6445 40.9778 37.7089 40.9221 37.8344 40.7019C38.1265 40.0656 38.1721 39.4311 38.1719 38.7375C38.1719 38.6996 38.1719 38.6618 38.172 38.6228C38.1676 36.877 37.71 35.1719 37.1959 33.5144C37.1225 33.2777 37.0566 33.0413 37 32.8Z" fill="#FEF369"/>
<path d="M58 61.7C58.5981 62.0669 59.1648 62.4789 59.7322 62.8909C59.769 62.9176 59.8058 62.9444 59.8437 62.9719C59.8809 62.9989 59.9181 63.0259 59.9564 63.0536C60.2262 63.2487 60.4995 63.438 60.775 63.625C61.1272 63.8641 61.4741 64.1094 61.8184 64.3597C62.1747 64.6185 62.5343 64.8725 62.8946 65.1258C63.0715 65.2503 63.2482 65.3752 63.425 65.5C63.4958 65.55 63.5667 65.6 63.6375 65.65C64.0625 65.95 64.4875 66.25 64.9125 66.55C64.9652 66.5872 64.9652 66.5872 65.0189 66.6251C65.0892 66.6747 65.1595 66.7244 65.2297 66.774C65.4152 66.9051 65.6009 67.0357 65.7871 67.1658C65.8259 67.193 65.8646 67.2202 65.9046 67.2482C65.9789 67.3002 66.0533 67.3522 66.1278 67.404C66.1781 67.4393 66.1781 67.4393 66.2293 67.4752C66.2587 67.4957 66.2881 67.5163 66.3184 67.5374C66.4031 67.6024 66.4762 67.673 66.55 67.75C66.4881 67.7294 66.4262 67.7088 66.3625 67.6875C66.2346 67.6666 66.2346 67.6666 66.1 67.7C65.9954 67.786 65.9094 67.8667 65.8187 67.9656C65.3324 68.4931 64.7504 68.8084 64.1187 69.1406C64.0675 69.1676 64.0163 69.1946 63.9635 69.2224C63.1008 69.6657 62.1875 69.9794 61.2086 69.9422C61.1703 69.9409 61.1319 69.9397 61.0924 69.9384C60.9339 69.933 60.7756 69.9273 60.6173 69.9178C60.1403 69.8807 60.1403 69.8807 59.7071 70.0467C59.5899 70.1747 59.4951 70.305 59.4 70.45C59.3393 70.5273 59.2782 70.6042 59.2166 70.6807C59.1576 70.7587 59.0989 70.8371 59.0406 70.9156C59.0088 70.9584 58.9769 71.0012 58.9441 71.0453C58.0366 72.2757 57.2851 73.5852 56.6 74.95C56.5643 75.0208 56.5643 75.0208 56.5278 75.093C55.9433 76.2574 55.4259 77.4751 55.0135 78.7113C54.9634 78.8603 54.9102 79.005 54.85 79.15C54.6192 79.7101 54.427 80.291 54.2535 80.8711C54.2124 81.0084 54.1705 81.1453 54.1277 81.282C53.4942 83.32 52.9852 85.385 52.5478 87.4731C52.5179 87.6156 52.4876 87.7579 52.4566 87.9002C52.3847 88.2304 52.3187 88.56 52.2656 88.8938C52.2591 88.9335 52.2527 88.9733 52.246 89.0143C52.2305 89.1095 52.2152 89.2047 52.2 89.3C52.1835 89.3 52.167 89.3 52.15 89.3C52.1335 83.789 52.117 78.278 52.1 72.6C51.7535 72.7155 51.407 72.831 51.05 72.95C50.835 72.9982 50.6319 73.0409 50.4156 73.0719C50.3673 73.0798 50.319 73.0878 50.2692 73.096C49.9608 73.144 49.6619 73.1596 49.35 73.15C49.3005 73.249 49.3005 73.249 49.25 73.35C49.3209 73.0041 49.4177 72.6736 49.5277 72.3383C49.564 72.2265 49.6001 72.1147 49.6363 72.0028C49.655 71.9448 49.6738 71.8868 49.6931 71.8271C49.7869 71.535 49.8781 71.2421 49.9691 70.9492C49.9975 70.8582 49.9975 70.8582 50.0264 70.7653C50.0558 70.6707 50.0853 70.5761 50.1147 70.4815C50.512 69.205 50.9136 67.9298 51.3195 66.656C51.3562 66.5409 51.3928 66.4258 51.4294 66.3107C51.487 66.1296 51.5447 65.9486 51.6025 65.7677C51.6238 65.7011 51.645 65.6345 51.6662 65.568C51.6952 65.4767 51.7244 65.3855 51.7535 65.2943C51.7698 65.2432 51.7861 65.1921 51.8029 65.1395C51.8475 65.0075 51.8969 64.8788 51.95 64.75C52.0221 64.7489 52.0221 64.7489 52.0956 64.7478C53.2528 64.7289 54.3515 64.7019 55.45 64.3C55.5096 64.2785 55.5692 64.257 55.6307 64.2348C56.6458 63.835 57.401 63.0979 57.8381 62.1013C57.8941 61.9683 57.9479 61.8346 58 61.7Z" fill="#DE7F42"/>
<path d="M52.1969 43.6906C52.6482 44.0409 52.918 44.4831 53 45.05C53.0189 45.0101 53.0378 44.9701 53.0572 44.9289C53.378 44.2888 53.7758 43.7919 54.45 43.5C54.4874 43.4815 54.5249 43.463 54.5635 43.444C55.2352 43.2277 55.996 43.44 56.6113 43.7246C57.1603 44.0102 57.5352 44.3933 57.7469 44.9844C57.8417 45.3543 57.9039 45.9103 57.7156 46.2594C57.5997 46.4004 57.4844 46.5268 57.35 46.65C57.3797 46.6623 57.4094 46.6745 57.44 46.6871C58.2076 47.0333 58.716 47.697 59.0123 48.4713C59.1162 48.8261 59.1661 49.1551 59.1625 49.525C59.1629 49.5645 59.1633 49.604 59.1637 49.6447C59.1608 50.5043 58.7895 51.2538 58.2031 51.8688C57.3294 52.6876 56.2312 53.0343 55.05 53C55.0741 53.0812 55.0741 53.0812 55.0986 53.1641C55.3056 53.9988 55.1654 54.884 54.7875 55.6438C54.3663 56.3335 53.7731 56.7585 53.004 56.9773C52.4596 57.0961 51.7889 57.052 51.3103 56.7668C50.755 56.3906 50.4715 55.9358 50.2687 55.3024C50.2427 55.1601 50.2434 55.0227 50.2437 54.8781C50.2436 54.8225 50.2435 54.7669 50.2433 54.7096C50.2493 54.5668 50.2673 54.4388 50.3 54.3C50.2619 54.3163 50.2238 54.3326 50.1846 54.3494C50.1329 54.3713 50.0813 54.3931 50.0281 54.4156C49.9524 54.4478 49.9524 54.4478 49.8752 54.4807C49.8174 54.5036 49.7596 54.5264 49.7 54.55C49.6508 54.5704 49.6508 54.5704 49.6006 54.5911C49.2797 54.7129 48.9784 54.7252 48.6375 54.7219C48.5821 54.7215 48.5267 54.7211 48.4696 54.7206C47.7045 54.7048 47.1241 54.4645 46.5594 53.9375C46.0387 53.3889 45.9154 52.7942 45.9342 52.0613C45.9498 51.7694 46.0326 51.5165 46.15 51.25C46.1669 51.2088 46.1839 51.1675 46.2014 51.125C46.7801 49.8399 48.1252 49.0728 49.35 48.5C49.383 48.5 49.416 48.5 49.45 48.5C49.45 48.467 49.45 48.434 49.45 48.4C49.417 48.3897 49.384 48.3794 49.35 48.3688C48.6883 48.0655 48.3353 47.4885 48.05 46.85C48.0313 46.809 48.0126 46.768 47.9933 46.7258C47.7922 46.1424 47.8311 45.3787 48.0633 44.8158C48.4008 44.1704 48.9155 43.6714 49.6 43.4C49.6357 43.3851 49.6714 43.3702 49.7082 43.3549C50.5539 43.0636 51.4693 43.1975 52.1969 43.6906Z" fill="#FFF368"/>
<path d="M23.8 46.85C24.2055 46.8786 24.5903 46.9772 24.983 47.076C25.1899 47.128 25.397 47.179 25.6041 47.2299C25.667 47.2453 25.667 47.2453 25.7312 47.2611C26.1236 47.3568 26.5176 47.4436 26.9125 47.5281C27.5323 47.661 28.1484 47.8058 28.7639 47.9573C29.2206 48.0696 29.6781 48.1765 30.1385 48.2727C30.243 48.2954 30.3467 48.3222 30.45 48.35C30.4665 48.383 30.483 48.416 30.5 48.45C30.442 48.4814 30.384 48.5129 30.3242 48.5453C29.4714 49.011 28.6832 49.5319 27.967 50.1924C27.8193 50.3282 27.6674 50.4588 27.515 50.5892C26.0434 52.0059 24.9635 54.1775 24.9002 56.2291C24.8869 57.34 25.313 58.3304 26.0715 59.1252C27.0458 60.1116 28.3436 60.7288 29.65 61.15C29.65 61.1995 29.65 61.249 29.65 61.3C29.6232 61.315 29.5963 61.33 29.5687 61.3455C27.0576 62.7564 24.7414 64.486 22.55 66.35C22.5335 66.317 22.517 66.284 22.5 66.25C22.5611 66.131 22.6252 66.0177 22.6938 65.9031C23.2687 64.9075 23.8359 63.7848 23.7 62.6C23.5835 62.191 23.339 61.9375 22.9781 61.7299C20.9145 60.6951 17.6284 62.0515 15.6334 62.7056C15.3537 62.7986 15.0767 62.8983 14.8 63C14.6854 63.0407 14.5709 63.0813 14.4563 63.1218C14.1993 63.2137 13.9431 63.3075 13.6875 63.4031C13.6562 63.4148 13.625 63.4264 13.5928 63.4384C13.3269 63.5384 13.0634 63.6438 12.8 63.75C12.7443 63.7724 12.6886 63.7949 12.6312 63.818C10.6619 64.6126 8.71525 65.4533 6.79307 66.3563C6.69479 66.4024 6.59646 66.4485 6.49812 66.4945C4.62564 67.3635 4.62564 67.3635 2.78804 68.3027C2.64373 68.3802 2.49876 68.4562 2.35313 68.5312C2.30627 68.5556 2.25941 68.58 2.21113 68.6051C2.17446 68.6199 2.13779 68.6347 2.1 68.65C2.067 68.6335 2.034 68.617 2 68.6C2.05408 68.5659 2.10815 68.5319 2.16387 68.4968C3.24688 67.8145 4.32373 67.123 5.39344 66.42C5.51128 66.3426 5.62915 66.2652 5.74702 66.1878C6.89315 65.4355 8.03593 64.6788 9.16822 63.9058C9.2991 63.8165 9.43012 63.7274 9.56113 63.6383C9.82431 63.4592 10.0872 63.2797 10.35 63.1C10.3855 63.0757 10.4211 63.0514 10.4577 63.0264C11.2413 62.4904 12.0178 61.9443 12.793 61.3963C12.9319 61.298 13.071 61.2 13.2102 61.1021C14.2772 60.3514 15.3319 59.5838 16.3684 58.7912C16.6309 58.5905 16.8945 58.3913 17.1594 58.1937C17.8404 57.6846 18.5065 57.1577 19.1647 56.6195C19.2811 56.5247 19.3983 56.431 19.5156 56.3375C20.1559 55.8261 20.7829 55.3004 21.3896 54.7496C21.4868 54.6619 21.5852 54.576 21.6844 54.4906C22.4072 53.8592 23.1419 53.1943 23.75 52.45C23.7717 52.424 23.7934 52.398 23.8157 52.3712C24.6131 51.4139 25.1777 50.479 25.1 49.2C24.9828 48.3256 24.4395 47.6052 23.8607 46.9713C23.8 46.9 23.8 46.9 23.8 46.85Z" fill="#D96B36"/>
<path d="M66.95 22.9C67.0669 23.0169 67.0699 23.0909 67.0917 23.25C67.3003 24.7738 68.0501 26.4087 69.287 27.3675C70.874 28.5325 72.8685 28.6948 74.7699 28.4204C75.6137 28.2885 76.4362 28.1088 77.25 27.85C77.2814 27.8401 77.3128 27.8302 77.3451 27.82C79.6484 27.0921 81.8623 26.122 83.9576 24.9172C84.1571 24.8025 84.3577 24.6902 84.5596 24.5797C85.279 24.1849 85.9689 23.7577 86.65 23.3C86.7107 23.2595 86.7715 23.219 86.8322 23.1785C86.8711 23.1526 86.9099 23.1267 86.95 23.1C86.983 23.1165 87.016 23.133 87.05 23.15C86.9198 23.2573 86.7896 23.3646 86.6594 23.4719C86.6204 23.504 86.5814 23.5361 86.5412 23.5692C86.3321 23.7415 86.1226 23.9133 85.9125 24.0844C85.605 24.3357 85.3023 24.5925 85 24.85C84.9706 24.875 84.9412 24.9 84.911 24.9257C84.5736 25.2128 84.239 25.5021 83.9109 25.7998C83.8103 25.8907 83.7087 25.98 83.6062 26.0688C83.4106 26.2392 83.2195 26.4145 83.0287 26.5902C82.8651 26.7407 82.7002 26.8896 82.5344 27.0375C82.3638 27.1904 82.2004 27.3479 82.0402 27.5115C81.9532 27.5969 81.8634 27.6759 81.7705 27.7549C81.5204 27.9726 81.287 28.2058 81.0529 28.4405C81.0066 28.4867 80.9603 28.533 80.9125 28.5807C80.8151 28.6781 80.7177 28.7755 80.6205 28.873C80.4968 28.997 80.3729 29.1207 80.249 29.2443C80.1293 29.3637 80.0099 29.4834 79.8904 29.603C79.8245 29.6688 79.8245 29.6688 79.7572 29.7359C79.5377 29.9562 79.3255 30.1797 79.1227 30.4156C79.0369 30.5152 78.9477 30.6109 78.8566 30.7057C78.8076 30.7571 78.8076 30.7571 78.7576 30.8095C78.7242 30.8445 78.6907 30.8795 78.6562 30.9156C78.3929 31.1932 78.1416 31.4733 77.9037 31.7729C77.7895 31.9128 77.6693 32.0454 77.5469 32.1781C77.3585 32.3833 77.1805 32.5929 77.0086 32.8119C76.9286 32.9136 76.848 33.0144 76.7664 33.1147C74.9908 35.3014 73.3578 37.7604 72.6 40.5C72.5698 40.4998 72.5396 40.4995 72.5085 40.4992C71.7028 40.491 71.7028 40.491 70.9 40.55C70.9684 40.3692 71.0499 40.1973 71.1358 40.0241C71.905 38.4568 72.1626 36.6515 71.6406 34.9656C71.4828 34.5231 71.2735 34.0944 71.0349 33.6897C71 33.6 71 33.6 71.0031 33.5065C71.0734 33.3469 71.1856 33.2261 71.3 33.0969C71.3506 33.0385 71.4012 32.98 71.4517 32.9215C71.477 32.8925 71.5022 32.8635 71.5281 32.8336C71.6284 32.717 71.7252 32.5977 71.8219 32.4781C72.0197 32.235 72.2232 31.9972 72.4278 31.7597C72.6173 31.5393 72.8021 31.3155 72.9853 31.0899C73.1614 30.8751 73.3413 30.6638 73.5211 30.4522C73.6482 30.3021 73.7743 30.1513 73.9 30C73.2924 30.2594 72.6889 30.5262 72.0906 30.8063C71.5638 31.0522 71.0356 31.295 70.5052 31.5332C70.4253 31.5691 70.3454 31.6052 70.2656 31.6415C70.1535 31.6924 70.0411 31.7428 69.9287 31.793C69.8956 31.8082 69.8625 31.8233 69.8283 31.839C69.5824 31.9477 69.3372 32.0355 69.0701 31.9664C69.0091 31.9397 69.0091 31.9397 68.9469 31.9125C68.622 31.7832 68.2931 31.7136 67.95 31.65C67.9141 31.6433 67.8782 31.6366 67.8412 31.6297C66.6402 31.4445 65.3356 31.7859 64.2219 32.2158C64.0003 32.3014 63.7759 32.3768 63.55 32.45C63.5493 32.4187 63.5485 32.3874 63.5478 32.3551C63.5104 30.8984 63.3832 29.4509 62.8 28.1C62.7744 28.0405 62.7488 27.981 62.7224 27.9198C62.5348 27.5161 62.3002 27.185 62.0178 26.8432C61.9 26.7 61.9 26.7 61.8 26.55C61.8317 26.5508 61.8634 26.5516 61.896 26.5524C62.7366 26.582 62.7366 26.582 63.55 26.4C63.5988 26.3824 63.6476 26.3648 63.6978 26.3467C64.6005 25.9956 65.3251 25.4249 65.9 24.65C65.959 24.5742 65.959 24.5742 66.0191 24.4969C66.3962 24.0015 66.6727 23.4557 66.95 22.9Z" fill="#D86937"/>
<path d="M43.3 67.9C43.441 68.041 43.4712 68.2106 43.5281 68.3969C43.8612 69.4331 44.3845 70.3795 45.1 71.2C45.1457 71.2566 45.1457 71.2566 45.1924 71.3143C45.3839 71.5449 45.5948 71.7383 45.8281 71.925C45.8537 71.9457 45.8792 71.9665 45.9055 71.9878C45.9326 72.0089 45.9598 72.0299 45.9877 72.0516C46.0165 72.074 46.0454 72.0965 46.0751 72.1196C46.2044 72.2084 46.2044 72.2084 46.3814 72.2732C46.6321 72.3797 46.8867 72.4937 46.9942 72.7591C47.0668 73.0956 47.0525 73.4399 47.0461 73.7823C47.0463 73.8948 47.0468 74.0074 47.0475 74.12C47.0482 74.3563 47.0462 74.5925 47.0423 74.8287C47.0375 75.1275 47.0389 75.4258 47.0422 75.7245C47.0533 76.9612 47.0556 78.0437 46.3812 79.1166C46.2462 79.3385 46.1401 79.5738 46.0313 79.8094C45.9938 79.8872 45.9938 79.8872 45.9557 79.9666C45.2904 81.3572 44.6762 82.7727 44.0522 84.1821C44.0062 84.286 43.9601 84.3899 43.914 84.4938C43.5273 85.3657 43.1518 86.2423 42.7771 87.1195C42.7016 87.2964 42.6258 87.4732 42.55 87.65C42.5335 87.65 42.517 87.65 42.5 87.65C42.5 87.6185 42.4999 87.5871 42.4999 87.5546C42.4969 85.6887 42.4932 83.8228 42.4886 81.9568C42.488 81.7328 42.4874 81.5087 42.4869 81.2847C42.4867 81.2178 42.4867 81.2178 42.4865 81.1495C42.4848 80.4273 42.4835 79.7051 42.4825 78.9829C42.4814 78.2418 42.4797 77.5008 42.4776 76.7597C42.4762 76.3024 42.4754 75.8452 42.475 75.3879C42.4748 75.0743 42.474 74.7608 42.4727 74.4472C42.472 74.2663 42.4716 74.0854 42.4718 73.9045C42.472 73.7082 42.471 73.512 42.4699 73.3157C42.4702 73.2587 42.4704 73.2017 42.4707 73.1429C42.4678 72.8268 42.4381 72.5863 42.3 72.3C42.0296 72.0364 41.7622 72.0314 41.4037 72.0312C39.0973 72.082 36.6313 74.1285 34.7798 75.3789C34.6142 75.4906 34.448 75.6013 34.2816 75.7117C34.025 75.8827 33.7711 76.0572 33.5188 76.2344C33.4761 76.2643 33.4335 76.2942 33.3896 76.325C32.7161 76.7985 32.0515 77.2839 31.3895 77.7733C31.2301 77.891 31.0705 78.0083 30.9105 78.1252C30.4779 78.4418 30.0504 78.7636 29.6284 79.0942C29.3837 79.2857 29.1367 79.4738 28.8875 79.6594C28.5492 79.9117 28.2165 80.1703 27.8857 80.4323C27.7997 80.5003 27.7135 80.568 27.6271 80.6356C27.2932 80.8971 26.9609 81.1607 26.6301 81.4262C26.4515 81.5694 26.272 81.7114 26.0916 81.8522C25.7574 82.113 25.4291 82.3803 25.1024 82.6504C24.8753 82.8383 24.6466 83.024 24.4158 83.2074C24.2389 83.3488 24.0639 83.4925 23.8889 83.6362C23.798 83.7107 23.707 83.785 23.6158 83.8592C23.3389 84.0847 23.065 84.3135 22.7929 84.5448C22.5686 84.7353 22.3411 84.9214 22.1121 85.1063C22.0193 85.1839 21.9335 85.2627 21.85 85.35C21.817 85.3335 21.784 85.317 21.75 85.3C21.7809 85.2703 21.8117 85.2406 21.8436 85.21C22.1108 84.9484 22.3524 84.6816 22.5859 84.3893C22.7029 84.2465 22.825 84.1107 22.95 83.975C23.1518 83.7555 23.342 83.5294 23.5293 83.2975C23.6669 83.1293 23.8081 82.9646 23.95 82.8C24.205 82.504 24.4539 82.2035 24.7 81.9C24.7708 81.8135 24.8416 81.7271 24.9125 81.6406C24.9496 81.5952 24.9868 81.5498 25.025 81.503C25.0908 81.4224 25.1566 81.3419 25.2227 81.2616C25.5596 80.8514 25.8892 80.437 26.2099 80.014C26.3843 79.7845 26.5624 79.5585 26.7438 79.3344C27.0772 78.9213 27.3936 78.4958 27.7105 78.07C27.7927 77.9598 27.8753 77.8498 27.9582 77.7401C29.3639 75.8775 30.6935 73.9477 31.9 71.95C31.9256 71.9077 31.9513 71.8654 31.9777 71.8219C32.0572 71.6907 32.1364 71.5595 32.2156 71.4281C32.241 71.3861 32.2664 71.344 32.2926 71.3006C32.4518 71.0349 32.6024 70.7673 32.7408 70.4901C32.8 70.4 32.8 70.4 32.95 70.35C33.0598 70.4117 33.1595 70.4753 33.2625 70.5469C34.2935 71.2324 35.4957 71.752 36.75 71.8C36.8253 71.8039 36.8253 71.8039 36.9021 71.8078C38.5404 71.8531 40.1333 71.1708 41.35 70.1C41.3914 70.0641 41.4328 70.0282 41.4754 69.9912C42.1867 69.3635 42.7702 68.6848 43.3 67.9Z" fill="#D76937"/>
<path d="M77.25 46.45C77.5718 46.5199 77.8901 46.5957 78.2063 46.6873C80.1277 47.2412 82.1705 47.4587 84.1593 47.6063C84.2103 47.61 84.2612 47.6138 84.3137 47.6177C84.4924 47.63 84.6711 47.6405 84.85 47.65C84.8888 47.6521 84.9276 47.6542 84.9675 47.6563C86.0142 47.7098 87.0618 47.7157 88.1096 47.7266C88.3516 47.7292 88.5937 47.7319 88.8358 47.7347C89.3072 47.74 89.7786 47.7451 90.25 47.75C90.0868 47.8348 89.935 47.8842 89.7558 47.9276C89.6979 47.9417 89.64 47.9559 89.5803 47.9705C89.5187 47.9854 89.4571 48.0003 89.3937 48.0156C88.6383 48.2016 87.8919 48.4011 87.1512 48.6387C86.9315 48.7091 86.7114 48.7764 86.4895 48.8396C84.0157 49.5456 80.6631 50.6569 79.3314 53.0352C79.0793 53.5453 79.0217 54.1469 79.1951 54.6918C79.3965 55.2194 79.7342 55.6282 80.1 56.05C80.0465 56.0613 80.0465 56.0613 79.9919 56.0728C79.2336 56.2338 78.4859 56.4056 77.75 56.65C77.6795 56.6731 77.6795 56.6731 77.6076 56.6966C76.4762 57.071 75.3881 57.5438 74.414 58.2367C74.25 58.35 74.25 58.35 74.1 58.4C74.106 58.3679 74.1121 58.3357 74.1183 58.3026C74.1363 58.2056 74.1538 58.1085 74.171 58.0113C74.1892 57.9098 74.2084 57.8085 74.2289 57.7074C74.4744 56.378 74.2255 55.0113 73.65 53.8C73.6321 53.7625 73.6143 53.7249 73.596 53.6862C73.3466 53.1704 73.046 52.7059 72.7 52.25C72.8145 52.1269 72.9359 52.0378 73.0767 51.9463C73.1432 51.9027 73.1432 51.9027 73.2111 51.8583C73.2579 51.8277 73.3048 51.7971 73.3531 51.7656C73.7165 51.5256 74.0695 51.2845 74.4 51C74.4569 50.9522 74.5139 50.9044 74.5708 50.8567C75.083 50.4254 75.5382 49.9806 75.95 49.45C75.9705 49.4236 75.991 49.3971 76.0121 49.3699C76.6916 48.4849 77.0407 47.5386 77.25 46.45Z" fill="#D76837"/>
<path d="M56.45 67.75C56.6157 67.8052 56.6485 67.8438 56.7562 67.975C57.5775 68.9346 58.6181 69.5603 59.85 69.85C59.7693 70.0396 59.6481 70.1743 59.5125 70.3281C58.929 71.0046 58.4182 71.7401 57.95 72.5C57.9251 72.5404 57.9001 72.5807 57.8745 72.6223C57.411 73.3783 56.9977 74.1577 56.6 74.95C56.5761 74.9972 56.5523 75.0444 56.5278 75.093C55.9432 76.2574 55.4259 77.475 55.0134 78.7113C54.9633 78.8603 54.9101 79.0049 54.85 79.15C54.6192 79.7101 54.4269 80.291 54.2535 80.8711C54.2124 81.0084 54.1704 81.1453 54.1277 81.282C53.4942 83.32 52.9851 85.385 52.5478 87.4731C52.5179 87.6156 52.4875 87.7579 52.4566 87.9002C52.3847 88.2304 52.3187 88.56 52.2656 88.8937C52.2591 88.9335 52.2526 88.9733 52.246 89.0143C52.2305 89.1095 52.2152 89.2047 52.2 89.3C52.1835 89.3 52.167 89.3 52.15 89.3C52.15 83.7725 52.15 78.245 52.15 72.55C52.414 72.418 52.678 72.286 52.95 72.15C53.0885 72.0728 53.2227 71.997 53.3562 71.9125C53.3887 71.892 53.4212 71.8716 53.4547 71.8505C53.815 71.6171 54.1353 71.341 54.45 71.05C54.4915 71.012 54.5331 70.9739 54.5759 70.9348C55.4626 70.0869 56.107 68.9211 56.45 67.75Z" fill="#D46439"/>
<path d="M49.45 40.5C49.45 40.5165 49.45 40.533 49.45 40.55C49.3861 40.5438 49.3221 40.5376 49.2563 40.5313C49.1861 40.5246 49.1861 40.5246 49.1145 40.5178C49.0014 40.5056 48.8886 40.491 48.7762 40.4744C47.4339 40.2836 45.9492 40.272 44.7 40.85C44.653 40.8715 44.606 40.8929 44.5576 40.9151C43.9178 41.2345 43.4098 41.7489 43.1531 42.4219C42.7878 43.8787 43.4205 45.6874 43.8585 47.069C43.897 47.1906 43.935 47.3125 43.9727 47.4344C44.0778 47.7743 44.1857 48.1131 44.3 48.45C44.331 48.4282 44.362 48.4064 44.3939 48.384C44.9058 48.0398 45.4704 47.753 46.1 47.75C45.9492 47.9597 45.7938 48.1599 45.6188 48.35C44.5592 49.5286 43.6492 50.9718 43.4 52.55C43.3835 52.55 43.367 52.55 43.35 52.55C43.112 51.3855 43.2151 50.2125 43.75 49.15C42.779 49.1247 41.8558 49.1523 40.9 49.35C40.8559 49.3591 40.8119 49.3682 40.7665 49.3776C39.4814 49.6548 38.2129 50.2965 37.45 51.4C36.9546 52.1765 36.6278 52.9604 36.8094 53.8906C37.0614 54.9821 37.7386 55.8569 38.5 56.65C38.5455 56.6976 38.591 56.7451 38.6379 56.7942C39.1015 57.2684 39.61 57.6667 40.15 58.05C39.4035 58.2988 38.0085 57.5577 37.3478 57.24C37.1964 57.1636 37.0482 57.0827 36.9 57C36.8477 56.972 36.7955 56.9439 36.7416 56.9151C35.5494 56.2534 34.7233 55.3205 34.3096 54.0233C34.0793 53.0974 34.3085 52.0344 34.6 51.15C34.6102 51.1187 34.6205 51.0874 34.631 51.0552C35.0564 49.777 35.8279 48.6974 37.05 48.0813C37.9771 47.6361 38.8696 47.4715 39.8875 47.4813C39.9291 47.4814 39.9707 47.4816 40.0135 47.4818C40.636 47.485 41.2405 47.5147 41.85 47.65C41.8839 47.6572 41.9179 47.6644 41.9528 47.6718C42.1362 47.711 42.3184 47.7533 42.5 47.8C42.4807 47.7504 42.4613 47.7008 42.4414 47.6496C41.7573 45.8744 41.2809 43.6208 42.0305 41.794C42.1978 41.4215 42.4261 41.101 42.7 40.8C42.7609 40.7321 42.7609 40.7321 42.823 40.6629C44.5745 38.8087 47.491 39.0972 49.45 40.5Z" fill="#E4A346"/>
<path d="M65.7 60.15C65.8875 60.2125 65.9631 60.3085 66.1 60.45C67.197 61.4612 68.6042 62.1909 70.121 62.1637C70.7656 62.1362 71.3332 61.8899 71.9 61.6C71.8963 61.6402 71.8927 61.6805 71.889 61.7219C71.7143 63.9354 72.2423 65.8044 73.25 67.75C73.2727 67.7949 73.2954 67.8398 73.3188 67.8861C74.1516 69.5288 75.3154 71.0259 76.5064 72.4214C76.6439 72.5827 76.7774 72.7466 76.9093 72.9125C77.1419 73.1987 77.3944 73.465 77.6488 73.7318C77.8216 73.913 77.9915 74.0959 78.1578 74.2832C78.3902 74.5419 78.6321 74.7894 78.8783 75.035C78.9222 75.0789 78.9661 75.1229 79.0114 75.1682C79.1034 75.2603 79.1956 75.3524 79.2878 75.4444C79.4281 75.5844 79.5681 75.7247 79.7081 75.865C79.7981 75.955 79.8882 76.045 79.9783 76.135C80.0403 76.1972 80.0403 76.1972 80.1036 76.2606C80.3173 76.4734 80.534 76.6784 80.7644 76.873C80.8918 76.9877 80.9946 77.115 81.1 77.25C80.9616 77.1855 80.8475 77.1147 80.73 77.0174C80.6982 76.9912 80.6664 76.9651 80.6336 76.9381C80.5998 76.9101 80.566 76.882 80.5312 76.8531C80.4588 76.7937 80.3864 76.7344 80.314 76.675C80.2779 76.6454 80.2417 76.6157 80.2044 76.5852C79.9704 76.3944 79.7321 76.209 79.494 76.0234C79.393 75.9446 79.2922 75.8656 79.1914 75.7865C78.675 75.3825 78.1525 74.9871 77.627 74.595C77.4998 74.4999 77.3729 74.4044 77.246 74.3088C76.4606 73.717 75.6641 73.1419 74.8592 72.577C74.7494 72.4996 74.64 72.4218 74.5306 72.3438C72.862 71.1588 71.1265 70.0692 69.3312 69.0875C69.2851 69.0622 69.239 69.0368 69.1915 69.0107C68.9914 68.9014 68.7918 68.7944 68.5851 68.6981C68.1183 68.4772 67.8362 68.1994 67.5219 67.792C67.4027 67.6396 67.2759 67.4937 67.15 67.3469C67.0662 67.2483 66.983 67.1493 66.9 67.05C66.8412 66.9867 66.8412 66.9867 66.7812 66.9221C66.7 66.8 66.7 66.8 66.7064 66.6797C66.7208 66.6369 66.7351 66.5941 66.75 66.55C66.7648 66.499 66.7797 66.4479 66.7951 66.3953C66.8121 66.3391 66.8292 66.2829 66.8468 66.225C67.4279 64.1861 66.7333 62.0686 65.7395 60.277C65.7 60.2 65.7 60.2 65.7 60.15Z" fill="#D56539"/>
<path d="M49.05 62.45C49.083 62.45 49.116 62.45 49.15 62.45C49.1573 62.4869 49.1647 62.5239 49.1722 62.5619C49.3056 63.1653 49.5485 63.6838 50.0746 64.0326C50.1984 64.1078 50.3236 64.1793 50.45 64.25C50.51 64.2882 50.51 64.2882 50.5712 64.3272C50.985 64.5614 51.4845 64.6363 51.95 64.7C51.8718 65.0899 51.7553 65.4634 51.633 65.8414C51.611 65.9098 51.5891 65.9782 51.5672 66.0466C51.5204 66.1926 51.4735 66.3385 51.4265 66.4844C51.3016 66.8724 51.1774 67.2606 51.0533 67.6488C51.0406 67.6884 51.028 67.7279 51.0149 67.7686C50.6519 68.9038 50.2989 70.0421 49.946 71.1805C49.8312 71.5504 49.715 71.9198 49.598 72.2889C49.4875 72.638 49.3816 72.9883 49.2773 73.3393C49.1921 73.6225 49.0971 73.9003 48.9946 74.1777C48.9426 74.3203 48.8966 74.464 48.8531 74.6094C48.7801 74.8503 48.7064 75.091 48.6312 75.3313C48.6156 75.3812 48.6156 75.3812 48.5997 75.4321C48.4799 75.8148 48.3589 76.1972 48.238 76.5795C48.2008 76.6973 48.1637 76.815 48.1265 76.9328C47.9932 77.3554 47.8594 77.7778 47.725 78.2C47.4971 78.9158 47.2692 79.6315 47.05 80.35C47.0335 80.35 47.017 80.35 47 80.35C46.9388 77.6812 46.9307 75.0125 46.9317 72.3431C46.9318 72.1888 46.9318 72.0346 46.9318 71.8803C46.9318 71.842 46.9319 71.8037 46.9319 71.7643C46.9319 71.1377 46.9295 70.5112 46.9262 69.8846C46.9228 69.2356 46.9219 68.5866 46.9233 67.9376C46.9241 67.5399 46.923 67.1424 46.9195 66.7447C46.917 66.4415 46.918 66.1384 46.9202 65.8351C46.9206 65.7113 46.9199 65.5874 46.9179 65.4635C46.9036 64.4805 46.9036 64.4805 47.1416 64.2084C47.2972 64.0633 47.4675 63.9585 47.65 63.85C47.7307 63.7831 47.8103 63.7147 47.8875 63.6438C47.9263 63.6085 47.9652 63.5733 48.0052 63.5369C48.2076 63.3454 48.4056 63.1497 48.6031 62.9531C48.6413 62.9152 48.6794 62.8773 48.7188 62.8382C48.7544 62.8024 48.79 62.7667 48.8267 62.7299C48.8589 62.6977 48.891 62.6654 48.9242 62.6323C49.0042 62.553 49.0042 62.553 49.05 62.45Z" fill="#FEF369"/>
<path d="M73.85 29.95C73.883 29.9665 73.916 29.983 73.95 30C73.9227 30.0297 73.8954 30.0594 73.8673 30.0901C73.6262 30.3551 73.3946 30.6256 73.1691 30.9041C73.0396 31.0627 72.9076 31.219 72.775 31.375C72.6072 31.5723 72.4413 31.7708 72.2781 31.9719C72.1053 32.1842 71.9286 32.3927 71.75 32.6C71.495 32.8961 71.246 33.1964 71 33.5C70.738 33.8224 70.4731 34.1418 70.2042 34.4583C70.0602 34.628 69.9184 34.7991 69.7781 34.9719C69.5802 35.215 69.3767 35.4529 69.1721 35.6903C68.9824 35.911 68.7973 36.1352 68.6138 36.3611C68.4627 36.5454 68.3084 36.7268 68.1541 36.9083C68.0102 37.078 67.8683 37.2492 67.7281 37.4219C67.5553 37.6342 67.3786 37.8427 67.2 38.05C66.945 38.3461 66.696 38.6464 66.45 38.95C66.2045 39.2521 65.9572 39.5525 65.7062 39.85C65.683 39.8776 65.6597 39.9052 65.6358 39.9337C65.3955 40.2177 65.3955 40.2177 65.3 40.3C65.267 40.3 65.234 40.3 65.2 40.3C65.1884 40.2724 65.1769 40.2448 65.165 40.2163C64.6982 39.1029 64.2128 38.0098 63.4 37.1C63.3695 37.0648 63.339 37.0296 63.3076 36.9934C62.7312 36.3693 61.9499 36.0012 61.1062 35.9594C60.9707 35.9545 60.8355 35.9517 60.7 35.95C60.851 35.8277 61.0011 35.7478 61.1787 35.6695C61.2349 35.6446 61.2912 35.6196 61.3492 35.5939C61.3943 35.574 61.3943 35.574 61.4403 35.5538C61.6038 35.482 61.767 35.4093 61.9302 35.3367C61.9645 35.3215 61.9988 35.3063 62.0341 35.2907C62.3808 35.1367 62.7261 34.9797 63.0712 34.8223C63.6806 34.5444 64.2909 34.2691 64.9023 33.9957C65.3606 33.7906 65.8179 33.5831 66.275 33.375C66.842 33.1168 67.4097 32.8604 67.9785 32.6059C68.3264 32.4502 68.6743 32.2942 69.0218 32.1375C69.0629 32.119 69.104 32.1005 69.1464 32.0814C69.188 32.0626 69.2296 32.0439 69.2725 32.0245C69.3577 31.9862 69.4429 31.9478 69.5281 31.9094C69.5702 31.8904 69.6123 31.8714 69.6557 31.8519C70.1205 31.6425 70.5855 31.4338 71.0515 31.227C71.1121 31.2001 71.1121 31.2001 71.174 31.1726C71.3645 31.0881 71.555 31.0037 71.7457 30.9195C72.2789 30.6836 72.8088 30.4412 73.3337 30.1875C73.3647 30.1726 73.3957 30.1577 73.4276 30.1424C73.4889 30.1129 73.5501 30.083 73.6112 30.0529C73.6894 30.0156 73.7696 29.9824 73.85 29.95Z" fill="#FEF368"/>
<path d="M66 41.9C66.8022 42.272 67.3434 42.9852 67.65 43.8C67.9025 44.5416 67.7789 45.4642 67.5244 46.1856C67.4945 46.326 67.5066 46.4134 67.55 46.55C67.6149 46.6386 67.6149 46.6386 67.7 46.7188C68.1372 47.1973 68.4222 47.7808 68.6 48.4C68.6122 48.4426 68.6245 48.4852 68.6371 48.5291C68.8676 49.5315 68.6965 50.6941 68.2035 51.5926C67.8899 52.0696 67.5066 52.4296 67 52.7C66.9456 52.7298 66.9456 52.7298 66.89 52.7602C66.3327 53.0363 65.7143 53.0743 65.1031 53.0656C65.0702 53.0654 65.0373 53.0651 65.0035 53.0648C64.1588 53.057 63.163 53.0062 62.4 52.6C62.4 52.633 62.4 52.666 62.4 52.7C62.433 52.7 62.466 52.7 62.5 52.7C62.5894 52.8064 62.6718 52.9126 62.7531 53.025C62.7897 53.0754 62.7897 53.0754 62.8271 53.1268C63.5479 54.139 64.1069 55.3298 63.95 56.6C63.8616 57.0388 63.6498 57.433 63.4 57.8C63.3701 57.8454 63.3402 57.8908 63.3094 57.9375C62.8641 58.3955 62.3303 58.5518 61.708 58.5672C60.2929 58.5816 59.0069 58.1259 57.75 57.5C57.75 57.4835 57.75 57.467 57.75 57.45C57.8117 57.4552 57.8117 57.4552 57.8747 57.4605C60.1187 57.6589 60.1187 57.6589 62.1344 56.8375C62.5138 56.4485 62.6228 56.1283 62.6281 55.5906C62.6077 54.424 62.0486 53.4002 61.401 52.4553C61.3 52.3 61.3 52.3 61.3 52.2C61.267 52.2 61.234 52.2 61.2 52.2C61.188 52.2291 61.176 52.2582 61.1637 52.2881C60.8091 52.9113 59.8544 53.2455 59.2 53.45C59.0671 53.4859 58.934 53.5183 58.8 53.55C58.8181 53.526 58.8362 53.5019 58.8549 53.4771C60.4959 51.3633 60.4959 51.3633 61.2813 48.8531C61.285 48.8053 61.2887 48.7574 61.2926 48.708C61.295 48.6724 61.2975 48.6367 61.3 48.6C61.7464 49.1568 61.9183 50.0455 61.85 50.75C61.7784 51.2933 61.7784 51.2933 61.7 51.45C61.7325 51.4528 61.765 51.4556 61.7984 51.4584C61.9479 51.4712 62.0974 51.484 62.2469 51.4969C62.3235 51.5034 62.3235 51.5034 62.4017 51.5101C62.6227 51.5291 62.8429 51.5487 63.0629 51.5774C63.406 51.6162 63.7519 51.6144 64.0969 51.6156C64.1335 51.6158 64.1701 51.6159 64.2079 51.6161C64.9967 51.6168 65.9523 51.5752 66.5621 51.0073C67.0706 50.3869 67.0111 49.2961 66.95 48.55C66.8818 48.1507 66.7144 47.7915 66.5 47.45C66.5 47.417 66.5 47.384 66.5 47.35C66.467 47.35 66.434 47.35 66.4 47.35C66.394 47.3867 66.388 47.4234 66.3818 47.4612C66.2528 48.0239 65.7507 48.4191 65.35 48.8C65.317 48.7835 65.284 48.767 65.25 48.75C65.2663 48.693 65.2826 48.6361 65.2994 48.5774C65.526 47.7662 65.6618 46.9847 65.6656 46.1406C65.666 46.0627 65.666 46.0627 65.6665 45.9832C65.6635 45.6743 65.6279 45.399 65.55 45.1C65.7475 45.2055 65.8713 45.3181 66.0094 45.4938C66.0431 45.5359 66.0768 45.5781 66.1115 45.6215C66.1966 45.7451 66.2507 45.8588 66.3 46C66.333 46 66.366 46 66.4 46C66.4518 45.8339 66.5011 45.6671 66.55 45.5C66.5643 45.4543 66.5786 45.4085 66.5934 45.3614C66.9019 44.2887 66.5844 43.1466 66.0889 42.178C66 42 66 42 66 41.9Z" fill="#E19444"/>
<path d="M29.55 41.85C29.7529 41.9176 29.8046 42.0484 29.9062 42.225C29.9257 42.2582 29.9451 42.2914 29.9651 42.3256C30.905 43.946 30.905 43.946 30.8 44.8C30.672 45.2428 30.3879 45.5058 30.0037 45.7386C28.5816 46.504 26.8708 46.5619 25.2914 46.5826C25.1172 46.5849 24.9432 46.5883 24.7692 46.5942C23.484 46.6369 23.484 46.6369 23.1384 46.3686C23.0159 46.2529 22.9091 46.1285 22.8 46C22.7169 45.9334 22.6317 45.8695 22.5441 45.809C22.505 45.7815 22.4658 45.754 22.4255 45.7256C22.3665 45.6851 22.3665 45.6851 22.3062 45.6437C22.2633 45.6141 22.2204 45.5844 22.1762 45.5538C21.8098 45.3026 21.4372 45.0677 21.05 44.85C21.0105 44.8277 20.9709 44.8055 20.9302 44.7825C19.1364 43.7777 17.2805 42.9972 15.35 42.3C15.35 42.2835 15.35 42.267 15.35 42.25C15.7448 42.2863 16.1381 42.3345 16.5314 42.384C16.6459 42.3984 16.7604 42.4127 16.875 42.427C17.2004 42.4676 17.5257 42.5082 17.8511 42.5491C20.1237 42.8351 22.3928 43.0596 24.6856 43.0592C24.8205 43.0592 24.9555 43.0596 25.0904 43.0603C26.5304 43.0674 28.1891 43.0559 29.3543 42.0609C29.4223 41.9933 29.4867 41.922 29.55 41.85Z" fill="#D4643A"/>
<path d="M58.1 58.6C58.1978 58.721 58.2943 58.8421 58.3859 58.9679C58.9542 59.7306 59.8124 60.1654 60.7351 60.3299C60.874 60.3468 60.9985 60.3474 61.1375 60.3437C61.3323 60.362 61.4221 60.4588 61.5488 60.6026C61.6451 60.7194 61.7378 60.8387 61.8296 60.9591C61.94 61.1017 62.0576 61.238 62.175 61.375C62.2207 61.429 62.2664 61.483 62.3121 61.5371C62.4049 61.6468 62.4979 61.7564 62.591 61.866C62.8025 62.1151 63.0129 62.3648 63.2187 62.6187C63.4271 62.8749 63.6431 63.1238 63.8601 63.3726C64.0552 63.5968 64.2442 63.8252 64.4312 64.0562C64.5762 64.2317 64.7254 64.4034 64.875 64.575C65.0988 64.8316 65.317 65.0916 65.5312 65.3562C65.6762 65.5317 65.8254 65.7034 65.975 65.875C66.1988 66.1316 66.417 66.3916 66.6312 66.6562C66.7762 66.8317 66.9254 67.0034 67.075 67.175C67.3775 67.522 67.6743 67.8729 67.956 68.2371C68.04 68.3534 68.04 68.3534 68.15 68.4C68.1715 68.4364 68.1929 68.4728 68.215 68.5103C68.3462 68.7259 68.5231 68.896 68.6959 69.0787C68.8 69.2 68.8 69.2 68.8 69.3C68.6537 69.2308 68.5238 69.1514 68.3916 69.0582C68.3514 69.03 68.3113 69.0018 68.2699 68.9727C68.2272 68.9425 68.1846 68.9123 68.1406 68.8812C68.0966 68.8503 68.0526 68.8193 68.0072 68.7874C67.7884 68.6335 67.5701 68.4789 67.3521 68.3238C67.3138 68.2966 67.2754 68.2693 67.2359 68.2413C67.1635 68.1898 67.0912 68.1383 67.0191 68.0866C66.9865 68.0634 66.9539 68.0403 66.9203 68.0164C66.8921 67.9962 66.8639 67.9761 66.8349 67.9553C66.7496 67.897 66.7496 67.897 66.6487 67.8521C66.5437 67.7967 66.4816 67.7353 66.4 67.65C66.3441 67.6071 66.2871 67.5655 66.2293 67.5252C66.1958 67.5017 66.1623 67.4782 66.1278 67.454C66.0738 67.4164 66.0738 67.4164 66.0187 67.3781C65.9415 67.324 65.8643 67.2699 65.7871 67.2158C65.7476 67.1882 65.7082 67.1606 65.6675 67.1322C65.4863 67.0054 65.3056 66.8777 65.125 66.75C65.0542 66.7 64.9833 66.65 64.9125 66.6C64.4875 66.3 64.0625 66 63.6375 65.7C63.6024 65.6752 63.5674 65.6505 63.5313 65.625C63.4604 65.575 63.3895 65.5249 63.3186 65.4749C63.1423 65.3503 62.9658 65.2259 62.7892 65.1017C62.4264 64.8464 62.0652 64.589 61.7062 64.3281C61.3992 64.1052 61.0889 63.8881 60.775 63.675C60.4231 63.436 60.0764 63.1909 59.7323 62.9409C59.1765 62.537 58.6134 62.1431 58.05 61.75C58.0745 61.505 58.1057 61.2654 58.1512 61.0234C58.2053 60.7014 58.2152 60.3884 58.2125 60.0625C58.2123 60.0062 58.2121 59.9499 58.2119 59.8919C58.2074 59.4549 58.1729 59.0309 58.1 58.6Z" fill="#FEF368"/>
<path d="M37.5599 38.0538C37.6614 38.108 37.6614 38.108 37.822 38.1647C38.0003 38.2423 38.0874 38.2901 38.2 38.45C38.2771 38.8111 38.235 39.1859 38.2 39.55C38.1931 39.6394 38.1931 39.6394 38.1861 39.7307C38.1361 40.1458 37.9938 40.6332 37.7107 40.9498C37.4448 41.1426 37.1654 41.1298 36.85 41.1C36.8046 41.097 36.7592 41.0939 36.7125 41.0908C35.6808 40.9797 34.6789 40.4824 33.75 40.05C33.6978 40.0257 33.6456 40.0015 33.5919 39.9765C32.8336 39.6219 32.0891 39.2428 31.35 38.85C32.9708 36.9236 35.472 36.9016 37.5599 38.0538Z" fill="#E39D45"/>
<path d="M69.25 52.6C69.2995 52.6247 69.2995 52.6247 69.35 52.65C69.6486 53.8336 69.5208 55.1483 68.9096 56.2034C68.1778 57.3879 66.976 58.1638 65.6404 58.5C65.233 58.5919 64.8157 58.6209 64.4 58.65C64.4204 58.595 64.4409 58.54 64.4621 58.4834C64.8114 57.5325 65.0235 56.4165 64.6044 55.4443C64.4949 55.2081 64.3743 54.9786 64.25 54.75C64.2335 54.717 64.217 54.684 64.2 54.65C64.2773 54.6619 64.2773 54.6619 64.3562 54.674C65.1751 54.7753 66.0687 54.786 66.85 54.5C66.9083 54.4794 66.9667 54.4587 67.0269 54.4375C67.9035 54.0954 68.8207 53.4586 69.25 52.6Z" fill="#E7B748"/>
<path d="M69.75 42.15C70.1845 42.3404 70.5164 42.563 70.85 42.9C70.896 42.9435 70.896 42.9435 70.9429 42.9879C71.8661 43.9323 72.0786 45.4771 72.0709 46.7347C72.0395 47.9312 71.4335 48.8935 70.6437 49.75C70.6156 49.7806 70.5876 49.8111 70.5586 49.8426C70.357 50.0553 70.1391 50.231 69.9 50.4C69.8967 50.3676 69.8935 50.3352 69.8901 50.3018C69.7354 48.8013 69.2928 47.7526 68.2 46.7C68.3385 46.5538 68.4801 46.4407 68.6468 46.3281C69.3843 45.796 69.9196 45.1542 70.1343 44.2563C70.2016 43.5836 70.0781 42.9814 69.7994 42.3664C69.75 42.25 69.75 42.25 69.75 42.15Z" fill="#E8BC48"/>
<path d="M58 61.7C58.3573 61.9235 58.7069 62.1552 59.05 62.4C58.741 63.1022 58.2098 63.6867 57.7 64.25C57.6663 64.288 57.6326 64.3259 57.5978 64.3651C56.697 65.3255 55.4041 65.9559 54.1 66.1C54.0334 66.1082 54.0334 66.1082 53.9654 66.1166C53.1461 66.2021 52.3572 66.1534 51.55 66C51.5883 65.8666 51.6269 65.7333 51.6656 65.6C51.6763 65.5628 51.6869 65.5256 51.6979 65.4873C51.771 65.2366 51.8556 64.9936 51.95 64.75C52.022 64.7489 52.022 64.7489 52.0956 64.7478C53.2528 64.7289 54.3515 64.7019 55.45 64.3C55.5096 64.2785 55.5692 64.257 55.6307 64.2348C56.6458 63.835 57.401 63.0979 57.838 62.1013C57.8941 61.9683 57.9478 61.8346 58 61.7Z" fill="#E4A346"/>
<path d="M46.95 64.5C46.9648 64.7642 46.9757 65.0281 46.9829 65.2925C46.9859 65.3823 46.99 65.4721 46.9952 65.5618C47.0288 66.1558 47.0288 66.1558 46.95 66.4C46.7752 66.5892 46.591 66.6679 46.35 66.75C46.2852 66.7784 46.2205 66.8068 46.1558 66.8354C45.1253 67.1867 44.1341 67.2279 43.1323 66.7606C42.6575 66.5271 42.287 66.2583 41.95 65.85C42.0259 65.8512 42.0259 65.8512 42.1033 65.8524C42.2948 65.8551 42.4863 65.8568 42.6778 65.8582C42.76 65.859 42.8422 65.86 42.9243 65.8613C43.6619 65.8728 44.3287 65.7928 45.0218 65.5188C45.0661 65.5015 45.1103 65.4843 45.1559 65.4666C45.7323 65.2355 46.2616 64.9325 46.7589 64.5607C46.85 64.5 46.85 64.5 46.95 64.5Z" fill="#E19144"/>
<path d="M30 42.45C30.5347 43.1042 30.8838 43.9566 30.8 44.8C30.7488 44.9473 30.7488 44.9473 30.7 45.05C30.1635 44.383 29.985 43.2858 30 42.45Z" fill="#E19444"/>
<path d="M2.95 68C2.983 68.0165 3.016 68.033 3.05 68.05C3.05 68.083 3.05 68.116 3.05 68.15C2.89409 68.235 2.73772 68.3192 2.58125 68.4031C2.51454 68.4395 2.51454 68.4395 2.44648 68.4767C2.40395 68.4994 2.36141 68.5221 2.31758 68.5455C2.2783 68.5667 2.23903 68.5879 2.19856 68.6098C2.14977 68.6297 2.14977 68.6297 2.1 68.65C2.067 68.6335 2.034 68.617 2 68.6C2.15584 68.4983 2.31223 68.3975 2.46875 68.2969C2.51322 68.2678 2.5577 68.2388 2.60352 68.2089C2.64605 68.1817 2.68859 68.1544 2.73242 68.1264C2.7717 68.101 2.81097 68.0756 2.85144 68.0494C2.88397 68.0331 2.91649 68.0168 2.95 68Z" fill="#E58949"/>
<path d="M86.95 23.1C86.983 23.1165 87.016 23.133 87.05 23.15C86.8025 23.348 86.555 23.546 86.3 23.75C86.2835 23.717 86.267 23.684 86.25 23.65C86.457 23.4229 86.6912 23.2641 86.95 23.1Z" fill="#E68F52"/>
<path d="M48 6C48.129 6.12898 48.1668 6.25465 48.2313 6.425C48.2647 6.5124 48.2647 6.5124 48.2988 6.60156C48.35 6.75 48.35 6.75 48.35 6.85C48.3005 6.8665 48.251 6.883 48.2 6.9C48.1664 6.77818 48.1331 6.65631 48.1 6.53437C48.0857 6.4826 48.0857 6.4826 48.0711 6.42979C48.0311 6.28211 48 6.15372 48 6Z" fill="#E99962"/>
<path d="M80.65 76.8C80.7064 76.8466 80.7626 76.8936 80.8187 76.9406C80.85 76.9667 80.8814 76.9928 80.9136 77.0197C81 77.1 81 77.1 81.1 77.25C80.9029 77.1666 80.7605 77.0386 80.6 76.9C80.6165 76.867 80.633 76.834 80.65 76.8Z" fill="#E5894A"/>
<path d="M15.35 42.25C15.515 42.2665 15.68 42.283 15.85 42.3C15.85 42.3495 15.85 42.399 15.85 42.45C15.685 42.4005 15.52 42.351 15.35 42.3C15.35 42.2835 15.35 42.267 15.35 42.25Z" fill="#E48D58"/>
</svg>
