<svg width="100" height="100" viewBox="0 0 100 100" fill="none" xmlns="http://www.w3.org/2000/svg">
<path d="M77.3156 31C77.3941 31.0662 77.4722 31.1329 77.55 31.2C77.5867 31.2295 77.6235 31.2591 77.6613 31.2895C77.964 31.5408 78.1945 31.8344 78.4308 32.1463C78.4702 32.197 78.5095 32.2478 78.55 32.3C78.5734 32.333 78.5969 32.366 78.6211 32.4C78.7051 32.465 78.7051 32.465 78.8449 32.4318C78.9023 32.4162 78.9596 32.4005 79.0187 32.3844C79.9057 32.174 80.76 32.3667 81.55 32.8C81.7331 32.919 81.8923 33.0492 82.05 33.2C82.0847 33.2321 82.1193 33.2642 82.1551 33.2973C82.377 33.5226 82.5263 33.7704 82.6687 34.05C82.6854 34.0826 82.7021 34.1152 82.7193 34.1488C82.9319 34.5881 82.9671 35.0103 82.9656 35.4938C82.9664 35.5444 82.9672 35.595 82.968 35.6471C82.9684 36.1439 82.8562 36.5743 82.6312 37.0156C82.603 37.0722 82.5748 37.1287 82.5457 37.1869C82.4437 37.3607 82.3328 37.4992 82.2 37.65C82.2642 37.6501 82.3284 37.6503 82.3945 37.6504C83.3688 37.6661 84.2062 37.9178 85.05 38.4C85.0835 38.4191 85.117 38.4382 85.1515 38.4579C85.6444 38.7429 86.0769 39.0701 86.5 39.45C86.5424 39.4869 86.5848 39.5239 86.6285 39.5619C87.1212 39.9952 87.5914 40.4543 87.9976 40.9703C88.0639 41.0542 88.132 41.1367 88.2023 41.2172C88.8515 41.9721 89.0112 42.7275 88.95 43.7C88.7488 45.002 87.6481 46.0706 86.75 46.95C86.6999 47 86.6499 47.0499 86.6 47.1C86.567 47.133 86.534 47.166 86.5 47.2C86.5498 47.2153 86.5498 47.2153 86.6006 47.2309C86.8066 47.3262 86.9666 47.4619 87.1406 47.6063C87.1763 47.6357 87.2119 47.6652 87.2487 47.6955C87.7983 48.1532 88.3792 48.7096 88.5 49.45C88.561 50.1976 88.3624 50.7166 87.8886 51.2934C87.6691 51.5485 87.4022 51.8489 87.1 52C87.1801 52.1891 87.301 52.3199 87.4375 52.4719C88.7311 53.971 89.693 56.0346 89.55 58.05C89.4543 58.8053 89.0417 59.4386 88.55 60C88.5094 60.0472 88.4689 60.0944 88.4271 60.143C87.1169 61.6393 85.3733 62.4111 83.5 62.95C83.53 62.966 83.5601 62.9821 83.5911 62.9986C84.2202 63.3346 84.8423 63.6797 85.4567 64.0418C85.7845 64.2344 86.1153 64.4197 86.45 64.6C86.838 64.8091 87.2201 65.0264 87.6 65.25C88.0278 65.5018 88.4595 65.7442 88.8962 65.9802C89.2945 66.1958 89.6877 66.4198 90.0804 66.6455C90.4193 66.8402 90.7598 67.0317 91.1005 67.2231C91.234 67.2982 91.367 67.3741 91.5 67.45C91.5478 67.4766 91.5956 67.5032 91.6448 67.5305C91.6907 67.5567 91.7365 67.5828 91.7838 67.6098C91.8253 67.6331 91.8668 67.6565 91.9096 67.6805C91.9394 67.7034 91.9693 67.7264 92 67.75C92 67.7995 92 67.849 92 67.9C91.7547 67.8716 91.5545 67.7931 91.3349 67.6856C91.2999 67.6688 91.2649 67.6521 91.2288 67.6348C91.1533 67.5987 91.0779 67.5624 91.0026 67.5259C90.7996 67.4278 90.5959 67.3308 90.3924 67.2338C90.3301 67.2041 90.3301 67.2041 90.2665 67.1737C89.8738 66.9866 89.4779 66.8067 89.0812 66.6281C88.4434 66.3406 87.8105 66.0433 87.1788 65.7423C86.5939 65.4637 86.0061 65.1925 85.4152 64.9267C84.7902 64.6452 84.1732 64.3481 83.5585 64.0448C83.0945 63.8164 82.6255 63.6034 82.15 63.4C82.1771 63.4222 82.2042 63.4445 82.2321 63.4674C82.8167 63.9517 83.1727 64.5495 83.3 65.3C83.353 65.8658 83.2146 66.283 82.9 66.75C82.8711 66.7944 82.8422 66.8387 82.8125 66.8844C82.63 67.0719 82.4206 67.2108 82.2 67.35C82.1667 67.3721 82.1333 67.3941 82.099 67.4168C81.7208 67.6272 81.2684 67.5663 80.85 67.55C80.882 67.5907 80.914 67.6314 80.947 67.6733C81.6928 68.6488 81.9713 69.7848 81.8386 71.0044C81.6853 72.1067 81.152 73.0137 80.3072 73.7209C79.2744 74.4828 78.0426 74.6991 76.7851 74.5248C76.2664 74.424 75.8035 74.2147 75.35 73.95C75.3468 74.0014 75.3437 74.0528 75.3404 74.1057C75.2922 74.7042 75.1249 75.0962 74.6844 75.5219C74.2756 75.8564 73.8509 75.9711 73.3225 75.9198C73.0087 75.8691 72.7029 75.7706 72.4004 75.6746C71.5196 75.401 70.7496 75.7007 69.9166 76.0091C68.8042 76.4132 67.5691 76.3565 66.4912 75.8697C65.5638 75.4118 64.8895 74.7746 64.5 73.8C64.4846 73.7628 64.4692 73.7255 64.4533 73.6871C64.1749 72.9866 64.1655 71.9327 64.4402 71.2287C64.4599 71.1863 64.4797 71.1438 64.5 71.1C64.5187 71.056 64.5374 71.012 64.5566 70.9666C64.6961 70.6613 64.885 70.4065 65.1 70.15C65.0587 70.1088 65.0175 70.0675 64.975 70.025C64.8096 69.8328 64.6977 69.622 64.5844 69.3969C64.5669 69.3627 64.5494 69.3284 64.5314 69.2932C64.2381 68.695 64.2561 67.8723 64.4531 67.2438C64.775 66.4177 65.3108 65.8812 66.1 65.5C67.2856 65.0225 68.5041 65.2213 69.65 65.7C69.6335 65.667 69.617 65.634 69.6 65.6C69.5488 64.8349 69.6732 64.3424 70.1812 63.7563C70.4505 63.4671 70.7999 63.2137 71.207 63.1951C71.2418 63.1957 71.2766 63.1963 71.3125 63.1969C71.4053 63.1984 71.4053 63.1984 71.5 63.2C71.3875 62.9957 71.2745 62.7919 71.1566 62.5906C70.8299 62.0313 70.5484 61.4668 70.3375 60.8531C70.3258 60.8198 70.3141 60.7865 70.302 60.7522C70.0915 60.1122 70.0267 59.4781 70.0359 58.8085C70.0375 58.6921 70.038 58.5758 70.0383 58.4594C70.0387 58.3843 70.0392 58.3091 70.0398 58.234C70.0401 58.1827 70.0401 58.1827 70.0405 58.1303C70.0434 57.9323 70.0624 57.7444 70.1 57.55C70.0646 57.53 70.0293 57.5099 69.9929 57.4893C68.3445 56.5533 66.7219 55.5852 65.1437 54.5344C65.1021 54.5067 65.0604 54.479 65.0175 54.4504C64.3661 54.0167 63.7232 53.5737 63.1 53.1C63.1165 53.0505 63.133 53.001 63.15 52.95C63.4752 53.0078 63.7822 53.124 64.0937 53.2313C64.1283 53.2432 64.163 53.2551 64.1986 53.2673C65.6412 53.7652 67.0569 54.3274 68.45 54.95C68.5147 54.9788 68.5795 55.0077 68.6443 55.0365C69.2357 55.2996 69.8265 55.5638 70.4119 55.8402C70.5258 55.8895 70.6288 55.9253 70.75 55.95C70.7625 55.915 70.7751 55.8799 70.7881 55.8438C71.2329 54.8111 72.2442 54.0714 73.25 53.65C74.197 53.2937 75.4186 53.3177 76.3455 53.7206C76.6659 53.8675 76.9664 54.0402 77.25 54.25C77.2252 54.1912 77.2005 54.1325 77.175 54.0719C77.0278 53.6255 77.0242 53.0958 77.2275 52.667C77.4881 52.2463 77.8742 51.8408 78.3705 51.7209C78.4812 51.7063 78.4812 51.7063 78.65 51.7C78.65 51.667 78.65 51.634 78.65 51.6C78.6086 51.588 78.5672 51.576 78.5246 51.5637C78.3202 51.4892 78.1429 51.3919 77.9562 51.2813C77.9193 51.2594 77.8823 51.2375 77.8443 51.2149C77.2058 50.8289 76.6361 50.3671 76.1 49.85C76.0558 49.809 76.0115 49.7679 75.966 49.7256C75.4309 49.2157 75.01 48.6288 74.974 47.8737C74.9584 47.024 75.3381 46.4318 75.8906 45.8188C75.9146 45.7921 75.9386 45.7654 75.9634 45.7379C76.0234 45.6732 76.0865 45.6113 76.15 45.55C76.183 45.55 76.216 45.55 76.25 45.55C76.25 45.517 76.25 45.484 76.25 45.45C76.3194 45.386 76.3194 45.386 76.4162 45.3143C76.4512 45.2882 76.4861 45.2621 76.5221 45.2353C76.5592 45.2082 76.5962 45.1811 76.6344 45.1531C76.6704 45.1262 76.7065 45.0993 76.7436 45.0716C76.9241 44.9379 77.1042 44.8108 77.3 44.7C77.2698 44.6953 77.2396 44.6905 77.2085 44.6856C76.3294 44.5444 75.4733 44.3814 74.8752 43.6611C74.7469 43.4716 74.6714 43.2662 74.6 43.05C74.5835 43.0005 74.567 42.951 74.55 42.9C74.5423 42.4416 74.584 42.0824 74.85 41.7C74.7842 41.7018 74.7184 41.7035 74.6506 41.7053C73.8034 41.7213 73.0057 41.5952 72.35 41C72.2635 40.8852 72.2635 40.8852 72.1906 40.7625C72.1662 40.7226 72.1417 40.6826 72.1166 40.6414C71.9502 40.2881 71.9335 39.9528 71.9375 39.5688C71.938 39.5198 71.9384 39.4709 71.9389 39.4205C71.9547 38.4678 72.1953 37.5518 72.6484 36.7089C72.7416 36.5122 72.7488 36.4164 72.7 36.2C72.5149 35.9809 72.28 35.8215 72.05 35.6531C71.3952 35.1672 70.8918 34.4656 70.75 33.65C70.6593 32.7714 70.8061 31.9707 71.3588 31.2602C71.4684 31.1352 71.5815 31.0167 71.7 30.9C71.7318 30.8682 71.7637 30.8365 71.7965 30.8037C73.3087 29.3887 75.8056 29.8102 77.3156 31Z" fill="#FEC748"/>
<path d="M36.65 10.8C36.7439 10.814 36.7439 10.814 36.85 10.85C36.9053 10.9263 36.9053 10.9263 36.9487 11.0265C36.9739 11.0833 36.9739 11.0833 36.9996 11.1413C37.0173 11.1831 37.0349 11.2249 37.0531 11.268C37.0723 11.3117 37.0915 11.3554 37.1113 11.4005C37.1749 11.5459 37.2374 11.6917 37.3 11.8375C37.3445 11.9395 37.389 12.0415 37.4336 12.1434C37.5264 12.3559 37.619 12.5686 37.7113 12.7813C37.9046 13.2263 38.1023 13.6695 38.2999 14.1126C38.4039 14.3459 38.5075 14.5793 38.6112 14.8127C38.7655 15.16 38.9201 15.5073 39.0748 15.8545C39.6628 17.1739 39.6628 17.1739 39.925 17.7812C39.9434 17.8236 39.9619 17.866 39.9808 17.9097C40.1 18.188 40.1 18.188 40.1 18.3C40.164 18.2838 40.2279 18.2676 40.2938 18.251C40.5478 18.1949 40.7905 18.1827 41.05 18.1844C41.0957 18.1846 41.1413 18.1849 41.1883 18.1851C42.2732 18.2035 43.1998 18.581 44.1599 19.0581C44.241 19.1035 44.241 19.1035 44.3 19.1C44.2976 19.0493 44.2951 18.9987 44.2926 18.9465C44.3388 17.7241 45.6348 16.2125 46.45 15.4C46.4829 15.3642 46.5158 15.3283 46.5496 15.2914C47.5386 14.2327 49.0417 13.7364 50.4549 13.6842C53.2029 13.6224 55.3367 14.8424 57.35 16.6C57.3988 16.6425 57.4475 16.6849 57.4977 16.7287C57.7017 16.9091 57.8836 17.0834 58.05 17.3C58.0995 17.2773 58.149 17.2546 58.2 17.2312C58.8298 16.9426 59.6639 16.9507 60.3061 17.1877C60.3536 17.2082 60.4011 17.2288 60.45 17.25C60.497 17.27 60.544 17.2901 60.5924 17.3107C61.3078 17.6578 61.7898 18.3138 62.0469 19.0531C62.1209 19.3006 62.1563 19.5319 62.1532 19.7906C62.1525 19.8638 62.1525 19.8638 62.1518 19.9385C62.1509 19.9937 62.1509 19.9937 62.15 20.05C62.1857 20.0361 62.2213 20.0223 62.258 20.008C62.3059 19.9899 62.3538 19.9718 62.4032 19.9531C62.4736 19.9261 62.4736 19.9261 62.5455 19.8986C63.4518 19.6133 64.4193 19.8255 65.2417 20.2411C66.0539 20.683 66.5895 21.4149 66.8834 22.2822C66.9693 22.5813 66.9748 22.8718 66.9719 23.1812C66.9714 23.2386 66.971 23.2959 66.9705 23.3549C66.9518 24.2757 66.6548 25.1438 66.05 25.85C66.0258 25.8819 66.0016 25.9138 65.9766 25.9467C65.3914 26.6824 64.4109 27.1157 63.5 27.25C63.306 27.2643 63.1132 27.2667 62.9188 27.2656C62.8399 27.2652 62.8399 27.2652 62.7594 27.2648C62.0917 27.2544 61.5169 27.13 60.9055 26.8603C60.7467 26.7879 60.7467 26.7879 60.55 26.8C60.4565 26.8658 60.4565 26.8658 60.3688 26.9562C59.9125 27.3737 59.3265 27.6748 58.7 27.7C58.6175 27.7039 58.6175 27.7039 58.5332 27.7078C57.6525 27.7296 56.835 27.5075 56.1656 26.9187C55.996 26.7567 55.8484 26.5813 55.7 26.4C55.6781 26.446 55.6562 26.492 55.6336 26.5394C55.0765 27.6676 54.1472 28.4873 52.95 28.9C51.9211 29.2235 50.7688 29.1033 49.8 28.65C49.0373 28.2321 48.5213 27.7345 48 27.05C47.9691 27.1026 47.9691 27.1026 47.9375 27.1562C47.4728 27.9197 46.8394 28.3497 46 28.65C45.9566 28.666 45.9131 28.682 45.8684 28.6984C45.4653 28.8284 45.0683 28.8142 44.65 28.8C44.6631 28.8359 44.6761 28.8717 44.6896 28.9087C45.0812 29.9877 45.4486 31.0726 45.7645 32.1766C45.8065 32.3225 45.8492 32.4683 45.8918 32.6141C46.1977 33.6651 46.4788 34.7207 46.6969 35.7937C46.7075 35.8454 46.7181 35.8971 46.729 35.9504C46.7754 36.1868 46.8136 36.4078 46.8 36.65C46.7105 36.6413 46.7105 36.6413 46.6 36.6C46.5156 36.4877 46.5156 36.4877 46.4323 36.3389C46.3855 36.2565 46.3855 36.2565 46.3378 36.1725C46.3054 36.114 46.273 36.0554 46.2406 35.9969C46.2096 35.9418 46.1785 35.8867 46.1464 35.83C46.0815 35.7148 46.0168 35.5995 45.9526 35.4839C45.8824 35.3577 45.8116 35.232 45.7402 35.1065C45.4746 34.6388 45.2208 34.1659 44.975 33.6875C44.9566 33.6518 44.9382 33.6161 44.9193 33.5793C44.6439 33.0439 44.3841 32.5043 44.1447 31.9518C44.0762 31.7957 44.0038 31.6417 43.9313 31.4875C43.8708 31.3583 43.8104 31.2292 43.75 31.1C43.7189 31.0335 43.7189 31.0335 43.6871 30.9656C43.3847 30.3183 43.098 29.6702 42.85 29C42.8415 29.0316 42.833 29.0633 42.8242 29.0959C42.4719 30.3913 42.017 31.7583 40.8291 32.5271C39.6811 33.1749 38.4511 33.0699 37.2219 32.7594C36.6357 32.5952 36.0616 32.3845 35.5 32.15C35.5248 32.1964 35.5495 32.2428 35.575 32.2906C35.7454 32.6966 35.6607 33.1105 35.5129 33.5105C35.2365 34.1235 34.7084 34.4688 34.1 34.7C33.5702 34.8581 32.9965 34.8094 32.45 34.8C32.473 34.8496 32.4959 34.8992 32.5196 34.9504C33.0214 36.0544 33.2858 37.2713 32.8634 38.4524C32.7062 38.8607 32.5236 39.256 32.25 39.6C32.2153 39.644 32.1805 39.688 32.1448 39.7334C31.6215 40.3522 30.8101 40.8581 30.0004 40.9877C29.1717 41.0555 28.3854 41.0287 27.65 40.6C27.6742 40.6648 27.6742 40.6648 27.6989 40.7308C27.8437 41.2097 27.7611 41.7042 27.55 42.15C27.2869 42.5931 26.8968 42.8965 26.3961 43.0264C25.8284 43.1182 25.3377 43.0532 24.8 42.85C24.7505 42.8335 24.701 42.817 24.65 42.8C24.6633 42.8267 24.6766 42.8534 24.6903 42.8808C25.0373 43.613 25.0297 44.3905 24.7843 45.1542C24.5328 45.8582 24.0177 46.4823 23.3512 46.8269C22.7422 47.0822 22.0479 47.1054 21.4219 46.8937C21.3135 46.8484 21.2061 46.8005 21.1 46.75C21.0525 46.7277 21.005 46.7054 20.9561 46.6824C20.5909 46.4964 20.2699 46.2546 19.95 46C19.9117 45.97 19.8733 45.94 19.8338 45.9092C19.4248 45.5734 19.1561 45.1517 19.0824 44.624C19.0425 43.9062 19.4652 43.2561 19.8 42.65C19.8165 42.617 19.833 42.584 19.85 42.55C19.7756 42.5054 19.7756 42.5054 19.6996 42.4599C19.2228 42.1706 18.7749 41.8617 18.35 41.5C18.3073 41.4636 18.2646 41.4273 18.2205 41.3898C17.4685 40.6956 17.1897 39.6512 17.1406 38.6589C17.1367 38.4631 17.1364 38.2677 17.1375 38.0719C17.1371 38.0065 17.1368 37.9412 17.1364 37.8739C17.139 36.5351 17.5042 35.3828 18.4281 34.4C19.0676 33.777 19.8784 33.4138 20.75 33.25C20.8457 33.2291 20.8457 33.2291 20.9434 33.2078C22.062 32.9778 23.2908 33.0364 24.4 33.3C24.3807 33.2413 24.3614 33.1826 24.3414 33.1221C23.6813 31.0938 23.6813 31.0938 24.0664 30.2891C24.4659 29.6245 25.0891 29.2587 25.8 29C26.0084 28.9483 26.2101 28.9401 26.4244 28.9342C26.4596 28.9331 26.4948 28.9321 26.531 28.931C26.6425 28.9278 26.7541 28.9248 26.8656 28.9219C26.9416 28.9197 27.0175 28.9175 27.0935 28.9153C27.279 28.91 27.4645 28.9049 27.65 28.9C27.638 28.4319 27.5925 27.9879 27.507 27.5272C27.398 26.9379 27.3257 26.3757 27.325 25.775C27.3247 25.7175 27.3244 25.6601 27.3241 25.6009C27.3417 24.3941 27.8953 23.3164 28.65 22.4C28.6899 22.3513 28.7297 22.3027 28.7707 22.2525C29.8575 20.9967 31.5057 20.2471 33.15 20.1C33.9255 20.0584 34.6479 20.1098 35.4 20.3C35.4515 20.3119 35.5029 20.3238 35.5559 20.3361C36.2711 20.5133 36.9407 20.8285 37.6 21.15C37.6068 21.0998 37.6136 21.0496 37.6205 20.9978C37.7467 20.1598 38.1376 19.4948 38.8076 18.9736C38.9366 18.8792 39.0665 18.7878 39.2 18.7C39.1691 18.4847 39.1187 18.2879 39.0494 18.0818C39.0341 18.0361 39.0341 18.0361 39.0185 17.9894C38.9845 17.8876 38.9501 17.786 38.9156 17.6844C38.8907 17.6102 38.8658 17.5359 38.8409 17.4617C38.6863 17.0018 38.5293 16.5428 38.3719 16.0838C38.0243 15.0701 37.6821 14.0546 37.3423 13.0383C37.2872 12.8735 37.232 12.7088 37.1767 12.5441C37.1109 12.348 37.0453 12.1518 36.9798 11.9556C36.9554 11.8824 36.9308 11.8092 36.9062 11.736C36.8722 11.6347 36.8384 11.5334 36.8047 11.432C36.7857 11.3749 36.7666 11.3178 36.7469 11.2589C36.7018 11.1061 36.6725 10.9576 36.65 10.8Z" fill="#FEC748"/>
<path d="M25.0281 51.5312C25.0858 51.5307 25.1435 51.5301 25.203 51.5295C25.9814 51.5321 26.6429 51.8169 27.1969 52.3625C27.4579 52.6303 27.6504 52.9051 27.8 53.25C27.8193 53.2927 27.8385 53.3355 27.8584 53.3795C27.9106 53.5018 27.9568 53.6242 28 53.75C28.0113 53.7829 28.0227 53.8157 28.0344 53.8496C28.2673 54.6812 28.0642 55.5928 27.7 56.35C27.667 56.3995 27.634 56.449 27.6 56.5C27.6327 56.5007 27.6654 56.5014 27.699 56.5022C29.1494 56.5383 30.2756 56.8237 31.35 57.85C31.3807 57.877 31.4115 57.904 31.4431 57.9318C31.8918 58.3413 32.2081 58.9303 32.4 59.5C32.4159 59.5472 32.4318 59.5945 32.4482 59.6432C32.7584 60.7451 32.5289 61.9555 32 62.95C31.6334 63.5895 31.1634 64.093 30.55 64.5C30.6019 64.5206 30.6539 64.5412 30.7074 64.5625C31.4827 64.8795 32.0324 65.3032 32.4 66.0746C32.4754 66.2638 32.5144 66.4497 32.55 66.65C32.5845 66.6397 32.6189 66.6295 32.6545 66.6189C32.7015 66.6055 32.7484 66.592 32.7969 66.5781C32.8427 66.5648 32.8885 66.5514 32.9357 66.5377C34.4753 66.1844 36.0601 66.5067 37.4034 67.2893C37.6374 67.4363 37.8462 67.6138 38.05 67.8C38.2171 67.605 38.339 67.3972 38.4594 67.1719C39.2352 65.7574 40.1399 64.4302 41.05 63.1C41.0761 63.0618 41.1022 63.0236 41.1292 62.9842C41.6452 62.2302 41.6452 62.2302 41.9094 61.8656C41.9357 61.8291 41.9621 61.7927 41.9893 61.7551C42.3346 61.2805 42.6915 60.8147 43.05 60.35C43.0897 60.2985 43.0897 60.2985 43.1301 60.246C43.4587 59.8207 43.8 59.4078 44.15 59C44.1834 58.9609 44.2168 58.9219 44.2512 58.8816C44.3173 58.8043 44.3836 58.7271 44.45 58.65C44.4995 58.6665 44.549 58.683 44.6 58.7C44.2585 59.7669 43.7795 60.7895 43.3 61.8C43.2749 61.853 43.2498 61.906 43.224 61.9606C42.7392 62.9828 42.2408 63.9952 41.6943 64.9859C41.5833 65.1878 41.4762 65.3912 41.3709 65.5961C40.8569 66.5935 40.2582 67.5471 39.6603 68.4959C39.6334 68.5395 39.6065 68.5831 39.5788 68.628C39.5 68.75 39.5 68.75 39.4165 68.8566C39.3424 68.9546 39.288 69.033 39.25 69.15C39.2798 69.3193 39.358 69.4525 39.4437 69.6C39.4878 69.6834 39.5315 69.7671 39.5748 69.851C39.5964 69.8926 39.6181 69.9342 39.6404 69.9771C39.8416 70.3922 39.9404 70.8541 40.05 71.3C40.0809 71.2528 40.1117 71.2056 40.1435 71.157C40.5409 70.5532 40.9525 69.9771 41.45 69.45C41.4873 69.4089 41.5246 69.3677 41.5631 69.3254C42.1942 68.6556 43.0121 68.1631 43.9513 68.1328C45.1706 68.1159 46.1451 68.7415 47.0072 69.5607C47.6605 70.1979 48.2023 70.9369 48.7 71.7C48.8542 71.6392 49.0009 71.5753 49.1469 71.4969C49.3178 71.4114 49.4572 71.3651 49.65 71.35C49.7084 71.3452 49.7084 71.3452 49.768 71.3404C50.3113 71.3161 50.8133 71.4785 51.25 71.8C51.2923 71.8278 51.3345 71.8557 51.3781 71.8844C51.5684 72.0649 51.7056 72.282 51.85 72.5C51.8664 72.4758 51.8829 72.4515 51.8998 72.4265C52.3171 71.8384 52.879 71.4277 53.6 71.3C53.7462 71.2861 53.8907 71.2833 54.0375 71.2844C54.0768 71.2846 54.1162 71.2849 54.1567 71.2851C55.1525 71.305 56.0601 71.8134 56.8 72.45C56.8417 72.4856 56.8834 72.5211 56.9263 72.5578C57.8283 73.3472 58.6442 74.4387 58.7614 75.6695C58.8204 76.6254 58.5867 77.4926 57.9599 78.2375C57.659 78.5453 57.2784 78.7516 56.9 78.95C56.9248 78.9664 56.9496 78.9829 56.9752 78.9998C57.5417 79.3965 57.8725 79.9722 58 80.65C58.0832 81.4123 57.9207 82.0858 57.45 82.7C56.9373 83.3281 56.1906 83.671 55.4 83.8C54.3022 83.8589 53.4163 83.5532 52.5875 82.8281C52.2217 82.4863 51.9151 82.1248 51.65 81.7C51.6197 81.7411 51.5894 81.7822 51.5582 81.8246C50.5939 83.1172 49.2185 83.9773 47.6121 84.2295C46.0767 84.3999 44.6517 84.0046 43.4375 83.05C43.358 82.9837 43.2788 82.917 43.2 82.85C43.1632 82.8205 43.1264 82.7909 43.0885 82.7605C42.3456 82.1426 41.6348 81.1148 41.5 80.15C41.4503 80.1613 41.4503 80.1613 41.3995 80.1729C40.3651 80.4052 39.3044 80.6122 38.3207 80.0787C37.8827 79.7931 37.5032 79.4106 37.35 78.9C37.3305 78.7669 37.3157 78.6335 37.3 78.5C37.2386 78.5124 37.2386 78.5124 37.1759 78.5251C35.7809 78.8063 35.7809 78.8063 35.1844 78.8937C35.1402 78.9005 35.0961 78.9073 35.0506 78.9143C34.7529 78.9522 34.4764 78.9434 34.1793 78.9148C33.4367 78.8216 33.4367 78.8216 32.7589 79.0527C32.5041 79.3413 32.3451 79.6804 32.1844 80.0275C32.0533 80.2954 31.8856 80.5339 31.7156 80.7781C31.6486 80.8777 31.5818 80.9775 31.5152 81.0773C31.4806 81.1291 31.446 81.1809 31.4103 81.2343C31.2043 81.5437 31.0006 81.8547 30.7969 82.1656C30.753 82.2325 30.7091 82.2994 30.6653 82.3663C30.5013 82.6165 30.3374 82.8667 30.1734 83.1168C30.0161 83.3569 29.8587 83.5969 29.7013 83.8368C29.6509 83.9136 29.6006 83.9904 29.5503 84.0672C29.4799 84.1746 29.4095 84.2819 29.339 84.3892C29.3082 84.4363 29.3082 84.4363 29.2768 84.4844C29.1395 84.6933 28.9963 84.8972 28.85 85.1C28.8005 85.0835 28.751 85.067 28.7 85.05C28.7804 84.764 28.9186 84.5202 29.0625 84.2625C29.1169 84.1638 29.1714 84.0651 29.2258 83.9664C29.2685 83.8889 29.2685 83.8889 29.3122 83.8098C29.4599 83.5409 29.6048 83.2704 29.75 83C30.6285 81.3664 30.6285 81.3664 30.8906 80.925C31.0129 80.719 31.1227 80.5087 31.2281 80.2937C31.3277 80.0907 31.4301 79.8948 31.55 79.7031C31.7476 79.3843 31.8961 79.0413 32.05 78.7C31.9913 78.6943 31.9327 78.6886 31.8722 78.6828C30.8525 78.5537 29.9406 77.782 29.3195 77.0154C28.9933 76.5799 28.757 76.0689 28.6 75.55C28.5832 75.4986 28.5832 75.4986 28.566 75.4461C28.3461 74.6567 28.5288 73.8587 28.9 73.15C28.8569 73.1481 28.8137 73.1462 28.7693 73.1443C27.5774 73.0801 26.412 72.9015 25.55 72C25.2256 71.5864 25.0425 71.2012 25.0437 70.6719C25.0436 70.6161 25.0435 70.5604 25.0433 70.5029C25.0489 70.3742 25.0666 70.2729 25.1 70.15C25.0565 70.1513 25.0131 70.1526 24.9684 70.154C23.2916 70.1976 21.5495 70.0308 20.25 68.85C20.2048 68.8094 20.1596 68.7689 20.1131 68.7271C19.5776 68.2213 19.2253 67.6531 19 66.95C18.9818 66.8979 18.9636 66.8458 18.9449 66.7922C18.7882 66.1216 18.8169 65.3102 19.15 64.7C19.2726 64.5067 19.4052 64.3271 19.55 64.15C19.5812 64.1084 19.6124 64.0667 19.6445 64.0238C20.1375 63.445 20.7783 63.2355 21.5 63.1C21.4708 63.0883 21.4417 63.0767 21.4117 63.0646C20.8274 62.8046 20.3848 62.3706 20.1 61.8C20.0701 61.7443 20.0402 61.6886 20.0094 61.6312C19.8263 61.2266 19.8339 60.6332 19.9437 60.2031C20.3552 59.2223 22.0426 58.3353 22.9719 57.9219C23.0306 57.8981 23.0894 57.8744 23.15 57.85C22.9103 57.449 22.6393 57.0761 22.3576 56.7039C22.072 56.3232 21.8139 55.9401 21.6594 55.4875C21.6394 55.4305 21.6195 55.3735 21.599 55.3148C21.3902 54.6127 21.5069 53.9699 21.8281 53.3219C22.3397 52.444 23.2233 51.8394 24.1945 51.5811C24.4716 51.5257 24.7464 51.5284 25.0281 51.5312Z" fill="#FEC748"/>
<path d="M49.85 36.9C49.8665 36.9 49.883 36.9 49.9 36.9C49.9056 36.9502 49.9056 36.9502 49.9114 37.0014C50.0253 37.8335 50.3935 38.5977 50.75 39.35C50.7752 39.4043 50.8003 39.4586 50.8262 39.5145C51.2776 40.4199 52.2005 41.0961 53.1446 41.4211C53.46 41.5154 53.7709 41.5857 54.1 41.6C54.1426 41.6032 54.1852 41.6063 54.2291 41.6096C55.1402 41.6482 56.1205 41.3147 56.8 40.7C56.8962 40.607 56.9905 40.513 57.0826 40.416C57.15 40.35 57.15 40.35 57.2 40.35C57.2033 40.3819 57.2065 40.4138 57.2098 40.4467C57.4071 42.333 58.1154 43.9897 59.6028 45.2293C60.631 46.0595 61.7843 46.5202 63.1 46.65C63.1 46.683 63.1 46.716 63.1 46.75C62.9951 46.8229 62.8903 46.8901 62.7813 46.9563C62.2771 47.2716 61.8349 47.6451 61.4 48.05C61.3428 48.1023 61.3428 48.1023 61.2844 48.1557C60.6014 48.8043 60.0249 49.7367 59.9879 50.694C59.9708 51.5826 60.129 52.4416 60.7586 53.1164C60.9873 53.3293 61.2141 53.4753 61.5 53.6C61.3586 53.6404 61.2353 53.6555 61.0885 53.6531C61.0483 53.6528 61.0081 53.6524 60.9667 53.652C60.8837 53.6507 60.8006 53.6494 60.7175 53.6481C59.6256 53.6376 58.6065 54.0708 57.8213 54.8278C56.8831 55.7785 56.5836 57.1499 56.5888 58.4432C56.5891 58.4792 56.5894 58.5152 56.5897 58.5523C56.5907 58.6645 56.5908 58.7767 56.5907 58.8889C56.5713 59.2298 56.5713 59.2298 56.65 59.55C56.6779 59.5271 56.7057 59.5041 56.7344 59.4805C56.9766 59.2858 57.2114 59.1178 57.5 59C57.5431 58.9822 57.5861 58.9643 57.6305 58.9459C58.3404 58.7537 59.1431 58.8869 59.7719 59.2469C60.0335 59.4155 60.275 59.5875 60.45 59.85C60.4574 59.8065 60.4574 59.8065 60.4649 59.7621C60.5285 59.4295 60.6247 59.2108 60.8844 58.9813C61.0941 58.8784 61.2699 58.8705 61.5 58.9C61.5165 58.9165 61.533 58.933 61.55 58.95C61.5568 58.8968 61.5636 58.8435 61.5705 58.7887C61.6828 57.9981 61.9617 57.3051 62.6223 56.808C63.0978 56.5032 63.5969 56.3646 64.1549 56.4828C65.0233 56.723 65.6915 57.2743 66.1621 58.0354C66.5274 58.7197 66.7133 59.5031 66.5185 60.2749C66.3157 60.9026 65.958 61.4178 65.3717 61.7391C65.3316 61.7592 65.2914 61.7793 65.25 61.8C65.2166 61.817 65.1831 61.8341 65.1487 61.8516C64.871 61.9742 64.5991 61.9649 64.3 61.95C64.3205 61.9887 64.341 62.0274 64.3621 62.0672C64.3891 62.1193 64.416 62.1714 64.4438 62.225C64.4705 62.2761 64.4971 62.3271 64.5246 62.3797C64.8069 63.0173 64.8033 63.8579 64.5627 64.5076C64.2252 65.2741 63.7353 65.8676 62.9419 66.1784C62.2002 66.4569 61.5218 66.4332 60.75 66.3C60.7313 66.3326 60.7125 66.3653 60.6932 66.3989C60.3457 66.9922 59.9178 67.4298 59.25 67.65C58.5662 67.7929 57.949 67.7322 57.3594 67.3531C57.0836 67.1575 56.8356 66.9425 56.6 66.7C56.5777 66.7296 56.5553 66.7592 56.5323 66.7897C56.3658 67.0073 56.2013 67.2131 56 67.4C55.9712 67.4297 55.9424 67.4593 55.9127 67.4899C55.2385 68.1475 54.2397 68.4724 53.3128 68.4683C52.4508 68.4429 51.5867 68.0799 50.95 67.5C50.8933 67.4493 50.8933 67.4493 50.8354 67.3975C50.441 67.0256 50.1798 66.5871 49.95 66.1C49.9163 66.1161 49.8826 66.1323 49.8479 66.1489C49.2101 66.3696 48.4038 66.1498 47.8128 65.876C47.1501 65.5502 47.1501 65.5502 47 65.25C46.859 65.2729 46.7185 65.2961 46.5787 65.3256C46.0329 65.437 45.478 65.4926 44.9905 65.1797C44.7182 64.9671 44.5692 64.7389 44.5 64.4C44.416 63.6633 44.5894 63.0196 45 62.4C45.2928 62.0332 45.6359 61.6385 46.1 61.5C46.7245 61.431 47.1274 61.5495 47.6137 61.9268C47.6971 61.9975 47.7732 62.0723 47.85 62.15C47.8809 62.0945 47.9118 62.0389 47.9436 61.9817C48.1897 61.5462 48.4333 61.1465 48.8 60.8C48.8379 60.7643 48.8757 60.7285 48.9147 60.6916C49.5405 60.1475 50.24 60.0149 51.05 60.05C51.6156 60.1123 52.1308 60.3742 52.55 60.75C52.5875 60.7823 52.625 60.8146 52.6637 60.8479C53.1138 61.2619 53.4178 61.8024 53.55 62.4C53.5725 62.3807 53.595 62.3614 53.6182 62.3414C54.083 61.9651 54.5556 61.8394 55.15 61.9C55.4537 61.9574 55.7312 62.0475 56 62.2C55.9835 62.1485 55.967 62.0969 55.95 62.0438C55.764 61.2863 55.9658 60.5572 56.35 59.9C56.383 59.867 56.416 59.834 56.45 59.8C56.4046 59.2605 55.9268 58.751 55.55 58.4C54.6156 57.6472 53.4933 57.295 52.3 57.4C52.0259 57.441 51.7641 57.5172 51.5 57.6C51.4409 57.6181 51.3818 57.6362 51.3209 57.6549C50.1859 58.0307 49.2021 58.7758 48.45 59.7C48.3795 59.5591 48.3971 59.4442 48.4004 59.2867C48.4013 59.2225 48.4021 59.1584 48.403 59.0922C48.405 58.9581 48.4077 58.824 48.4108 58.6899C48.4264 57.2568 47.7847 55.9661 46.8 54.95C46.1357 54.2731 45.2893 53.8664 44.3844 53.6094C44.348 53.599 44.3115 53.5887 44.274 53.578C43.783 53.4461 43.3033 53.4434 42.7969 53.4469C42.7345 53.4471 42.6722 53.4474 42.6079 53.4476C42.4553 53.4482 42.3027 53.449 42.15 53.45C42.2646 53.3736 42.3609 53.321 42.4844 53.2656C43.0508 52.9804 43.3431 52.5042 43.5586 51.9209C43.6639 51.594 43.6799 51.2915 43.675 50.95C43.6758 50.8958 43.6766 50.8415 43.6774 50.7856C43.6748 50.2474 43.5191 49.7743 43.2531 49.3094C43.2342 49.2761 43.2153 49.2429 43.1958 49.2086C42.5925 48.1917 41.6173 47.4719 40.6515 46.8246C40.5669 46.7675 40.4833 46.7089 40.4 46.65C40.4 46.6335 40.4 46.617 40.4 46.6C40.4315 46.5978 40.4629 46.5955 40.4953 46.5932C41.3576 46.5335 41.3576 46.5335 42.2 46.35C42.287 46.3247 42.287 46.3247 42.3758 46.2989C43.5389 45.9363 44.7151 45.2942 45.4 44.25C45.8379 43.3982 45.7956 42.3525 45.5199 41.4517C45.3076 40.7935 44.9898 40.1865 44.55 39.65C44.578 39.6585 44.606 39.667 44.6348 39.6758C44.7731 39.7176 44.9116 39.7588 45.05 39.8C45.1358 39.8261 45.1358 39.8261 45.2233 39.8528C45.3123 39.8792 45.3123 39.8792 45.4031 39.9063C45.4584 39.9229 45.5136 39.9395 45.5705 39.9567C46.2182 40.1131 47.0829 40.1772 47.7 39.9C47.7609 39.8754 47.7609 39.8754 47.8231 39.8502C48.6728 39.4724 49.2214 38.6096 49.5516 37.7688C49.6577 37.4814 49.756 37.1915 49.85 36.9Z" fill="#D96C35"/>
<path d="M64.6125 32.1156C65.3539 32.669 65.8399 33.4354 66 34.35C66.0532 34.8725 66.0906 35.5689 65.85 36.05C65.914 36.0614 65.9779 36.0727 66.0438 36.0844C66.5711 36.203 67.0027 36.4769 67.3125 36.9188C67.4765 37.1829 67.6087 37.4021 67.5901 37.7207C67.5667 38.0771 67.5667 38.0771 67.7247 38.3838C67.9307 38.5554 68.1604 38.691 68.3893 38.8296C68.5515 38.9327 68.696 39.052 68.8407 39.1781C68.8667 39.2007 68.8927 39.2233 68.9196 39.2466C68.9712 39.2917 69.0227 39.337 69.0739 39.3825C69.1502 39.4502 69.2271 39.517 69.3041 39.5838C70.2862 40.4472 71.1711 41.6482 71.2594 42.993C71.2633 43.1371 71.2637 43.2808 71.2625 43.425C71.2629 43.4728 71.2633 43.5205 71.2637 43.5697C71.2612 44.5005 70.9522 45.3408 70.3063 46.0188C69.8051 46.5 69.8051 46.5 69.5 46.5C69.5224 46.5231 69.5448 46.5462 69.5678 46.5699C70.0074 47.0443 70.1672 47.4808 70.1606 48.1199C70.1243 48.7395 69.8066 49.2302 69.3658 49.6508C68.9582 50 68.9582 50 68.75 50C68.75 50.033 68.75 50.066 68.75 50.1C67.9036 50.4228 66.9765 50.6049 66.1 50.2688C65.6887 50.0564 65.4112 49.6963 65.2713 49.2606C65.1766 48.7689 65.2173 48.3181 65.5 47.9C65.5494 47.8329 65.5992 47.766 65.65 47.7C65.549 47.6531 65.448 47.6062 65.3469 47.5594C65.2873 47.5317 65.2277 47.504 65.1662 47.4754C65.0487 47.4221 64.933 47.3734 64.8125 47.3281C64.0308 46.9523 63.4278 46.1714 63.1371 45.3688C62.857 44.4723 62.9827 43.5335 63.4 42.7C63.6047 42.3272 63.8455 42.0442 64.15 41.75C64.1163 41.7463 64.0826 41.7425 64.0478 41.7386C63.8922 41.721 63.7368 41.7027 63.5813 41.6844C63.5017 41.6755 63.5017 41.6755 63.4205 41.6665C62.7176 41.5824 62.0127 41.4036 61.5541 40.8301C61.3456 40.5438 61.2 40.3125 61.2 39.95C61.1722 39.973 61.1443 39.9959 61.1157 40.0195C60.7852 40.2853 60.482 40.5068 60.05 40.55C60.05 40.583 60.05 40.616 60.05 40.65C59.8657 40.6544 59.6813 40.657 59.4969 40.6594C59.445 40.6606 59.3931 40.6619 59.3396 40.6632C59.0325 40.6661 58.8212 40.6457 58.55 40.5C58.5031 40.477 58.4562 40.454 58.4078 40.4303C57.6198 40.0096 57.2045 39.3942 56.8983 38.5588C56.7601 38.098 56.7866 37.6259 56.8 37.15C56.77 37.1606 56.74 37.1712 56.7091 37.1821C56.6692 37.1958 56.6294 37.2095 56.5883 37.2236C56.549 37.2373 56.5097 37.251 56.4692 37.2651C56.0581 37.3856 55.6289 37.2791 55.25 37.1C54.8475 36.8296 54.477 36.446 54.3694 35.9621C54.363 35.9251 54.3566 35.8881 54.35 35.85C54.1839 35.9135 54.0307 35.9863 53.875 36.0719C53.2235 36.3967 52.3982 36.4722 51.7 36.25C51.6473 36.2353 51.5946 36.2205 51.5403 36.2053C50.8368 35.9865 50.239 35.5372 49.885 34.8791C49.835 34.7707 49.7913 34.662 49.75 34.55C49.7294 34.5015 49.7088 34.4531 49.6875 34.4031C49.5627 33.8936 49.6913 33.4698 49.95 33.0281C50.388 32.3735 51.1038 31.8893 51.8627 31.6813C52.743 31.5344 53.5017 31.6621 54.2563 32.1445C54.4156 32.2615 54.5422 32.3858 54.6621 32.5424C54.7557 32.6156 54.7557 32.6156 54.916 32.5957C55.1126 32.5469 55.2335 32.4794 55.4 32.3656C55.7489 32.1385 56.1071 31.9851 56.5 31.85C56.5489 31.8329 56.5977 31.8159 56.6481 31.7983C57.3844 31.586 58.3999 31.567 59.1 31.9C59.2641 32.0038 59.4067 32.1196 59.55 32.25C59.6196 32.3026 59.6196 32.3026 59.6907 32.3563C59.8126 32.4608 59.9071 32.5692 60 32.7C60 32.733 60 32.766 60 32.8C60.0248 32.7782 60.0497 32.7564 60.0752 32.734C60.1467 32.6713 60.2184 32.6088 60.2903 32.5465C60.3551 32.4895 60.4192 32.4318 60.4817 32.3723C61.6006 31.332 63.3705 31.2819 64.6125 32.1156Z" fill="#E4A646"/>
<path d="M55.5 21.95C55.533 21.95 55.566 21.95 55.6 21.95C55.6153 21.998 55.6306 22.046 55.6463 22.0955C56.0047 23.1833 56.4821 24.4326 57.5125 25.0469C58.0087 25.2386 58.465 25.1258 58.95 24.95C59.5558 24.6738 60.086 24.2073 60.45 23.65C60.5661 23.7989 60.6629 23.9535 60.7594 24.1156C61.0925 24.636 61.5662 24.9288 62.1455 25.1338C63.3687 25.3236 64.5677 24.8421 65.5469 24.1455C66.1371 23.6922 66.5647 23.056 66.8 22.35C66.833 22.35 66.866 22.35 66.9 22.35C67.1814 23.3101 66.911 24.4229 66.4506 25.275C66.334 25.4822 66.2047 25.6695 66.05 25.85C66.0258 25.8819 66.0016 25.9138 65.9766 25.9467C65.3914 26.6825 64.4109 27.1157 63.5 27.25C63.306 27.2643 63.1133 27.2667 62.9188 27.2656C62.8662 27.2654 62.8136 27.2651 62.7594 27.2648C62.0917 27.2545 61.5169 27.13 60.9055 26.8604C60.7468 26.7879 60.7468 26.7879 60.55 26.8C60.4565 26.8658 60.4565 26.8658 60.3688 26.9563C59.9125 27.3737 59.3265 27.6749 58.7 27.7C58.645 27.7026 58.5899 27.7052 58.5332 27.7078C57.6525 27.7296 56.835 27.5076 56.1657 26.9188C55.996 26.7567 55.8484 26.5813 55.7 26.4C55.6781 26.446 55.6562 26.4921 55.6336 26.5395C55.0765 27.6676 54.1472 28.4873 52.95 28.9C51.9211 29.2235 50.7688 29.1033 49.8 28.65C49.0373 28.2322 48.5213 27.7345 48 27.05C47.9691 27.1026 47.9691 27.1026 47.9375 27.1563C47.4728 27.9197 46.8394 28.3498 46 28.65C45.9566 28.666 45.9131 28.682 45.8684 28.6984C45.4653 28.8284 45.0683 28.8142 44.65 28.8C44.6696 28.8538 44.6696 28.8538 44.6896 28.9087C45.0812 29.9877 45.4486 31.0727 45.7645 32.1766C45.8065 32.3225 45.8492 32.4683 45.8918 32.6141C46.1977 33.6651 46.4788 34.7207 46.6969 35.7938C46.7075 35.8455 46.7181 35.8972 46.729 35.9504C46.7754 36.1868 46.8136 36.4078 46.8 36.65C46.7105 36.6413 46.7105 36.6413 46.6 36.6C46.5156 36.4877 46.5156 36.4877 46.4323 36.3389C46.3855 36.2566 46.3855 36.2566 46.3378 36.1726C46.3054 36.114 46.273 36.0555 46.2407 35.9969C46.2096 35.9418 46.1785 35.8867 46.1464 35.83C46.0815 35.7148 46.0168 35.5995 45.9526 35.4839C45.8824 35.3578 45.8116 35.232 45.7402 35.1065C45.4746 34.6388 45.2208 34.166 44.975 33.6875C44.9566 33.6518 44.9382 33.6161 44.9193 33.5793C44.6439 33.0439 44.3841 32.5044 44.1447 31.9518C44.0762 31.7957 44.0038 31.6417 43.9313 31.4875C43.8708 31.3584 43.8104 31.2292 43.75 31.1C43.7293 31.0557 43.7085 31.0113 43.6871 30.9656C43.3847 30.3183 43.098 29.6702 42.85 29C42.8373 29.0475 42.8373 29.0475 42.8243 29.0959C42.4719 30.3913 42.017 31.7583 40.8291 32.5272C39.6812 33.175 38.4511 33.0699 37.2219 32.7594C36.6357 32.5952 36.0616 32.3846 35.5 32.15C35.5248 32.1964 35.5495 32.2428 35.575 32.2906C35.7454 32.6966 35.6607 33.1105 35.5129 33.5106C35.2365 34.1236 34.7084 34.4688 34.1 34.7C33.5702 34.8581 32.9965 34.8094 32.45 34.8C32.473 34.8496 32.4959 34.8993 32.5196 34.9504C33.0214 36.0544 33.2858 37.2713 32.8634 38.4524C32.7062 38.8608 32.5236 39.256 32.25 39.6C32.2153 39.644 32.1806 39.6881 32.1448 39.7334C31.6215 40.3522 30.8101 40.8581 30.0004 40.9877C29.1717 41.0555 28.3854 41.0287 27.65 40.6C27.6661 40.6432 27.6823 40.6864 27.6989 40.7309C27.8437 41.2097 27.7611 41.7042 27.55 42.15C27.2869 42.5932 26.8968 42.8965 26.3961 43.0264C25.8284 43.1182 25.3377 43.0532 24.8 42.85C24.7505 42.8335 24.701 42.817 24.65 42.8C24.6633 42.8267 24.6766 42.8534 24.6903 42.8809C25.0374 43.6131 25.0297 44.3905 24.7843 45.1542C24.5328 45.8582 24.0177 46.4823 23.3512 46.827C22.7422 47.0822 22.0479 47.1054 21.4219 46.8938C21.3135 46.8484 21.2061 46.8006 21.1 46.75C21.0525 46.7277 21.005 46.7054 20.9561 46.6824C20.5909 46.4964 20.2699 46.2546 19.95 46C19.9117 45.97 19.8733 45.9401 19.8338 45.9092C19.466 45.6073 19.1917 45.2232 19.1 44.75C19.0746 44.4567 19.0777 44.2211 19.2 43.95C19.395 43.95 19.4913 43.977 19.6688 44.0469C20.3201 44.3028 21.0219 44.2527 21.6604 43.982C22.2339 43.7077 22.5591 43.3827 22.7907 42.7813C22.8712 42.5355 22.9061 42.3454 22.9049 42.0852C22.9048 42.0249 22.9046 41.9646 22.9044 41.9026C22.904 41.8398 22.9036 41.7771 22.9032 41.7125C22.9029 41.649 22.9027 41.5855 22.9025 41.5201C22.9019 41.3634 22.9011 41.2067 22.9 41.05C22.9456 41.0508 22.9912 41.0516 23.0382 41.0524C23.2099 41.055 23.3817 41.0568 23.5534 41.0583C23.6273 41.059 23.7011 41.06 23.7749 41.0613C24.347 41.0712 25.0087 41.0733 25.45 40.65C25.6667 40.322 25.7562 40.009 25.7567 39.618C25.7568 39.5376 25.7568 39.5376 25.7569 39.4557C25.7567 39.4002 25.7565 39.3447 25.7563 39.2875C25.7565 39.2328 25.7567 39.1781 25.7569 39.1217C25.7565 38.8103 25.7411 38.5088 25.7 38.2C25.7588 38.2134 25.8176 38.2268 25.8782 38.2406C25.9196 38.2496 25.961 38.2586 26.0037 38.2678C26.1073 38.2906 26.2105 38.3148 26.3135 38.3401C27.2058 38.544 28.0974 38.536 28.9188 38.0906C29.6324 37.6398 29.9934 37.0025 30.2 36.2C30.3635 35.2502 30.2615 34.2421 30.1 33.3C30.0902 33.2405 30.0803 33.181 30.0701 33.1197C30.0635 33.0802 30.0569 33.0407 30.05 33C30.0924 33.0097 30.1349 33.0193 30.1785 33.0293C31.2453 33.2661 32.385 33.4601 33.3936 32.9227C33.6277 32.7628 33.7711 32.5197 33.85 32.25C33.9737 31.4061 33.8813 30.6044 33.7229 29.7712C33.6965 29.6311 33.6727 29.4907 33.65 29.35C33.7119 29.3864 33.7119 29.3864 33.775 29.4234C35.1168 30.2054 36.6679 30.9086 38.2574 30.5281C39.2074 30.269 39.994 29.7031 40.5 28.85C41.1151 27.7113 41.3602 26.5761 41.5 25.3C41.6508 25.373 41.7871 25.4569 41.9258 25.551C42.9078 26.2116 44.0614 26.5605 45.25 26.45C45.877 26.3241 46.3323 25.9093 46.6866 25.3971C47.1849 24.6334 47.4661 23.7367 47.65 22.85C47.8495 22.9278 47.9663 23.0675 48.1032 23.225C48.9643 24.1845 50.036 24.9441 51.3524 25.0639C52.2466 25.0935 53.0869 24.738 53.75 24.15C53.7904 24.1156 53.8307 24.0812 53.8723 24.0457C54.3122 23.6623 54.6776 23.2431 55.0157 22.7688C55.0408 22.7335 55.066 22.6983 55.092 22.662C55.2518 22.4334 55.3807 22.2022 55.5 21.95Z" fill="#F2AA16"/>
<path d="M73.45 30.05C73.3861 30.2192 73.3129 30.3713 73.2195 30.526C72.4861 31.7462 72.4861 31.7462 72.4306 33.1326C72.7966 34.1532 73.8294 34.753 74.75 35.2C74.8328 35.2347 74.9158 35.2688 75 35.3C74.9752 35.3418 74.9503 35.3837 74.9248 35.4268C74.3807 36.3547 73.7716 37.447 73.9697 38.5609C74.1573 39.1711 74.7628 39.5119 75.2897 39.7989C75.8027 40.0683 76.3456 40.2371 76.9 40.4C76.8208 40.6092 76.7234 40.8073 76.6219 41.0063C76.412 41.4174 76.3443 41.7264 76.4375 42.1844C76.6577 42.6231 77.3882 42.804 77.8187 42.9469C77.8809 42.9679 77.943 42.9889 78.0071 43.0106C78.9705 43.3323 79.9591 43.5792 80.95 43.8C80.95 43.833 80.95 43.866 80.95 43.9C80.8557 43.9764 80.7607 44.0478 80.6625 44.1188C79.7362 44.813 78.8767 45.8197 78.7 47C78.6018 47.9177 79.05 48.7648 79.6042 49.4648C79.6687 49.5439 79.734 49.6221 79.8 49.7C79.8213 49.7253 79.8426 49.7506 79.8646 49.7767C80.4256 50.4342 81.0986 50.951 81.8 51.45C81.6643 51.5857 81.5024 51.6397 81.3281 51.7125C80.5072 52.0654 79.7144 52.4903 79.35 53.35C79.0755 54.1733 79.3584 55.3119 79.6115 56.1156C79.65 56.25 79.65 56.25 79.65 56.4C79.551 56.3988 79.551 56.3988 79.4501 56.3976C79.2004 56.3949 78.9506 56.3932 78.7009 56.3918C78.5937 56.391 78.4866 56.39 78.3794 56.3887C77.0251 56.3725 75.4922 56.493 74.4187 57.425C73.6633 58.1665 73.3938 59.1879 73.3835 60.2285C73.3838 60.2779 73.3841 60.3273 73.3844 60.3781C73.3846 60.4316 73.3848 60.4851 73.3851 60.5402C73.4022 61.7459 73.584 62.9781 73.9216 64.1361C73.95 64.25 73.95 64.25 73.95 64.4C73.9058 64.4055 73.8617 64.411 73.8162 64.4166C73.1097 64.5099 72.3894 64.6272 71.9125 65.2063C71.6019 65.9206 71.7352 66.8459 71.8 67.6C71.7434 67.5988 71.7434 67.5988 71.6857 67.5976C70.4814 67.5759 69.0733 67.5532 68.1312 68.4406C67.6071 69.0064 67.4327 69.7603 67.439 70.5131C67.4655 70.9652 67.5839 71.3551 67.8 71.75C67.8 71.783 67.8 71.816 67.8 71.85C67.7492 71.8742 67.6984 71.8985 67.6461 71.9234C66.5696 72.4443 65.4113 73.1856 64.99 74.3684C64.9768 74.4118 64.9636 74.4552 64.95 74.5C64.8 74.45 64.8 74.45 64.725 74.317C64.6879 74.2328 64.6879 74.2328 64.65 74.1469C64.624 74.088 64.598 74.0291 64.5713 73.9684C64.2268 73.1548 64.1116 72.0709 64.4402 71.2287C64.4599 71.1862 64.4797 71.1438 64.5 71.1C64.5187 71.056 64.5374 71.012 64.5566 70.9666C64.6961 70.6613 64.885 70.4065 65.1 70.15C65.0587 70.1088 65.0175 70.0675 64.975 70.025C64.8096 69.8328 64.6977 69.622 64.5844 69.3969C64.5669 69.3627 64.5494 69.3284 64.5314 69.2932C64.2381 68.695 64.2561 67.8723 64.4531 67.2438C64.775 66.4177 65.3108 65.8812 66.1 65.5C67.2856 65.0225 68.5041 65.2213 69.65 65.7C69.6335 65.667 69.617 65.634 69.6 65.6C69.5488 64.8349 69.6732 64.3424 70.1812 63.7563C70.4505 63.4671 70.7999 63.2137 71.207 63.1951C71.2418 63.1957 71.2766 63.1963 71.3125 63.1969C71.4053 63.1984 71.4053 63.1984 71.5 63.2C71.3875 62.9957 71.2745 62.7919 71.1566 62.5906C70.8299 62.0312 70.5484 61.4667 70.3375 60.8531C70.3258 60.8198 70.3141 60.7865 70.302 60.7522C70.0915 60.1122 70.0267 59.4781 70.0359 58.8085C70.0375 58.6921 70.038 58.5758 70.0383 58.4594C70.0387 58.3843 70.0392 58.3091 70.0398 58.234C70.0401 58.1827 70.0401 58.1827 70.0405 58.1303C70.0434 57.9322 70.0624 57.7444 70.1 57.55C70.0646 57.53 70.0293 57.5099 69.9929 57.4893C68.3445 56.5533 66.7219 55.5852 65.1437 54.5344C65.1021 54.5067 65.0604 54.479 65.0175 54.4504C64.3661 54.0167 63.7232 53.5737 63.1 53.1C63.1165 53.0505 63.133 53.001 63.15 52.95C63.4752 53.0078 63.7822 53.1239 64.0937 53.2313C64.1283 53.2432 64.163 53.2551 64.1986 53.2673C65.6412 53.7652 67.0569 54.3274 68.45 54.95C68.5147 54.9788 68.5795 55.0077 68.6443 55.0365C69.2357 55.2995 69.8265 55.5637 70.4119 55.8402C70.5258 55.8895 70.6288 55.9253 70.75 55.95C70.7625 55.9149 70.7751 55.8799 70.7881 55.8438C71.2329 54.8111 72.2442 54.0714 73.25 53.65C74.197 53.2937 75.4186 53.3177 76.3455 53.7206C76.6659 53.8675 76.9664 54.0402 77.25 54.25C77.2252 54.1912 77.2005 54.1324 77.175 54.0719C77.0278 53.6255 77.0242 53.0957 77.2275 52.667C77.4881 52.2463 77.8742 51.8407 78.3705 51.7209C78.4812 51.7063 78.4812 51.7063 78.65 51.7C78.65 51.667 78.65 51.634 78.65 51.6C78.6086 51.588 78.5672 51.576 78.5246 51.5637C78.3202 51.4892 78.1429 51.3919 77.9562 51.2813C77.9193 51.2594 77.8823 51.2375 77.8443 51.2149C77.2058 50.8289 76.6361 50.3671 76.1 49.85C76.0558 49.8089 76.0115 49.7679 75.966 49.7256C75.4309 49.2157 75.01 48.6288 74.974 47.8737C74.9584 47.024 75.3381 46.4318 75.8906 45.8188C75.9146 45.7921 75.9386 45.7654 75.9634 45.7379C76.0234 45.6732 76.0865 45.6113 76.15 45.55C76.183 45.55 76.216 45.55 76.25 45.55C76.25 45.517 76.25 45.484 76.25 45.45C76.3194 45.386 76.3194 45.386 76.4162 45.3143C76.4512 45.2882 76.4861 45.2621 76.5221 45.2353C76.5592 45.2082 76.5962 45.1811 76.6344 45.1531C76.6704 45.1262 76.7065 45.0993 76.7436 45.0716C76.9241 44.9379 77.1042 44.8108 77.3 44.7C77.2698 44.6953 77.2396 44.6905 77.2085 44.6856C76.3294 44.5444 75.4733 44.3814 74.8752 43.6611C74.7469 43.4716 74.6714 43.2662 74.6 43.05C74.5835 43.0005 74.567 42.951 74.55 42.9C74.5423 42.4416 74.584 42.0824 74.85 41.7C74.7842 41.7017 74.7184 41.7035 74.6506 41.7053C73.8034 41.7213 73.0057 41.5952 72.35 41C72.2635 40.8852 72.2635 40.8852 72.1906 40.7625C72.1662 40.7225 72.1417 40.6826 72.1166 40.6414C71.9502 40.2881 71.9335 39.9528 71.9375 39.5688C71.938 39.5198 71.9384 39.4709 71.9389 39.4205C71.9547 38.4678 72.1953 37.5518 72.6484 36.7089C72.7416 36.5122 72.7488 36.4164 72.7 36.2C72.5149 35.9809 72.28 35.8215 72.05 35.6531C71.3952 35.1672 70.8918 34.4656 70.75 33.65C70.6593 32.7714 70.8061 31.9707 71.3588 31.2602C71.4684 31.1351 71.5815 31.0167 71.7 30.9C71.7318 30.8682 71.7637 30.8365 71.7965 30.8037C72.2358 30.3926 72.8318 30.0114 73.45 30.05Z" fill="#F1A916"/>
<path d="M39.9139 38.411C40.4795 38.7591 40.8185 39.2657 40.9906 39.9C41.1167 40.5097 41.1571 41.273 40.8262 41.8227C40.6013 42.1328 40.2836 42.4565 39.9 42.55C39.7496 42.5572 39.6005 42.5559 39.45 42.55C39.45 42.5995 39.45 42.649 39.45 42.7C39.4995 42.7165 39.549 42.733 39.6 42.75C39.9951 43.2768 40.0404 43.9414 39.9764 44.5795C39.8556 45.3604 39.456 45.9701 38.8254 46.4436C38.3602 46.7571 37.8636 46.9714 37.3 47C37.3351 47.0176 37.3701 47.0351 37.4063 47.0532C37.6047 47.1869 37.8024 47.3628 37.8828 47.5946C37.9431 47.9643 37.9167 48.2667 37.75 48.6C37.75 48.6495 37.75 48.699 37.75 48.75C37.8196 48.8179 37.8196 48.8179 37.9149 48.8766C37.9501 48.9004 37.9854 48.9241 38.0218 48.9486C38.06 48.9738 38.0982 48.999 38.1375 49.025C38.5252 49.2895 38.8645 49.5721 39.2 49.9C39.238 49.9355 39.2759 49.9709 39.3151 50.0074C39.8842 50.5498 40.147 51.2017 40.1796 51.9837C40.1856 52.4543 40.1165 52.8263 39.9 53.25C39.867 53.25 39.834 53.25 39.8 53.25C39.783 53.3026 39.783 53.3026 39.7656 53.3563C39.6593 53.5892 39.5149 53.7568 39.3 53.9C39.3266 53.9158 39.3531 53.9315 39.3805 53.9477C39.764 54.1801 39.764 54.1801 39.9 54.35C39.9 54.3995 39.9 54.449 39.9 54.5C39.933 54.5 39.966 54.5 40 54.5C40.0575 54.6375 40.1147 54.775 40.1719 54.9125C40.1882 54.9514 40.2044 54.9903 40.2212 55.0303C40.2368 55.068 40.2525 55.1057 40.2686 55.1446C40.283 55.1791 40.2974 55.2137 40.3122 55.2493C40.3495 55.3486 40.3764 55.4467 40.4 55.55C40.433 55.55 40.466 55.55 40.5 55.55C40.5867 55.6545 40.5867 55.6545 40.6875 55.7969C40.7407 55.872 40.7407 55.872 40.7949 55.9487C40.8296 55.9986 40.8643 56.0486 40.9 56.1C40.9295 56.1422 40.9591 56.1845 40.9895 56.228C41.1929 56.5251 41.3055 56.8014 41.4 57.15C41.417 57.2116 41.434 57.2733 41.4516 57.3367C41.6295 58.058 41.4785 58.7688 41.111 59.4039C41.0288 59.5243 40.9424 59.6374 40.85 59.75C40.7928 59.8289 40.7928 59.8289 40.7344 59.9094C40.4438 60.2135 40.0825 60.4298 39.7 60.6C39.6567 60.6196 39.6134 60.6392 39.5688 60.6594C39.0386 60.8408 38.5002 60.7855 38 60.55C37.563 60.3063 37.2806 59.9642 37.1 59.5C37.0599 59.3384 37.0432 59.1882 37.0438 59.0219C37.0436 58.9847 37.0435 58.9475 37.0434 58.9092C37.05 58.8003 37.0701 58.7047 37.1 58.6C37.0505 58.6155 37.001 58.631 36.95 58.6469C36.0489 58.8985 35.0214 58.7897 34.2029 58.3438C33.7842 58.0871 33.5333 57.7818 33.3 57.35C33.2672 57.2894 33.2672 57.2894 33.2338 57.2276C33.0002 56.7055 33.0024 55.9381 33.2 55.4024C33.2726 55.2538 33.3563 55.1155 33.4506 54.9797C33.5088 54.9015 33.5088 54.9015 33.5 54.8C33.4361 54.7846 33.3721 54.7691 33.3063 54.7532C32.9025 54.6169 32.5947 54.3189 32.4 53.9438C32.365 53.8632 32.3315 53.782 32.3 53.7C32.2784 53.6443 32.2567 53.5887 32.2344 53.5313C32.1518 53.0959 32.1941 52.6773 32.3 52.25C32.2547 52.2222 32.2094 52.1943 32.1627 52.1657C31.2538 51.5999 30.5852 50.8862 30.2803 49.8332C30.231 49.6165 30.2255 49.4059 30.2281 49.1844C30.2286 49.1386 30.229 49.0928 30.2295 49.0455C30.2501 48.2344 30.5942 47.608 31.1787 47.0518C31.6808 46.6305 32.1772 46.3925 32.8344 46.3938C32.8851 46.3935 32.8851 46.3935 32.9368 46.3932C33.1873 46.3937 33.1873 46.3937 33.3 46.45C33.282 46.4262 33.2639 46.4025 33.2453 46.378C33.0063 46.0175 33.0017 45.6722 33.05 45.25C33.1462 44.8503 33.3712 44.4631 33.7125 44.225C33.85 44.15 33.85 44.15 33.95 44.15C33.9331 44.1256 33.9163 44.1013 33.8989 44.0761C33.27 43.1626 33.27 43.1626 33.1 42.7C33.082 42.6542 33.0639 42.6084 33.0453 42.5612C32.9267 42.1395 32.923 41.5846 33.1369 41.1957C33.1577 41.1641 33.1786 41.1326 33.2 41.1C33.2224 41.0654 33.2447 41.0307 33.2678 40.9949C33.6367 40.4669 34.1732 40.1447 34.8 40C35.6626 39.9154 36.2997 40.1549 37.05 40.55C37.083 40.5665 37.116 40.583 37.15 40.6C37.1483 40.5553 37.1465 40.5106 37.1447 40.4645C37.1293 39.7769 37.274 39.2635 37.7459 38.7446C37.9726 38.5328 38.2113 38.408 38.5 38.3C38.5475 38.2794 38.5949 38.2588 38.6438 38.2375C39.0949 38.1293 39.5088 38.1942 39.9139 38.411Z" fill="#E6B047"/>
<path d="M25.0281 51.5312C25.1147 51.5304 25.1147 51.5304 25.203 51.5295C25.9814 51.5321 26.6429 51.8169 27.1969 52.3625C27.4579 52.6303 27.6504 52.9051 27.8 53.25C27.8192 53.2927 27.8385 53.3355 27.8584 53.3795C27.9106 53.5018 27.9568 53.6242 28 53.75C28.0113 53.7829 28.0227 53.8157 28.0344 53.8496C28.2673 54.6812 28.0642 55.5928 27.7 56.35C27.667 56.3995 27.634 56.449 27.6 56.5C27.6327 56.5007 27.6653 56.5014 27.699 56.5022C29.1494 56.5383 30.2756 56.8237 31.35 57.85C31.3807 57.877 31.4115 57.904 31.4431 57.9318C31.8918 58.3413 32.2081 58.9303 32.4 59.5C32.4159 59.5472 32.4318 59.5945 32.4482 59.6432C32.7584 60.7451 32.5289 61.9555 32 62.95C31.6333 63.5895 31.1634 64.093 30.55 64.5C30.6019 64.5206 30.6539 64.5412 30.7074 64.5625C31.4826 64.8795 32.0324 65.3032 32.4 66.0746C32.4754 66.2638 32.5144 66.4497 32.55 66.65C32.6017 66.6346 32.6017 66.6346 32.6545 66.6189C32.7015 66.6055 32.7484 66.592 32.7969 66.5781C32.8656 66.5581 32.8656 66.5581 32.9357 66.5377C34.4753 66.1844 36.0601 66.5067 37.4034 67.2893C37.6374 67.4363 37.8462 67.6138 38.05 67.8C38.2171 67.605 38.339 67.3972 38.4594 67.1719C39.2352 65.7574 40.1399 64.4302 41.05 63.1C41.0761 63.0618 41.1022 63.0236 41.1292 62.9842C41.6452 62.2302 41.6452 62.2302 41.9094 61.8656C41.9357 61.8291 41.9621 61.7927 41.9893 61.7551C42.3346 61.2805 42.6915 60.8147 43.05 60.35C43.0897 60.2985 43.0897 60.2985 43.1301 60.246C43.4587 59.8207 43.8 59.4078 44.15 59C44.1834 58.9609 44.2167 58.9219 44.2511 58.8816C44.3173 58.8043 44.3836 58.7271 44.45 58.65C44.4995 58.6665 44.549 58.683 44.6 58.7C44.2585 59.7669 43.7795 60.7895 43.3 61.8C43.2749 61.853 43.2498 61.906 43.224 61.9606C42.7392 62.9828 42.2408 63.9952 41.6943 64.9859C41.5833 65.1878 41.4762 65.3912 41.3708 65.5961C40.8569 66.5935 40.2581 67.5471 39.6603 68.4959C39.6334 68.5395 39.6065 68.5831 39.5788 68.628C39.5 68.75 39.5 68.75 39.4165 68.8566C39.3423 68.9546 39.288 69.033 39.25 69.15C39.2798 69.3193 39.358 69.4525 39.4437 69.6C39.4878 69.6834 39.5315 69.7671 39.5748 69.851C39.5964 69.8926 39.6181 69.9342 39.6404 69.9771C39.8416 70.3922 39.9403 70.8541 40.05 71.3C40.0808 71.2528 40.1117 71.2056 40.1435 71.157C40.5409 70.5532 40.9525 69.9771 41.45 69.45C41.4873 69.4089 41.5246 69.3677 41.5631 69.3254C42.1942 68.6556 43.0121 68.1631 43.9513 68.1328C45.1705 68.1159 46.1451 68.7415 47.0072 69.5607C47.6605 70.1979 48.2023 70.9369 48.7 71.7C48.8542 71.6392 49.0009 71.5753 49.1469 71.4969C49.3178 71.4114 49.4572 71.3651 49.65 71.35C49.7084 71.3452 49.7084 71.3452 49.7679 71.3404C50.3113 71.3161 50.8133 71.4785 51.25 71.8C51.2923 71.8278 51.3345 71.8557 51.3781 71.8844C51.5684 72.0649 51.7056 72.282 51.85 72.5C51.8664 72.4758 51.8828 72.4515 51.8998 72.4265C52.3171 71.8384 52.879 71.4277 53.6 71.3C53.7462 71.2861 53.8907 71.2833 54.0375 71.2844C54.0768 71.2846 54.1162 71.2849 54.1567 71.2851C55.1525 71.305 56.0601 71.8134 56.8 72.45C56.8417 72.4856 56.8834 72.5211 56.9263 72.5578C57.8283 73.3472 58.6442 74.4387 58.7614 75.6695C58.8204 76.6256 58.5863 77.4914 57.9605 78.2371C57.7093 78.4936 57.3865 78.7218 57.05 78.85C56.9418 78.8281 56.9418 78.8281 56.85 78.8C56.8741 78.7607 56.8982 78.7215 56.923 78.681C56.9546 78.6285 56.9862 78.576 57.0187 78.5219C57.0501 78.4702 57.0814 78.4186 57.1136 78.3654C57.4221 77.7744 57.4021 76.8984 57.2282 76.2623C57.1768 76.1038 57.116 75.9531 57.05 75.8C57.0252 75.7408 57.0003 75.6815 56.9748 75.6205C56.5749 74.7485 55.9014 73.963 55 73.6C54.3096 73.4016 53.6127 73.5655 52.9912 73.8805C52.6885 74.0482 52.4182 74.2433 52.1529 74.465C52.05 74.55 52.05 74.55 51.9 74.65C51.889 74.6185 51.8781 74.5871 51.8668 74.5547C51.6512 73.9727 51.3513 73.6466 50.8 73.35C50.3029 73.1393 49.7769 73.0446 49.2599 73.2414C48.9129 73.4263 48.6681 73.6991 48.5 74.05C48.467 74.05 48.434 74.05 48.4 74.05C48.3222 73.9399 48.2497 73.8296 48.1781 73.7156C47.3307 72.4087 46.0643 71.2549 44.5026 70.9179C43.6571 70.7701 42.9037 71.044 42.2105 71.5102C41.4643 72.0382 40.8378 72.7152 40.3 73.45C40.2779 73.4801 40.2558 73.5103 40.233 73.5413C39.9797 73.8881 39.7342 74.24 39.5 74.6C39.3864 74.4296 39.3659 74.3064 39.325 74.1062C39.1509 73.3473 38.7638 72.6213 38.3 72C38.2806 71.9737 38.2613 71.9475 38.2414 71.9204C37.9949 71.5866 37.7352 71.2681 37.4535 70.9629C37.3608 70.8617 37.2725 70.7582 37.1844 70.6531C36.3777 69.7336 35.2086 68.8919 33.9583 68.7882C33.1735 68.744 32.4526 68.8286 31.7 69.05C31.6617 69.0612 31.6234 69.0724 31.584 69.0839C31.2704 69.1779 30.9801 69.2774 30.7 69.45C30.6985 69.4161 30.6971 69.3822 30.6956 69.3473C30.6362 68.1029 30.4354 66.9216 29.6 65.95C29.5631 65.9025 29.5262 65.855 29.4883 65.806C29.3373 65.6251 29.1583 65.4914 28.9687 65.3531C28.9337 65.3272 28.8987 65.3013 28.8626 65.2745C28.5831 65.0696 28.297 64.8787 28 64.7C28.043 64.6502 28.0861 64.6005 28.1304 64.5492C29.0516 63.4726 29.7953 62.3183 29.7 60.85C29.5752 59.939 29.0136 59.154 28.3 58.6C28.1056 58.4714 27.9064 58.358 27.7 58.25C27.6643 58.2305 27.6286 58.2111 27.5918 58.191C27.0822 57.9372 26.4629 57.8357 25.9 57.8C25.9205 57.7613 25.941 57.7226 25.9621 57.6828C25.989 57.6307 26.016 57.5786 26.0437 57.525C26.0704 57.4739 26.0971 57.4229 26.1246 57.3703C26.2666 57.0494 26.3127 56.7594 26.3133 56.4101C26.3134 56.3744 26.3134 56.3387 26.3135 56.3018C26.3136 56.2267 26.3134 56.1516 26.313 56.0765C26.3125 55.9635 26.313 55.8505 26.3136 55.7375C26.3147 54.7626 26.1266 53.9582 25.4359 53.2297C24.8586 52.6824 24.11 52.278 23.35 52.05C23.4176 51.8925 23.4382 51.8562 23.5969 51.7719C23.6641 51.7466 23.7318 51.7227 23.8 51.7C23.8384 51.6871 23.8767 51.6741 23.9163 51.6608C24.2907 51.5472 24.6384 51.5273 25.0281 51.5312Z" fill="#F3AB16"/>
<path d="M66.25 58.2C66.4614 58.6745 66.5792 59.1022 66.5781 59.625C66.5782 59.6703 66.5783 59.7157 66.5784 59.7623C66.563 60.3983 66.2902 60.9341 65.8619 61.3963C65.677 61.5677 65.4746 61.6875 65.25 61.8C65.2165 61.817 65.1831 61.8341 65.1486 61.8516C64.871 61.9742 64.5991 61.9649 64.3 61.95C64.3205 61.9887 64.341 62.0274 64.3621 62.0672C64.389 62.1193 64.416 62.1714 64.4437 62.225C64.4704 62.2761 64.4971 62.3271 64.5246 62.3797C64.8068 63.0173 64.8033 63.8579 64.5627 64.5076C64.2252 65.2741 63.7352 65.8676 62.9419 66.1784C62.2002 66.4569 61.5217 66.4332 60.75 66.3C60.7312 66.3326 60.7125 66.3652 60.6931 66.3988C60.3457 66.9922 59.9178 67.4298 59.25 67.65C58.5662 67.7929 57.949 67.7322 57.3593 67.3531C57.0835 67.1575 56.8355 66.9425 56.6 66.7C56.5776 66.7296 56.5552 66.7592 56.5322 66.7897C56.3657 67.0073 56.2012 67.2131 56 67.4C55.9712 67.4297 55.9424 67.4593 55.9127 67.4899C55.2385 68.1475 54.2397 68.4724 53.3128 68.4683C52.4508 68.4429 51.5867 68.0799 50.95 67.5C50.8932 67.4493 50.8932 67.4493 50.8353 67.3975C50.441 67.0256 50.1797 66.5871 49.95 66.1C49.9163 66.1161 49.8826 66.1322 49.8478 66.1488C49.2101 66.3696 48.4038 66.1498 47.8127 65.8759C47.15 65.5502 47.15 65.5502 47 65.25C46.859 65.2729 46.7185 65.2961 46.5787 65.3256C46.0328 65.437 45.4779 65.4926 44.9904 65.1797C44.7193 64.968 44.5663 64.7385 44.5 64.4C44.4793 64.1167 44.4881 63.8336 44.5 63.55C44.5495 63.55 44.599 63.55 44.65 63.55C44.7607 63.4767 44.866 63.4017 44.9718 63.3219C46.0689 62.5169 46.0689 62.5169 46.65 62.6C47.1251 62.7358 47.4991 63.0709 47.8 63.45C47.833 63.4665 47.866 63.483 47.9 63.5C47.9052 63.4628 47.9104 63.4256 47.9158 63.3873C47.9941 63.0728 48.2678 62.8573 48.5312 62.6875C49.2068 62.3084 50.0604 62.1883 50.8211 62.3324C51.804 62.6367 52.4719 63.35 53 64.2C53 64.233 53 64.266 53 64.3C53.033 64.3 53.066 64.3 53.1 64.3C53.1185 64.245 53.1185 64.245 53.1375 64.1889C53.3405 63.7378 53.832 63.4322 54.274 63.2485C54.9998 63.0113 55.7546 63.1193 56.4218 63.4531C56.5483 63.518 56.6742 63.5839 56.8 63.65C56.833 63.6665 56.866 63.683 56.9 63.7C56.917 63.6371 56.934 63.5742 56.9515 63.5094C57.2216 62.5428 57.6071 61.5084 58.5 60.95C58.9442 60.7686 59.4251 60.7997 59.8648 60.9797C60.1134 61.109 60.3315 61.2758 60.55 61.45C60.5965 61.4851 60.643 61.5201 60.691 61.5563C60.727 61.5872 60.7629 61.6181 60.8 61.65C60.8 61.683 60.8 61.716 60.8 61.75C60.833 61.75 60.866 61.75 60.9 61.75C60.8971 61.7197 60.8942 61.6894 60.8912 61.6582C60.8694 61.253 60.979 60.9615 61.234 60.6461C61.4717 60.3946 61.6902 60.2448 62.0437 60.2313C62.327 60.2394 62.5472 60.3236 62.8 60.45C62.8062 60.4112 62.8123 60.3724 62.8187 60.3324C62.962 59.5821 63.3914 58.8527 64.0287 58.4108C64.7178 58.0397 65.4985 58.1369 66.25 58.2Z" fill="#E7B548"/>
<path d="M50.75 42.7C50.8922 42.8422 50.929 43.0162 50.9906 43.2031C51.0994 43.5207 51.2096 43.8208 51.4 44.1C51.4208 44.1304 51.4415 44.1609 51.4629 44.1922C51.7527 44.5698 52.2297 44.8677 52.7 44.95C53.282 45.006 53.7913 44.9265 54.2594 44.5625C54.313 44.5165 54.313 44.5165 54.3678 44.4695C54.45 44.4 54.45 44.4 54.5 44.4C54.5079 44.4508 54.5159 44.5016 54.524 44.5539C54.634 45.2186 54.8273 45.7646 55.25 46.3C55.2809 46.3392 55.3119 46.3784 55.3438 46.4188C55.8879 47.0682 56.6627 47.4619 57.5 47.55C57.3689 47.6856 57.2348 47.805 57.0844 47.9188C57.0251 47.9649 57.0251 47.9649 56.9647 48.0119C56.8969 48.064 56.8285 48.1153 56.7588 48.1647C56.5437 48.3276 56.4048 48.5258 56.2594 48.75C56.2401 48.7797 56.2208 48.8094 56.201 48.84C55.9353 49.2653 55.8793 49.6711 55.9844 50.16C56.1112 50.5812 56.2969 50.8435 56.65 51.1C56.5784 51.1019 56.5784 51.1019 56.5053 51.1039C55.8301 51.1335 55.3162 51.2858 54.8 51.75C54.3014 52.3241 54.2527 52.9781 54.2219 53.7031C54.2186 53.7752 54.2186 53.7752 54.2153 53.8487C54.2101 53.9658 54.205 54.0829 54.2 54.2C54.1238 54.0995 54.0491 53.9987 53.9781 53.8943C53.6826 53.4783 53.28 53.1983 52.7828 53.0717C52.0428 52.9509 51.3679 53.1378 50.75 53.55C50.5005 53.7495 50.2756 53.9744 50.05 54.2C50.0487 54.1348 50.0474 54.0696 50.0461 54.0024C50.0209 53.1213 49.8349 52.4199 49.2192 51.7584C48.5587 51.1575 47.8068 51.0205 46.95 51C46.988 50.9709 47.0259 50.9419 47.0651 50.9119C47.4016 50.6329 47.5673 50.3317 47.6178 49.8971C47.651 49.3355 47.4594 48.9073 47.1219 48.4656C46.8226 48.1477 46.4433 47.8743 46.0781 47.6365C46.0359 47.608 45.9936 47.5794 45.95 47.55C45.95 47.5335 45.95 47.517 45.95 47.5C45.9877 47.4993 46.0253 47.4986 46.0641 47.4979C46.899 47.4604 47.7613 47.1684 48.35 46.55C48.6441 46.1684 48.6865 45.8201 48.65 45.35C48.5685 44.8458 48.3623 44.4323 48.1 44C48.1371 44.0108 48.1741 44.0217 48.2123 44.0328C48.7347 44.1709 49.3841 44.3005 49.8813 44.0281C50.3482 43.687 50.547 43.2228 50.75 42.7Z" fill="#F1D74C"/>
<path d="M49.9 33.15C50.027 33.2655 50.104 33.385 50.1875 33.5344C50.5609 34.1626 51.0858 34.5655 51.8 34.75C52.7268 34.9275 53.7782 34.9307 54.6 34.4C54.7093 34.3233 54.8158 34.2448 54.9203 34.1617C55 34.1 55 34.1 55.1 34.05C55.1007 34.0858 55.1014 34.1216 55.1021 34.1584C55.123 34.594 55.1897 35.1035 55.5226 35.4147C55.9244 35.684 56.4023 35.6081 56.8541 35.5199C57.314 35.4102 57.7848 35.2806 58.2 35.05C58.2062 35.3875 58.2062 35.3875 58.15 35.5C58.1113 36.0721 58.1022 36.6937 58.25 37.25C58.2622 37.2969 58.2745 37.3437 58.2871 37.392C58.4134 37.7994 58.6187 38.1246 59.0006 38.3317C59.7117 38.6378 60.4954 38.6563 61.2203 38.3821C61.5265 38.2423 61.8132 38.0756 62.1 37.9C62.133 37.8835 62.166 37.867 62.2 37.85C62.2013 37.905 62.2025 37.96 62.2039 38.0166C62.2267 38.6899 62.3383 39.3107 62.8506 39.7951C63.77 40.5086 65.2319 40.6576 66.35 40.8C66.3211 40.8373 66.3211 40.8373 66.2916 40.8753C65.5455 41.8515 65.1659 42.8875 65.3216 44.1219C65.5362 45.1665 66.0231 46.086 66.7 46.9C66.7274 46.9333 66.7549 46.9665 66.7832 47.0008C67.0667 47.312 67.448 47.5249 67.8 47.75C67.6725 47.8946 67.527 47.9756 67.3593 48.0688C66.8791 48.3393 66.8791 48.3393 66.6 48.8C66.5755 48.9558 66.5703 49.0947 66.6 49.25C66.81 49.535 67.2501 49.5689 67.5802 49.6203C68.1325 49.6791 68.6954 49.6544 69.25 49.65C69.25 49.683 69.25 49.716 69.25 49.75C69.166 49.8145 69.166 49.8145 69.0562 49.8813C69.0203 49.9036 68.9843 49.9259 68.9472 49.9489C68.85 50 68.85 50 68.75 50C68.75 50.033 68.75 50.066 68.75 50.1C67.9035 50.4228 66.9764 50.6049 66.1 50.2688C65.6886 50.0564 65.4111 49.6963 65.2713 49.2606C65.1766 48.7689 65.2173 48.3181 65.5 47.9C65.5493 47.8329 65.5991 47.7661 65.65 47.7C65.549 47.6531 65.4479 47.6062 65.3468 47.5594C65.2872 47.5317 65.2276 47.504 65.1662 47.4754C65.0487 47.4221 64.933 47.3734 64.8125 47.3281C64.0307 46.9523 63.4278 46.1714 63.1371 45.3688C62.8569 44.4724 62.9827 43.5335 63.4 42.7C63.6046 42.3272 63.8454 42.0442 64.15 41.75C64.1162 41.7463 64.0825 41.7425 64.0477 41.7386C63.8922 41.721 63.7367 41.7027 63.5812 41.6844C63.5016 41.6756 63.5016 41.6756 63.4205 41.6665C62.7175 41.5824 62.0126 41.4036 61.5541 40.8301C61.3456 40.5438 61.2 40.3125 61.2 39.95C61.1721 39.973 61.1443 39.9959 61.1156 40.0196C60.7851 40.2853 60.482 40.5068 60.05 40.55C60.05 40.583 60.05 40.616 60.05 40.65C59.8656 40.6544 59.6812 40.6571 59.4968 40.6594C59.4449 40.6607 59.393 40.6619 59.3395 40.6632C59.0324 40.6661 58.8211 40.6457 58.55 40.5C58.503 40.477 58.4561 40.454 58.4078 40.4303C57.6197 40.0096 57.2044 39.3942 56.8982 38.5588C56.76 38.098 56.7865 37.6259 56.8 37.15C56.7699 37.1606 56.7399 37.1712 56.709 37.1821C56.6692 37.1958 56.6293 37.2095 56.5882 37.2237C56.5489 37.2373 56.5096 37.251 56.4692 37.2651C56.0581 37.3856 55.6288 37.2791 55.25 37.1C54.8474 36.8296 54.4769 36.446 54.3693 35.9621C54.3629 35.9251 54.3565 35.8881 54.35 35.85C54.1839 35.9135 54.0306 35.9863 53.875 36.0719C53.2235 36.3967 52.3982 36.4722 51.7 36.25C51.6472 36.2353 51.5945 36.2205 51.5402 36.2053C50.8367 35.9865 50.2389 35.5372 49.8849 34.8791C49.835 34.7707 49.7913 34.662 49.75 34.55C49.7293 34.5016 49.7087 34.4531 49.6875 34.4031C49.593 34.0173 49.639 33.6611 49.8 33.3C49.833 33.2505 49.866 33.201 49.9 33.15Z" fill="#D5792C"/>
<path d="M65.1008 56.8914C65.5567 57.2232 65.9431 57.6452 66.2 58.15C66.2 58.183 66.2 58.216 66.2 58.25C66.1606 58.2464 66.1212 58.2428 66.0807 58.239C64.9386 58.1321 64.9386 58.1321 63.9057 58.5584C63.3303 59.0572 62.9153 59.7294 62.85 60.5C62.8161 60.4855 62.7822 60.4711 62.7473 60.4562C62.3983 60.317 62.0534 60.1955 61.6887 60.3459C61.3367 60.5495 61.0839 60.8669 60.95 61.25C60.9214 61.4165 60.9069 61.5812 60.9 61.75C60.867 61.75 60.834 61.75 60.8 61.75C60.742 61.692 60.6842 61.6338 60.6273 61.5748C60.2029 61.1643 59.721 60.9 59.125 60.8844C58.6537 60.894 58.3382 61.0829 58 61.4C57.4195 62.0652 57.1621 62.9124 56.95 63.75C56.9047 63.7265 56.8594 63.7029 56.8127 63.6787C56.0277 63.2757 55.2354 63.0326 54.3531 63.2781C53.8534 63.4563 53.3434 63.8133 53.1 64.3C53.067 64.3 53.034 64.3 53 64.3C52.9373 64.2138 52.8786 64.1246 52.8219 64.0344C52.2801 63.2076 51.6369 62.5868 50.65 62.35C50.507 62.3354 50.3655 62.3333 50.2219 62.3344C50.1629 62.3348 50.1629 62.3348 50.1027 62.3352C49.4004 62.3496 48.6994 62.5306 48.1701 63.0172C48.046 63.1638 47.9758 63.3241 47.9 63.5C47.7531 63.4345 47.6972 63.3964 47.5937 63.2656C47.3669 62.9798 47.0106 62.7205 46.65 62.65C46.1229 62.5973 45.7076 62.8574 45.2875 63.15C45.2303 63.189 45.2303 63.189 45.1719 63.2289C45.0981 63.2792 45.0245 63.3297 44.9511 63.3805C44.8183 63.4718 44.6843 63.561 44.55 63.65C44.55 63.0236 44.9201 62.4411 45.3412 62.0008C45.7689 61.6046 46.0764 61.4632 46.6687 61.4808C47.1473 61.5314 47.519 61.8151 47.85 62.15C47.8963 62.0666 47.8963 62.0666 47.9435 61.9816C48.1896 61.5462 48.4332 61.1465 48.8 60.8C48.8378 60.7642 48.8757 60.7284 48.9146 60.6916C49.5404 60.1474 50.2399 60.0148 51.05 60.05C51.6156 60.1122 52.1307 60.3742 52.55 60.75C52.5875 60.7823 52.625 60.8146 52.6637 60.8478C53.1137 61.2618 53.4178 61.8024 53.55 62.4C53.5725 62.3806 53.595 62.3613 53.6182 62.3414C54.083 61.9651 54.5555 61.8393 55.15 61.9C55.4537 61.9574 55.7312 62.0474 56 62.2C55.9835 62.1484 55.967 62.0969 55.95 62.0437C55.7336 61.1625 56.0516 60.3927 56.5 59.65C56.534 59.5837 56.5677 59.5171 56.6 59.45C56.6165 59.483 56.633 59.516 56.65 59.55C56.6778 59.527 56.7057 59.5041 56.7344 59.4805C56.9765 59.2857 57.2114 59.1178 57.5 59C57.5646 58.9732 57.5646 58.9732 57.6305 58.9459C58.3404 58.7537 59.143 58.8869 59.7719 59.2469C60.0334 59.4154 60.275 59.5874 60.45 59.85C60.4573 59.8065 60.4573 59.8065 60.4648 59.7621C60.5285 59.4295 60.6247 59.2107 60.8844 58.9812C61.094 58.8784 61.2699 58.8704 61.5 58.9C61.5165 58.9165 61.533 58.933 61.55 58.95C61.5568 58.8967 61.5635 58.8435 61.5705 58.7887C61.6828 57.998 61.9617 57.305 62.6223 56.808C63.4495 56.2777 64.2818 56.3844 65.1008 56.8914Z" fill="#D7812D"/>
<path d="M40.1 38.6C40.4638 38.7592 40.6855 39.1126 40.8467 39.4631C41.097 40.1058 41.1736 40.9147 40.9551 41.5804C40.7599 42.004 40.428 42.2932 40.0281 42.5187C39.8358 42.5656 39.6469 42.5577 39.45 42.55C39.45 42.5995 39.45 42.649 39.45 42.7C39.5242 42.7247 39.5242 42.7247 39.6 42.75C39.995 43.2767 40.0404 43.9413 39.9764 44.5795C39.8556 45.3603 39.456 45.9701 38.8254 46.4435C38.3601 46.7571 37.8636 46.9713 37.3 47C37.3351 47.0175 37.3701 47.035 37.4062 47.0531C37.6046 47.1868 37.8024 47.3628 37.8828 47.5945C37.9431 47.9642 37.9166 48.2667 37.75 48.6C37.75 48.6495 37.75 48.699 37.75 48.75C37.8196 48.8179 37.8196 48.8179 37.9148 48.8765C37.9501 48.9003 37.9854 48.9241 38.0218 48.9486C38.06 48.9738 38.0981 48.999 38.1375 49.025C38.5251 49.2894 38.8645 49.5721 39.2 49.9C39.238 49.9354 39.2759 49.9709 39.315 50.0074C39.8842 50.5498 40.1469 51.2016 40.1796 51.9837C40.1856 52.4543 40.1165 52.8262 39.9 53.25C39.867 53.25 39.834 53.25 39.8 53.25C39.783 53.3026 39.783 53.3026 39.7656 53.3562C39.6593 53.5891 39.5149 53.7567 39.3 53.9C39.3265 53.9157 39.3531 53.9314 39.3805 53.9476C39.764 54.18 39.764 54.18 39.9 54.35C39.9 54.3995 39.9 54.449 39.9 54.5C39.933 54.5 39.966 54.5 40 54.5C40.0575 54.6374 40.1147 54.7749 40.1719 54.9125C40.1881 54.9513 40.2044 54.9902 40.2212 55.0302C40.2368 55.068 40.2524 55.1057 40.2685 55.1445C40.2829 55.1791 40.2973 55.2136 40.3122 55.2492C40.3495 55.3486 40.3764 55.4466 40.4 55.55C40.433 55.55 40.466 55.55 40.5 55.55C40.5867 55.6545 40.5867 55.6545 40.6875 55.7969C40.7407 55.872 40.7407 55.872 40.7949 55.9486C40.8296 55.9986 40.8643 56.0485 40.9 56.1C40.9295 56.1422 40.959 56.1844 40.9894 56.2279C41.1929 56.525 41.3054 56.8014 41.4 57.15C41.417 57.2116 41.434 57.2732 41.4516 57.3367C41.6294 58.058 41.4785 58.7688 41.1109 59.4039C41.0287 59.5243 40.9424 59.6373 40.85 59.75C40.7928 59.8289 40.7928 59.8289 40.7344 59.9094C40.4437 60.2135 40.0825 60.4298 39.7 60.6C39.6567 60.6196 39.6134 60.6392 39.5687 60.6594C39.0395 60.8404 38.4994 60.7859 38 60.55C37.8592 60.4744 37.8592 60.4744 37.75 60.4C37.75 60.367 37.75 60.334 37.75 60.3C37.7882 60.2866 37.8264 60.2732 37.8658 60.2594C38.8995 59.8812 39.8167 59.3421 40.3031 58.3062C40.481 57.7299 40.338 57.1686 40.0746 56.6521C39.8714 56.284 39.6268 55.9654 39.35 55.65C39.3083 55.6022 39.2666 55.5543 39.2236 55.5051C38.703 54.9225 38.1377 54.402 37.5 53.95C37.6211 53.8277 37.7404 53.708 37.8719 53.5969C38.2845 53.1238 38.42 52.5465 38.4156 51.9344C38.4154 51.8929 38.4151 51.8515 38.4149 51.8089C38.4004 51.0484 38.1278 50.3997 37.6 49.85C37.1425 49.445 36.6173 49.1695 36.05 48.95C36.0799 48.9045 36.0799 48.9045 36.1103 48.8582C36.3766 48.4371 36.5704 48.0073 36.5 47.5C36.3949 47.0343 36.229 46.5915 36.05 46.15C36.2732 46.0502 36.4965 45.9511 36.7215 45.8552C37.5187 45.5132 38.3126 45.1341 38.6656 44.2937C38.8291 43.3724 38.538 42.5805 38.0625 41.8078C38 41.7 38 41.7 38 41.6C38.0268 41.5974 38.0536 41.5948 38.0812 41.5922C38.7177 41.5 39.3858 41.1487 39.7849 40.6422C40.0556 40.2594 40.1753 39.9182 40.1625 39.45C40.1621 39.3933 40.1621 39.3933 40.1617 39.3355C40.1583 39.087 40.1347 38.846 40.1 38.6Z" fill="#D8862E"/>
<path d="M22.6344 47.8906C22.6835 47.8907 22.7326 47.8907 22.7832 47.8907C26.6912 47.8956 26.6912 47.8956 27.7 48.4C27.7 48.4495 27.7 48.499 27.7 48.55C27.4696 48.6538 27.2487 48.7333 27.0027 48.7951C26.9706 48.8033 26.9385 48.8114 26.9054 48.8198C26.8016 48.8459 26.6977 48.8714 26.5938 48.8969C26.5578 48.9058 26.5219 48.9146 26.4848 48.9237C25.5789 49.1464 24.6775 49.308 23.7531 49.4313C23.7141 49.4365 23.6751 49.4417 23.6349 49.4471C22.624 49.5815 21.6256 49.6657 20.6055 49.6576C20.497 49.6572 20.3884 49.6568 20.2799 49.6564C20.0379 49.6554 19.7958 49.6541 19.5538 49.6525C19.155 49.65 18.7563 49.6481 18.3575 49.6463C17.4246 49.642 16.4917 49.6364 15.5588 49.6306C15.251 49.6287 14.9432 49.6269 14.6354 49.6252C12.9409 49.6156 11.2466 49.6058 9.55236 49.5764C9.4667 49.575 9.4667 49.575 9.37932 49.5736C9.22102 49.5709 9.06274 49.5679 8.90446 49.5649C8.85938 49.5641 8.81431 49.5634 8.76787 49.5626C8.49242 49.5567 8.22345 49.534 7.95001 49.5C7.96651 49.434 7.98301 49.368 8.00001 49.3C8.13713 49.2848 8.27425 49.2696 8.41136 49.2543C8.53544 49.2405 8.65951 49.2267 8.78359 49.2129C9.09966 49.1778 9.41574 49.1427 9.73182 49.1077C9.91569 49.0873 10.0995 49.0669 10.2834 49.0465C10.3204 49.0424 10.3573 49.0383 10.3954 49.0341C10.875 48.9809 11.3544 48.927 11.8338 48.8723C13.423 48.6916 15.014 48.5332 16.6061 48.3807C16.6414 48.3773 16.6768 48.3739 16.7132 48.3704C17.0293 48.3402 17.3453 48.3099 17.6614 48.28C18.4404 48.2061 19.2183 48.1292 19.9947 48.031C20.8748 47.9204 21.7476 47.8897 22.6344 47.8906Z" fill="#E27A32"/>
<path d="M60.4 70.9C60.4855 70.9047 60.4855 70.9047 60.6 70.95C60.6857 71.0571 60.7585 71.1597 60.8312 71.275C60.853 71.3087 60.8747 71.3423 60.8971 71.377C60.9656 71.4841 61.033 71.5919 61.1 71.7C61.1205 71.7331 61.141 71.7662 61.1622 71.8002C62.4404 73.8776 63.3488 76.1291 63.9726 78.4803C64.0652 78.8274 64.1654 79.1705 64.2759 79.5123C64.4062 79.9162 64.5299 80.322 64.6531 80.7281C64.6641 80.7645 64.6751 80.8008 64.6865 80.8382C64.8163 81.2662 64.9423 81.6948 65.0586 82.1267C65.159 82.4935 65.2782 82.8542 65.3955 83.2159C65.5755 83.7739 65.739 84.3363 65.9 84.9C65.9159 84.9558 65.9319 85.0116 65.9483 85.0691C65.9823 85.188 66.0162 85.3069 66.0502 85.4258C66.0959 85.5859 66.1418 85.746 66.1877 85.9061C66.2617 86.1645 66.3355 86.4229 66.4091 86.6814C66.4633 86.8715 66.5176 87.0615 66.572 87.2514C66.6357 87.4735 66.6991 87.6956 66.7623 87.9178C66.7873 88.0057 66.8125 88.0936 66.8377 88.1814C66.8733 88.3053 66.9086 88.4292 66.9437 88.5531C66.9545 88.5903 66.9653 88.6275 66.9763 88.6658C67.0242 88.8359 67.05 88.9717 67.05 89.15C66.9581 89.1405 66.9581 89.1405 66.85 89.1C66.7819 88.9946 66.7819 88.9946 66.7199 88.8518C66.6959 88.7974 66.6719 88.743 66.6471 88.687C66.6212 88.6263 66.5954 88.5657 66.5687 88.5031C66.5406 88.4386 66.5124 88.374 66.4841 88.3095C66.4054 88.1291 66.3278 87.9484 66.2503 87.7675C66.1989 87.6475 66.1472 87.5276 66.0954 87.4077C65.8476 86.8336 65.6018 86.2586 65.3567 85.6832C65.2835 85.5114 65.2101 85.3396 65.1367 85.1679C64.5995 83.9102 64.0742 82.6478 63.552 81.3839C63.4453 81.1256 63.3384 80.8675 63.2312 80.6094C63.2089 80.5555 63.2089 80.5555 63.1861 80.5005C62.9981 80.0478 62.806 79.597 62.6095 79.1479C62.0063 77.7681 61.458 76.4107 61.0875 74.947C61.0521 74.8084 61.0155 74.6703 60.9783 74.5323C60.7982 73.8646 60.6547 73.1982 60.5437 72.5156C60.5352 72.4634 60.5266 72.4111 60.5178 72.3572C60.4408 71.8708 60.3919 71.3927 60.4 70.9Z" fill="#E27A32"/>
<path d="M77.5 15.25C77.5495 15.25 77.599 15.25 77.65 15.25C77.6204 15.4435 77.5629 15.5858 77.4666 15.7557C77.4388 15.8051 77.411 15.8545 77.3823 15.9054C77.3521 15.9582 77.3218 16.0111 77.2906 16.0656C77.2592 16.1211 77.2279 16.1765 77.1955 16.2336C76.9267 16.7069 76.6527 17.1772 76.3774 17.6467C76.2277 17.9021 76.0798 18.1586 75.9323 18.4153C75.3225 19.4771 74.6967 20.5294 74.0594 21.575C73.5831 22.3565 73.1241 23.1475 72.6674 23.9405C72.5118 24.2105 72.356 24.4803 72.2 24.75C72.1568 24.8249 72.1568 24.8249 72.1126 24.9014C71.0324 26.7686 69.4691 29.1928 67.6 30.35C67.5505 30.35 67.501 30.35 67.45 30.35C67.4731 29.9677 67.6048 29.6437 67.7469 29.2906C67.7591 29.2599 67.7714 29.2292 67.784 29.1975C68.1169 28.3628 68.5006 27.5624 68.9512 26.785C69.0218 26.662 69.089 26.5373 69.1563 26.4125C69.7312 25.3581 70.4384 24.42 71.181 23.4797C71.6392 22.898 72.0845 22.306 72.5276 21.7127C72.6607 21.5352 72.7957 21.3591 72.9305 21.1828C73.2268 20.7951 73.5209 20.4061 73.8094 20.0125C74.1099 19.6025 74.4167 19.1977 74.7269 18.7949C74.7938 18.7081 74.8605 18.6212 74.9272 18.5342C75.2523 18.1104 75.5804 17.6889 75.9086 17.2674C75.9995 17.1507 76.0903 17.0338 76.1811 16.917C76.4545 16.565 76.7282 16.2132 77.0031 15.8625C77.0246 15.8351 77.046 15.8077 77.0681 15.7794C77.1284 15.7027 77.1892 15.6263 77.25 15.55C77.2717 15.5216 77.2933 15.4932 77.3156 15.464C77.3737 15.3899 77.4366 15.3196 77.5 15.25Z" fill="#E27A32"/>
<path d="M86.75 53.1C87.019 53.3627 87.019 53.3627 87.1197 53.5138C87.1493 53.558 87.1493 53.558 87.1794 53.603C87.1996 53.634 87.2198 53.6649 87.2406 53.6969C87.2621 53.7297 87.2837 53.7625 87.3059 53.7963C88.093 55.0071 88.7372 56.4081 88.4658 57.8861C88.4198 58.031 88.3663 58.1633 88.3 58.3C88.2673 58.3695 88.2673 58.3695 88.234 58.4404C87.3714 60.1396 85.41 60.9826 83.6972 61.5534C82.7846 61.8423 82.7846 61.8423 82.6 61.75C82.6762 61.6892 82.6762 61.6892 82.7539 61.6271C84.4875 60.2362 85.8405 58.5716 86.45 56.4C86.4683 56.3416 86.4683 56.3416 86.4871 56.282C86.8011 55.2394 86.7677 54.1763 86.75 53.1Z" fill="#FFF368"/>
<path d="M44.45 58.65C44.4995 58.6665 44.549 58.683 44.6 58.7C44.2586 59.7669 43.7795 60.7896 43.3 61.8C43.2624 61.8795 43.2624 61.8795 43.224 61.9606C42.7392 62.9828 42.2408 63.9952 41.6944 64.986C41.5833 65.1878 41.4762 65.3913 41.3709 65.5961C40.9081 66.4943 40.3748 67.3554 39.8406 68.2125C39.8101 68.2616 39.7795 68.3106 39.748 68.3612C39.5895 68.6136 39.4263 68.8597 39.25 69.1C39.069 69.0397 39.0529 68.9949 38.9531 68.8375C38.7762 68.5719 38.5692 68.3498 38.3412 68.1278C38.1514 67.934 38.1514 67.934 38.1451 67.7807C38.2218 67.5981 38.3087 67.424 38.4031 67.25C38.4235 67.2121 38.4439 67.1743 38.4648 67.1352C38.6117 66.8644 38.7665 66.5998 38.9312 66.3394C39.0178 66.202 39.103 66.0639 39.1876 65.9253C39.5542 65.3259 39.9356 64.7385 40.3301 64.1572C40.4219 64.0219 40.5134 63.8864 40.6048 63.7509C41.1281 62.9766 41.6548 62.2032 42.2125 61.4531C42.2414 61.4142 42.2702 61.3753 42.2999 61.3351C42.546 61.0036 42.7961 60.6756 43.05 60.35C43.0946 60.2925 43.1391 60.2351 43.1836 60.1776C43.4957 59.7761 43.8189 59.3858 44.15 59C44.1834 58.961 44.2168 58.9219 44.2512 58.8817C44.3173 58.8043 44.3837 58.7272 44.45 58.65Z" fill="#D96B37"/>
<path d="M35.1594 21.1063C35.2125 21.1212 35.2656 21.1362 35.3203 21.1516C35.8145 21.2955 36.2828 21.4856 36.75 21.7C36.75 21.7165 36.75 21.733 36.75 21.75C36.7007 21.7511 36.7007 21.7511 36.6504 21.7522C34.2324 21.8117 31.9173 22.4436 30.1987 24.2365C29.3077 25.1983 28.7178 26.4724 28.45 27.75C28.417 27.75 28.384 27.75 28.35 27.75C28.2512 27.4081 28.1825 27.0685 28.1407 26.7156C28.1365 26.6812 28.1323 26.6469 28.128 26.6114C27.9999 25.4534 28.2921 24.3095 28.85 23.3C28.8773 23.2505 28.9046 23.201 28.9327 23.15C29.1524 22.7804 29.4348 22.477 29.7326 22.17C29.7884 22.112 29.843 22.0529 29.8971 21.9934C31.1974 20.596 33.471 20.6238 35.1594 21.1063Z" fill="#FFF368"/>
<path d="M52.1 14.5C52.1519 14.5145 52.1519 14.5145 52.2049 14.5293C53.1725 14.8058 53.9981 15.2817 54.75 15.95C54.5708 16.0113 54.4391 15.988 54.2547 15.9541C53.7625 15.8786 53.272 15.8824 52.775 15.8844C52.7016 15.8846 52.7016 15.8846 52.6266 15.8847C51.9254 15.8872 51.2375 15.8982 50.55 16.05C50.5011 16.0608 50.4523 16.0715 50.4019 16.0825C48.4662 16.5192 46.7653 17.3346 45.2 18.55C45.2 17.6732 46.3546 16.5385 46.9 15.95C46.9264 15.9204 46.9527 15.8907 46.9799 15.8602C48.2472 14.4989 50.3288 13.9961 52.1 14.5Z" fill="#FFF368"/>
<path d="M42.95 28.25C43.1364 28.304 43.297 28.3751 43.4656 28.4687C43.7354 28.6098 44.0121 28.668 44.3099 28.7196C44.5796 28.7725 44.5796 28.7725 44.6781 28.905C44.7626 29.0754 44.825 29.2491 44.8836 29.4295C44.8958 29.4661 44.9079 29.5027 44.9204 29.5404C44.9598 29.6591 44.9987 29.778 45.0375 29.8969C45.0647 29.9796 45.092 30.0622 45.1192 30.1449C45.1852 30.3453 45.2507 30.5458 45.3161 30.7463C45.3604 30.8816 45.405 31.0168 45.4496 31.152C45.9469 32.6725 46.3777 34.2263 46.6969 35.7937C46.7075 35.8455 46.7181 35.8972 46.729 35.9505C46.7754 36.1868 46.8136 36.4078 46.8 36.65C46.7105 36.6413 46.7105 36.6413 46.6 36.6C46.5156 36.4877 46.5156 36.4877 46.4322 36.3389C46.4011 36.284 46.3699 36.2291 46.3378 36.1726C46.3054 36.114 46.273 36.0554 46.2406 35.9969C46.2095 35.9418 46.1784 35.8867 46.1464 35.83C46.0815 35.7148 46.0168 35.5995 45.9526 35.4839C45.8824 35.3578 45.8116 35.232 45.7402 35.1065C45.4746 34.6388 45.2208 34.166 44.975 33.6875C44.9566 33.6518 44.9382 33.6161 44.9193 33.5793C44.6439 33.0439 44.3841 32.5043 44.1447 31.9518C44.0762 31.7957 44.0038 31.6417 43.9313 31.4875C43.8708 31.3583 43.8104 31.2292 43.75 31.1C43.7293 31.0556 43.7085 31.0113 43.6871 30.9656C43.5217 30.6117 43.3593 30.2567 43.2 29.9C43.1803 29.8561 43.1606 29.8122 43.1404 29.767C42.7734 28.937 42.7734 28.937 42.9 28.45C42.9093 28.4122 42.9186 28.3745 42.9281 28.3355C42.9354 28.3073 42.9426 28.2791 42.95 28.25Z" fill="#D96B38"/>
<path d="M23.7 33.95C23.586 34.064 23.4954 34.083 23.3424 34.1222C22.2368 34.4068 21.2525 35.0011 20.4 35.75C20.369 35.7768 20.338 35.8037 20.3061 35.8313C19.537 36.545 19.0438 37.6214 18.9 38.65C18.896 38.7842 18.8942 38.917 18.8951 39.0512C18.8952 39.1072 18.8952 39.1072 18.8953 39.1643C18.8956 39.2824 18.8962 39.4006 18.8969 39.5188C18.8971 39.5993 18.8974 39.6798 18.8976 39.7604C18.8981 39.9569 18.899 40.1535 18.9 40.35C18.1248 39.3515 17.9761 37.8938 18.0623 36.6762C18.1866 35.7257 18.7406 34.8519 19.4844 34.2657C20.6527 33.4247 22.4 33.3208 23.7 33.95Z" fill="#FFF368"/>
<path d="M29.75 73.2C29.832 73.3525 29.8843 73.5033 29.9344 73.6688C30.412 75.1157 31.4737 76.1196 32.8 76.8C34.0081 77.3813 35.3219 77.6056 36.65 77.7C36.5377 77.8123 36.4879 77.8242 36.3365 77.8592C36.2927 77.8694 36.2488 77.8796 36.2036 77.8901C35.9528 77.9454 35.7018 77.9993 35.45 78.05C35.3862 78.0629 35.3862 78.0629 35.3211 78.0761C33.8595 78.3592 32.1985 78.3518 30.8988 77.5563C30.106 76.9903 29.6526 76.2106 29.4195 75.2781C29.3129 74.5785 29.3928 73.8158 29.75 73.2Z" fill="#FFF368"/>
<path d="M42.25 80.05C42.391 80.1176 42.5211 80.1932 42.6518 80.2791C43.6654 80.9336 44.7359 81.4719 45.9 81.8C45.9592 81.8167 46.0183 81.8334 46.0793 81.8506C47.4798 82.205 49.1113 82.1733 50.3906 81.4519C50.4267 81.4348 50.4628 81.4177 50.5 81.4C50.533 81.4165 50.566 81.433 50.6 81.45C49.8988 82.4368 48.9073 83.2165 47.6902 83.4277C46.6109 83.5541 45.6048 83.3641 44.65 82.85C44.5978 82.8233 44.5456 82.7966 44.4918 82.7691C44.0874 82.5507 43.7757 82.2687 43.45 81.95C43.3934 81.8972 43.3934 81.8972 43.3357 81.8433C42.8528 81.3837 42.3984 80.7099 42.25 80.05Z" fill="#FFF368"/>
<path d="M83.55 38.8C83.8071 38.831 84.0189 38.9471 84.2469 39.0625C84.2904 39.0844 84.3339 39.1064 84.3787 39.129C87.5491 40.7529 87.5491 40.7529 88.032 42.1957C88.1672 42.9805 87.929 43.711 87.4939 44.3576C87.2635 44.6763 87.0016 44.9615 86.725 45.2406C86.6944 45.2715 86.6638 45.3023 86.6323 45.3341C86.4128 45.55 86.4128 45.55 86.3 45.55C86.3054 45.505 86.3054 45.505 86.3109 45.4592C86.5121 43.4951 86.0496 41.6471 84.8 40.1C84.6083 39.8754 84.4055 39.6619 84.2 39.45C84.1479 39.3958 84.1479 39.3958 84.0947 39.3404C83.9615 39.2043 83.8253 39.0771 83.6781 38.9562C83.6358 38.9212 83.5936 38.8861 83.55 38.85C83.55 38.8335 83.55 38.817 83.55 38.8Z" fill="#FFF368"/>
<path d="M63.15 52.95C63.4752 53.0078 63.7822 53.1239 64.0937 53.2313C64.1283 53.2432 64.163 53.2551 64.1986 53.2673C65.6412 53.7652 67.0568 54.3275 68.45 54.95C68.5142 54.9786 68.5784 55.0071 68.6427 55.0357C69.3146 55.3342 69.9858 55.6345 70.65 55.95C70.6228 56.1553 70.5774 56.3155 70.4844 56.5C70.3308 56.8236 70.2403 57.1544 70.15 57.5C70.0018 57.4685 69.8829 57.4207 69.7504 57.3477C69.7116 57.3264 69.6728 57.3051 69.6329 57.2832C69.5911 57.2599 69.5493 57.2365 69.5062 57.2125C69.4621 57.188 69.4179 57.1635 69.3724 57.1382C68.4658 56.6322 67.5807 56.0898 66.6987 55.5423C66.6067 55.4852 66.5147 55.4282 66.4226 55.3714C65.2829 54.6679 64.1664 53.9105 63.1 53.1C63.1165 53.0505 63.133 53.001 63.15 52.95Z" fill="#D4643B"/>
<path d="M21.6 63.75C21.6 63.9708 21.4848 64.1369 21.3832 64.3277C21.0838 64.9041 21.0601 65.5767 21.2424 66.1975C21.7554 67.5556 22.9687 68.5375 24.25 69.15C24.25 69.1665 24.25 69.183 24.25 69.2C22.9349 69.1943 21.3272 68.5821 20.35 67.7C20.3141 67.6682 20.2782 67.6363 20.2412 67.6035C19.786 67.1766 19.5009 66.6554 19.4781 66.0281C19.4956 65.4489 19.7513 65.0589 20.15 64.65C20.5822 64.2629 21.085 64.0081 21.6 63.75Z" fill="#FFF368"/>
<path d="M80.55 68.25C80.8721 68.5721 80.9409 69.3603 80.95 69.8C80.9515 69.8338 80.953 69.8676 80.9545 69.9024C80.9979 70.9141 80.7983 71.7857 80.1207 72.5732C79.7787 72.9324 79.3919 73.1804 78.95 73.4C78.9148 73.419 78.8796 73.438 78.8434 73.4576C78.0467 73.859 77.0374 73.8447 76.2 73.6C76.2 73.567 76.2 73.534 76.2 73.5C76.2504 73.4811 76.3007 73.4622 76.3526 73.4428C77.9144 72.8389 79.3191 71.8089 80.0656 70.2781C80.3543 69.6075 80.4938 68.9754 80.55 68.25Z" fill="#FFF368"/>
<path d="M84.0531 63.2312C84.1052 63.2604 84.1572 63.2896 84.2108 63.3196C84.3746 63.4119 84.5374 63.5056 84.7 63.6C84.7511 63.6296 84.8023 63.6593 84.8549 63.6898C85.0559 63.8066 85.2566 63.9238 85.4569 64.0418C85.7846 64.2344 86.1154 64.4197 86.45 64.6C86.838 64.8091 87.2202 65.0264 87.6 65.25C88.0278 65.5018 88.4595 65.7442 88.8962 65.9802C89.2946 66.1958 89.6878 66.4198 90.0805 66.6455C90.4193 66.8402 90.7599 67.0317 91.1006 67.223C91.234 67.2982 91.367 67.3741 91.5 67.45C91.5478 67.4766 91.5956 67.5031 91.6449 67.5305C91.6907 67.5566 91.7366 67.5828 91.7838 67.6097C91.8253 67.6331 91.8669 67.6564 91.9096 67.6805C91.9395 67.7034 91.9693 67.7263 92 67.75C92 67.7995 92 67.849 92 67.9C91.7547 67.8716 91.5546 67.793 91.335 67.6855C91.3 67.6688 91.2649 67.652 91.2289 67.6348C91.1534 67.5987 91.078 67.5624 91.0026 67.5259C90.7996 67.4277 90.596 67.3308 90.3924 67.2338C90.3509 67.2139 90.3094 67.1941 90.2666 67.1737C89.8738 66.9866 89.478 66.8067 89.0813 66.6281C88.4434 66.3405 87.8105 66.0432 87.1789 65.7423C86.6271 65.4794 86.073 65.2226 85.5156 64.9719C84.7494 64.6269 83.9942 64.2608 83.2396 63.891C82.92 63.7347 82.5985 63.5824 82.275 63.4343C82.0686 63.3383 81.8836 63.2335 81.7 63.1C81.7 63.0835 81.7 63.067 81.7 63.05C81.7454 63.0481 81.7454 63.0481 81.7916 63.0462C81.9299 63.0403 82.0681 63.0342 82.2063 63.0281C82.2538 63.0261 82.3014 63.0242 82.3504 63.0221C82.5382 63.0137 82.7204 63.0051 82.9059 62.9732C83.3736 62.8978 83.6442 62.9943 84.0531 63.2312Z" fill="#E27B34"/>
<path d="M50.35 65.75C50.6433 65.7804 50.9007 65.8617 51.1781 65.9594C51.8888 66.2029 52.6139 66.4082 53.3484 66.5672C53.4551 66.5903 53.5613 66.6155 53.6672 66.6422C54.0534 66.7329 54.4196 66.7655 54.8156 66.7688C54.8836 66.7698 54.8836 66.7698 54.953 66.7708C55.3481 66.7681 55.6995 66.6841 56.05 66.5C55.7225 67.2116 54.9526 67.6402 54.2508 67.9066C53.4245 68.1442 52.3902 68.0482 51.6392 67.6398C50.9326 67.184 50.5513 66.5552 50.35 65.75Z" fill="#FEF368"/>
<path d="M67.95 39.25C68.2284 39.3738 68.4314 39.593 68.65 39.8C68.6784 39.8267 68.7067 39.8533 68.7359 39.8808C69.6166 40.7147 70.6531 41.8566 70.7151 43.1355C70.7286 43.7211 70.6685 44.2229 70.4 44.75C70.3801 44.7896 70.3602 44.8293 70.3397 44.8701C70.1156 45.2788 69.7577 45.7543 69.3 45.9C69.3072 45.8531 69.3144 45.8063 69.3219 45.758C69.4875 44.5913 69.4493 43.3913 69.15 42.25C69.1293 42.1634 69.1293 42.1634 69.1082 42.075C68.8759 41.1378 68.4785 40.2614 67.9906 39.4301C67.95 39.35 67.95 39.35 67.95 39.25Z" fill="#FEF368"/>
<path d="M63.7605 32.2699C64.4785 32.6822 64.8959 33.3184 65.1125 34.1094C65.1893 34.4997 65.2069 34.8809 65.2031 35.2781C65.2029 35.3238 65.2027 35.3694 65.2024 35.4165C65.2019 35.5277 65.201 35.6388 65.2 35.75C65.0886 35.6386 65.0359 35.5233 64.9693 35.3821C64.7871 34.996 64.5843 34.6712 64.3 34.35C64.2615 34.3011 64.223 34.2523 64.1834 34.2019C64.0487 34.0403 63.8968 33.9203 63.725 33.8C63.6944 33.7785 63.6638 33.7571 63.6323 33.7349C62.6767 33.0815 61.6205 33.0006 60.5 33.15C60.6746 32.9222 60.8438 32.7686 61.0875 32.6187C61.1183 32.5994 61.1491 32.5801 61.1809 32.5601C61.4115 32.4178 61.6449 32.2932 61.9 32.2C61.9432 32.1823 61.9865 32.1647 62.0311 32.1465C62.5761 31.9965 63.2477 32.0327 63.7605 32.2699Z" fill="#FEF268"/>
<path d="M36.65 10.8C36.7439 10.814 36.7439 10.814 36.85 10.85C36.9053 10.9263 36.9053 10.9263 36.9487 11.0265C36.9655 11.0644 36.9823 11.1022 36.9996 11.1413C37.0173 11.1831 37.0349 11.2249 37.0531 11.268C37.0723 11.3117 37.0915 11.3554 37.1113 11.4005C37.1749 11.5459 37.2374 11.6917 37.3 11.8375C37.3445 11.9395 37.389 12.0415 37.4336 12.1434C37.5264 12.3559 37.619 12.5686 37.7113 12.7813C37.9046 13.2263 38.1023 13.6695 38.2999 14.1126C38.4039 14.3459 38.5075 14.5793 38.6112 14.8127C38.7655 15.16 38.9201 15.5073 39.0748 15.8545C39.6638 17.1761 39.6638 17.1761 39.925 17.7781C39.9526 17.8411 39.9526 17.8411 39.9808 17.9053C40.1 18.1824 40.1 18.1824 40.1 18.35C39.9772 18.4002 39.8543 18.4502 39.7313 18.5C39.6963 18.5143 39.6614 18.5286 39.6254 18.5433C39.3614 18.65 39.3614 18.65 39.25 18.65C39.1611 18.3982 39.0724 18.1463 38.9839 17.8944C38.9541 17.8097 38.9243 17.725 38.8944 17.6403C38.6101 16.8352 38.3407 16.0254 38.0716 15.2153C37.9355 14.8059 37.7984 14.397 37.6612 13.988C37.5788 13.7424 37.4967 13.4967 37.4145 13.2511C37.3447 13.0427 37.2749 12.8343 37.2049 12.6259C37.1353 12.4187 37.0659 12.2114 36.9966 12.004C36.9707 11.9264 36.9446 11.8488 36.9185 11.7712C36.8824 11.6641 36.8466 11.5569 36.8109 11.4497C36.7906 11.3892 36.7704 11.3287 36.7495 11.2663C36.7032 11.1108 36.6727 10.9605 36.65 10.8Z" fill="#E27B33"/>
<path d="M33.8 55.15C33.833 55.15 33.866 55.15 33.9 55.15C33.9508 55.2221 33.9508 55.2221 34.0125 55.3281C34.1571 55.5519 34.3222 55.7419 34.5043 55.9348C34.5497 55.9832 34.5497 55.9832 34.596 56.0325C35.033 56.4947 35.488 56.9394 35.9408 57.386C36.058 57.5017 36.1749 57.6177 36.2918 57.7338C36.3459 57.7869 36.3459 57.7869 36.4012 57.8411C36.4339 57.8737 36.4667 57.9063 36.5005 57.9399C36.544 57.9828 36.544 57.9828 36.5883 58.0266C36.65 58.1 36.65 58.1 36.65 58.2C34.7121 58.2637 34.7121 58.2637 34.0526 57.661C33.6769 57.2641 33.5436 56.8422 33.55 56.3C33.5806 55.8965 33.6337 55.5205 33.8 55.15Z" fill="#FEF268"/>
<path d="M43.2486 19.2891C43.5381 19.4762 43.5381 19.4762 43.6 19.6C43.5507 19.5992 43.5014 19.5984 43.4506 19.5976C42.1171 19.5696 42.1171 19.5696 40.8 19.75C40.7588 19.7588 40.7177 19.7677 40.6753 19.7768C39.9336 19.9391 39.2368 20.1769 38.5519 20.5059C38.45 20.55 38.45 20.55 38.35 20.55C38.4169 20.3043 38.5272 20.1248 38.6844 19.9281C38.7069 19.8996 38.7295 19.871 38.7527 19.8416C39.9901 18.2941 41.6563 18.3349 43.2486 19.2891Z" fill="#FFF368"/>
<path d="M33.15 46.75C33.1062 46.801 33.0625 46.8521 33.0187 46.9031C32.9912 46.9356 32.9636 46.9681 32.9352 47.0016C32.8838 47.061 32.8314 47.1196 32.7773 47.1766C32.1838 47.8157 31.9163 48.6228 31.9262 49.4853C31.9492 50.0366 32.1374 50.5471 32.3426 51.0549C32.4007 51.2017 32.4513 51.3498 32.5 51.5C31.9082 51.2901 31.408 50.735 31.1281 50.1875C30.8433 49.587 30.8008 48.9385 30.9781 48.2937C31.18 47.7368 31.6273 47.2809 32.15 47.0094C32.4756 46.8597 32.7853 46.7219 33.15 46.75Z" fill="#FEF268"/>
<path d="M32.1 78.75C32.2467 78.7586 32.2467 78.7586 32.4219 78.7875C32.5084 78.801 32.5084 78.801 32.5967 78.8148C32.75 78.85 32.75 78.85 32.9 78.95C32.4791 79.6131 32.0542 80.2728 31.617 80.9253C31.3413 81.3372 31.0686 81.7511 30.7969 82.1656C30.753 82.2325 30.7092 82.2994 30.6653 82.3663C30.5013 82.6165 30.3374 82.8667 30.1734 83.1169C30.0161 83.3569 29.8588 83.5969 29.7013 83.8368C29.6509 83.9136 29.6006 83.9904 29.5503 84.0672C29.48 84.1746 29.4095 84.2819 29.3391 84.3893C29.3185 84.4206 29.298 84.452 29.2769 84.4844C29.1395 84.6933 28.9964 84.8973 28.85 85.1C28.8005 85.0835 28.751 85.067 28.7 85.05C28.7804 84.764 28.9187 84.5202 29.0625 84.2625C29.117 84.1638 29.1714 84.0651 29.2258 83.9664C29.2543 83.9147 29.2828 83.8631 29.3122 83.8099C29.4599 83.5409 29.6049 83.2704 29.75 83C30.6286 81.3664 30.6286 81.3664 30.8906 80.925C31.0129 80.719 31.1227 80.5087 31.2281 80.2938C31.3498 80.0461 31.4808 79.8105 31.626 79.5762C31.7405 79.3809 31.8374 79.1775 31.9352 78.9734C32 78.85 32 78.85 32.1 78.75Z" fill="#E27C35"/>
<path d="M63.8 62.2C63.9 62.25 63.9 62.25 63.9535 62.4092C64.1605 63.2041 64.2249 63.995 63.85 64.75C63.4872 65.3111 62.8832 65.6015 62.2518 65.7674C61.8064 65.8528 61.1626 65.9145 60.75 65.7C60.8 65.6 60.8 65.6 60.9443 65.5496C61.007 65.5312 61.0698 65.5128 61.1344 65.4938C61.8248 65.275 62.3446 64.91 62.85 64.4C62.8833 64.3684 62.9166 64.3367 62.951 64.3041C63.3864 63.8589 63.8086 63.0138 63.8125 62.3906C63.8084 62.3277 63.8043 62.2648 63.8 62.2Z" fill="#FEF267"/>
<path d="M35.2875 40.4312C35.3351 40.4315 35.3827 40.4318 35.4318 40.4321C35.8192 40.4392 36.1765 40.4929 36.55 40.6C36.3808 40.7128 36.2476 40.7413 36.05 40.7875C35.55 40.9136 35.0608 41.1194 34.75 41.55C34.443 42.0871 34.443 42.0871 34.3451 42.6883C34.3453 42.7327 34.3454 42.7772 34.3456 42.823C34.3462 42.892 34.3462 42.892 34.3469 42.9625C34.3471 43.0093 34.3473 43.0561 34.3476 43.1043C34.3482 43.2195 34.349 43.3347 34.35 43.45C34.0584 43.3166 33.9219 43.0624 33.75 42.8C33.7152 42.7473 33.7152 42.7473 33.6797 42.6935C33.4659 42.3033 33.4779 41.7696 33.5906 41.348C33.7415 41.0095 34.0097 40.6976 34.3576 40.5563C34.67 40.4522 34.9599 40.4263 35.2875 40.4312Z" fill="#FEF268"/>
<path d="M26.6125 29.6906C26.656 29.6906 26.6996 29.6907 26.7445 29.6907C26.9523 29.6921 27.1474 29.6977 27.35 29.75C27.2201 29.8366 27.1191 29.8841 26.975 29.9375C26.1147 30.2789 25.4971 30.8108 25.1162 31.6596C24.9839 32.0063 24.9468 32.384 24.9 32.75C24.785 32.6077 24.7103 32.4733 24.6437 32.3031C24.6271 32.2614 24.6105 32.2197 24.5933 32.1767C24.4298 31.6988 24.4096 31.1321 24.6281 30.6719C24.8932 30.2158 25.2357 29.9208 25.7482 29.7713C26.0384 29.699 26.3145 29.6864 26.6125 29.6906Z" fill="#FFF268"/>
<path d="M22.6 58.95C22.5757 58.9689 22.5515 58.9878 22.5265 59.0072C22.014 59.4281 21.6281 60.0088 21.45 60.65C21.4394 60.7817 21.4333 60.9061 21.4344 61.0375C21.4346 61.0727 21.4348 61.1079 21.4351 61.1442C21.4449 61.5844 21.551 61.9134 21.8055 62.2703C21.8201 62.2966 21.8348 62.3229 21.85 62.35C21.8335 62.383 21.817 62.416 21.8 62.45C20.6857 61.5914 20.6857 61.5914 20.55 60.95C20.5058 60.5341 20.5431 60.2354 20.8 59.9C21.135 59.4868 22.0441 58.7647 22.6 58.95Z" fill="#FFF368"/>
<path d="M59.4041 32.6062C59.5437 32.7427 59.6198 32.8723 59.7 33.05C59.7 33.083 59.7 33.116 59.7 33.15C59.6302 33.1292 59.5604 33.1083 59.4906 33.0875C59.4445 33.0738 59.3983 33.0602 59.3508 33.0461C59.2519 33.0158 59.1534 32.9841 59.0555 32.9508C57.8654 32.5541 56.5293 32.53 55.3 32.75C55.3637 32.6225 55.4122 32.6134 55.5416 32.558C55.6011 32.5325 55.6011 32.5325 55.6617 32.5065C55.7043 32.4889 55.7468 32.4713 55.7906 32.4531C55.8338 32.4351 55.8769 32.4171 55.9213 32.3986C57.0282 31.9468 58.422 31.7997 59.4041 32.6062Z" fill="#FEF168"/>
<path d="M81.75 63.65C82.2264 64.0125 82.7308 64.5976 82.85 65.2C82.8962 65.8384 82.8962 65.8384 82.7 66.1C82.4197 66.4016 82.1408 66.5764 81.75 66.7C81.7162 66.7118 81.6825 66.7236 81.6477 66.7358C81.4766 66.7917 81.3706 66.8014 81.2 66.75C81.2296 66.7264 81.2592 66.7027 81.2897 66.6783C81.6939 66.34 81.9436 65.9818 82 65.45C82.0405 64.8821 81.9591 64.3942 81.8 63.85C81.7829 63.7835 81.766 63.7168 81.75 63.65Z" fill="#FFF368"/>
<path d="M60.1 66.35C60.133 66.3665 60.166 66.383 60.2 66.4C59.5583 66.9133 58.7446 66.9745 57.95 66.9C57.6737 66.8482 57.4067 66.7643 57.15 66.65C57.1335 66.617 57.117 66.584 57.1 66.55C57.301 66.5715 57.4824 66.5949 57.6773 66.651C57.9456 66.7194 58.212 66.7171 58.4875 66.7156C58.5674 66.7153 58.5674 66.7153 58.649 66.715C59.1979 66.7071 59.6153 66.6013 60.1 66.35Z" fill="#FBEC64"/>
<path d="M56.55 59.45C56.583 59.483 56.616 59.516 56.65 59.55C56.716 59.517 56.782 59.484 56.85 59.45C56.751 59.5655 56.652 59.681 56.55 59.8C56.4978 59.6433 56.5033 59.6005 56.55 59.45Z" fill="#DF8D48"/>
</svg>
