<svg width="100" height="100" viewBox="0 0 100 100" fill="none" xmlns="http://www.w3.org/2000/svg">
<path d="M72.85 19.55C72.85 19.7682 72.7197 19.8879 72.5906 20.0531C72.535 20.1257 72.4795 20.1984 72.424 20.2711C72.3952 20.3088 72.3663 20.3466 72.3366 20.3854C72.1984 20.5683 72.0648 20.7544 71.9313 20.9406C71.7055 21.2549 71.4771 21.5671 71.2469 21.8781C70.9497 22.28 70.6597 22.6866 70.373 23.096C70.2758 23.2345 70.178 23.3727 70.0803 23.5109C69.808 23.896 69.5369 24.2821 69.2667 24.6688C69.1246 24.8722 68.9822 25.0753 68.8387 25.2777C68.3512 25.9666 67.8845 26.669 67.4179 27.3721C67.2501 27.6248 67.0817 27.8771 66.9129 28.1291C66.3951 28.9024 65.8832 29.6786 65.3855 30.4651C65.3064 30.5898 65.227 30.7144 65.1475 30.8389C64.4627 31.9128 63.8092 33.0056 63.1786 34.1121C63.1108 34.2311 63.0427 34.3498 62.9744 34.4685C62.8642 34.6612 62.7563 34.8551 62.65 35.05C62.6281 35.0901 62.6062 35.1303 62.5836 35.1717C61.7447 36.7189 61.0379 38.357 60.55 40.05C60.5396 40.0857 60.5293 40.1214 60.5186 40.1582C60.3886 40.5968 60.3886 40.5968 60.35 41.05C60.3776 41.0357 60.4051 41.0214 60.4335 41.0066C62.0788 40.1572 63.8107 39.5195 65.65 39.25C65.7089 39.2398 65.7677 39.2296 65.8283 39.2191C67.6603 38.9355 69.4518 39.2229 70.9625 40.3187C71.778 40.9555 72.4277 41.6916 73 42.55C73.0349 42.6023 73.0697 42.6545 73.1057 42.7084C74.1282 44.3109 74.9297 46.2446 74.5406 48.1812C74.5127 48.2881 74.4825 48.3944 74.45 48.5C74.4336 48.5554 74.4171 48.6107 74.4002 48.6678C74.0414 49.7666 73.3749 50.6093 72.55 51.4C73.0548 51.3636 73.5583 51.3172 74.0619 51.2681C74.1453 51.2601 74.2286 51.252 74.312 51.2439C74.5339 51.2224 74.7559 51.2007 74.9779 51.1791C75.1164 51.1655 75.2549 51.152 75.3934 51.1386C76.5922 51.0217 77.7902 50.9001 78.9875 50.769C79.8426 50.6754 80.698 50.5914 81.5552 50.519C81.9966 50.4812 82.4358 50.4346 82.8752 50.3779C83.4852 50.2993 84.0964 50.2387 84.7087 50.1804C85.0388 50.149 85.3689 50.1169 85.699 50.0846C85.7333 50.0812 85.7675 50.0779 85.8028 50.0744C86.6483 49.9915 87.4929 49.9009 88.3375 49.8094C88.3729 49.8055 88.4083 49.8017 88.4448 49.7977C88.7962 49.7597 89.1476 49.7214 89.499 49.683C89.5505 49.6774 89.6021 49.6718 89.6552 49.666C89.7483 49.6557 89.8415 49.6453 89.9346 49.6347C90.1336 49.612 90.3277 49.594 90.5281 49.5969C90.5705 49.5973 90.6128 49.5978 90.6565 49.5982C90.6873 49.5988 90.7182 49.5994 90.75 49.6C90.5719 49.7187 90.3894 49.7733 90.1871 49.8365C90.1003 49.8641 90.0135 49.8918 89.9267 49.9195C89.8807 49.9341 89.8347 49.9487 89.7873 49.9637C86.9256 50.8743 84.1287 51.9972 81.4 53.25C81.3515 53.2722 81.3029 53.2944 81.2529 53.3172C80.4991 53.6619 79.75 54.0155 79.0037 54.3761C78.8533 54.4484 78.7026 54.5199 78.5518 54.5912C77.2759 55.1954 76.0198 55.839 74.8 56.55C74.7458 56.5814 74.6915 56.6127 74.6356 56.6451C72.2269 57.9514 72.2269 57.9514 70.743 60.1265C70.6325 60.5726 70.5818 60.9861 70.5813 61.4469C70.58 61.502 70.5788 61.5571 70.5775 61.614C70.5762 61.9981 70.6441 62.2997 70.8 62.65C70.8248 62.7065 70.8495 62.763 70.875 62.8213C71.1081 63.2699 71.4076 63.6309 71.75 64C71.7857 64.0387 71.8214 64.0773 71.8582 64.1172C72.1178 64.3864 72.4069 64.6185 72.7 64.85C72.7759 64.9104 72.7759 64.9104 72.8533 64.9721C73.8432 65.7524 74.9401 66.4066 76.05 67C76.0937 67.0234 76.1374 67.0467 76.1824 67.0708C77.3689 67.7074 77.3689 67.7074 78.6 68.25C78.4379 68.3021 78.3264 68.2962 78.1605 68.2621C78.1131 68.2526 78.0656 68.2431 78.0167 68.2333C77.9656 68.2225 77.9144 68.2118 77.8617 68.2008C77.8084 68.19 77.7551 68.1791 77.7002 68.168C77.5292 68.1332 77.3584 68.0979 77.1875 68.0625C77.0192 68.028 76.8509 67.9937 76.6826 67.9594C76.5732 67.937 76.4638 67.9147 76.3545 67.8922C75.9949 67.8186 75.6349 67.7487 75.2737 67.6833C75.1431 67.6583 75.0139 67.6311 74.8842 67.6017C74.6422 67.5472 74.3989 67.5019 74.1547 67.458C74.1085 67.4496 74.0623 67.4412 74.0148 67.4326C73.8682 67.406 73.7216 67.3796 73.575 67.3531C73.4783 67.3356 73.3815 67.318 73.2848 67.3005C72.8172 67.2157 72.3494 67.132 71.8814 67.0499C71.697 67.0174 71.5129 66.9839 71.3291 66.9486C70.7945 66.846 70.2583 66.7626 69.7188 66.6906C69.6565 66.6823 69.5943 66.6739 69.5302 66.6653C69.1541 66.6163 68.7785 66.5762 68.4 66.55C68.3598 66.5471 68.3195 66.5443 68.2781 66.5414C67.2675 66.4814 65.8582 66.7337 65.05 67.4C64.5165 67.9335 64.4791 68.669 64.4781 69.3844C64.4803 69.9386 64.5193 70.3908 64.75 70.9C64.7696 70.9448 64.7892 70.9897 64.8095 71.0359C65.7519 73.1685 67.216 75.076 68.65 76.9C68.699 76.9624 68.7479 77.0248 68.7969 77.0873C68.8867 77.2018 68.9767 77.3163 69.0668 77.4306C69.16 77.5491 69.253 77.6677 69.3457 77.7865C69.5747 78.0795 69.8041 78.3708 70.05 78.65C70.0335 78.683 70.017 78.716 70 78.75C69.9484 78.7123 69.8968 78.6747 69.8436 78.6359C68.8622 77.9224 67.8618 77.2382 66.8563 76.5594C66.8104 76.5284 66.7646 76.4974 66.7174 76.4655C65.9791 75.9669 65.2356 75.4771 64.4813 75.0031C64.4012 74.9527 64.3212 74.9023 64.2412 74.8519C64.2014 74.8269 64.1616 74.8018 64.1206 74.776C64.0004 74.7002 63.8803 74.6242 63.7604 74.548C63.271 74.2376 62.779 73.932 62.2836 73.6313C62.1316 73.5388 61.9797 73.4458 61.8279 73.3529C61.0424 72.8727 60.251 72.4042 59.45 71.95C59.3968 71.9197 59.3435 71.8895 59.2887 71.8583C57.77 70.9974 56.2266 70.1889 54.6 69.55C54.5911 69.5816 54.5822 69.6133 54.573 69.6459C53.8187 72.2907 51.6896 74.9144 49.6 76.65C49.5735 76.6724 49.547 76.6949 49.5197 76.7181C47.3323 78.5687 44.7842 79.5552 41.9 79.4C41.1943 79.3407 40.4902 79.2348 39.8082 79.0416C39.6395 78.9972 39.473 78.9717 39.3 78.95C38.7902 79.6712 38.2919 80.3999 37.7976 81.1317C37.6909 81.2896 37.584 81.4474 37.4771 81.6052C36.505 83.0331 36.505 83.0331 35.5711 84.4861C35.4323 84.7084 35.291 84.9291 35.15 85.15C35.0638 84.9439 35.1434 84.7658 35.2082 84.5648C35.2319 84.488 35.2555 84.4111 35.279 84.3343C35.291 84.2952 35.303 84.2561 35.3153 84.2158C35.368 84.04 35.4148 83.8629 35.4606 83.6851C35.4694 83.651 35.4782 83.6169 35.4873 83.5817C35.5146 83.4753 35.5417 83.3689 35.5688 83.2625C35.5832 83.2058 35.5832 83.2058 35.598 83.1479C35.6658 82.8821 35.7331 82.6161 35.8 82.35C35.8151 82.2902 35.8302 82.2304 35.8457 82.1688C36.059 81.3182 36.249 80.4626 36.4375 79.6062C36.4554 79.525 36.4554 79.525 36.4737 79.442C36.5818 78.9503 36.6898 78.4584 36.7914 77.9652C36.803 77.9094 36.8145 77.8536 36.8264 77.7961C36.8486 77.6587 36.8625 77.5385 36.85 77.4C36.7699 77.2915 36.6914 77.1978 36.6 77.1C35.5314 75.8943 35.0511 74.2164 35.0416 72.6242C35.0413 72.5725 35.0413 72.5725 35.041 72.5198C35.0405 72.409 35.0405 72.2982 35.0406 72.1875C35.0407 72.1495 35.0407 72.1115 35.0408 72.0724C35.0441 70.8291 35.1971 69.6972 35.7 68.55C35.7281 68.4847 35.7561 68.4194 35.784 68.3541C35.8058 68.3032 35.8276 68.2524 35.85 68.2C35.1826 67.6152 34.5161 67.508 33.6592 67.5391C33.2118 67.5697 32.7813 67.6826 32.35 67.8C32.2787 67.8189 32.2787 67.8189 32.206 67.8382C28.4679 68.8502 24.1908 70.7598 21.45 73.55C21.417 73.5335 21.384 73.517 21.35 73.5C21.3755 73.4732 21.4011 73.4464 21.4274 73.4187C21.7515 73.0693 22.0336 72.6967 22.3159 72.3134C22.4034 72.1955 22.4918 72.0783 22.5805 71.9613C23.649 70.5508 24.6466 69.0772 25.5016 67.5265C25.5867 67.3724 25.6772 67.2222 25.7688 67.0719C26.2106 66.3183 26.5515 65.4999 26.9 64.7C26.8154 64.6981 26.8154 64.6981 26.7291 64.6961C25.1924 64.6467 23.7817 64.2719 22.6953 63.141C22.2411 62.6131 22.0935 61.9398 22.0899 61.2599C22.0896 61.2182 22.0893 61.1764 22.089 61.1334C22.0885 61.0451 22.0882 60.9568 22.088 60.8685C22.0875 60.7366 22.086 60.6048 22.0844 60.4729C22.0808 59.8999 22.1355 59.3613 22.25 58.8C22.2592 58.7538 22.2683 58.7076 22.2777 58.66C22.5689 57.285 23.2513 55.9742 24.15 54.9C24.1952 54.8452 24.2404 54.7905 24.2856 54.7357C24.5449 54.4238 24.8138 54.1217 25.0881 53.8228C25.229 53.6681 25.365 53.5099 25.5 53.35C25.3801 53.0659 25.1304 52.8944 24.9 52.7C24.8731 52.6773 24.8462 52.6545 24.8185 52.6311C24.4141 52.2929 23.9933 51.987 23.556 51.6928C23.2981 51.5189 23.0472 51.3387 22.8 51.15C22.5144 50.9321 22.2226 50.7261 21.925 50.525C21.5935 50.3009 21.2711 50.0686 20.9529 49.826C20.6992 49.6338 20.4387 49.4532 20.175 49.275C19.8436 49.051 19.5212 48.8188 19.2033 48.5762C18.9464 48.3816 18.6826 48.1991 18.4156 48.0187C18.091 47.7994 17.7795 47.5713 17.4713 47.3293C17.2653 47.1708 17.0496 47.0267 16.8344 46.8812C16.4976 46.6536 16.1693 46.4183 15.8457 46.1724C15.5764 45.9682 15.3018 45.7727 15.0251 45.5787C14.762 45.3942 14.5009 45.2072 14.2406 45.0187C13.9777 44.8283 13.7144 44.6384 13.45 44.45C12.9929 44.1241 12.5383 43.7946 12.0834 43.4657C11.7062 43.1929 11.329 42.9202 10.95 42.65C9.70822 41.7641 9.70822 41.7641 9.33145 41.4635C9.25695 41.4054 9.1786 41.3524 9.10001 41.3C9.10001 41.267 9.10001 41.234 9.10001 41.2C9.33467 41.2749 9.56183 41.3638 9.78907 41.4584C9.86705 41.4906 9.94504 41.5228 10.023 41.5551C10.064 41.572 10.105 41.589 10.1472 41.6065C11.0948 41.9985 12.0467 42.3789 13.0016 42.7527C13.22 42.8382 13.4383 42.924 13.6566 43.0098C13.8401 43.0819 14.0237 43.1539 14.2073 43.2258C14.2944 43.26 14.3815 43.2942 14.4685 43.3284C14.9332 43.511 15.3988 43.6888 15.8708 43.8516C16.0649 43.9186 16.255 43.9912 16.4438 44.0719C16.7318 44.1949 17.0244 44.3027 17.3186 44.41C17.6248 44.5219 17.9299 44.6367 18.2344 44.7531C18.605 44.8948 18.976 45.0354 19.3477 45.1742C19.4744 45.2216 19.601 45.2693 19.7275 45.3171C20.2208 45.5034 20.7166 45.6823 21.2135 45.8588C21.8815 46.0962 22.5489 46.3351 23.2147 46.5787C23.7698 46.7817 24.326 46.9813 24.8844 47.175C24.9413 47.1949 24.9983 47.2147 25.057 47.2352C25.4512 47.3709 25.8482 47.489 26.25 47.6C26.2409 47.5422 26.2318 47.4844 26.2225 47.4248C26.1183 46.7411 26.0483 46.0554 25.9848 45.367C25.9614 45.1139 25.9345 44.8617 25.904 44.6094C25.6416 42.3969 26.2053 40.3769 27.5531 38.6031C28.1928 37.7985 28.9354 37.0271 29.75 36.4C29.8139 36.3486 29.8777 36.2972 29.9414 36.2457C30.8532 35.5148 31.8373 34.8815 32.85 34.3C32.8821 34.2815 32.9141 34.263 32.9472 34.2439C33.7359 33.7929 34.5877 33.4339 35.45 33.15C35.4667 32.6677 35.4038 32.1993 35.3438 31.7219C35.3327 31.6321 35.3217 31.5423 35.3106 31.4525C35.251 30.9729 35.186 30.4944 35.1149 30.0164C35.1044 29.9459 35.1044 29.9459 35.0937 29.8739C35.0597 29.6467 35.0251 29.4196 34.9896 29.1926C34.9771 29.1103 34.9645 29.0281 34.952 28.9459C34.9459 28.9086 34.9399 28.8713 34.9337 28.8328C34.9075 28.6598 34.8875 28.5164 34.95 28.35C34.9696 28.3934 34.9892 28.4369 35.0093 28.4816C35.8085 30.2634 35.8085 30.2634 36.7 32C36.7424 32.0794 36.7424 32.0794 36.7857 32.1603C36.9445 32.4709 36.9445 32.4709 37.15 32.75C37.3378 32.7416 37.3378 32.7416 37.4827 32.719C37.6913 32.6953 37.8971 32.6917 38.1068 32.6898C38.1488 32.6895 38.1907 32.6891 38.234 32.6887C38.3674 32.6879 38.5009 32.6876 38.6344 32.6875C38.7031 32.6874 38.7031 32.6874 38.7732 32.6874C39.868 32.6887 40.889 32.8291 41.95 33.1C41.9932 33.111 42.0363 33.122 42.0808 33.1333C43.7624 33.5761 45.3132 34.3373 46.65 35.45C46.6769 35.4721 46.7038 35.4942 46.7315 35.5169C47.3017 35.9854 47.8893 36.4706 48.35 37.05C48.3889 37.0981 48.4277 37.1463 48.4678 37.1959C48.9222 37.7671 49.3675 38.4025 49.6 39.1C49.7134 39.0664 49.8266 39.0324 49.9397 38.9974C50.0505 38.9646 50.1622 38.9347 50.2744 38.9072C50.906 38.7388 51.4103 38.4109 51.95 38.05C52.002 38.0153 52.054 37.9807 52.1076 37.9449C52.7124 37.5405 53.3125 37.1292 53.9 36.7C53.9351 36.6745 53.9702 36.6489 54.0064 36.6226C54.5614 36.2187 55.1076 35.8047 55.6473 35.3806C55.7427 35.3057 55.8382 35.2311 55.9338 35.1566C56.3467 34.8343 56.7539 34.5052 57.1596 34.1738C57.2396 34.1085 57.3198 34.0433 57.4 33.9781C57.7259 33.7128 58.0471 33.4422 58.3674 33.1701C58.4485 33.1012 58.5298 33.0325 58.6111 32.9639C59.343 32.3486 59.343 32.3486 60.0594 31.7156C60.2208 31.5689 60.3858 31.4298 60.5563 31.2937C60.8364 31.0674 61.0975 30.8228 61.3583 30.5746C61.5538 30.3888 61.7527 30.2084 61.9564 30.0317C62.0877 29.9171 62.2157 29.7994 62.3438 29.6812C62.5272 29.5124 62.7112 29.3445 62.8969 29.1781C63.3898 28.7354 63.8734 28.2824 64.3574 27.8299C64.4887 27.7071 64.6203 27.5846 64.752 27.4623C64.7851 27.4314 64.8183 27.4006 64.8525 27.3688C64.9152 27.3105 64.9779 27.2523 65.0407 27.1941C65.2208 27.0264 65.3962 26.8552 65.5687 26.6797C65.6511 26.5989 65.7367 26.5242 65.825 26.45C66.0693 26.24 66.2931 26.0095 66.5185 25.7797C66.6681 25.628 66.8189 25.4818 66.9813 25.3437C67.2961 25.0722 67.5829 24.7704 67.875 24.475C67.9931 24.3556 68.1113 24.2363 68.2297 24.1172C68.2559 24.0905 68.2821 24.0639 68.3091 24.0365C68.4465 23.8983 68.587 23.7667 68.735 23.64C68.95 23.4525 69.1523 23.2544 69.3534 23.0522C69.3915 23.0142 69.4296 22.9761 69.4689 22.9368C69.5934 22.8122 69.7178 22.6875 69.8422 22.5627C69.9291 22.4757 70.0159 22.3888 70.1028 22.3019C70.3304 22.074 70.5579 21.8461 70.7854 21.6181C71.0179 21.385 71.2506 21.1521 71.4832 20.9192C71.9389 20.463 72.3945 20.0065 72.85 19.55Z" fill="#FEC748"/>
<path d="M90.5281 49.5969C90.5917 49.5975 90.5917 49.5975 90.6565 49.5982C90.6873 49.5988 90.7182 49.5994 90.75 49.6C90.5719 49.7187 90.3894 49.7733 90.1871 49.8365C90.1003 49.8641 90.0135 49.8918 89.9267 49.9195C89.8807 49.9341 89.8347 49.9487 89.7873 49.9637C86.9256 50.8743 84.1287 51.9972 81.4 53.25C81.3272 53.2833 81.3272 53.2833 81.2529 53.3172C80.4991 53.6618 79.75 54.0155 79.0037 54.3761C78.8533 54.4484 78.7026 54.5199 78.5518 54.5912C77.2759 55.1953 76.0198 55.8389 74.8 56.55C74.7458 56.5814 74.6915 56.6127 74.6356 56.6451C72.2269 57.9514 72.2269 57.9514 70.743 60.1265C70.6325 60.5726 70.5818 60.9861 70.5813 61.4468C70.58 61.502 70.5788 61.5571 70.5775 61.6139C70.5762 61.998 70.6441 62.2997 70.8 62.65C70.8371 62.7348 70.8371 62.7348 70.875 62.8213C71.1081 63.2698 71.4076 63.6309 71.75 64C71.7857 64.0386 71.8214 64.0773 71.8582 64.1172C72.1178 64.3864 72.4069 64.6185 72.7 64.85C72.7759 64.9104 72.7759 64.9104 72.8533 64.972C73.8432 65.7524 74.9401 66.4066 76.05 67C76.0937 67.0234 76.1374 67.0467 76.1824 67.0708C77.3689 67.7074 77.3689 67.7074 78.6 68.25C78.4379 68.3021 78.3264 68.2962 78.1605 68.2621C78.0893 68.2478 78.0893 68.2478 78.0167 68.2333C77.9656 68.2225 77.9144 68.2118 77.8617 68.2008C77.8084 68.1899 77.7551 68.1791 77.7002 68.168C77.5292 68.1332 77.3584 68.0979 77.1875 68.0625C77.0192 68.028 76.8509 67.9937 76.6826 67.9594C76.5732 67.937 76.4638 67.9146 76.3545 67.8922C75.9949 67.8186 75.6349 67.7487 75.2737 67.6833C75.1431 67.6582 75.0139 67.631 74.8842 67.6017C74.6422 67.5472 74.3989 67.5019 74.1547 67.458C74.1085 67.4496 74.0623 67.4412 74.0148 67.4326C73.8682 67.406 73.7216 67.3796 73.575 67.3531C73.4783 67.3356 73.3815 67.318 73.2848 67.3005C72.8172 67.2157 72.3494 67.132 71.8814 67.0499C71.697 67.0174 71.5129 66.9839 71.3291 66.9486C70.7945 66.846 70.2583 66.7626 69.7188 66.6906C69.6565 66.6823 69.5943 66.6739 69.5302 66.6653C69.1541 66.6163 68.7785 66.5761 68.4 66.55C68.3598 66.5471 68.3195 66.5443 68.2781 66.5414C67.2675 66.4814 65.8582 66.7337 65.05 67.4C64.5165 67.9335 64.4791 68.669 64.4781 69.3844C64.4803 69.9386 64.5193 70.3908 64.75 70.9C64.7696 70.9448 64.7892 70.9897 64.8095 71.0359C65.7519 73.1684 67.216 75.076 68.65 76.9C68.699 76.9624 68.7479 77.0248 68.7969 77.0873C68.8867 77.2018 68.9767 77.3163 69.0668 77.4306C69.16 77.549 69.253 77.6677 69.3457 77.7865C69.5747 78.0795 69.8041 78.3708 70.05 78.65C70.0335 78.683 70.017 78.716 70 78.75C69.9484 78.7123 69.8968 78.6747 69.8436 78.6359C68.8622 77.9224 67.8618 77.2382 66.8563 76.5594C66.7875 76.5129 66.7875 76.5129 66.7174 76.4655C65.9791 75.9669 65.2356 75.4771 64.4813 75.0031C64.4012 74.9527 64.3212 74.9023 64.2412 74.8519C64.2014 74.8269 64.1616 74.8018 64.1206 74.776C64.0004 74.7002 63.8803 74.6242 63.7604 74.548C63.271 74.2376 62.779 73.932 62.2836 73.6313C62.1316 73.5388 61.9797 73.4458 61.8279 73.3529C61.0424 72.8727 60.251 72.4042 59.45 71.95C59.3968 71.9197 59.3435 71.8895 59.2887 71.8583C57.77 70.9974 56.2266 70.1889 54.6 69.55C54.5866 69.5975 54.5866 69.5975 54.573 69.6459C53.8187 72.2907 51.6896 74.9144 49.6 76.65C49.5735 76.6724 49.547 76.6949 49.5197 76.718C47.3323 78.5686 44.7842 79.5552 41.9 79.4C41.1943 79.3407 40.4902 79.2348 39.8082 79.0416C39.6395 78.9972 39.473 78.9717 39.3 78.95C38.7902 79.6712 38.2919 80.3999 37.7976 81.1317C37.6909 81.2896 37.584 81.4474 37.4771 81.6052C36.505 83.0331 36.505 83.0331 35.5711 84.4861C35.4323 84.7084 35.291 84.9291 35.15 85.15C35.0638 84.9439 35.1434 84.7657 35.2082 84.5648C35.2319 84.488 35.2555 84.4111 35.279 84.3343C35.297 84.2756 35.297 84.2756 35.3153 84.2158C35.368 84.04 35.4148 83.8628 35.4606 83.6851C35.4694 83.651 35.4782 83.6169 35.4873 83.5817C35.5146 83.4753 35.5417 83.3689 35.5688 83.2625C35.5784 83.2247 35.5881 83.1869 35.598 83.1479C35.6658 82.8821 35.7331 82.6161 35.8 82.35C35.8151 82.2902 35.8302 82.2304 35.8457 82.1688C36.059 81.3182 36.249 80.4626 36.4375 79.6062C36.4494 79.552 36.4614 79.4979 36.4737 79.442C36.5818 78.9503 36.6898 78.4584 36.7914 77.9652C36.803 77.9094 36.8145 77.8536 36.8264 77.796C36.8486 77.6587 36.8625 77.5385 36.85 77.4C36.7699 77.2915 36.6914 77.1978 36.6 77.1C35.5314 75.8943 35.0511 74.2164 35.0416 72.6242C35.0414 72.5897 35.0412 72.5553 35.041 72.5198C35.0405 72.409 35.0405 72.2982 35.0406 72.1875C35.0407 72.1495 35.0407 72.1115 35.0408 72.0724C35.0441 70.8291 35.1971 69.6972 35.7 68.55C35.7281 68.4847 35.7561 68.4194 35.784 68.3541C35.8058 68.3032 35.8276 68.2524 35.85 68.2C35.1826 67.6151 34.5161 67.508 33.6592 67.5391C33.2118 67.5697 32.7813 67.6826 32.35 67.8C32.3025 67.8126 32.255 67.8252 32.206 67.8382C28.4679 68.8501 24.1908 70.7598 21.45 73.55C21.417 73.5335 21.384 73.517 21.35 73.5C21.3883 73.4598 21.3883 73.4598 21.4273 73.4187C21.7515 73.0693 22.0336 72.6966 22.3159 72.3134C22.4034 72.1955 22.4918 72.0783 22.5805 71.9613C23.649 70.5508 24.6466 69.0772 25.5016 67.5265C25.5867 67.3724 25.6772 67.2222 25.7688 67.0719C26.2106 66.3183 26.5515 65.4998 26.9 64.7C26.8436 64.6987 26.7872 64.6974 26.7291 64.6961C25.1924 64.6467 23.7817 64.2719 22.6953 63.141C22.2411 62.613 22.0935 61.9397 22.0898 61.2599C22.0896 61.2182 22.0893 61.1764 22.089 61.1334C22.0885 61.0451 22.0882 60.9568 22.088 60.8685C22.0875 60.7366 22.086 60.6048 22.0844 60.4729C22.0808 59.8999 22.1355 59.3613 22.25 58.8C22.2592 58.7538 22.2683 58.7076 22.2777 58.66C22.5688 57.2853 23.251 55.9737 24.15 54.9C24.1728 54.8725 24.1957 54.845 24.2192 54.8167C24.4908 54.4898 24.7684 54.1682 25.05 53.85C25.05 54.0525 24.9733 54.1027 24.8406 54.2531C24.3178 54.8777 24.1442 55.5878 24.1398 56.3918C24.1394 56.4546 24.1394 56.4546 24.139 56.5187C24.1385 56.6072 24.1382 56.6957 24.138 56.7842C24.1375 56.9166 24.136 57.049 24.1344 57.1814C24.1288 58.0763 24.1848 59.2241 24.85 59.9C25.563 60.5879 26.6405 60.7856 27.5977 60.7768C29.0131 60.7265 30.1833 59.6883 31.2 58.8C31.3133 58.7018 31.4269 58.604 31.5406 58.5062C31.5693 58.4815 31.598 58.4567 31.6276 58.4312C31.8519 58.2386 32.0816 58.0534 32.3125 57.8687C32.5984 57.6398 32.861 57.402 33.1139 57.1365C33.1423 57.1079 33.1707 57.0794 33.2 57.05C33.2165 57.05 33.233 57.05 33.25 57.05C33.2523 57.0889 33.2545 57.1279 33.2568 57.168C33.3773 59.2054 33.7094 61.3516 35.275 62.8203C36.5754 63.967 38.2645 64.1307 39.9258 64.0363C40.7016 63.9807 41.5248 63.8583 42.2 63.45C42.233 63.4335 42.266 63.417 42.3 63.4C42.2051 63.6997 42.0947 63.9871 41.9688 64.275C41.647 65.0286 41.3486 65.7968 41.1531 66.5937C41.1438 66.631 41.1344 66.6683 41.1248 66.7067C40.9582 67.438 40.9323 68.1955 40.9342 68.9426C40.9344 69.0717 40.9332 69.2007 40.9319 69.3298C40.9271 70.5936 41.1212 72.0334 42.0232 72.9933C42.4565 73.4219 43.0108 73.6659 43.6 73.8C43.6487 73.8111 43.6487 73.8111 43.6984 73.8224C45.7445 74.2672 48.0509 73.8393 49.8094 72.7094C50.8929 71.9577 51.7068 70.9935 52.35 69.85C52.3672 69.8197 52.3845 69.7894 52.4022 69.7582C52.6236 69.372 52.6236 69.372 52.75 68.95C52.7821 68.8637 52.8143 68.7775 52.8484 68.692C53.2221 67.7533 53.3732 66.7993 53.5 65.8C53.4439 65.8102 53.3877 65.8205 53.3299 65.831C53.2543 65.8446 53.1787 65.8583 53.1031 65.8719C53.0664 65.8786 53.0296 65.8853 52.9917 65.8923C51.9034 66.0871 50.6346 66.1898 49.55 65.95C49.4978 65.9389 49.4456 65.9278 49.3918 65.9164C48.2611 65.6357 47.2213 64.9501 46.2594 64.3156C46.2283 64.2951 46.1971 64.2746 46.1651 64.2535C45.9563 64.1126 45.9563 64.1126 45.9 64C45.9561 64.0066 46.0123 64.0133 46.0701 64.0201C46.1457 64.029 46.2213 64.0379 46.2969 64.0469C46.3337 64.0512 46.3704 64.0556 46.4083 64.06C46.4452 64.0644 46.4821 64.0687 46.5201 64.0732C46.5534 64.0771 46.5866 64.0811 46.6209 64.0851C46.6635 64.09 46.7061 64.0949 46.75 64.1C46.7816 64.1041 46.8133 64.1082 46.8459 64.1125C47.142 64.1491 47.4338 64.158 47.732 64.1584C47.8073 64.1586 47.8073 64.1586 47.884 64.1589C47.9899 64.1591 48.0958 64.1592 48.2017 64.1592C48.36 64.1593 48.5183 64.1603 48.6766 64.1612C52.0619 64.1707 55.0832 62.886 57.6169 60.6719C57.6743 60.6222 57.7322 60.5731 57.7906 60.5245C58.0659 60.2944 58.281 60.034 58.5 59.75C58.5311 59.7097 58.5621 59.6694 58.5941 59.6279C58.8418 59.2908 59.0215 58.9266 59.2 58.55C59.2165 58.55 59.233 58.55 59.25 58.55C59.2664 59.0103 59.219 59.4462 59.1438 59.9C59.1382 59.9338 59.1327 59.9676 59.127 60.0025C59.0309 60.5838 58.9018 61.1456 58.7 61.7C58.6829 61.7477 58.6829 61.7477 58.6655 61.7963C58.2892 62.8215 57.6195 63.6509 56.75 64.3C56.7014 64.3363 56.6528 64.3726 56.6027 64.4099C56.1571 64.7299 55.6826 64.9905 55.2 65.25C56.1295 65.7955 57.1383 66.1243 58.2 66.3C58.2332 66.3055 58.2663 66.311 58.3005 66.3167C59.3594 66.4853 60.4549 66.4779 61.5219 66.4125C61.5566 66.4103 61.5914 66.4082 61.6271 66.406C62.4608 66.3531 63.2655 66.2434 64.0502 65.9476C64.194 65.9019 64.3005 65.89 64.45 65.9C64.45 65.867 64.45 65.834 64.45 65.8C64.4953 65.7818 64.5406 65.7636 64.5873 65.7449C64.7468 65.6791 64.9046 65.6111 65.0617 65.5399C65.135 65.5068 65.2087 65.4748 65.2826 65.4431C65.6984 65.2232 65.8334 64.7636 66 64.35C66.0211 64.3 66.0423 64.2501 66.0641 64.1986C66.4258 63.2873 66.6094 61.9789 66.2639 61.0418C66.1381 60.7626 66.0083 60.4815 65.8127 60.2439C65.792 60.2129 65.7713 60.1819 65.75 60.15C65.8082 59.9754 65.8509 59.9513 65.9969 59.8468C66.6852 59.323 67.1833 58.6538 67.5 57.85C67.5178 57.8095 67.5356 57.769 67.5539 57.7273C67.9794 56.6923 67.927 55.5207 67.674 54.4543C67.6469 54.3366 67.6232 54.2185 67.6 54.1C67.6364 54.0849 67.6727 54.0699 67.7102 54.0544C69.3065 53.3919 70.8656 52.7014 72.2208 51.6115C72.3999 51.4724 72.5159 51.4321 72.7385 51.407C72.8009 51.3999 72.8633 51.3927 72.9276 51.3854C72.9986 51.3777 73.0696 51.3701 73.1406 51.3625C73.217 51.354 73.2933 51.3455 73.3696 51.3371C74.2072 51.2452 75.0463 51.167 75.8851 51.0871C76.9012 50.9903 77.9161 50.8855 78.9307 50.7747C79.8046 50.6793 80.6789 50.593 81.5549 50.519C81.9964 50.4812 82.4357 50.4346 82.8752 50.3779C83.4852 50.2993 84.0964 50.2387 84.7087 50.1804C85.0388 50.1489 85.3689 50.1169 85.699 50.0845C85.7333 50.0812 85.7675 50.0778 85.8028 50.0744C86.6483 49.9915 87.4929 49.9009 88.3375 49.8094C88.3729 49.8055 88.4083 49.8017 88.4448 49.7977C88.7962 49.7596 89.1476 49.7214 89.499 49.683C89.5505 49.6774 89.6021 49.6718 89.6552 49.666C89.7483 49.6557 89.8415 49.6453 89.9346 49.6347C90.1336 49.612 90.3277 49.594 90.5281 49.5969Z" fill="#E29644"/>
<path d="M72.85 19.55C72.85 19.7682 72.7197 19.8879 72.5906 20.0531C72.535 20.1257 72.4795 20.1984 72.424 20.2711C72.3952 20.3088 72.3663 20.3466 72.3366 20.3854C72.1984 20.5683 72.0648 20.7544 71.9313 20.9406C71.7055 21.2549 71.4771 21.5671 71.2469 21.8781C70.9497 22.28 70.6597 22.6866 70.373 23.096C70.2758 23.2345 70.178 23.3727 70.0803 23.5109C69.808 23.896 69.5369 24.2821 69.2667 24.6688C69.1246 24.8722 68.9822 25.0753 68.8387 25.2777C68.3512 25.9666 67.8845 26.669 67.4179 27.3721C67.2501 27.6248 67.0817 27.8771 66.9129 28.1291C66.3951 28.9024 65.8832 29.6786 65.3855 30.4651C65.3064 30.5898 65.227 30.7144 65.1475 30.8389C64.4627 31.9128 63.8092 33.0056 63.1786 34.1121C63.1108 34.2311 63.0427 34.3498 62.9744 34.4685C62.8642 34.6612 62.7563 34.8551 62.65 35.05C62.6281 35.0901 62.6062 35.1303 62.5836 35.1717C61.7447 36.7189 61.0378 38.357 60.55 40.05C60.5396 40.0857 60.5293 40.1214 60.5186 40.1582C60.3886 40.5968 60.3886 40.5968 60.35 41.05C60.3776 41.0357 60.4051 41.0214 60.4335 41.0066C62.0788 40.1572 63.8107 39.5195 65.65 39.25C65.7088 39.2398 65.7677 39.2296 65.8283 39.2191C67.6875 38.9313 69.4738 39.2361 71 40.35C70.8454 40.3966 70.7187 40.4018 70.558 40.3904C66.7832 40.1595 62.8173 41.3083 59.961 43.8285C59.321 44.4006 58.7282 45.0032 58.2125 45.6906C58.1566 45.765 58.1006 45.8393 58.0445 45.9135C58.0203 45.9457 57.9961 45.978 57.9711 46.0113C57.9023 46.0972 57.8294 46.1738 57.75 46.25C57.7443 46.2111 57.7385 46.1722 57.7326 46.1321C57.4563 44.293 57.0311 42.0855 55.4865 40.8599C54.6182 40.2214 53.6515 40.0977 52.6059 40.2387C51.8116 40.3631 51.0293 40.6432 50.3869 41.1369C50.3 41.2 50.3 41.2 50.2 41.2C50.2 41.233 50.2 41.266 50.2 41.3C50.2608 41.3155 50.3217 41.3309 50.3844 41.3469C51.1029 41.5871 51.6524 42.1791 52.05 42.8C52.0794 42.8458 52.1088 42.8916 52.1391 42.9389C52.5518 43.6131 52.7874 44.3203 52.9 45.1C52.8835 45.1495 52.867 45.199 52.85 45.25C52.7914 45.2024 52.7331 45.1544 52.675 45.1062C52.6425 45.0796 52.61 45.0529 52.5766 45.0254C52.5513 45.0005 52.526 44.9756 52.5 44.95C52.5 44.917 52.5 44.884 52.5 44.85C52.4713 44.8366 52.4426 44.8233 52.4131 44.8096C52.2957 44.7477 52.1968 44.6764 52.0906 44.5969C51.4655 44.1575 50.7875 43.8455 50.05 43.65C49.9924 43.6342 49.9924 43.6342 49.9337 43.6181C49.2265 43.4346 48.5102 43.4304 47.7844 43.4281C47.7376 43.4278 47.6907 43.4275 47.6425 43.4272C46.8248 43.4237 46.0478 43.5121 45.2594 43.7344C45.2137 43.7471 45.168 43.7599 45.1209 43.773C43.05 44.3682 41.2155 45.5085 39.4442 46.7042C39.4161 46.7231 39.3881 46.742 39.3592 46.7614C39.2827 46.813 39.2063 46.8646 39.13 46.9163C39.022 46.9858 38.9162 47.0458 38.8 47.1C38.9045 46.1946 39.4543 45.3267 40.0711 44.6846C40.1735 44.5776 40.2704 44.4695 40.3656 44.3562C40.7984 43.8591 41.2763 43.4001 41.8 43C41.8652 42.9494 41.8652 42.9494 41.9316 42.8978C42.1854 42.7066 42.447 42.5367 42.7219 42.3781C42.7515 42.361 42.781 42.3439 42.8115 42.3262C42.9567 42.2445 43.0878 42.186 43.25 42.15C43.1644 40.6542 42.8682 39.2722 42.15 37.95C42.1224 37.8972 42.0947 37.8444 42.0662 37.79C41.843 37.3824 41.5616 37.0417 41.25 36.7C41.2092 36.655 41.1684 36.61 41.1264 36.5637C40.5138 35.9202 39.7509 35.495 38.9 35.25C38.8434 35.232 38.7867 35.214 38.7283 35.1955C38.4114 35.1182 38.0836 35.1325 37.7594 35.1344C37.7075 35.1346 37.7075 35.1346 37.6545 35.1348C35.4452 35.1483 33.2773 36.074 31.5 37.35C31.4718 37.3701 31.4435 37.3902 31.4145 37.4109C30.8263 37.8317 30.2822 38.3113 29.75 38.8C29.7076 38.8386 29.7076 38.8386 29.6644 38.8779C29.1053 39.3877 28.5927 39.9148 28.1182 40.5057C28.0341 40.6084 27.9492 40.7088 27.8615 40.8084C27.2216 41.5355 26.6699 42.3334 26.15 43.15C26.1302 43.1807 26.1104 43.2115 26.09 43.2432C25.9754 43.4303 25.9233 43.5781 25.9125 43.7969C25.9097 43.8448 25.9068 43.8926 25.9039 43.942C25.9026 43.9776 25.9013 44.0133 25.9 44.05C25.8835 44.05 25.867 44.05 25.85 44.05C25.805 41.6112 26.564 39.5639 28.2662 37.7867C28.7394 37.2969 29.2094 36.8162 29.75 36.4C29.8139 36.3486 29.8777 36.2972 29.9414 36.2457C30.8532 35.5148 31.8373 34.8815 32.85 34.3C32.8821 34.2815 32.9141 34.263 32.9472 34.2439C33.7359 33.7929 34.5877 33.4339 35.45 33.15C35.4667 32.6677 35.4038 32.1993 35.3438 31.7219C35.3327 31.6321 35.3217 31.5423 35.3106 31.4525C35.251 30.9729 35.186 30.4944 35.1148 30.0164C35.1079 29.9694 35.1009 29.9224 35.0937 29.8739C35.0597 29.6467 35.0251 29.4196 34.9896 29.1926C34.9771 29.1103 34.9645 29.0281 34.952 28.9459C34.9459 28.9086 34.9399 28.8713 34.9337 28.8328C34.9075 28.6598 34.8875 28.5164 34.95 28.35C34.9696 28.3934 34.9892 28.4369 35.0093 28.4816C35.8085 30.2634 35.8085 30.2634 36.7 32C36.7283 32.0529 36.7566 32.1058 36.7857 32.1603C36.9445 32.4709 36.9445 32.4709 37.15 32.75C37.3378 32.7416 37.3378 32.7416 37.4827 32.719C37.6913 32.6953 37.8971 32.6917 38.1068 32.6898C38.1488 32.6895 38.1907 32.6891 38.234 32.6887C38.3674 32.6879 38.5009 32.6876 38.6344 32.6875C38.7031 32.6874 38.7031 32.6874 38.7732 32.6874C39.868 32.6887 40.889 32.8291 41.95 33.1C42.0147 33.1165 42.0147 33.1165 42.0808 33.1333C43.7624 33.5761 45.3132 34.3373 46.65 35.45C46.6769 35.4721 46.7038 35.4942 46.7315 35.5169C47.3017 35.9854 47.8892 36.4706 48.35 37.05C48.3889 37.0981 48.4277 37.1463 48.4678 37.1959C48.9222 37.7671 49.3675 38.4025 49.6 39.1C49.7134 39.0664 49.8266 39.0324 49.9397 38.9974C50.0505 38.9646 50.1622 38.9347 50.2744 38.9072C50.906 38.7388 51.4103 38.4109 51.95 38.05C52.002 38.0153 52.054 37.9807 52.1076 37.9449C52.7124 37.5405 53.3125 37.1292 53.9 36.7C53.9351 36.6745 53.9702 36.6489 54.0064 36.6226C54.5614 36.2187 55.1076 35.8047 55.6473 35.3806C55.7427 35.3057 55.8382 35.2311 55.9338 35.1566C56.3467 34.8343 56.7539 34.5052 57.1596 34.1738C57.2396 34.1085 57.3198 34.0433 57.4 33.9781C57.7259 33.7128 58.0471 33.4422 58.3674 33.1701C58.4485 33.1012 58.5298 33.0325 58.6111 32.9639C59.343 32.3486 59.343 32.3486 60.0594 31.7156C60.2208 31.5689 60.3858 31.4298 60.5563 31.2937C60.8364 31.0674 61.0975 30.8228 61.3583 30.5746C61.5538 30.3888 61.7527 30.2084 61.9564 30.0317C62.0877 29.9171 62.2157 29.7994 62.3438 29.6812C62.5271 29.5124 62.7112 29.3445 62.8969 29.1781C63.3898 28.7354 63.8734 28.2824 64.3574 27.8299C64.4887 27.7071 64.6203 27.5846 64.752 27.4623C64.7851 27.4314 64.8183 27.4006 64.8525 27.3688C64.9152 27.3105 64.9779 27.2523 65.0407 27.1941C65.2208 27.0264 65.3962 26.8552 65.5687 26.6797C65.6511 26.5989 65.7367 26.5242 65.825 26.45C66.0693 26.24 66.2931 26.0095 66.5185 25.7797C66.6681 25.628 66.8189 25.4818 66.9813 25.3437C67.2961 25.0722 67.5829 24.7704 67.875 24.475C67.9931 24.3556 68.1113 24.2363 68.2297 24.1172C68.269 24.0772 68.269 24.0772 68.3091 24.0365C68.4465 23.8983 68.587 23.7667 68.735 23.64C68.95 23.4525 69.1523 23.2544 69.3534 23.0522C69.3915 23.0142 69.4296 22.9761 69.4689 22.9368C69.5934 22.8122 69.7178 22.6875 69.8422 22.5627C69.929 22.4757 70.0159 22.3888 70.1028 22.3019C70.3304 22.074 70.5579 21.8461 70.7854 21.6181C71.0179 21.385 71.2506 21.1521 71.4832 20.9192C71.9389 20.463 72.3945 20.0065 72.85 19.55Z" fill="#FEF369"/>
<path d="M90.5281 49.5969C90.5916 49.5975 90.5916 49.5975 90.6564 49.5982C90.6873 49.5988 90.7182 49.5994 90.75 49.6C90.5719 49.7187 90.3894 49.7733 90.1871 49.8365C90.1003 49.8641 90.0135 49.8918 89.9267 49.9195C89.8807 49.9341 89.8346 49.9487 89.7872 49.9637C86.9255 50.8743 84.1286 51.9972 81.4 53.25C81.3514 53.2722 81.3029 53.2944 81.2529 53.3172C80.4991 53.6618 79.75 54.0155 79.0037 54.3761C78.8533 54.4484 78.7026 54.5199 78.5518 54.5912C77.2759 55.1953 76.0198 55.8389 74.8 56.55C74.7457 56.5814 74.6915 56.6127 74.6356 56.6451C72.2269 57.9514 72.2269 57.9514 70.743 60.1265C70.6324 60.5726 70.5818 60.9861 70.5812 61.4468C70.58 61.502 70.5788 61.5571 70.5775 61.6139C70.5762 61.998 70.6441 62.2997 70.8 62.65C70.8371 62.7348 70.8371 62.7348 70.875 62.8213C71.1081 63.2698 71.4075 63.6309 71.75 64C71.7857 64.0386 71.8214 64.0773 71.8582 64.1172C72.1178 64.3864 72.4069 64.6185 72.7 64.85C72.7506 64.8903 72.8012 64.9305 72.8533 64.972C73.8432 65.7524 74.9401 66.4066 76.05 67C76.0937 67.0234 76.1373 67.0467 76.1823 67.0708C77.3689 67.7074 77.3689 67.7074 78.6 68.25C78.4379 68.3021 78.3264 68.2962 78.1605 68.2621C78.113 68.2526 78.0656 68.2431 78.0167 68.2333C77.94 68.2172 77.94 68.2172 77.8617 68.2008C77.8084 68.1899 77.7551 68.1791 77.7002 68.168C77.5292 68.1332 77.3583 68.0979 77.1875 68.0625C77.0192 68.028 76.8509 67.9937 76.6826 67.9594C76.5732 67.937 76.4638 67.9146 76.3544 67.8922C75.9949 67.8186 75.6348 67.7487 75.2737 67.6833C75.143 67.6582 75.0139 67.631 74.8842 67.6017C74.6421 67.5472 74.3989 67.5019 74.1547 67.458C74.1085 67.4496 74.0623 67.4412 74.0147 67.4326C73.8682 67.406 73.7216 67.3796 73.575 67.3531C73.4782 67.3356 73.3815 67.318 73.2848 67.3005C72.8172 67.2157 72.3494 67.132 71.8813 67.0499C71.697 67.0174 71.5129 66.9839 71.3291 66.9486C70.7945 66.846 70.2583 66.7626 69.7187 66.6906C69.6565 66.6823 69.5943 66.6739 69.5302 66.6653C69.1541 66.6163 68.7784 66.5761 68.4 66.55C68.3598 66.5471 68.3195 66.5443 68.2781 66.5414C67.2674 66.4814 65.8582 66.7337 65.05 67.4C64.5165 67.9335 64.4791 68.669 64.4781 69.3844C64.4803 69.9386 64.5193 70.3908 64.75 70.9C64.7794 70.9672 64.7794 70.9672 64.8094 71.0359C65.7519 73.1684 67.216 75.076 68.65 76.9C68.699 76.9624 68.7479 77.0248 68.7969 77.0873C68.8867 77.2018 68.9767 77.3163 69.0668 77.4306C69.16 77.549 69.253 77.6677 69.3457 77.7865C69.5747 78.0795 69.8041 78.3708 70.05 78.65C70.0335 78.683 70.017 78.716 70 78.75C69.9484 78.7123 69.8967 78.6747 69.8435 78.6359C68.8622 77.9224 67.8618 77.2382 66.8562 76.5594C66.7875 76.5129 66.7875 76.5129 66.7173 76.4655C65.9791 75.9669 65.2356 75.4771 64.4812 75.0031C64.4012 74.9527 64.3212 74.9023 64.2412 74.8519C64.2014 74.8269 64.1616 74.8018 64.1206 74.776C64.0004 74.7002 63.8803 74.6242 63.7603 74.548C63.271 74.2376 62.779 73.932 62.2836 73.6313C62.1315 73.5388 61.9797 73.4458 61.8279 73.3529C61.0424 72.8727 60.251 72.4042 59.45 71.95C59.3968 71.9197 59.3435 71.8895 59.2887 71.8583C57.9692 71.1103 56.6314 70.4072 55.2371 69.809C55.0406 69.7244 54.8452 69.6374 54.65 69.55C54.697 69.3111 54.7446 69.0727 54.7977 68.8351C54.914 68.3084 54.9977 67.7869 55.05 67.25C55.2247 67.351 55.3838 67.4616 55.5437 67.5844C56.043 67.9462 56.5364 68.1977 57.1281 68.3687C57.1694 68.3807 57.2107 68.3926 57.2532 68.4049C57.9308 68.5878 58.5959 68.6174 59.2933 68.6158C59.4366 68.6156 59.5798 68.6168 59.723 68.618C61.4345 68.6239 63.0095 68.1455 64.3 67C64.3409 66.9638 64.3818 66.9277 64.424 66.8904C64.9111 66.4328 65.402 65.8069 65.6406 65.1781C65.7203 64.9721 65.8071 64.7705 65.8969 64.5687C66.3485 63.5134 66.6758 62.1587 66.2639 61.0418C66.1381 60.7626 66.0082 60.4815 65.8127 60.2439C65.792 60.2129 65.7713 60.1819 65.75 60.15C65.8082 59.9754 65.8509 59.9513 65.9969 59.8468C66.6852 59.323 67.1833 58.6538 67.5 57.85C67.5178 57.8095 67.5356 57.769 67.5539 57.7273C67.9793 56.6923 67.927 55.5207 67.674 54.4543C67.6469 54.3366 67.6232 54.2185 67.6 54.1C67.6363 54.0849 67.6727 54.0699 67.7101 54.0544C69.3065 53.3919 70.8655 52.7014 72.2208 51.6115C72.3998 51.4724 72.5158 51.4321 72.7385 51.407C72.8009 51.3999 72.8633 51.3927 72.9276 51.3854C72.9986 51.3777 73.0696 51.3701 73.1406 51.3625C73.2169 51.354 73.2933 51.3455 73.3696 51.3371C74.2072 51.2452 75.0463 51.167 75.8851 51.0871C76.9011 50.9903 77.9161 50.8855 78.9307 50.7747C79.8046 50.6793 80.6789 50.593 81.5549 50.519C81.9964 50.4812 82.4357 50.4346 82.8752 50.3779C83.4852 50.2993 84.0964 50.2387 84.7087 50.1804C85.0388 50.1489 85.3689 50.1169 85.699 50.0845C85.7332 50.0812 85.7675 50.0778 85.8027 50.0744C86.6482 49.9915 87.4929 49.9009 88.3375 49.8094C88.3729 49.8055 88.4083 49.8017 88.4448 49.7977C88.7962 49.7596 89.1476 49.7214 89.499 49.683C89.5505 49.6774 89.602 49.6718 89.6551 49.666C89.7483 49.6557 89.8415 49.6453 89.9346 49.6347C90.1336 49.612 90.3277 49.594 90.5281 49.5969Z" fill="#D56638"/>
<path d="M72.85 19.55C72.85 19.7682 72.7197 19.8879 72.5906 20.0531C72.535 20.1257 72.4795 20.1984 72.424 20.2711C72.3952 20.3088 72.3663 20.3466 72.3366 20.3854C72.1984 20.5683 72.0648 20.7544 71.9313 20.9406C71.7055 21.2549 71.4771 21.5671 71.2469 21.8781C70.9497 22.28 70.6597 22.6866 70.3729 23.096C70.2758 23.2345 70.178 23.3727 70.0803 23.5109C69.808 23.896 69.5369 24.2821 69.2667 24.6688C69.1246 24.8722 68.9822 25.0753 68.8387 25.2777C68.3511 25.9666 67.8844 26.669 67.4179 27.3721C67.2501 27.6248 67.0817 27.8771 66.9129 28.1291C66.3951 28.9024 65.8832 29.6786 65.3855 30.4651C65.3064 30.5898 65.227 30.7144 65.1475 30.8389C64.4627 31.9128 63.8092 33.0056 63.1786 34.1121C63.1108 34.2311 63.0427 34.3498 62.9744 34.4685C62.8642 34.6612 62.7563 34.8551 62.65 35.05C62.6171 35.1102 62.6171 35.1102 62.5836 35.1717C61.8179 36.584 61.1741 38.066 60.6844 39.5969C60.6724 39.6336 60.6603 39.6703 60.648 39.7082C60.5833 39.9138 60.5376 40.1146 60.5041 40.3277C60.4297 40.7501 60.3649 41.0875 60.0092 41.3576C59.775 41.5124 59.5303 41.6459 59.2822 41.7769C59.102 41.8765 58.9416 41.9934 58.7813 42.1219C58.7322 42.1609 58.6832 42.1999 58.6326 42.24C58.4519 42.3899 58.2734 42.5417 58.1 42.7C57.9398 42.6199 57.9214 42.4516 57.8656 42.2906C57.3684 40.9174 56.4797 39.6802 55.2 38.95C55.1575 38.9249 55.1149 38.8998 55.0711 38.874C54.7192 38.6812 54.3384 38.5905 53.95 38.5C53.8901 38.4853 53.8901 38.4853 53.8289 38.4703C53.1084 38.3568 52.3619 38.4878 51.65 38.6C51.5787 38.6108 51.5073 38.6215 51.4359 38.6322C51.2905 38.6542 51.1452 38.6767 51 38.7C51.1032 38.5903 51.2054 38.5089 51.3338 38.4305C51.3705 38.4077 51.4072 38.385 51.4451 38.3616C51.4849 38.3371 51.5246 38.3127 51.5656 38.2875C52.3644 37.7897 53.1395 37.2543 53.9 36.7C53.9353 36.6743 53.9707 36.6486 54.0071 36.6222C54.5618 36.2184 55.1078 35.8045 55.6473 35.3806C55.7427 35.3057 55.8382 35.2311 55.9338 35.1566C56.3467 34.8343 56.7539 34.5052 57.1596 34.1738C57.2396 34.1085 57.3198 34.0433 57.4 33.9781C57.7259 33.7128 58.0471 33.4422 58.3674 33.1701C58.4485 33.1012 58.5298 33.0325 58.6111 32.9639C59.343 32.3486 59.343 32.3486 60.0594 31.7156C60.2208 31.5689 60.3858 31.4298 60.5563 31.2937C60.8364 31.0674 61.0975 30.8228 61.3583 30.5746C61.5538 30.3888 61.7527 30.2084 61.9564 30.0317C62.0877 29.9171 62.2157 29.7994 62.3438 29.6812C62.5271 29.5124 62.7112 29.3445 62.8969 29.1781C63.3898 28.7354 63.8734 28.2824 64.3574 27.8299C64.4887 27.7071 64.6203 27.5846 64.752 27.4623C64.7851 27.4314 64.8183 27.4006 64.8525 27.3688C64.9152 27.3105 64.9779 27.2523 65.0407 27.1941C65.2208 27.0264 65.3962 26.8552 65.5687 26.6797C65.6511 26.5989 65.7367 26.5242 65.825 26.45C66.0693 26.24 66.2931 26.0095 66.5185 25.7797C66.6681 25.628 66.8189 25.4818 66.9813 25.3437C67.2961 25.0722 67.5829 24.7704 67.875 24.475C67.9931 24.3556 68.1113 24.2363 68.2297 24.1172C68.269 24.0772 68.269 24.0772 68.3091 24.0365C68.4465 23.8983 68.587 23.7668 68.735 23.64C68.95 23.4525 69.1523 23.2544 69.3534 23.0522C69.3915 23.0142 69.4296 22.9761 69.4689 22.9368C69.5934 22.8122 69.7178 22.6875 69.8422 22.5627C69.929 22.4757 70.0159 22.3888 70.1028 22.3019C70.3304 22.074 70.5579 21.8461 70.7854 21.6181C71.0179 21.385 71.2505 21.1521 71.4832 20.9192C71.9389 20.463 72.3945 20.0065 72.85 19.55Z" fill="#D66738"/>
<path d="M9.10001 41.2C9.33467 41.2749 9.56183 41.3638 9.78907 41.4584C9.86705 41.4906 9.94504 41.5229 10.023 41.5551C10.064 41.5721 10.105 41.589 10.1472 41.6065C11.0948 41.9986 12.0467 42.3789 13.0016 42.7527C13.22 42.8382 13.4383 42.924 13.6566 43.0098C13.8401 43.082 14.0237 43.1539 14.2073 43.2259C14.2944 43.26 14.3815 43.2942 14.4685 43.3284C14.9332 43.511 15.3988 43.6888 15.8708 43.8516C16.0649 43.9187 16.255 43.9912 16.4438 44.0719C16.7318 44.195 17.0244 44.3027 17.3186 44.41C17.6248 44.5219 17.9299 44.6367 18.2344 44.7531C18.605 44.8948 18.976 45.0354 19.3477 45.1743C19.4744 45.2216 19.601 45.2693 19.7275 45.3172C20.2208 45.5035 20.7166 45.6823 21.2135 45.8589C21.8815 46.0962 22.5489 46.3352 23.2147 46.5787C23.8815 46.8226 24.5506 47.058 25.2225 47.2873C25.2755 47.3058 25.3286 47.3243 25.3833 47.3433C25.503 47.384 25.6224 47.4225 25.7432 47.4594C25.807 47.4799 25.8709 47.5004 25.9348 47.5209C25.9925 47.5386 26.0502 47.5564 26.1096 47.5747C26.25 47.65 26.25 47.65 26.3229 47.7941C26.364 47.9629 26.3835 48.1271 26.4 48.3C26.5836 49.4281 27.0192 50.5585 27.652 51.5129C27.7 51.6 27.7 51.6 27.7 51.75C27.6355 51.7846 27.6355 51.7846 27.5697 51.8199C27.0558 52.1012 26.6008 52.4308 26.159 52.8152C26.1272 52.8428 26.0955 52.8705 26.0628 52.8989C26.0012 52.9529 25.9399 53.0073 25.879 53.0621C25.6662 53.25 25.6662 53.25 25.5 53.25C25.4017 53.1661 25.3106 53.0812 25.2188 52.9906C24.6503 52.4491 24.0081 52.0004 23.3658 51.5516C23.1422 51.3951 22.921 51.2353 22.7 51.075C22.4097 50.8647 22.1182 50.6562 21.825 50.45C21.4935 50.2169 21.1646 49.9805 20.8365 49.7428C20.584 49.56 20.33 49.3793 20.075 49.2C19.7435 48.9669 19.4146 48.7305 19.0865 48.4928C18.834 48.31 18.58 48.1293 18.325 47.95C17.8422 47.6104 17.3644 47.2641 16.8865 46.9177C16.4842 46.6263 16.0813 46.3358 15.675 46.05C15.2686 45.7641 14.8657 45.4736 14.4633 45.1821C14.2757 45.0462 14.0878 44.9106 13.9 44.775C13.6726 44.6108 13.4453 44.4466 13.218 44.2822C12.8792 44.0373 12.5404 43.7926 12.2 43.55C11.8209 43.2798 11.4437 43.0069 11.0664 42.7341C10.9506 42.6505 10.8348 42.5669 10.719 42.4834C10.2443 42.1412 9.77087 41.7974 9.30001 41.45C9.26017 41.4223 9.22034 41.3946 9.1793 41.366C9.15314 41.3442 9.12697 41.3225 9.10001 41.3C9.10001 41.267 9.10001 41.234 9.10001 41.2Z" fill="#D56539"/>
<path d="M32.35 63.85C32.36 63.8852 32.3701 63.9204 32.3804 63.9566C32.7629 65.2853 33.2238 66.5435 34.5 67.25C35.0286 67.5362 35.6138 67.6066 36.2 67.7C36.1175 67.8485 36.035 67.997 35.95 68.15C35.754 68.101 35.6602 68.0467 35.4969 67.9344C34.7 67.4281 33.84 67.4533 32.9344 67.65C32.7385 67.6962 32.5442 67.7471 32.35 67.8C32.3025 67.8126 32.255 67.8252 32.206 67.8382C28.4679 68.8501 24.1908 70.7598 21.45 73.55C21.417 73.5335 21.384 73.517 21.35 73.5C21.3883 73.4598 21.3883 73.4598 21.4273 73.4187C21.7515 73.0693 22.0336 72.6966 22.3159 72.3134C22.4034 72.1955 22.4918 72.0783 22.5805 71.9613C23.649 70.5508 24.6466 69.0772 25.5016 67.5265C25.5867 67.3724 25.6772 67.2222 25.7688 67.0719C26.1484 66.4246 26.4557 65.7266 26.7447 65.0348C26.8017 64.9001 26.8454 64.8046 26.95 64.7C27.0748 64.6856 27.0748 64.6856 27.2326 64.6828C27.2906 64.6814 27.3485 64.68 27.4082 64.6786C27.4705 64.6774 27.5327 64.6762 27.5969 64.675C29.123 64.6306 30.6176 64.3609 32.0713 63.8867C32.2 63.85 32.2 63.85 32.35 63.85Z" fill="#CE5A3D"/>
<path d="M56.7938 47.9375C56.8545 47.9371 56.9153 47.9367 56.9779 47.9363C57.9205 47.9384 58.8516 48.2445 59.5535 48.8969C59.7578 49.1152 59.9308 49.3539 60.1 49.6C60.1316 49.6458 60.1632 49.6915 60.1957 49.7387C60.8056 50.6979 60.9113 51.8574 60.9188 52.9656C60.9192 52.999 60.9196 53.0324 60.92 53.0668C60.9286 54.0083 60.7553 54.7942 60.1074 55.5068C59.997 55.6026 59.9391 55.6214 59.8 55.65C59.8012 55.587 59.8023 55.5239 59.8035 55.459C59.828 53.5392 59.5292 51.5865 58.15 50.15C57.2031 49.1825 56.0323 48.8302 54.75 48.55C54.922 48.408 55.1115 48.3152 55.3125 48.2219C55.3598 48.1991 55.3598 48.1991 55.408 48.1759C55.8726 47.9587 56.2853 47.9343 56.7938 47.9375Z" fill="#FEF368"/>
<path d="M36.9 77.45C37.0434 77.519 37.1431 77.5851 37.2563 77.6969C37.8443 78.2196 38.5797 78.5529 39.3 78.85C39.223 79.0792 39.0942 79.2598 38.9531 79.4531C38.6893 79.8213 38.432 80.1936 38.1781 80.5688C38.1589 80.5972 38.1396 80.6256 38.1198 80.6549C38.0128 80.813 37.906 80.9711 37.7992 81.1293C37.6918 81.2883 37.5842 81.4471 37.4766 81.6059C36.5048 83.0335 36.5048 83.0335 35.5711 84.4861C35.4323 84.7084 35.291 84.9291 35.15 85.15C35.0638 84.9439 35.1434 84.7658 35.2082 84.5649C35.2319 84.488 35.2555 84.4112 35.279 84.3343C35.291 84.2952 35.303 84.2561 35.3153 84.2159C35.368 84.04 35.4148 83.8629 35.4606 83.6852C35.4694 83.651 35.4782 83.6169 35.4873 83.5817C35.5146 83.4754 35.5417 83.3689 35.5688 83.2625C35.5784 83.2247 35.5881 83.1869 35.598 83.148C35.6658 82.8821 35.7331 82.6161 35.8 82.35C35.8151 82.2902 35.8302 82.2304 35.8457 82.1688C36.2377 80.6059 36.571 79.0273 36.9 77.45Z" fill="#D4633B"/>
<path d="M79.45 39.65C79.5677 39.8265 79.5807 39.9224 79.5746 40.1299C79.5099 40.4456 79.2278 40.6421 78.975 40.8156C78.127 41.3217 77.2103 41.6685 76.2835 41.9981C75.9463 42.1184 75.6121 42.2461 75.2781 42.375C75.2249 42.3955 75.1716 42.416 75.1167 42.437C74.9085 42.5175 74.7016 42.5983 74.4981 42.6901C74.3364 42.7555 74.2633 42.7544 74.1 42.7C74.2599 42.5259 74.4399 42.4016 74.6375 42.275C75.1643 41.93 75.6662 41.5548 76.1501 41.1518C77.0103 40.4371 78.268 39.545 79.45 39.65Z" fill="#E07734"/>
<path d="M46.3 24.65C46.3956 24.7456 46.3601 24.9183 46.3602 25.048C46.3596 25.6452 46.2962 26.2376 46.2375 26.8312C46.2318 26.8898 46.2261 26.9484 46.2203 27.0087C45.8651 30.6697 45.8651 30.6697 45.6 31.2C45.5505 31.2 45.501 31.2 45.45 31.2C45.4465 30.4998 45.4439 29.7995 45.4422 29.0993C45.4414 28.7741 45.4404 28.4489 45.4387 28.1237C45.437 27.8096 45.4362 27.4955 45.4358 27.1813C45.4355 27.0618 45.435 26.9423 45.4341 26.8228C45.433 26.6546 45.4329 26.4865 45.433 26.3184C45.4324 26.2696 45.4319 26.2208 45.4313 26.1705C45.4338 25.6045 45.5466 25.0629 45.95 24.6469C46.0846 24.5838 46.161 24.6049 46.3 24.65Z" fill="#D96C39"/>
<path d="M34.9 28.35C35.0187 28.497 35.0968 28.6405 35.1713 28.8138C35.1943 28.8666 35.2172 28.9194 35.2409 28.9739C35.2779 29.0595 35.2779 29.0595 35.3156 29.1469C35.7991 30.2494 36.329 31.3269 36.8926 32.3908C36.9638 32.5262 37.0324 32.6627 37.1 32.8C37.0384 32.8127 36.9768 32.8254 36.9133 32.8385C36.4563 32.9333 36.0014 33.031 35.55 33.15C35.4418 32.5672 35.3659 31.9822 35.2973 31.3936C35.212 30.6644 35.1061 29.9386 34.9965 29.2128C34.9901 29.1701 34.9837 29.1274 34.9771 29.0835C34.9651 29.0033 34.9529 28.9232 34.9406 28.8431C34.9155 28.6757 34.9 28.5197 34.9 28.35Z" fill="#D7693B"/>
<path d="M73.0828 81.884C73.4501 82.0909 73.7834 82.3519 73.95 82.75C74.0018 83.0602 73.9829 83.3357 73.8 83.6C73.585 83.7433 73.402 83.747 73.15 83.7C72.6587 83.4344 72.3312 82.828 72.0719 82.35C72.0545 82.3182 72.0372 82.2865 72.0193 82.2538C71.9314 82.0853 71.9 81.9946 71.9 81.8C72.2849 81.6717 72.7181 81.7146 73.0828 81.884Z" fill="#E27A32"/>
<path d="M19.1 75.95C19.0839 76.6674 18.8356 77.2719 18.35 77.8C17.7326 78.3654 17.7326 78.3654 17.4156 78.3563C17.3752 78.3554 17.3348 78.3545 17.2932 78.3535C17.2624 78.3524 17.2317 78.3512 17.2 78.35C17.0897 78.1489 17.063 77.9762 17.1 77.75C17.2355 77.3643 17.483 77.0539 17.75 76.75C17.7809 76.7144 17.8117 76.6787 17.8436 76.642C18.1614 76.2991 18.6178 75.95 19.1 75.95Z" fill="#DE7436"/>
<path d="M77.85 14.85C77.95 14.95 77.95 14.95 77.9688 15.1125C77.9465 15.335 77.8873 15.4255 77.75 15.6C77.716 15.6464 77.6819 15.6928 77.6469 15.7406C77.4442 15.976 77.1949 16.161 76.95 16.35C76.915 16.3771 76.88 16.4043 76.8439 16.4322C75.5224 17.45 75.5224 17.45 75.1 17.45C75.1738 17.2281 75.2955 17.0612 75.4406 16.8812C75.4649 16.8509 75.4891 16.8205 75.5141 16.7892C75.9197 16.2854 76.3415 15.8002 76.7969 15.3406C76.8276 15.3094 76.8583 15.2782 76.89 15.2461C77.2008 14.9375 77.3994 14.7448 77.85 14.85Z" fill="#E27B33"/>
<path d="M33.6 23.3C33.6613 23.4187 33.6613 23.4187 33.7205 23.5752C33.7421 23.6319 33.7638 23.6886 33.786 23.747C33.8082 23.8068 33.8303 23.8665 33.8531 23.9281C33.8755 23.9865 33.8978 24.045 33.9208 24.1052C34.3142 25.1477 34.3142 25.1477 34.1469 25.5906C34.0162 25.7381 33.8724 25.8049 33.7 25.9C33.6064 25.646 33.5139 25.3917 33.4223 25.1371C33.3911 25.0506 33.3595 24.9643 33.3277 24.8781C33.2818 24.7535 33.2369 24.6286 33.1922 24.5035C33.178 24.4656 33.1638 24.4277 33.1491 24.3887C33.0513 24.1107 33.0134 23.8445 33.05 23.55C33.1322 23.4338 33.1322 23.4338 33.2406 23.3656C33.276 23.3417 33.3114 23.3178 33.3479 23.2932C33.45 23.25 33.45 23.25 33.6 23.3Z" fill="#DE7637"/>
<path d="M84.2 69.4C84.2256 69.4707 84.2507 69.5417 84.2756 69.6127C84.2896 69.6522 84.3037 69.6916 84.3181 69.7323C84.3638 69.9009 84.3443 70.0329 84.3 70.2C84.1788 70.3212 84.1425 70.3164 83.9756 70.3195C83.6791 70.3133 83.4538 70.2165 83.1906 70.0875C83.1481 70.0677 83.1056 70.0479 83.0618 70.0275C82.8176 69.9125 82.5824 69.7871 82.35 69.65C82.35 69.617 82.35 69.584 82.35 69.55C82.9731 69.4144 83.5632 69.3822 84.2 69.4Z" fill="#E27D37"/>
<path d="M21.75 73.05C21.783 73.083 21.816 73.116 21.85 73.15C21.718 73.282 21.586 73.414 21.45 73.55C21.417 73.5335 21.384 73.517 21.35 73.5C21.482 73.3515 21.614 73.203 21.75 73.05Z" fill="#E28F6B"/>
<path d="M24.5 54.5C24.533 54.5165 24.566 54.533 24.6 54.55C24.3625 54.7938 24.3625 54.7938 24.25 54.85C24.3146 54.7058 24.383 54.6064 24.5 54.5Z" fill="#DF8149"/>
</svg>
