<svg width="100" height="100" viewBox="0 0 100 100" fill="none" xmlns="http://www.w3.org/2000/svg">
<path d="M60 20.627C60.5689 21.1078 61.1213 21.6087 61.6562 22.127C63.5623 23.9393 65.61 24.232 68.123 24.7793C69.8688 25.2201 70.8636 25.7162 72 27.127C72.5312 28.8145 72.5312 28.8145 72.5 30.627C71.5312 32.3457 71.5312 32.3457 70.5 33.627C71.0414 33.7816 71.0414 33.7816 71.5938 33.9395C73.3957 34.8204 74.5803 35.8563 75.5 37.627C75.7267 38.9148 75.8127 40.1632 75.875 41.4688C75.9254 42.7177 75.9254 42.7177 76.8125 43.9395C77.6518 45.3891 77.6616 46.4815 77.3965 48.125C76.6616 49.9821 75.1038 51.0215 73.5 52.127C73.665 52.622 73.83 53.117 74 53.627C74.285 58.0445 74.285 58.0445 72.5 60.127C70.9062 61.0332 70.9062 61.0332 69.5 61.627C69.7829 61.868 70.0659 62.1091 70.3574 62.3574C70.9075 62.8312 70.9075 62.8312 71.4688 63.3145C71.8342 63.6277 72.1996 63.9409 72.5762 64.2637C73.592 65.2129 73.9512 65.7273 74.1191 67.1035C74.209 69.8837 73.9455 71.4869 72 73.627C69.3152 75.9423 66.4705 76.5336 63.0566 77.2148C61.5492 77.6139 60.6065 78.0815 59.3438 78.9707C57.4313 80.2923 55.7817 80.5294 53.5 80.127C52.1966 79.7627 50.9225 79.3627 49.6484 78.9063C48.359 78.5927 47.7485 78.7391 46.5 79.127C43.6455 79.3082 42.4232 79.1803 40 77.627C39.1492 77.5341 39.1492 77.5341 38.2812 77.4395C35.4582 76.9442 34.0895 75.3405 32.3125 73.1895C31.3359 71.3115 31.1905 70.2159 31.5 68.127C32.5 66.9707 32.5 66.9707 33.5 66.127C33.5 65.797 33.5 65.467 33.5 65.127C32.9673 64.865 32.9673 64.865 32.4238 64.5977C31.9643 64.3701 31.5047 64.1426 31.0312 63.9082C30.573 63.682 30.1147 63.4557 29.6426 63.2227C28.5 62.627 28.5 62.627 28 62.127C28.0448 61.2812 28.1229 60.4372 28.2188 59.5957C28.2697 59.1362 28.3206 58.6766 28.373 58.2031C28.4149 57.848 28.4568 57.4929 28.5 57.127C28.0359 56.9826 27.5719 56.8382 27.0938 56.6895C25.5 56.127 25.5 56.127 24 55.127C23.9062 53.3145 23.9062 53.3145 24 51.627C24.495 51.3795 24.495 51.3795 25 51.127C25 50.797 25 50.467 25 50.127C24.3967 49.8176 24.3967 49.8176 23.7812 49.502C22.5 48.627 22.5 48.627 22.0938 47.0332C22.0473 46.3371 22.0473 46.3371 22 45.627C23.485 44.472 24.97 43.317 26.5 42.127C26.17 41.467 25.84 40.807 25.5 40.127C25.2127 37.5409 25.2127 37.5409 25.5 36.127C26.3117 35.2725 27.1466 34.4397 28 33.627C28.2867 32.6834 28.2867 32.6834 28.4375 31.6582C28.8701 29.4992 29.8467 28.5252 31.5801 27.2207C34.6877 25.2149 37.9263 25.5229 41.5 25.627C41.6905 25.0575 41.6905 25.0575 41.8848 24.4766C43.0803 21.8541 45.568 20.5138 48.1562 19.4395C52.2271 18.7495 56.2564 18.6869 60 20.627Z" fill="#D0DEE1"/>
<path d="M75.5 39.627C75.5619 39.9157 75.6238 40.2045 75.6875 40.502C75.9484 41.6198 75.9484 41.6198 76.5 42.502C77.2425 44.1726 77.5256 45.7985 77.5 47.627C76.6269 49.7127 75.1294 51.0857 73.5 52.627C73.7475 53.122 73.7475 53.122 74 53.627C74.1722 56.2533 74.2887 58.0401 72.5 60.127C70.9063 61.0332 70.9063 61.0332 69.5 61.627C69.783 61.868 70.0659 62.1091 70.3574 62.3574C70.7242 62.6732 71.0909 62.9891 71.4688 63.3145C71.8342 63.6277 72.1997 63.9409 72.5762 64.2637C73.592 65.2129 73.9513 65.7273 74.1192 67.1035C74.209 69.8837 73.9455 71.4869 72 73.627C69.3152 75.9423 66.4705 76.5336 63.0567 77.2148C61.5492 77.6139 60.6065 78.0815 59.3438 78.9707C57.4313 80.2923 55.7817 80.5294 53.5 80.127C52.1966 79.7627 50.9225 79.3627 49.6485 78.9062C48.359 78.5927 47.7485 78.7391 46.5 79.127C43.6455 79.3082 42.4232 79.1803 40 77.627C39.1492 77.5341 39.1492 77.5341 38.2813 77.4395C35.4582 76.9442 34.0895 75.3405 32.3125 73.1895C31.3646 71.3666 31.3379 70.1537 31.5 68.127C31.665 68.457 31.83 68.787 32 69.127C32.719 69.0561 33.4377 68.9827 34.1563 68.9082C34.5565 68.8676 34.9568 68.827 35.3692 68.7852C36.5805 68.6506 36.5805 68.6506 38 68.127C38.1444 68.6013 38.2888 69.0757 38.4375 69.5645C38.8841 71.153 38.8841 71.153 40 72.127C43.1438 72.5225 45.7832 72.3498 48.5 70.627C49.625 70.002 49.625 70.002 50.5 69.627C50.995 69.8745 50.995 69.8745 51.5 70.127C52.6685 70.2638 52.6685 70.2638 53.9688 70.2832C54.4064 70.3019 54.844 70.3206 55.2949 70.3398C56.5547 70.2337 56.5547 70.2337 57.377 69.2734C58.1603 67.9669 58.1603 67.9669 58.5 65.627C60.15 65.132 61.8 64.637 63.5 64.127C63.7795 60.8485 63.7795 60.8485 62.4375 57.9395C59.6452 55.3899 57.2322 54.9013 53.5938 54.8145C49.5532 54.6801 49.5532 54.6801 49 54.127C48.9294 52.7917 48.9788 51.4648 49 50.127C49.2482 50.2713 49.4963 50.4157 49.752 50.5645C52.0949 51.8448 53.7684 52.4362 56.5 52.127C56.8887 51.9574 57.2773 51.7879 57.6777 51.6133C59.5685 50.9178 61.2523 51.1267 63.2383 51.2383C64.5193 51.2384 64.5193 51.2384 65.3965 50.4434C66.0829 49.5149 66.3051 48.7574 66.5 47.627C67.0672 47.4929 67.6344 47.3588 68.2188 47.2207C68.8066 47.0248 69.3944 46.8288 70 46.627C70.4585 45.2516 70.5544 44.4472 70.5313 43.0332C70.521 42.4041 70.5106 41.7751 70.5 41.127C72.15 40.962 73.8 40.797 75.5 40.627C75.5 40.297 75.5 39.967 75.5 39.627Z" fill="#A0B2BC"/>
<path d="M60 20.627C60.5688 21.1078 61.1212 21.6087 61.6562 22.127C63.5619 23.9389 65.608 24.2352 68.123 24.7734C69.8212 25.2094 70.8411 25.8083 72 27.127C72.4062 28.252 72.4062 28.252 72.5 29.127C71.2116 30.4714 70.405 30.639 68.5312 30.877C65.8082 30.8002 63.4891 29.7745 61.0078 28.7227C58.4039 27.6409 58.4039 27.6409 55.7324 28.1074C55.3154 28.3407 54.8984 28.5741 54.4687 28.8145C51.7569 30.3103 49.8912 30.6966 46.7812 30.6895C46.225 30.6907 45.6688 30.692 45.0957 30.6934C43.5 30.627 43.5 30.627 42.1855 30.2695C40.9509 29.9984 40.9509 29.9984 39.8594 30.8086C39.4933 31.1302 39.1272 31.4518 38.75 31.7832C36.5096 33.7278 34.6721 34.777 31.6562 34.7207C31.2727 34.7175 30.8892 34.7143 30.4941 34.7109C29.5 34.627 29.5 34.627 28.5 34.127C28.2861 31.9877 28.3382 30.8931 29.4687 29.0332C31.5908 26.8222 34.0832 25.7325 37.125 25.5059C38.5894 25.5024 40.0385 25.5379 41.5 25.627C41.6904 25.0575 41.6904 25.0575 41.8848 24.4766C43.0802 21.8541 45.568 20.5138 48.1562 19.4395C52.2271 18.7495 56.2564 18.6869 60 20.627Z" fill="#FEFEFE"/>
<path d="M38 51.1269C38.33 52.1169 38.66 53.1069 39 54.1269C39.3919 54.1991 39.7837 54.2712 40.1875 54.3456C41.5 54.6269 41.5 54.6269 42.5 55.1269C38.7947 58.2683 38.7947 58.2683 35.4551 58.2441C34.5 58.1269 34.5 58.1269 33.5 57.3769C33.335 57.1294 33.17 56.8819 33 56.6269C32.505 56.8744 32.505 56.8744 32 57.1269C31.0002 57.1469 29.9998 57.1486 29 57.1269C28.835 57.4569 28.67 57.7869 28.5 58.1269C28.5 57.7969 28.5 57.4669 28.5 57.1269C28.0359 56.9825 27.5719 56.8381 27.0938 56.6894C25.5 56.1269 25.5 56.1269 24 55.1269C23.9062 53.3144 23.9062 53.3144 24 51.6269C24.4641 51.7094 24.9281 51.7919 25.4062 51.8769C29.9443 52.5146 33.7324 50.883 38 51.1269Z" fill="#A0B2BC"/>
<path d="M52 33.627C52.7487 34.2617 53.4974 34.8965 54.2461 35.5312C56.0121 36.9266 57.9035 36.7945 60.0625 36.9082C60.4396 36.9298 60.8166 36.9514 61.2051 36.9736C62.1366 37.0267 63.0683 37.0771 64 37.127C64 37.622 64 38.117 64 38.627C61.4475 40.112 59.5356 40.9772 56.5 40.627C56.17 40.4516 55.84 40.2763 55.5 40.0957C53.9562 39.372 52.669 39.862 51 40.127C47.2409 40.5421 44.9337 40.1593 41.8398 37.9297C41 37.127 41 37.127 40.5 35.627C40.7842 35.6991 41.0685 35.7713 41.3613 35.8457C45.6751 36.9252 45.6751 36.9252 49.9062 35.9707C51.1102 35.135 51.1102 35.135 52 33.627Z" fill="#A2B3BD"/>
<path d="M28 33.627C28.165 33.957 28.33 34.287 28.5 34.627C28.17 34.627 27.84 34.627 27.5 34.627C28.7523 37.5928 30.0098 38.4977 32.9062 39.7207C33.2672 39.8548 33.6281 39.9888 34 40.127C34 40.292 34 40.457 34 40.627C33.6623 40.6933 33.3245 40.7597 32.9766 40.8281C32.3075 40.9606 32.3075 40.9606 31.625 41.0957C31.1841 41.1827 30.7433 41.2697 30.2891 41.3594C29.1838 41.5888 28.0924 41.8436 27 42.127C25.6773 40.8043 25.4907 40.0537 25.25 38.1582C25.3038 36.3596 25.5065 36.1192 26.75 34.627C27.1625 34.297 27.575 33.967 28 33.627Z" fill="#A1B2BD"/>
</svg>
